# Blender 5.1.0
# www.blender.org
mtllib town.mtl
o 平面
v 70.072433 -0.310418 -19.937130
v -70.072433 -0.310418 -19.937130
v 70.072433 -0.310410 79.694366
v -70.072433 -0.310410 79.694366
vn -0.0000 1.0000 -0.0000
vt 1.000000 0.000000
vt 0.000000 1.000000
vt 0.000000 0.000000
vt 1.000000 1.000000
s 1
f 2/1/1 3/2/1 1/3/1
f 2/1/1 4/4/1 3/2/1
o 立方体.005
v -30.104515 -0.593620 40.101574
v -30.104515 -0.000206 40.101574
v -30.104515 -0.593617 80.024445
v -30.104515 -0.000203 80.024445
v -70.027390 -0.593620 40.101574
v -70.027390 -0.000206 40.101574
v -70.027390 -0.593617 80.024445
v -70.027390 -0.000203 80.024445
v 19.961437 -0.593624 -19.961437
v 19.961437 -0.000211 -19.961437
v 19.961437 -0.593621 19.961437
v 19.961437 -0.000207 19.961437
v -19.961437 -0.593624 -19.961437
v -19.961437 -0.000211 -19.961437
v -19.961437 -0.593621 19.961437
v -19.961437 -0.000207 19.961437
v -30.104515 -0.593624 -19.961437
v -30.104515 -0.000211 -19.961437
v -30.104515 -0.593621 19.961437
v -30.104515 -0.000207 19.961437
v -70.027390 -0.593624 -19.961437
v -70.027390 -0.000211 -19.961437
v -70.027390 -0.593621 19.961437
v -70.027390 -0.000207 19.961437
v 70.101624 -0.593624 -19.961437
v 70.101624 -0.000211 -19.961437
v 70.101624 -0.593621 19.961437
v 70.101624 -0.000207 19.961437
v 30.178749 -0.593624 -19.961437
v 30.178749 -0.000211 -19.961437
v 30.178749 -0.593621 19.961437
v 30.178749 -0.000207 19.961437
v 19.961437 -0.593620 40.101574
v 19.961437 -0.000206 40.101574
v 19.961437 -0.593617 80.024445
v 19.961437 -0.000203 80.024445
v -19.961437 -0.593620 40.101574
v -19.961437 -0.000206 40.101574
v -19.961437 -0.593617 80.024445
v -19.961437 -0.000203 80.024445
v 70.101624 -0.593620 40.101574
v 70.101624 -0.000206 40.101574
v 70.101624 -0.593617 80.024445
v 70.101624 -0.000203 80.024445
v 30.178749 -0.593620 40.101574
v 30.178749 -0.000206 40.101574
v 30.178749 -0.593617 80.024445
v 30.178749 -0.000203 80.024445
vn 1.0000 -0.0000 -0.0000
vn -0.0000 -0.0000 1.0000
vn -1.0000 -0.0000 -0.0000
vn -0.0000 -0.0000 -1.0000
vn -0.0000 -1.0000 -0.0000
vn -0.0000 1.0000 -0.0000
vt 0.625000 0.000000
vt 0.375000 0.250000
vt 0.375000 0.000000
vt 0.625000 0.250000
vt 0.375000 0.500000
vt 0.625000 0.500000
vt 0.375000 0.750000
vt 0.625000 0.750000
vt 0.375000 1.000000
vt 0.125000 0.750000
vt 0.125000 0.500000
vt 0.875000 0.500000
vt 0.625000 1.000000
vt 0.875000 0.750000
s 1
f 6/5/2 7/6/2 5/7/2
f 8/8/3 11/9/3 7/6/3
f 12/10/4 9/11/4 11/9/4
f 10/12/5 5/13/5 9/11/5
f 11/9/6 5/14/6 7/15/6
f 8/16/7 10/12/7 12/10/7
f 6/5/2 8/8/2 7/6/2
f 8/8/3 12/10/3 11/9/3
f 12/10/4 10/12/4 9/11/4
f 10/12/5 6/17/5 5/13/5
f 11/9/6 9/11/6 5/14/6
f 8/16/7 6/18/7 10/12/7
f 14/5/2 15/6/2 13/7/2
f 16/8/3 19/9/3 15/6/3
f 20/10/4 17/11/4 19/9/4
f 18/12/5 13/13/5 17/11/5
f 19/9/6 13/14/6 15/15/6
f 16/16/7 18/12/7 20/10/7
f 14/5/2 16/8/2 15/6/2
f 16/8/3 20/10/3 19/9/3
f 20/10/4 18/12/4 17/11/4
f 18/12/5 14/17/5 13/13/5
f 19/9/6 17/11/6 13/14/6
f 16/16/7 14/18/7 18/12/7
f 22/5/2 23/6/2 21/7/2
f 24/8/3 27/9/3 23/6/3
f 28/10/4 25/11/4 27/9/4
f 26/12/5 21/13/5 25/11/5
f 27/9/6 21/14/6 23/15/6
f 24/16/7 26/12/7 28/10/7
f 22/5/2 24/8/2 23/6/2
f 24/8/3 28/10/3 27/9/3
f 28/10/4 26/12/4 25/11/4
f 26/12/5 22/17/5 21/13/5
f 27/9/6 25/11/6 21/14/6
f 24/16/7 22/18/7 26/12/7
f 30/5/2 31/6/2 29/7/2
f 32/8/3 35/9/3 31/6/3
f 36/10/4 33/11/4 35/9/4
f 34/12/5 29/13/5 33/11/5
f 35/9/6 29/14/6 31/15/6
f 32/16/7 34/12/7 36/10/7
f 30/5/2 32/8/2 31/6/2
f 32/8/3 36/10/3 35/9/3
f 36/10/4 34/12/4 33/11/4
f 34/12/5 30/17/5 29/13/5
f 35/9/6 33/11/6 29/14/6
f 32/16/7 30/18/7 34/12/7
f 38/5/2 39/6/2 37/7/2
f 40/8/3 43/9/3 39/6/3
f 44/10/4 41/11/4 43/9/4
f 42/12/5 37/13/5 41/11/5
f 43/9/6 37/14/6 39/15/6
f 40/16/7 42/12/7 44/10/7
f 38/5/2 40/8/2 39/6/2
f 40/8/3 44/10/3 43/9/3
f 44/10/4 42/12/4 41/11/4
f 42/12/5 38/17/5 37/13/5
f 43/9/6 41/11/6 37/14/6
f 40/16/7 38/18/7 42/12/7
f 46/5/2 47/6/2 45/7/2
f 48/8/3 51/9/3 47/6/3
f 52/10/4 49/11/4 51/9/4
f 50/12/5 45/13/5 49/11/5
f 51/9/6 45/14/6 47/15/6
f 48/16/7 50/12/7 52/10/7
f 46/5/2 48/8/2 47/6/2
f 48/8/3 52/10/3 51/9/3
f 52/10/4 50/12/4 49/11/4
f 50/12/5 46/17/5 45/13/5
f 51/9/6 49/11/6 45/14/6
f 48/16/7 46/18/7 50/12/7
o 立方体.008
v -40.329578 -1.346168 29.619036
v -40.329578 0.370358 29.619036
v -40.329578 -1.346168 30.418695
v -40.329578 0.370358 30.418695
v -59.606159 -1.346168 29.619036
v -59.606159 0.370358 29.619036
v -59.606159 -1.346168 30.418695
v -59.606159 0.370358 30.418695
v 9.638291 -1.346168 29.619036
v 9.638291 0.370358 29.619036
v 9.638291 -1.346168 30.418695
v 9.638291 0.370358 30.418695
v -9.638291 -1.346168 29.619036
v -9.638291 0.370358 29.619036
v -9.638291 -1.346168 30.418695
v -9.638291 0.370358 30.418695
v 59.634624 -1.346168 29.619036
v 59.634624 0.370358 29.619036
v 59.634624 -1.346168 30.418695
v 59.634624 0.370358 30.418695
v 40.358044 -1.346168 29.619036
v 40.358044 0.370358 29.619036
v 40.358044 -1.346168 30.418695
v 40.358044 0.370358 30.418695
vn 1.0000 -0.0000 -0.0000
vn -0.0000 -0.0000 1.0000
vn -1.0000 -0.0000 -0.0000
vn -0.0000 -0.0000 -1.0000
vn -0.0000 -1.0000 -0.0000
vn -0.0000 1.0000 -0.0000
vt 0.625000 0.000000
vt 0.375000 0.250000
vt 0.375000 0.000000
vt 0.625000 0.250000
vt 0.375000 0.500000
vt 0.625000 0.500000
vt 0.375000 0.750000
vt 0.625000 0.750000
vt 0.375000 1.000000
vt 0.125000 0.750000
vt 0.125000 0.500000
vt 0.875000 0.500000
vt 0.625000 1.000000
vt 0.875000 0.750000
s 1
f 54/19/8 55/20/8 53/21/8
f 56/22/9 59/23/9 55/20/9
f 60/24/10 57/25/10 59/23/10
f 58/26/11 53/27/11 57/25/11
f 59/23/12 53/28/12 55/29/12
f 56/30/13 58/26/13 60/24/13
f 54/19/8 56/22/8 55/20/8
f 56/22/9 60/24/9 59/23/9
f 60/24/10 58/26/10 57/25/10
f 58/26/11 54/31/11 53/27/11
f 59/23/12 57/25/12 53/28/12
f 56/30/13 54/32/13 58/26/13
f 62/19/8 63/20/8 61/21/8
f 64/22/9 67/23/9 63/20/9
f 68/24/10 65/25/10 67/23/10
f 66/26/11 61/27/11 65/25/11
f 67/23/12 61/28/12 63/29/12
f 64/30/13 66/26/13 68/24/13
f 62/19/8 64/22/8 63/20/8
f 64/22/9 68/24/9 67/23/9
f 68/24/10 66/26/10 65/25/10
f 66/26/11 62/31/11 61/27/11
f 67/23/12 65/25/12 61/28/12
f 64/30/13 62/32/13 66/26/13
f 70/19/8 71/20/8 69/21/8
f 72/22/9 75/23/9 71/20/9
f 76/24/10 73/25/10 75/23/10
f 74/26/11 69/27/11 73/25/11
f 75/23/12 69/28/12 71/29/12
f 72/30/13 74/26/13 76/24/13
f 70/19/8 72/22/8 71/20/8
f 72/22/9 76/24/9 75/23/9
f 76/24/10 74/26/10 73/25/10
f 74/26/11 70/31/11 69/27/11
f 75/23/12 73/25/12 69/28/12
f 72/30/13 70/32/13 74/26/13
o 立方体.011
v -35.884258 -1.617953 -14.477912
v -35.884258 52.500740 -14.477916
v -35.884258 -1.617951 14.477912
v -35.884258 52.500740 14.477908
v -64.840080 -1.617953 -14.477912
v -64.840080 52.500740 -14.477916
v -64.840080 -1.617951 14.477912
v -64.840080 52.500740 14.477908
v 14.477912 -1.617953 -14.477912
v 14.477912 52.500740 -14.477916
v 14.477912 -1.617951 14.477912
v 14.477912 52.500740 14.477908
v -14.477912 -1.617953 -14.477912
v -14.477912 52.500740 -14.477916
v -14.477912 -1.617951 14.477912
v -14.477912 52.500740 14.477908
v 65.564713 -1.617953 -14.477912
v 65.564713 52.500740 -14.477916
v 65.564713 -1.617951 14.477912
v 65.564713 52.500740 14.477908
v 36.608891 -1.617953 -14.477912
v 36.608891 52.500740 -14.477916
v 36.608891 -1.617951 14.477912
v 36.608891 52.500740 14.477908
v 14.477912 -1.617949 45.666836
v 14.477912 52.500744 45.666832
v 14.477912 -1.617946 74.622658
v 14.477912 52.500744 74.622650
v -14.477912 -1.617949 45.666836
v -14.477912 52.500744 45.666832
v -14.477912 -1.617946 74.622658
v -14.477912 52.500744 74.622650
v -35.884258 -1.617949 45.666836
v -35.884258 52.500744 45.666832
v -35.884258 -1.617946 74.622658
v -35.884258 52.500744 74.622650
v -64.840080 -1.617949 45.666836
v -64.840080 52.500744 45.666832
v -64.840080 -1.617946 74.622658
v -64.840080 52.500744 74.622650
v 65.564713 -1.617949 45.666836
v 65.564713 52.500744 45.666832
v 65.564713 -1.617946 74.622658
v 65.564713 52.500744 74.622650
v 36.608891 -1.617949 45.666836
v 36.608891 52.500744 45.666832
v 36.608891 -1.617946 74.622658
v 36.608891 52.500744 74.622650
vn 1.0000 -0.0000 -0.0000
vn -0.0000 -0.0000 1.0000
vn -1.0000 -0.0000 -0.0000
vn -0.0000 -0.0000 -1.0000
vn -0.0000 -1.0000 -0.0000
vn -0.0000 1.0000 -0.0000
vt 0.625000 0.000000
vt 0.375000 0.250000
vt 0.375000 0.000000
vt 0.625000 0.250000
vt 0.375000 0.500000
vt 0.625000 0.500000
vt 0.375000 0.750000
vt 0.625000 0.750000
vt 0.375000 1.000000
vt 0.125000 0.750000
vt 0.125000 0.500000
vt 0.875000 0.500000
vt 0.625000 1.000000
vt 0.875000 0.750000
s 1
f 78/33/14 79/34/14 77/35/14
f 80/36/15 83/37/15 79/34/15
f 84/38/16 81/39/16 83/37/16
f 82/40/17 77/41/17 81/39/17
f 83/37/18 77/42/18 79/43/18
f 80/44/19 82/40/19 84/38/19
f 78/33/14 80/36/14 79/34/14
f 80/36/15 84/38/15 83/37/15
f 84/38/16 82/40/16 81/39/16
f 82/40/17 78/45/17 77/41/17
f 83/37/18 81/39/18 77/42/18
f 80/44/19 78/46/19 82/40/19
f 86/33/14 87/34/14 85/35/14
f 88/36/15 91/37/15 87/34/15
f 92/38/16 89/39/16 91/37/16
f 90/40/17 85/41/17 89/39/17
f 91/37/18 85/42/18 87/43/18
f 88/44/19 90/40/19 92/38/19
f 86/33/14 88/36/14 87/34/14
f 88/36/15 92/38/15 91/37/15
f 92/38/16 90/40/16 89/39/16
f 90/40/17 86/45/17 85/41/17
f 91/37/18 89/39/18 85/42/18
f 88/44/19 86/46/19 90/40/19
f 94/33/14 95/34/14 93/35/14
f 96/36/15 99/37/15 95/34/15
f 100/38/16 97/39/16 99/37/16
f 98/40/17 93/41/17 97/39/17
f 99/37/18 93/42/18 95/43/18
f 96/44/19 98/40/19 100/38/19
f 94/33/14 96/36/14 95/34/14
f 96/36/15 100/38/15 99/37/15
f 100/38/16 98/40/16 97/39/16
f 98/40/17 94/45/17 93/41/17
f 99/37/18 97/39/18 93/42/18
f 96/44/19 94/46/19 98/40/19
f 102/33/14 103/34/14 101/35/14
f 104/36/15 107/37/15 103/34/15
f 108/38/16 105/39/16 107/37/16
f 106/40/17 101/41/17 105/39/17
f 107/37/18 101/42/18 103/43/18
f 104/44/19 106/40/19 108/38/19
f 102/33/14 104/36/14 103/34/14
f 104/36/15 108/38/15 107/37/15
f 108/38/16 106/40/16 105/39/16
f 106/40/17 102/45/17 101/41/17
f 107/37/18 105/39/18 101/42/18
f 104/44/19 102/46/19 106/40/19
f 110/33/14 111/34/14 109/35/14
f 112/36/15 115/37/15 111/34/15
f 116/38/16 113/39/16 115/37/16
f 114/40/17 109/41/17 113/39/17
f 115/37/18 109/42/18 111/43/18
f 112/44/19 114/40/19 116/38/19
f 110/33/14 112/36/14 111/34/14
f 112/36/15 116/38/15 115/37/15
f 116/38/16 114/40/16 113/39/16
f 114/40/17 110/45/17 109/41/17
f 115/37/18 113/39/18 109/42/18
f 112/44/19 110/46/19 114/40/19
f 118/33/14 119/34/14 117/35/14
f 120/36/15 123/37/15 119/34/15
f 124/38/16 121/39/16 123/37/16
f 122/40/17 117/41/17 121/39/17
f 123/37/18 117/42/18 119/43/18
f 120/44/19 122/40/19 124/38/19
f 118/33/14 120/36/14 119/34/14
f 120/36/15 124/38/15 123/37/15
f 124/38/16 122/40/16 121/39/16
f 122/40/17 118/45/17 117/41/17
f 123/37/18 121/39/18 117/42/18
f 120/44/19 118/46/19 122/40/19
