{
	"asset":{
		"generator":"Khronos glTF Blender I/O v4.4.55",
		"version":"2.0"
	},
	"scene":0,
	"scenes":[
		{
			"name":"Scene",
			"nodes":[
				42
			]
		}
	],
	"nodes":[
		{
			"name":"mixamorig:HeadTop_End",
			"rotation":[
				0.7071066498756409,
				0,
				0,
				0.70710688829422
			],
			"scale":[
				1,
				0.9999999403953552,
				0.9999999403953552
			],
			"translation":[
				0,
				-4.4901251792907715,
				19.01654052734375
			]
		},
		{
			"children":[
				0
			],
			"name":"mixamorig:Head",
			"rotation":[
				-8.881785255792436e-16,
				0,
				0,
				1
			],
			"scale":[
				1,
				0.9999999403953552,
				0.9999999403953552
			],
			"translation":[
				0,
				-1.160604476928711,
				4.915390491485596
			]
		},
		{
			"children":[
				1
			],
			"name":"mixamorig:Neck",
			"rotation":[
				-0.6798152327537537,
				0,
				0,
				0.7333834171295166
			],
			"translation":[
				0,
				13.800529479980469,
				-4.76837158203125e-07
			]
		},
		{
			"name":"mixamorig:LeftHandThumb4",
			"rotation":[
				0.00014941676636226475,
				-0.0006341475527733564,
				2.9137599995010532e-05,
				0.9999998211860657
			],
			"scale":[
				0.9999999403953552,
				1,
				0.9999998807907104
			],
			"translation":[
				-0.4284670948982239,
				1.8048193454742432,
				-4.56441193819046e-06
			]
		},
		{
			"children":[
				3
			],
			"name":"mixamorig:LeftHandThumb3",
			"rotation":[
				0.020710941404104233,
				1.3216671504778787e-05,
				-7.787526214997342e-07,
				0.9997855424880981
			],
			"translation":[
				-0.21058115363121033,
				2.2359631061553955,
				-1.9859522581100464e-05
			]
		},
		{
			"children":[
				4
			],
			"name":"mixamorig:LeftHandThumb2",
			"rotation":[
				0.0273356381803751,
				2.461357553329435e-06,
				4.094110579444532e-07,
				0.9996263384819031
			],
			"scale":[
				1,
				0.9999999403953552,
				1.0000001192092896
			],
			"translation":[
				0.6390393972396851,
				1.7469544410705566,
				-1.3470649719238281e-05
			]
		},
		{
			"children":[
				5
			],
			"name":"mixamorig:LeftHandThumb1",
			"rotation":[
				1.1376627298886888e-05,
				-1.3840141946275253e-05,
				0.6253914833068848,
				0.7803111672401428
			],
			"scale":[
				0.9999998807907104,
				0.9999999403953552,
				0.9999999403953552
			],
			"translation":[
				-1.9573352336883545,
				1.2551735639572144,
				-1.3113021850585938e-05
			]
		},
		{
			"name":"mixamorig:LeftHandIndex4",
			"rotation":[
				-4.1518808302498655e-07,
				-0.00036855367943644524,
				2.984854654641822e-05,
				0.9999999403953552
			],
			"scale":[
				0.9999999403953552,
				0.9999998807907104,
				0.9999998211860657
			],
			"translation":[
				0.015833735466003418,
				2.8386175632476807,
				-3.17692756652832e-05
			]
		},
		{
			"children":[
				7
			],
			"name":"mixamorig:LeftHandIndex3",
			"rotation":[
				0.10597170889377594,
				1.2552732187032234e-06,
				1.5207983494747168e-07,
				0.9943691492080688
			],
			"translation":[
				-0.03090059757232666,
				3.3127758502960205,
				5.602836608886719e-06
			]
		},
		{
			"children":[
				8
			],
			"name":"mixamorig:LeftHandIndex2",
			"rotation":[
				-0.09011270850896835,
				-5.384286083653933e-08,
				4.34834106499693e-08,
				0.9959315657615662
			],
			"scale":[
				1,
				1,
				1.0000001192092896
			],
			"translation":[
				0.01506882905960083,
				4.060039520263672,
				2.580881118774414e-05
			]
		},
		{
			"children":[
				9
			],
			"name":"mixamorig:LeftHandIndex1",
			"rotation":[
				-0.03343551233410835,
				-0.00023338766186498106,
				0.006847627926617861,
				0.9994174242019653
			],
			"translation":[
				9.5367431640625e-07,
				3.300800085067749,
				2.86102294921875e-05
			]
		},
		{
			"children":[
				6,
				10
			],
			"name":"mixamorig:LeftHand",
			"rotation":[
				0.054828573018312454,
				-0.0022715625818818808,
				-0.012902040034532547,
				0.9984098672866821
			],
			"scale":[
				0.9999998807907104,
				0.9999999403953552,
				0.9999998807907104
			],
			"translation":[
				7.450580596923828e-08,
				31.765377044677734,
				-1.4007091522216797e-05
			]
		},
		{
			"children":[
				11
			],
			"name":"mixamorig:LeftForeArm",
			"rotation":[
				-0.028803547844290733,
				-0.0007331089582294226,
				0.02541477605700493,
				0.9992616772651672
			],
			"scale":[
				0.9999999403953552,
				0.9999998807907104,
				1
			],
			"translation":[
				7.152557373046875e-07,
				26.19985008239746,
				-3.3020973205566406e-05
			]
		},
		{
			"children":[
				12
			],
			"name":"mixamorig:LeftArm",
			"rotation":[
				-0.10569103807210922,
				0.0017146759200841188,
				-0.016127891838550568,
				0.9942667484283447
			],
			"scale":[
				1,
				0.9999998807907104,
				0.9999998807907104
			],
			"translation":[
				2.384185791015625e-07,
				10.617622375488281,
				1.4841556549072266e-05
			]
		},
		{
			"children":[
				13
			],
			"name":"mixamorig:LeftShoulder",
			"rotation":[
				0.5591130256652832,
				0.42958906292915344,
				-0.5701361298561096,
				0.42165228724479675
			],
			"scale":[
				1.0000001192092896,
				1.0000001192092896,
				1.0000001192092896
			],
			"translation":[
				5.033412456512451,
				12.280263900756836,
				-0.10184574127197266
			]
		},
		{
			"name":"mixamorig:RightHandThumb4",
			"rotation":[
				0.00012884492753073573,
				0.001555201830342412,
				-0.00023647893976885825,
				0.9999988079071045
			],
			"scale":[
				0.9999999403953552,
				0.9999999403953552,
				0.9999999403953552
			],
			"translation":[
				0.1556626260280609,
				1.8914904594421387,
				2.411752939224243e-05
			]
		},
		{
			"children":[
				15
			],
			"name":"mixamorig:RightHandThumb3",
			"rotation":[
				0.10069341212511063,
				-2.3306056391447783e-06,
				-7.273927735695906e-07,
				0.9949175119400024
			],
			"scale":[
				1.0000001192092896,
				1,
				1
			],
			"translation":[
				0.46385833621025085,
				2.230429172515869,
				-2.747960388660431e-05
			]
		},
		{
			"children":[
				16
			],
			"name":"mixamorig:RightHandThumb2",
			"rotation":[
				0.026326080784201622,
				-1.3978526112623513e-05,
				-8.022050224099075e-07,
				0.9996533989906311
			],
			"scale":[
				1,
				0.9999998807907104,
				1
			],
			"translation":[
				-0.619519829750061,
				1.7028813362121582,
				-1.8090009689331055e-05
			]
		},
		{
			"children":[
				17
			],
			"name":"mixamorig:RightHandThumb1",
			"rotation":[
				9.973517080652528e-06,
				1.1302228813292459e-05,
				-0.5846070647239685,
				0.8113166093826294
			],
			"scale":[
				1,
				0.9999999403953552,
				1
			],
			"translation":[
				1.7741209268569946,
				1.408257246017456,
				-4.279613494873047e-05
			]
		},
		{
			"name":"mixamorig:RightHandIndex4",
			"rotation":[
				4.360978437034646e-06,
				0.0009574834257364273,
				4.85237869725097e-05,
				0.9999995231628418
			],
			"scale":[
				1,
				1.0000001192092896,
				1
			],
			"translation":[
				0.010849952697753906,
				3.0543785095214844,
				3.4362077713012695e-05
			]
		},
		{
			"children":[
				19
			],
			"name":"mixamorig:RightHandIndex3",
			"rotation":[
				-0.053764283657073975,
				-5.40658042780251e-08,
				-6.808502917010628e-08,
				0.9985536336898804
			],
			"scale":[
				1,
				1.0000001192092896,
				1.0000001192092896
			],
			"translation":[
				-0.013295173645019531,
				3.428145170211792,
				-3.3229589462280273e-05
			]
		},
		{
			"children":[
				20
			],
			"name":"mixamorig:RightHandIndex2",
			"rotation":[
				0.03366285189986229,
				3.0676091000714223e-07,
				4.950457377361772e-09,
				0.9994332194328308
			],
			"scale":[
				0.9999999403953552,
				0.9999997615814209,
				0.9999999403953552
			],
			"translation":[
				0.002447366714477539,
				4.013460159301758,
				4.202127456665039e-05
			]
		},
		{
			"children":[
				21
			],
			"name":"mixamorig:RightHandIndex1",
			"rotation":[
				-0.04845179617404938,
				-0.0014004154363647103,
				0.028914859518408775,
				0.998405933380127
			],
			"scale":[
				1,
				1,
				0.9999999403953552
			],
			"translation":[
				1.1920928955078125e-07,
				3.035623788833618,
				-2.5659799575805664e-05
			]
		},
		{
			"children":[
				18,
				22
			],
			"name":"mixamorig:RightHand",
			"rotation":[
				0.04702925682067871,
				-0.002140720607712865,
				-0.009281895123422146,
				0.9988480806350708
			],
			"scale":[
				1,
				0.9999998807907104,
				1
			],
			"translation":[
				1.8775463104248047e-06,
				31.765653610229492,
				-1.9669532775878906e-05
			]
		},
		{
			"children":[
				23
			],
			"name":"mixamorig:RightForeArm",
			"rotation":[
				-0.028668954968452454,
				0.0007662561256438494,
				-0.02670806460082531,
				0.9992318749427795
			],
			"scale":[
				0.9999999403953552,
				0.9999999403953552,
				1
			],
			"translation":[
				0,
				26.19873046875,
				2.5033950805664062e-06
			]
		},
		{
			"children":[
				24
			],
			"name":"mixamorig:RightArm",
			"rotation":[
				-0.10548342019319534,
				-0.001375619787722826,
				0.01296873390674591,
				0.9943355917930603
			],
			"scale":[
				0.9999999403953552,
				0.9999999403953552,
				0.9999999403953552
			],
			"translation":[
				2.9802322387695312e-08,
				10.617634773254395,
				3.477931022644043e-05
			]
		},
		{
			"children":[
				25
			],
			"name":"mixamorig:RightShoulder",
			"rotation":[
				0.557511568069458,
				-0.4308112561702728,
				0.5715333223342896,
				0.42063307762145996
			],
			"scale":[
				1.000000238418579,
				1.000000238418579,
				1
			],
			"translation":[
				-5.033412456512451,
				12.282312393188477,
				-0.12883758544921875
			]
		},
		{
			"children":[
				2,
				14,
				26
			],
			"name":"mixamorig:Spine2",
			"rotation":[
				-1.1548399925231934e-07,
				0,
				0,
				1
			],
			"translation":[
				0,
				12.267131805419922,
				0
			]
		},
		{
			"children":[
				27
			],
			"name":"mixamorig:Spine1",
			"rotation":[
				6.705522537231445e-08,
				0,
				0,
				1
			],
			"translation":[
				0,
				10.733742713928223,
				0
			]
		},
		{
			"children":[
				28
			],
			"name":"mixamorig:Spine",
			"rotation":[
				0.679815411567688,
				0,
				0,
				0.733383297920227
			],
			"scale":[
				1,
				0.9999998807907104,
				0.9999998807907104
			],
			"translation":[
				0,
				0.6964870095252991,
				9.173973083496094
			]
		},
		{
			"name":"mixamorig:LeftToe_End",
			"rotation":[
				-1.260777793277157e-07,
				-3.903987817466259e-06,
				-2.0457079585867177e-07,
				1
			],
			"scale":[
				1.0000001192092896,
				1.000000238418579,
				1
			],
			"translation":[
				7.152557373046875e-07,
				4.548798084259033,
				1.7881393432617188e-07
			]
		},
		{
			"children":[
				30
			],
			"name":"mixamorig:LeftToeBase",
			"rotation":[
				0.29613882303237915,
				-0.05084892734885216,
				0.01578749343752861,
				0.9536597728729248
			],
			"scale":[
				0.9999998211860657,
				0.9999997615814209,
				1
			],
			"translation":[
				-3.501772880554199e-07,
				12.591047286987305,
				-5.662441253662109e-07
			]
		},
		{
			"children":[
				31
			],
			"name":"mixamorig:LeftFoot",
			"rotation":[
				0.45685985684394836,
				-0.005494153127074242,
				0.0028217274229973555,
				0.8895172476768494
			],
			"scale":[
				0.9999998807907104,
				0.9999998211860657,
				0.9999998807907104
			],
			"translation":[
				2.0675361156463623e-07,
				41.96510696411133,
				-4.5460183173418045e-07
			]
		},
		{
			"children":[
				32
			],
			"name":"mixamorig:LeftLeg",
			"rotation":[
				-0.00020772854622919112,
				6.642725907113345e-07,
				-0.0032682016026228666,
				0.9999946355819702
			],
			"scale":[
				0.9999998807907104,
				0.9999999403953552,
				0.9999998211860657
			],
			"translation":[
				-2.3655593395233154e-07,
				50.032981872558594,
				6.870542392789503e-07
			]
		},
		{
			"children":[
				33
			],
			"name":"mixamorig:LeftUpLeg",
			"rotation":[
				0.02250777930021286,
				0.7248116135597229,
				-0.6882476210594177,
				0.021372294053435326
			],
			"scale":[
				1,
				1.000000238418579,
				0.9999999403953552
			],
			"translation":[
				6.619822978973389,
				-0.22759631276130676,
				-5.096199035644531
			]
		},
		{
			"name":"mixamorig:RightToe_End",
			"rotation":[
				-2.0518201893082733e-07,
				6.562681846844498e-06,
				2.9336661100387573e-07,
				1
			],
			"scale":[
				0.9999999403953552,
				1,
				0.9999998807907104
			],
			"translation":[
				2.942979335784912e-07,
				4.576806545257568,
				2.9802322387695312e-08
			]
		},
		{
			"children":[
				35
			],
			"name":"mixamorig:RightToeBase",
			"rotation":[
				0.29936686158180237,
				0.04982295632362366,
				-0.015653764829039574,
				0.9527077674865723
			],
			"scale":[
				0.9999999403953552,
				1,
				1
			],
			"translation":[
				-8.754432201385498e-07,
				12.491739273071289,
				-4.76837158203125e-07
			]
		},
		{
			"children":[
				36
			],
			"name":"mixamorig:RightFoot",
			"rotation":[
				0.452385812997818,
				0.005544489249587059,
				-0.00281258812174201,
				0.8918007016181946
			],
			"scale":[
				1,
				1.0000001192092896,
				1.0000001192092896
			],
			"translation":[
				9.220093488693237e-07,
				41.95737075805664,
				-1.2111850082874298e-06
			]
		},
		{
			"children":[
				37
			],
			"name":"mixamorig:RightLeg",
			"rotation":[
				0.0010615288047119975,
				3.430161996220704e-06,
				0.003264827188104391,
				0.9999940991401672
			],
			"scale":[
				1.0000001192092896,
				0.9999999403953552,
				1
			],
			"translation":[
				1.3438984751701355e-06,
				50.030052185058594,
				5.77799255552236e-07
			]
		},
		{
			"children":[
				38
			],
			"name":"mixamorig:RightUpLeg",
			"rotation":[
				0.022496817633509636,
				-0.7244163155555725,
				0.6886635422706604,
				0.021386487409472466
			],
			"scale":[
				0.9999999403953552,
				0.9999999403953552,
				1
			],
			"translation":[
				-6.619822978973389,
				-0.14986708760261536,
				-5.096199035644531
			]
		},
		{
			"children":[
				29,
				34,
				39
			],
			"name":"mixamorig:Hips",
			"rotation":[
				-0.7071067690849304,
				0,
				0,
				0.7071067690849304
			],
			"translation":[
				-7.62939453125e-06,
				106.55835723876953,
				-2.5278499126434326
			]
		},
		{
			"mesh":0,
			"name":"Cube",
			"skin":0
		},
		{
			"children":[
				41,
				40
			],
			"name":"Armature",
			"rotation":[
				0.7071068286895752,
				0,
				0,
				0.7071068286895752
			],
			"scale":[
				0.009999999776482582,
				0.009999999776482582,
				0.009999999776482582
			]
		}
	],
	"animations":[
		{
			"channels":[
				{
					"sampler":0,
					"target":{
						"node":40,
						"path":"translation"
					}
				},
				{
					"sampler":1,
					"target":{
						"node":40,
						"path":"rotation"
					}
				},
				{
					"sampler":2,
					"target":{
						"node":40,
						"path":"scale"
					}
				},
				{
					"sampler":3,
					"target":{
						"node":29,
						"path":"translation"
					}
				},
				{
					"sampler":4,
					"target":{
						"node":29,
						"path":"rotation"
					}
				},
				{
					"sampler":5,
					"target":{
						"node":29,
						"path":"scale"
					}
				},
				{
					"sampler":6,
					"target":{
						"node":28,
						"path":"translation"
					}
				},
				{
					"sampler":7,
					"target":{
						"node":28,
						"path":"rotation"
					}
				},
				{
					"sampler":8,
					"target":{
						"node":28,
						"path":"scale"
					}
				},
				{
					"sampler":9,
					"target":{
						"node":27,
						"path":"translation"
					}
				},
				{
					"sampler":10,
					"target":{
						"node":27,
						"path":"rotation"
					}
				},
				{
					"sampler":11,
					"target":{
						"node":27,
						"path":"scale"
					}
				},
				{
					"sampler":12,
					"target":{
						"node":2,
						"path":"translation"
					}
				},
				{
					"sampler":13,
					"target":{
						"node":2,
						"path":"rotation"
					}
				},
				{
					"sampler":14,
					"target":{
						"node":2,
						"path":"scale"
					}
				},
				{
					"sampler":15,
					"target":{
						"node":1,
						"path":"translation"
					}
				},
				{
					"sampler":16,
					"target":{
						"node":1,
						"path":"rotation"
					}
				},
				{
					"sampler":17,
					"target":{
						"node":1,
						"path":"scale"
					}
				},
				{
					"sampler":18,
					"target":{
						"node":0,
						"path":"translation"
					}
				},
				{
					"sampler":19,
					"target":{
						"node":0,
						"path":"rotation"
					}
				},
				{
					"sampler":20,
					"target":{
						"node":0,
						"path":"scale"
					}
				},
				{
					"sampler":21,
					"target":{
						"node":14,
						"path":"translation"
					}
				},
				{
					"sampler":22,
					"target":{
						"node":14,
						"path":"rotation"
					}
				},
				{
					"sampler":23,
					"target":{
						"node":14,
						"path":"scale"
					}
				},
				{
					"sampler":24,
					"target":{
						"node":13,
						"path":"translation"
					}
				},
				{
					"sampler":25,
					"target":{
						"node":13,
						"path":"rotation"
					}
				},
				{
					"sampler":26,
					"target":{
						"node":13,
						"path":"scale"
					}
				},
				{
					"sampler":27,
					"target":{
						"node":12,
						"path":"translation"
					}
				},
				{
					"sampler":28,
					"target":{
						"node":12,
						"path":"rotation"
					}
				},
				{
					"sampler":29,
					"target":{
						"node":12,
						"path":"scale"
					}
				},
				{
					"sampler":30,
					"target":{
						"node":11,
						"path":"translation"
					}
				},
				{
					"sampler":31,
					"target":{
						"node":11,
						"path":"rotation"
					}
				},
				{
					"sampler":32,
					"target":{
						"node":11,
						"path":"scale"
					}
				},
				{
					"sampler":33,
					"target":{
						"node":6,
						"path":"translation"
					}
				},
				{
					"sampler":34,
					"target":{
						"node":6,
						"path":"rotation"
					}
				},
				{
					"sampler":35,
					"target":{
						"node":6,
						"path":"scale"
					}
				},
				{
					"sampler":36,
					"target":{
						"node":5,
						"path":"translation"
					}
				},
				{
					"sampler":37,
					"target":{
						"node":5,
						"path":"rotation"
					}
				},
				{
					"sampler":38,
					"target":{
						"node":5,
						"path":"scale"
					}
				},
				{
					"sampler":39,
					"target":{
						"node":4,
						"path":"translation"
					}
				},
				{
					"sampler":40,
					"target":{
						"node":4,
						"path":"rotation"
					}
				},
				{
					"sampler":41,
					"target":{
						"node":4,
						"path":"scale"
					}
				},
				{
					"sampler":42,
					"target":{
						"node":3,
						"path":"translation"
					}
				},
				{
					"sampler":43,
					"target":{
						"node":3,
						"path":"rotation"
					}
				},
				{
					"sampler":44,
					"target":{
						"node":3,
						"path":"scale"
					}
				},
				{
					"sampler":45,
					"target":{
						"node":10,
						"path":"translation"
					}
				},
				{
					"sampler":46,
					"target":{
						"node":10,
						"path":"rotation"
					}
				},
				{
					"sampler":47,
					"target":{
						"node":10,
						"path":"scale"
					}
				},
				{
					"sampler":48,
					"target":{
						"node":9,
						"path":"translation"
					}
				},
				{
					"sampler":49,
					"target":{
						"node":9,
						"path":"rotation"
					}
				},
				{
					"sampler":50,
					"target":{
						"node":9,
						"path":"scale"
					}
				},
				{
					"sampler":51,
					"target":{
						"node":8,
						"path":"translation"
					}
				},
				{
					"sampler":52,
					"target":{
						"node":8,
						"path":"rotation"
					}
				},
				{
					"sampler":53,
					"target":{
						"node":8,
						"path":"scale"
					}
				},
				{
					"sampler":54,
					"target":{
						"node":7,
						"path":"translation"
					}
				},
				{
					"sampler":55,
					"target":{
						"node":7,
						"path":"rotation"
					}
				},
				{
					"sampler":56,
					"target":{
						"node":7,
						"path":"scale"
					}
				},
				{
					"sampler":57,
					"target":{
						"node":26,
						"path":"translation"
					}
				},
				{
					"sampler":58,
					"target":{
						"node":26,
						"path":"rotation"
					}
				},
				{
					"sampler":59,
					"target":{
						"node":26,
						"path":"scale"
					}
				},
				{
					"sampler":60,
					"target":{
						"node":25,
						"path":"translation"
					}
				},
				{
					"sampler":61,
					"target":{
						"node":25,
						"path":"rotation"
					}
				},
				{
					"sampler":62,
					"target":{
						"node":25,
						"path":"scale"
					}
				},
				{
					"sampler":63,
					"target":{
						"node":24,
						"path":"translation"
					}
				},
				{
					"sampler":64,
					"target":{
						"node":24,
						"path":"rotation"
					}
				},
				{
					"sampler":65,
					"target":{
						"node":24,
						"path":"scale"
					}
				},
				{
					"sampler":66,
					"target":{
						"node":23,
						"path":"translation"
					}
				},
				{
					"sampler":67,
					"target":{
						"node":23,
						"path":"rotation"
					}
				},
				{
					"sampler":68,
					"target":{
						"node":23,
						"path":"scale"
					}
				},
				{
					"sampler":69,
					"target":{
						"node":18,
						"path":"translation"
					}
				},
				{
					"sampler":70,
					"target":{
						"node":18,
						"path":"rotation"
					}
				},
				{
					"sampler":71,
					"target":{
						"node":18,
						"path":"scale"
					}
				},
				{
					"sampler":72,
					"target":{
						"node":17,
						"path":"translation"
					}
				},
				{
					"sampler":73,
					"target":{
						"node":17,
						"path":"rotation"
					}
				},
				{
					"sampler":74,
					"target":{
						"node":17,
						"path":"scale"
					}
				},
				{
					"sampler":75,
					"target":{
						"node":16,
						"path":"translation"
					}
				},
				{
					"sampler":76,
					"target":{
						"node":16,
						"path":"rotation"
					}
				},
				{
					"sampler":77,
					"target":{
						"node":16,
						"path":"scale"
					}
				},
				{
					"sampler":78,
					"target":{
						"node":15,
						"path":"translation"
					}
				},
				{
					"sampler":79,
					"target":{
						"node":15,
						"path":"rotation"
					}
				},
				{
					"sampler":80,
					"target":{
						"node":15,
						"path":"scale"
					}
				},
				{
					"sampler":81,
					"target":{
						"node":22,
						"path":"translation"
					}
				},
				{
					"sampler":82,
					"target":{
						"node":22,
						"path":"rotation"
					}
				},
				{
					"sampler":83,
					"target":{
						"node":22,
						"path":"scale"
					}
				},
				{
					"sampler":84,
					"target":{
						"node":21,
						"path":"translation"
					}
				},
				{
					"sampler":85,
					"target":{
						"node":21,
						"path":"rotation"
					}
				},
				{
					"sampler":86,
					"target":{
						"node":21,
						"path":"scale"
					}
				},
				{
					"sampler":87,
					"target":{
						"node":20,
						"path":"translation"
					}
				},
				{
					"sampler":88,
					"target":{
						"node":20,
						"path":"rotation"
					}
				},
				{
					"sampler":89,
					"target":{
						"node":20,
						"path":"scale"
					}
				},
				{
					"sampler":90,
					"target":{
						"node":19,
						"path":"translation"
					}
				},
				{
					"sampler":91,
					"target":{
						"node":19,
						"path":"rotation"
					}
				},
				{
					"sampler":92,
					"target":{
						"node":19,
						"path":"scale"
					}
				},
				{
					"sampler":93,
					"target":{
						"node":34,
						"path":"translation"
					}
				},
				{
					"sampler":94,
					"target":{
						"node":34,
						"path":"rotation"
					}
				},
				{
					"sampler":95,
					"target":{
						"node":34,
						"path":"scale"
					}
				},
				{
					"sampler":96,
					"target":{
						"node":33,
						"path":"translation"
					}
				},
				{
					"sampler":97,
					"target":{
						"node":33,
						"path":"rotation"
					}
				},
				{
					"sampler":98,
					"target":{
						"node":33,
						"path":"scale"
					}
				},
				{
					"sampler":99,
					"target":{
						"node":32,
						"path":"translation"
					}
				},
				{
					"sampler":100,
					"target":{
						"node":32,
						"path":"rotation"
					}
				},
				{
					"sampler":101,
					"target":{
						"node":32,
						"path":"scale"
					}
				},
				{
					"sampler":102,
					"target":{
						"node":31,
						"path":"translation"
					}
				},
				{
					"sampler":103,
					"target":{
						"node":31,
						"path":"rotation"
					}
				},
				{
					"sampler":104,
					"target":{
						"node":31,
						"path":"scale"
					}
				},
				{
					"sampler":105,
					"target":{
						"node":30,
						"path":"translation"
					}
				},
				{
					"sampler":106,
					"target":{
						"node":30,
						"path":"rotation"
					}
				},
				{
					"sampler":107,
					"target":{
						"node":30,
						"path":"scale"
					}
				},
				{
					"sampler":108,
					"target":{
						"node":39,
						"path":"translation"
					}
				},
				{
					"sampler":109,
					"target":{
						"node":39,
						"path":"rotation"
					}
				},
				{
					"sampler":110,
					"target":{
						"node":39,
						"path":"scale"
					}
				},
				{
					"sampler":111,
					"target":{
						"node":38,
						"path":"translation"
					}
				},
				{
					"sampler":112,
					"target":{
						"node":38,
						"path":"rotation"
					}
				},
				{
					"sampler":113,
					"target":{
						"node":38,
						"path":"scale"
					}
				},
				{
					"sampler":114,
					"target":{
						"node":37,
						"path":"translation"
					}
				},
				{
					"sampler":115,
					"target":{
						"node":37,
						"path":"rotation"
					}
				},
				{
					"sampler":116,
					"target":{
						"node":37,
						"path":"scale"
					}
				},
				{
					"sampler":117,
					"target":{
						"node":36,
						"path":"translation"
					}
				},
				{
					"sampler":118,
					"target":{
						"node":36,
						"path":"rotation"
					}
				},
				{
					"sampler":119,
					"target":{
						"node":36,
						"path":"scale"
					}
				},
				{
					"sampler":120,
					"target":{
						"node":35,
						"path":"translation"
					}
				},
				{
					"sampler":121,
					"target":{
						"node":35,
						"path":"rotation"
					}
				},
				{
					"sampler":122,
					"target":{
						"node":35,
						"path":"scale"
					}
				}
			],
			"name":"Armature|mixamo.com|Layer0",
			"samplers":[
				{
					"input":7,
					"interpolation":"LINEAR",
					"output":8
				},
				{
					"input":7,
					"interpolation":"LINEAR",
					"output":9
				},
				{
					"input":10,
					"interpolation":"STEP",
					"output":11
				},
				{
					"input":10,
					"interpolation":"LINEAR",
					"output":12
				},
				{
					"input":7,
					"interpolation":"LINEAR",
					"output":13
				},
				{
					"input":10,
					"interpolation":"STEP",
					"output":14
				},
				{
					"input":10,
					"interpolation":"LINEAR",
					"output":15
				},
				{
					"input":7,
					"interpolation":"LINEAR",
					"output":16
				},
				{
					"input":10,
					"interpolation":"LINEAR",
					"output":17
				},
				{
					"input":10,
					"interpolation":"LINEAR",
					"output":18
				},
				{
					"input":7,
					"interpolation":"LINEAR",
					"output":19
				},
				{
					"input":10,
					"interpolation":"LINEAR",
					"output":20
				},
				{
					"input":10,
					"interpolation":"LINEAR",
					"output":21
				},
				{
					"input":7,
					"interpolation":"LINEAR",
					"output":22
				},
				{
					"input":10,
					"interpolation":"LINEAR",
					"output":23
				},
				{
					"input":10,
					"interpolation":"LINEAR",
					"output":24
				},
				{
					"input":7,
					"interpolation":"LINEAR",
					"output":25
				},
				{
					"input":10,
					"interpolation":"LINEAR",
					"output":26
				},
				{
					"input":10,
					"interpolation":"STEP",
					"output":27
				},
				{
					"input":10,
					"interpolation":"STEP",
					"output":28
				},
				{
					"input":10,
					"interpolation":"STEP",
					"output":29
				},
				{
					"input":10,
					"interpolation":"LINEAR",
					"output":30
				},
				{
					"input":7,
					"interpolation":"LINEAR",
					"output":31
				},
				{
					"input":10,
					"interpolation":"STEP",
					"output":32
				},
				{
					"input":10,
					"interpolation":"LINEAR",
					"output":33
				},
				{
					"input":7,
					"interpolation":"LINEAR",
					"output":34
				},
				{
					"input":10,
					"interpolation":"LINEAR",
					"output":35
				},
				{
					"input":10,
					"interpolation":"LINEAR",
					"output":36
				},
				{
					"input":7,
					"interpolation":"LINEAR",
					"output":37
				},
				{
					"input":10,
					"interpolation":"STEP",
					"output":38
				},
				{
					"input":10,
					"interpolation":"LINEAR",
					"output":39
				},
				{
					"input":7,
					"interpolation":"LINEAR",
					"output":40
				},
				{
					"input":10,
					"interpolation":"STEP",
					"output":41
				},
				{
					"input":10,
					"interpolation":"LINEAR",
					"output":42
				},
				{
					"input":7,
					"interpolation":"LINEAR",
					"output":43
				},
				{
					"input":10,
					"interpolation":"LINEAR",
					"output":44
				},
				{
					"input":10,
					"interpolation":"LINEAR",
					"output":45
				},
				{
					"input":7,
					"interpolation":"LINEAR",
					"output":46
				},
				{
					"input":10,
					"interpolation":"LINEAR",
					"output":47
				},
				{
					"input":10,
					"interpolation":"LINEAR",
					"output":48
				},
				{
					"input":7,
					"interpolation":"LINEAR",
					"output":49
				},
				{
					"input":10,
					"interpolation":"STEP",
					"output":50
				},
				{
					"input":10,
					"interpolation":"STEP",
					"output":51
				},
				{
					"input":10,
					"interpolation":"STEP",
					"output":52
				},
				{
					"input":10,
					"interpolation":"STEP",
					"output":53
				},
				{
					"input":10,
					"interpolation":"LINEAR",
					"output":54
				},
				{
					"input":7,
					"interpolation":"LINEAR",
					"output":55
				},
				{
					"input":10,
					"interpolation":"LINEAR",
					"output":56
				},
				{
					"input":10,
					"interpolation":"LINEAR",
					"output":57
				},
				{
					"input":7,
					"interpolation":"LINEAR",
					"output":58
				},
				{
					"input":10,
					"interpolation":"LINEAR",
					"output":59
				},
				{
					"input":10,
					"interpolation":"LINEAR",
					"output":60
				},
				{
					"input":7,
					"interpolation":"LINEAR",
					"output":61
				},
				{
					"input":10,
					"interpolation":"STEP",
					"output":62
				},
				{
					"input":10,
					"interpolation":"STEP",
					"output":63
				},
				{
					"input":10,
					"interpolation":"STEP",
					"output":64
				},
				{
					"input":10,
					"interpolation":"STEP",
					"output":65
				},
				{
					"input":10,
					"interpolation":"LINEAR",
					"output":66
				},
				{
					"input":7,
					"interpolation":"LINEAR",
					"output":67
				},
				{
					"input":10,
					"interpolation":"LINEAR",
					"output":68
				},
				{
					"input":10,
					"interpolation":"LINEAR",
					"output":69
				},
				{
					"input":7,
					"interpolation":"LINEAR",
					"output":70
				},
				{
					"input":10,
					"interpolation":"STEP",
					"output":71
				},
				{
					"input":10,
					"interpolation":"LINEAR",
					"output":72
				},
				{
					"input":7,
					"interpolation":"LINEAR",
					"output":73
				},
				{
					"input":10,
					"interpolation":"LINEAR",
					"output":74
				},
				{
					"input":10,
					"interpolation":"LINEAR",
					"output":75
				},
				{
					"input":7,
					"interpolation":"LINEAR",
					"output":76
				},
				{
					"input":10,
					"interpolation":"LINEAR",
					"output":77
				},
				{
					"input":10,
					"interpolation":"LINEAR",
					"output":78
				},
				{
					"input":10,
					"interpolation":"LINEAR",
					"output":79
				},
				{
					"input":10,
					"interpolation":"STEP",
					"output":80
				},
				{
					"input":10,
					"interpolation":"LINEAR",
					"output":81
				},
				{
					"input":10,
					"interpolation":"LINEAR",
					"output":82
				},
				{
					"input":10,
					"interpolation":"LINEAR",
					"output":83
				},
				{
					"input":10,
					"interpolation":"LINEAR",
					"output":84
				},
				{
					"input":10,
					"interpolation":"LINEAR",
					"output":85
				},
				{
					"input":10,
					"interpolation":"STEP",
					"output":86
				},
				{
					"input":10,
					"interpolation":"STEP",
					"output":87
				},
				{
					"input":10,
					"interpolation":"STEP",
					"output":88
				},
				{
					"input":10,
					"interpolation":"STEP",
					"output":89
				},
				{
					"input":10,
					"interpolation":"LINEAR",
					"output":90
				},
				{
					"input":10,
					"interpolation":"LINEAR",
					"output":91
				},
				{
					"input":10,
					"interpolation":"LINEAR",
					"output":92
				},
				{
					"input":10,
					"interpolation":"LINEAR",
					"output":93
				},
				{
					"input":10,
					"interpolation":"STEP",
					"output":94
				},
				{
					"input":10,
					"interpolation":"LINEAR",
					"output":95
				},
				{
					"input":10,
					"interpolation":"LINEAR",
					"output":96
				},
				{
					"input":10,
					"interpolation":"STEP",
					"output":97
				},
				{
					"input":10,
					"interpolation":"STEP",
					"output":98
				},
				{
					"input":10,
					"interpolation":"STEP",
					"output":99
				},
				{
					"input":10,
					"interpolation":"STEP",
					"output":100
				},
				{
					"input":10,
					"interpolation":"STEP",
					"output":101
				},
				{
					"input":10,
					"interpolation":"LINEAR",
					"output":102
				},
				{
					"input":7,
					"interpolation":"LINEAR",
					"output":103
				},
				{
					"input":10,
					"interpolation":"LINEAR",
					"output":104
				},
				{
					"input":10,
					"interpolation":"LINEAR",
					"output":105
				},
				{
					"input":7,
					"interpolation":"LINEAR",
					"output":106
				},
				{
					"input":10,
					"interpolation":"LINEAR",
					"output":107
				},
				{
					"input":10,
					"interpolation":"LINEAR",
					"output":108
				},
				{
					"input":7,
					"interpolation":"LINEAR",
					"output":109
				},
				{
					"input":10,
					"interpolation":"LINEAR",
					"output":110
				},
				{
					"input":10,
					"interpolation":"LINEAR",
					"output":111
				},
				{
					"input":7,
					"interpolation":"LINEAR",
					"output":112
				},
				{
					"input":10,
					"interpolation":"LINEAR",
					"output":113
				},
				{
					"input":10,
					"interpolation":"STEP",
					"output":114
				},
				{
					"input":10,
					"interpolation":"STEP",
					"output":115
				},
				{
					"input":10,
					"interpolation":"STEP",
					"output":116
				},
				{
					"input":10,
					"interpolation":"LINEAR",
					"output":117
				},
				{
					"input":7,
					"interpolation":"LINEAR",
					"output":118
				},
				{
					"input":10,
					"interpolation":"STEP",
					"output":119
				},
				{
					"input":10,
					"interpolation":"LINEAR",
					"output":120
				},
				{
					"input":7,
					"interpolation":"LINEAR",
					"output":121
				},
				{
					"input":10,
					"interpolation":"LINEAR",
					"output":122
				},
				{
					"input":10,
					"interpolation":"LINEAR",
					"output":123
				},
				{
					"input":7,
					"interpolation":"LINEAR",
					"output":124
				},
				{
					"input":10,
					"interpolation":"LINEAR",
					"output":125
				},
				{
					"input":10,
					"interpolation":"LINEAR",
					"output":126
				},
				{
					"input":7,
					"interpolation":"LINEAR",
					"output":127
				},
				{
					"input":10,
					"interpolation":"LINEAR",
					"output":128
				},
				{
					"input":10,
					"interpolation":"STEP",
					"output":129
				},
				{
					"input":10,
					"interpolation":"STEP",
					"output":130
				},
				{
					"input":10,
					"interpolation":"STEP",
					"output":131
				}
			]
		}
	],
	"materials":[
		{
			"doubleSided":true,
			"name":"Material.001",
			"pbrMetallicRoughness":{
				"baseColorFactor":[
					0.800000011920929,
					0.800000011920929,
					0.800000011920929,
					1
				],
				"metallicFactor":0,
				"roughnessFactor":0.5
			}
		}
	],
	"meshes":[
		{
			"name":"Cube.001",
			"primitives":[
				{
					"attributes":{
						"POSITION":0,
						"NORMAL":1,
						"TEXCOORD_0":2,
						"JOINTS_0":3,
						"WEIGHTS_0":4
					},
					"indices":5,
					"material":0
				}
			]
		}
	],
	"skins":[
		{
			"inverseBindMatrices":6,
			"joints":[
				40,
				29,
				28,
				27,
				2,
				1,
				0,
				14,
				13,
				12,
				11,
				6,
				5,
				4,
				3,
				10,
				9,
				8,
				7,
				26,
				25,
				24,
				23,
				18,
				17,
				16,
				15,
				22,
				21,
				20,
				19,
				34,
				33,
				32,
				31,
				30,
				39,
				38,
				37,
				36,
				35
			],
			"name":"Armature"
		}
	],
	"accessors":[
		{
			"bufferView":0,
			"componentType":5126,
			"count":8674,
			"max":[
				0.8674630522727966,
				0.13799206912517548,
				1.7722612619400024
			],
			"min":[
				-0.867463231086731,
				-0.07742293179035187,
				0.005703245289623737
			],
			"type":"VEC3"
		},
		{
			"bufferView":1,
			"componentType":5126,
			"count":8674,
			"type":"VEC3"
		},
		{
			"bufferView":2,
			"componentType":5126,
			"count":8674,
			"type":"VEC2"
		},
		{
			"bufferView":3,
			"componentType":5121,
			"count":8674,
			"type":"VEC4"
		},
		{
			"bufferView":4,
			"componentType":5126,
			"count":8674,
			"type":"VEC4"
		},
		{
			"bufferView":5,
			"componentType":5123,
			"count":9834,
			"type":"SCALAR"
		},
		{
			"bufferView":6,
			"componentType":5126,
			"count":41,
			"type":"MAT4"
		},
		{
			"bufferView":7,
			"componentType":5126,
			"count":419,
			"max":[
				13.966666666666667
			],
			"min":[
				0.03333333333333333
			],
			"type":"SCALAR"
		},
		{
			"bufferView":8,
			"componentType":5126,
			"count":419,
			"type":"VEC3"
		},
		{
			"bufferView":9,
			"componentType":5126,
			"count":419,
			"type":"VEC4"
		},
		{
			"bufferView":10,
			"componentType":5126,
			"count":2,
			"max":[
				13.966666666666667
			],
			"min":[
				0.03333333333333333
			],
			"type":"SCALAR"
		},
		{
			"bufferView":11,
			"componentType":5126,
			"count":2,
			"type":"VEC3"
		},
		{
			"bufferView":12,
			"componentType":5126,
			"count":2,
			"type":"VEC3"
		},
		{
			"bufferView":13,
			"componentType":5126,
			"count":419,
			"type":"VEC4"
		},
		{
			"bufferView":14,
			"componentType":5126,
			"count":2,
			"type":"VEC3"
		},
		{
			"bufferView":15,
			"componentType":5126,
			"count":2,
			"type":"VEC3"
		},
		{
			"bufferView":16,
			"componentType":5126,
			"count":419,
			"type":"VEC4"
		},
		{
			"bufferView":17,
			"componentType":5126,
			"count":2,
			"type":"VEC3"
		},
		{
			"bufferView":18,
			"componentType":5126,
			"count":2,
			"type":"VEC3"
		},
		{
			"bufferView":19,
			"componentType":5126,
			"count":419,
			"type":"VEC4"
		},
		{
			"bufferView":20,
			"componentType":5126,
			"count":2,
			"type":"VEC3"
		},
		{
			"bufferView":21,
			"componentType":5126,
			"count":2,
			"type":"VEC3"
		},
		{
			"bufferView":22,
			"componentType":5126,
			"count":419,
			"type":"VEC4"
		},
		{
			"bufferView":23,
			"componentType":5126,
			"count":2,
			"type":"VEC3"
		},
		{
			"bufferView":24,
			"componentType":5126,
			"count":2,
			"type":"VEC3"
		},
		{
			"bufferView":25,
			"componentType":5126,
			"count":419,
			"type":"VEC4"
		},
		{
			"bufferView":26,
			"componentType":5126,
			"count":2,
			"type":"VEC3"
		},
		{
			"bufferView":27,
			"componentType":5126,
			"count":2,
			"type":"VEC3"
		},
		{
			"bufferView":28,
			"componentType":5126,
			"count":2,
			"type":"VEC4"
		},
		{
			"bufferView":29,
			"componentType":5126,
			"count":2,
			"type":"VEC3"
		},
		{
			"bufferView":30,
			"componentType":5126,
			"count":2,
			"type":"VEC3"
		},
		{
			"bufferView":31,
			"componentType":5126,
			"count":419,
			"type":"VEC4"
		},
		{
			"bufferView":32,
			"componentType":5126,
			"count":2,
			"type":"VEC3"
		},
		{
			"bufferView":33,
			"componentType":5126,
			"count":2,
			"type":"VEC3"
		},
		{
			"bufferView":34,
			"componentType":5126,
			"count":419,
			"type":"VEC4"
		},
		{
			"bufferView":35,
			"componentType":5126,
			"count":2,
			"type":"VEC3"
		},
		{
			"bufferView":36,
			"componentType":5126,
			"count":2,
			"type":"VEC3"
		},
		{
			"bufferView":37,
			"componentType":5126,
			"count":419,
			"type":"VEC4"
		},
		{
			"bufferView":38,
			"componentType":5126,
			"count":2,
			"type":"VEC3"
		},
		{
			"bufferView":39,
			"componentType":5126,
			"count":2,
			"type":"VEC3"
		},
		{
			"bufferView":40,
			"componentType":5126,
			"count":419,
			"type":"VEC4"
		},
		{
			"bufferView":41,
			"componentType":5126,
			"count":2,
			"type":"VEC3"
		},
		{
			"bufferView":42,
			"componentType":5126,
			"count":2,
			"type":"VEC3"
		},
		{
			"bufferView":43,
			"componentType":5126,
			"count":419,
			"type":"VEC4"
		},
		{
			"bufferView":44,
			"componentType":5126,
			"count":2,
			"type":"VEC3"
		},
		{
			"bufferView":45,
			"componentType":5126,
			"count":2,
			"type":"VEC3"
		},
		{
			"bufferView":46,
			"componentType":5126,
			"count":419,
			"type":"VEC4"
		},
		{
			"bufferView":47,
			"componentType":5126,
			"count":2,
			"type":"VEC3"
		},
		{
			"bufferView":48,
			"componentType":5126,
			"count":2,
			"type":"VEC3"
		},
		{
			"bufferView":49,
			"componentType":5126,
			"count":419,
			"type":"VEC4"
		},
		{
			"bufferView":50,
			"componentType":5126,
			"count":2,
			"type":"VEC3"
		},
		{
			"bufferView":51,
			"componentType":5126,
			"count":2,
			"type":"VEC3"
		},
		{
			"bufferView":52,
			"componentType":5126,
			"count":2,
			"type":"VEC4"
		},
		{
			"bufferView":53,
			"componentType":5126,
			"count":2,
			"type":"VEC3"
		},
		{
			"bufferView":54,
			"componentType":5126,
			"count":2,
			"type":"VEC3"
		},
		{
			"bufferView":55,
			"componentType":5126,
			"count":419,
			"type":"VEC4"
		},
		{
			"bufferView":56,
			"componentType":5126,
			"count":2,
			"type":"VEC3"
		},
		{
			"bufferView":57,
			"componentType":5126,
			"count":2,
			"type":"VEC3"
		},
		{
			"bufferView":58,
			"componentType":5126,
			"count":419,
			"type":"VEC4"
		},
		{
			"bufferView":59,
			"componentType":5126,
			"count":2,
			"type":"VEC3"
		},
		{
			"bufferView":60,
			"componentType":5126,
			"count":2,
			"type":"VEC3"
		},
		{
			"bufferView":61,
			"componentType":5126,
			"count":419,
			"type":"VEC4"
		},
		{
			"bufferView":62,
			"componentType":5126,
			"count":2,
			"type":"VEC3"
		},
		{
			"bufferView":63,
			"componentType":5126,
			"count":2,
			"type":"VEC3"
		},
		{
			"bufferView":64,
			"componentType":5126,
			"count":2,
			"type":"VEC4"
		},
		{
			"bufferView":65,
			"componentType":5126,
			"count":2,
			"type":"VEC3"
		},
		{
			"bufferView":66,
			"componentType":5126,
			"count":2,
			"type":"VEC3"
		},
		{
			"bufferView":67,
			"componentType":5126,
			"count":419,
			"type":"VEC4"
		},
		{
			"bufferView":68,
			"componentType":5126,
			"count":2,
			"type":"VEC3"
		},
		{
			"bufferView":69,
			"componentType":5126,
			"count":2,
			"type":"VEC3"
		},
		{
			"bufferView":70,
			"componentType":5126,
			"count":419,
			"type":"VEC4"
		},
		{
			"bufferView":71,
			"componentType":5126,
			"count":2,
			"type":"VEC3"
		},
		{
			"bufferView":72,
			"componentType":5126,
			"count":2,
			"type":"VEC3"
		},
		{
			"bufferView":73,
			"componentType":5126,
			"count":419,
			"type":"VEC4"
		},
		{
			"bufferView":74,
			"componentType":5126,
			"count":2,
			"type":"VEC3"
		},
		{
			"bufferView":75,
			"componentType":5126,
			"count":2,
			"type":"VEC3"
		},
		{
			"bufferView":76,
			"componentType":5126,
			"count":419,
			"type":"VEC4"
		},
		{
			"bufferView":77,
			"componentType":5126,
			"count":2,
			"type":"VEC3"
		},
		{
			"bufferView":78,
			"componentType":5126,
			"count":2,
			"type":"VEC3"
		},
		{
			"bufferView":79,
			"componentType":5126,
			"count":2,
			"type":"VEC4"
		},
		{
			"bufferView":80,
			"componentType":5126,
			"count":2,
			"type":"VEC3"
		},
		{
			"bufferView":81,
			"componentType":5126,
			"count":2,
			"type":"VEC3"
		},
		{
			"bufferView":82,
			"componentType":5126,
			"count":2,
			"type":"VEC4"
		},
		{
			"bufferView":83,
			"componentType":5126,
			"count":2,
			"type":"VEC3"
		},
		{
			"bufferView":84,
			"componentType":5126,
			"count":2,
			"type":"VEC3"
		},
		{
			"bufferView":85,
			"componentType":5126,
			"count":2,
			"type":"VEC4"
		},
		{
			"bufferView":86,
			"componentType":5126,
			"count":2,
			"type":"VEC3"
		},
		{
			"bufferView":87,
			"componentType":5126,
			"count":2,
			"type":"VEC3"
		},
		{
			"bufferView":88,
			"componentType":5126,
			"count":2,
			"type":"VEC4"
		},
		{
			"bufferView":89,
			"componentType":5126,
			"count":2,
			"type":"VEC3"
		},
		{
			"bufferView":90,
			"componentType":5126,
			"count":2,
			"type":"VEC3"
		},
		{
			"bufferView":91,
			"componentType":5126,
			"count":2,
			"type":"VEC4"
		},
		{
			"bufferView":92,
			"componentType":5126,
			"count":2,
			"type":"VEC3"
		},
		{
			"bufferView":93,
			"componentType":5126,
			"count":2,
			"type":"VEC3"
		},
		{
			"bufferView":94,
			"componentType":5126,
			"count":2,
			"type":"VEC4"
		},
		{
			"bufferView":95,
			"componentType":5126,
			"count":2,
			"type":"VEC3"
		},
		{
			"bufferView":96,
			"componentType":5126,
			"count":2,
			"type":"VEC3"
		},
		{
			"bufferView":97,
			"componentType":5126,
			"count":2,
			"type":"VEC4"
		},
		{
			"bufferView":98,
			"componentType":5126,
			"count":2,
			"type":"VEC3"
		},
		{
			"bufferView":99,
			"componentType":5126,
			"count":2,
			"type":"VEC3"
		},
		{
			"bufferView":100,
			"componentType":5126,
			"count":2,
			"type":"VEC4"
		},
		{
			"bufferView":101,
			"componentType":5126,
			"count":2,
			"type":"VEC3"
		},
		{
			"bufferView":102,
			"componentType":5126,
			"count":2,
			"type":"VEC3"
		},
		{
			"bufferView":103,
			"componentType":5126,
			"count":419,
			"type":"VEC4"
		},
		{
			"bufferView":104,
			"componentType":5126,
			"count":2,
			"type":"VEC3"
		},
		{
			"bufferView":105,
			"componentType":5126,
			"count":2,
			"type":"VEC3"
		},
		{
			"bufferView":106,
			"componentType":5126,
			"count":419,
			"type":"VEC4"
		},
		{
			"bufferView":107,
			"componentType":5126,
			"count":2,
			"type":"VEC3"
		},
		{
			"bufferView":108,
			"componentType":5126,
			"count":2,
			"type":"VEC3"
		},
		{
			"bufferView":109,
			"componentType":5126,
			"count":419,
			"type":"VEC4"
		},
		{
			"bufferView":110,
			"componentType":5126,
			"count":2,
			"type":"VEC3"
		},
		{
			"bufferView":111,
			"componentType":5126,
			"count":2,
			"type":"VEC3"
		},
		{
			"bufferView":112,
			"componentType":5126,
			"count":419,
			"type":"VEC4"
		},
		{
			"bufferView":113,
			"componentType":5126,
			"count":2,
			"type":"VEC3"
		},
		{
			"bufferView":114,
			"componentType":5126,
			"count":2,
			"type":"VEC3"
		},
		{
			"bufferView":115,
			"componentType":5126,
			"count":2,
			"type":"VEC4"
		},
		{
			"bufferView":116,
			"componentType":5126,
			"count":2,
			"type":"VEC3"
		},
		{
			"bufferView":117,
			"componentType":5126,
			"count":2,
			"type":"VEC3"
		},
		{
			"bufferView":118,
			"componentType":5126,
			"count":419,
			"type":"VEC4"
		},
		{
			"bufferView":119,
			"componentType":5126,
			"count":2,
			"type":"VEC3"
		},
		{
			"bufferView":120,
			"componentType":5126,
			"count":2,
			"type":"VEC3"
		},
		{
			"bufferView":121,
			"componentType":5126,
			"count":419,
			"type":"VEC4"
		},
		{
			"bufferView":122,
			"componentType":5126,
			"count":2,
			"type":"VEC3"
		},
		{
			"bufferView":123,
			"componentType":5126,
			"count":2,
			"type":"VEC3"
		},
		{
			"bufferView":124,
			"componentType":5126,
			"count":419,
			"type":"VEC4"
		},
		{
			"bufferView":125,
			"componentType":5126,
			"count":2,
			"type":"VEC3"
		},
		{
			"bufferView":126,
			"componentType":5126,
			"count":2,
			"type":"VEC3"
		},
		{
			"bufferView":127,
			"componentType":5126,
			"count":419,
			"type":"VEC4"
		},
		{
			"bufferView":128,
			"componentType":5126,
			"count":2,
			"type":"VEC3"
		},
		{
			"bufferView":129,
			"componentType":5126,
			"count":2,
			"type":"VEC3"
		},
		{
			"bufferView":130,
			"componentType":5126,
			"count":2,
			"type":"VEC4"
		},
		{
			"bufferView":131,
			"componentType":5126,
			"count":2,
			"type":"VEC3"
		}
	],
	"bufferViews":[
		{
			"buffer":0,
			"byteLength":104088,
			"byteOffset":0,
			"target":34962
		},
		{
			"buffer":0,
			"byteLength":104088,
			"byteOffset":104088,
			"target":34962
		},
		{
			"buffer":0,
			"byteLength":69392,
			"byteOffset":208176,
			"target":34962
		},
		{
			"buffer":0,
			"byteLength":34696,
			"byteOffset":277568,
			"target":34962
		},
		{
			"buffer":0,
			"byteLength":138784,
			"byteOffset":312264,
			"target":34962
		},
		{
			"buffer":0,
			"byteLength":19668,
			"byteOffset":451048,
			"target":34963
		},
		{
			"buffer":0,
			"byteLength":2624,
			"byteOffset":470716
		},
		{
			"buffer":0,
			"byteLength":1676,
			"byteOffset":473340
		},
		{
			"buffer":0,
			"byteLength":5028,
			"byteOffset":475016
		},
		{
			"buffer":0,
			"byteLength":6704,
			"byteOffset":480044
		},
		{
			"buffer":0,
			"byteLength":8,
			"byteOffset":486748
		},
		{
			"buffer":0,
			"byteLength":24,
			"byteOffset":486756
		},
		{
			"buffer":0,
			"byteLength":24,
			"byteOffset":486780
		},
		{
			"buffer":0,
			"byteLength":6704,
			"byteOffset":486804
		},
		{
			"buffer":0,
			"byteLength":24,
			"byteOffset":493508
		},
		{
			"buffer":0,
			"byteLength":24,
			"byteOffset":493532
		},
		{
			"buffer":0,
			"byteLength":6704,
			"byteOffset":493556
		},
		{
			"buffer":0,
			"byteLength":24,
			"byteOffset":500260
		},
		{
			"buffer":0,
			"byteLength":24,
			"byteOffset":500284
		},
		{
			"buffer":0,
			"byteLength":6704,
			"byteOffset":500308
		},
		{
			"buffer":0,
			"byteLength":24,
			"byteOffset":507012
		},
		{
			"buffer":0,
			"byteLength":24,
			"byteOffset":507036
		},
		{
			"buffer":0,
			"byteLength":6704,
			"byteOffset":507060
		},
		{
			"buffer":0,
			"byteLength":24,
			"byteOffset":513764
		},
		{
			"buffer":0,
			"byteLength":24,
			"byteOffset":513788
		},
		{
			"buffer":0,
			"byteLength":6704,
			"byteOffset":513812
		},
		{
			"buffer":0,
			"byteLength":24,
			"byteOffset":520516
		},
		{
			"buffer":0,
			"byteLength":24,
			"byteOffset":520540
		},
		{
			"buffer":0,
			"byteLength":32,
			"byteOffset":520564
		},
		{
			"buffer":0,
			"byteLength":24,
			"byteOffset":520596
		},
		{
			"buffer":0,
			"byteLength":24,
			"byteOffset":520620
		},
		{
			"buffer":0,
			"byteLength":6704,
			"byteOffset":520644
		},
		{
			"buffer":0,
			"byteLength":24,
			"byteOffset":527348
		},
		{
			"buffer":0,
			"byteLength":24,
			"byteOffset":527372
		},
		{
			"buffer":0,
			"byteLength":6704,
			"byteOffset":527396
		},
		{
			"buffer":0,
			"byteLength":24,
			"byteOffset":534100
		},
		{
			"buffer":0,
			"byteLength":24,
			"byteOffset":534124
		},
		{
			"buffer":0,
			"byteLength":6704,
			"byteOffset":534148
		},
		{
			"buffer":0,
			"byteLength":24,
			"byteOffset":540852
		},
		{
			"buffer":0,
			"byteLength":24,
			"byteOffset":540876
		},
		{
			"buffer":0,
			"byteLength":6704,
			"byteOffset":540900
		},
		{
			"buffer":0,
			"byteLength":24,
			"byteOffset":547604
		},
		{
			"buffer":0,
			"byteLength":24,
			"byteOffset":547628
		},
		{
			"buffer":0,
			"byteLength":6704,
			"byteOffset":547652
		},
		{
			"buffer":0,
			"byteLength":24,
			"byteOffset":554356
		},
		{
			"buffer":0,
			"byteLength":24,
			"byteOffset":554380
		},
		{
			"buffer":0,
			"byteLength":6704,
			"byteOffset":554404
		},
		{
			"buffer":0,
			"byteLength":24,
			"byteOffset":561108
		},
		{
			"buffer":0,
			"byteLength":24,
			"byteOffset":561132
		},
		{
			"buffer":0,
			"byteLength":6704,
			"byteOffset":561156
		},
		{
			"buffer":0,
			"byteLength":24,
			"byteOffset":567860
		},
		{
			"buffer":0,
			"byteLength":24,
			"byteOffset":567884
		},
		{
			"buffer":0,
			"byteLength":32,
			"byteOffset":567908
		},
		{
			"buffer":0,
			"byteLength":24,
			"byteOffset":567940
		},
		{
			"buffer":0,
			"byteLength":24,
			"byteOffset":567964
		},
		{
			"buffer":0,
			"byteLength":6704,
			"byteOffset":567988
		},
		{
			"buffer":0,
			"byteLength":24,
			"byteOffset":574692
		},
		{
			"buffer":0,
			"byteLength":24,
			"byteOffset":574716
		},
		{
			"buffer":0,
			"byteLength":6704,
			"byteOffset":574740
		},
		{
			"buffer":0,
			"byteLength":24,
			"byteOffset":581444
		},
		{
			"buffer":0,
			"byteLength":24,
			"byteOffset":581468
		},
		{
			"buffer":0,
			"byteLength":6704,
			"byteOffset":581492
		},
		{
			"buffer":0,
			"byteLength":24,
			"byteOffset":588196
		},
		{
			"buffer":0,
			"byteLength":24,
			"byteOffset":588220
		},
		{
			"buffer":0,
			"byteLength":32,
			"byteOffset":588244
		},
		{
			"buffer":0,
			"byteLength":24,
			"byteOffset":588276
		},
		{
			"buffer":0,
			"byteLength":24,
			"byteOffset":588300
		},
		{
			"buffer":0,
			"byteLength":6704,
			"byteOffset":588324
		},
		{
			"buffer":0,
			"byteLength":24,
			"byteOffset":595028
		},
		{
			"buffer":0,
			"byteLength":24,
			"byteOffset":595052
		},
		{
			"buffer":0,
			"byteLength":6704,
			"byteOffset":595076
		},
		{
			"buffer":0,
			"byteLength":24,
			"byteOffset":601780
		},
		{
			"buffer":0,
			"byteLength":24,
			"byteOffset":601804
		},
		{
			"buffer":0,
			"byteLength":6704,
			"byteOffset":601828
		},
		{
			"buffer":0,
			"byteLength":24,
			"byteOffset":608532
		},
		{
			"buffer":0,
			"byteLength":24,
			"byteOffset":608556
		},
		{
			"buffer":0,
			"byteLength":6704,
			"byteOffset":608580
		},
		{
			"buffer":0,
			"byteLength":24,
			"byteOffset":615284
		},
		{
			"buffer":0,
			"byteLength":24,
			"byteOffset":615308
		},
		{
			"buffer":0,
			"byteLength":32,
			"byteOffset":615332
		},
		{
			"buffer":0,
			"byteLength":24,
			"byteOffset":615364
		},
		{
			"buffer":0,
			"byteLength":24,
			"byteOffset":615388
		},
		{
			"buffer":0,
			"byteLength":32,
			"byteOffset":615412
		},
		{
			"buffer":0,
			"byteLength":24,
			"byteOffset":615444
		},
		{
			"buffer":0,
			"byteLength":24,
			"byteOffset":615468
		},
		{
			"buffer":0,
			"byteLength":32,
			"byteOffset":615492
		},
		{
			"buffer":0,
			"byteLength":24,
			"byteOffset":615524
		},
		{
			"buffer":0,
			"byteLength":24,
			"byteOffset":615548
		},
		{
			"buffer":0,
			"byteLength":32,
			"byteOffset":615572
		},
		{
			"buffer":0,
			"byteLength":24,
			"byteOffset":615604
		},
		{
			"buffer":0,
			"byteLength":24,
			"byteOffset":615628
		},
		{
			"buffer":0,
			"byteLength":32,
			"byteOffset":615652
		},
		{
			"buffer":0,
			"byteLength":24,
			"byteOffset":615684
		},
		{
			"buffer":0,
			"byteLength":24,
			"byteOffset":615708
		},
		{
			"buffer":0,
			"byteLength":32,
			"byteOffset":615732
		},
		{
			"buffer":0,
			"byteLength":24,
			"byteOffset":615764
		},
		{
			"buffer":0,
			"byteLength":24,
			"byteOffset":615788
		},
		{
			"buffer":0,
			"byteLength":32,
			"byteOffset":615812
		},
		{
			"buffer":0,
			"byteLength":24,
			"byteOffset":615844
		},
		{
			"buffer":0,
			"byteLength":24,
			"byteOffset":615868
		},
		{
			"buffer":0,
			"byteLength":32,
			"byteOffset":615892
		},
		{
			"buffer":0,
			"byteLength":24,
			"byteOffset":615924
		},
		{
			"buffer":0,
			"byteLength":24,
			"byteOffset":615948
		},
		{
			"buffer":0,
			"byteLength":6704,
			"byteOffset":615972
		},
		{
			"buffer":0,
			"byteLength":24,
			"byteOffset":622676
		},
		{
			"buffer":0,
			"byteLength":24,
			"byteOffset":622700
		},
		{
			"buffer":0,
			"byteLength":6704,
			"byteOffset":622724
		},
		{
			"buffer":0,
			"byteLength":24,
			"byteOffset":629428
		},
		{
			"buffer":0,
			"byteLength":24,
			"byteOffset":629452
		},
		{
			"buffer":0,
			"byteLength":6704,
			"byteOffset":629476
		},
		{
			"buffer":0,
			"byteLength":24,
			"byteOffset":636180
		},
		{
			"buffer":0,
			"byteLength":24,
			"byteOffset":636204
		},
		{
			"buffer":0,
			"byteLength":6704,
			"byteOffset":636228
		},
		{
			"buffer":0,
			"byteLength":24,
			"byteOffset":642932
		},
		{
			"buffer":0,
			"byteLength":24,
			"byteOffset":642956
		},
		{
			"buffer":0,
			"byteLength":32,
			"byteOffset":642980
		},
		{
			"buffer":0,
			"byteLength":24,
			"byteOffset":643012
		},
		{
			"buffer":0,
			"byteLength":24,
			"byteOffset":643036
		},
		{
			"buffer":0,
			"byteLength":6704,
			"byteOffset":643060
		},
		{
			"buffer":0,
			"byteLength":24,
			"byteOffset":649764
		},
		{
			"buffer":0,
			"byteLength":24,
			"byteOffset":649788
		},
		{
			"buffer":0,
			"byteLength":6704,
			"byteOffset":649812
		},
		{
			"buffer":0,
			"byteLength":24,
			"byteOffset":656516
		},
		{
			"buffer":0,
			"byteLength":24,
			"byteOffset":656540
		},
		{
			"buffer":0,
			"byteLength":6704,
			"byteOffset":656564
		},
		{
			"buffer":0,
			"byteLength":24,
			"byteOffset":663268
		},
		{
			"buffer":0,
			"byteLength":24,
			"byteOffset":663292
		},
		{
			"buffer":0,
			"byteLength":6704,
			"byteOffset":663316
		},
		{
			"buffer":0,
			"byteLength":24,
			"byteOffset":670020
		},
		{
			"buffer":0,
			"byteLength":24,
			"byteOffset":670044
		},
		{
			"buffer":0,
			"byteLength":32,
			"byteOffset":670068
		},
		{
			"buffer":0,
			"byteLength":24,
			"byteOffset":670100
		}
	],
	"buffers":[
		{
			"byteLength":670124,
			"uri":"standing.bin"
		}
	]
}
