{
	"asset":{
		"generator":"Khronos glTF Blender I/O v5.1.18",
		"version":"2.0"
	},
	"scene":0,
	"scenes":[
		{
			"name":"Scene",
			"nodes":[
				21
			]
		}
	],
	"nodes":[
		{
			"name":"\u30dc\u30fc\u30f3.003",
			"rotation":[
				0.06001828610897064,
				-6.895813384693401e-15,
				1.4309473606033407e-08,
				0.9981973171234131
			],
			"scale":[
				1,
				1,
				0.9999998807907104
			],
			"translation":[
				-4.199184888697971e-10,
				1.0724406242370605,
				-4.631462502402428e-08
			]
		},
		{
			"name":"\u30dc\u30fc\u30f3.007",
			"rotation":[
				-2.5347242527118397e-08,
				1.6198785601773125e-07,
				0.028132101520895958,
				0.9996042251586914
			],
			"scale":[
				1,
				0.9999998807907104,
				1
			],
			"translation":[
				-1.519918441772461e-06,
				1.4319742918014526,
				-2.877698079828406e-13
			]
		},
		{
			"children":[
				1
			],
			"name":"\u30dc\u30fc\u30f3.006",
			"rotation":[
				3.7154859189314493e-09,
				1.5932944563701312e-07,
				-0.006410163827240467,
				0.9999794960021973
			],
			"scale":[
				1,
				0.9999999403953552,
				1
			],
			"translation":[
				9.933876299328404e-07,
				1.6337852478027344,
				1.0074978503381293e-13
			]
		},
		{
			"children":[
				2
			],
			"name":"\u30dc\u30fc\u30f3.005",
			"rotation":[
				-4.823822408184242e-08,
				-6.891465176295242e-08,
				0.09853745996952057,
				0.9951333403587341
			],
			"scale":[
				1,
				0.9999999403953552,
				1
			],
			"translation":[
				4.3213370304329146e-07,
				1.0296375751495361,
				6.146194664324867e-13
			]
		},
		{
			"children":[
				3
			],
			"name":"\u30dc\u30fc\u30f3.004",
			"rotation":[
				0.038051243871450424,
				0.04641475901007652,
				-0.7719479203224182,
				0.6328461766242981
			],
			"scale":[
				1,
				0.9999999403953552,
				0.9999998807907104
			],
			"translation":[
				-4.199184888697971e-10,
				1.0724406242370605,
				-4.631462502402428e-08
			]
		},
		{
			"name":"\u30dc\u30fc\u30f3.015",
			"rotation":[
				3.1663088151390184e-08,
				-3.1234154818093884e-08,
				-0.02813185378909111,
				0.9996042251586914
			],
			"scale":[
				1,
				0.9999998807907104,
				1
			],
			"translation":[
				-2.3841852225814364e-07,
				1.4319744110107422,
				1.3699974488190492e-10
			]
		},
		{
			"children":[
				5
			],
			"name":"\u30dc\u30fc\u30f3.014",
			"rotation":[
				0.004532483406364918,
				0.7070925831794739,
				0.004532486665993929,
				0.7070919275283813
			],
			"scale":[
				0.9999998807907104,
				0.9999998211860657,
				0.9999998807907104
			],
			"translation":[
				8.999712974855356e-09,
				1.633785367012024,
				-3.9066865298309494e-08
			]
		},
		{
			"children":[
				6
			],
			"name":"\u30dc\u30fc\u30f3.013",
			"rotation":[
				-0.06967676430940628,
				-0.7036656737327576,
				-0.06967683881521225,
				0.7036653757095337
			],
			"scale":[
				0.9999999403953552,
				1,
				1
			],
			"translation":[
				8.046627613111923e-07,
				1.029637336730957,
				-1.9174848375769216e-09
			]
		},
		{
			"children":[
				7
			],
			"name":"\u30dc\u30fc\u30f3.012",
			"rotation":[
				0.038050517439842224,
				-0.04641450196504593,
				0.7719482183456421,
				0.6328457593917847
			],
			"scale":[
				0.9999999403953552,
				1,
				1
			],
			"translation":[
				-4.199184888697971e-10,
				1.0724406242370605,
				-4.631462502402428e-08
			]
		},
		{
			"children":[
				0,
				4,
				8
			],
			"name":"\u30dc\u30fc\u30f3.002",
			"rotation":[
				0.01927209086716175,
				1.1000189881161734e-14,
				4.594822744508065e-09,
				0.9998143315315247
			],
			"scale":[
				1,
				1,
				0.9999999403953552
			],
			"translation":[
				-5.356142196433211e-10,
				0.929530680179596,
				-6.933809970632865e-08
			]
		},
		{
			"children":[
				9
			],
			"name":"\u30dc\u30fc\u30f3.001",
			"rotation":[
				-0.09652042388916016,
				1.1865270010957829e-07,
				-1.1506131158967037e-08,
				0.9953309893608093
			],
			"translation":[
				0,
				1.225314736366272,
				3.725290298461914e-09
			]
		},
		{
			"name":"\u30dc\u30fc\u30f3.011",
			"rotation":[
				-0.008424682542681694,
				0.004786991514265537,
				-0.6204394698143005,
				0.7841944694519043
			],
			"scale":[
				1,
				1,
				0.9999999403953552
			],
			"translation":[
				4.6886270865797997e-08,
				2.538454532623291,
				4.696198629972059e-08
			]
		},
		{
			"children":[
				11
			],
			"name":"\u30dc\u30fc\u30f3.010",
			"rotation":[
				-0.010020488873124123,
				0.00015397867537103593,
				0.130216583609581,
				0.9914349317550659
			],
			"scale":[
				1,
				1,
				0.9999998211860657
			],
			"translation":[
				-9.755603969097137e-08,
				2.554536819458008,
				-1.3003990773086116e-07
			]
		},
		{
			"children":[
				12
			],
			"name":"\u30dc\u30fc\u30f3.009",
			"rotation":[
				-0.5768923163414001,
				-0.022565793246030807,
				-0.06194205954670906,
				0.8141555190086365
			],
			"scale":[
				1,
				1,
				1.0000001192092896
			],
			"translation":[
				1.6763806343078613e-08,
				0.5768778324127197,
				-1.9535598028141976e-07
			]
		},
		{
			"children":[
				13
			],
			"name":"\u30dc\u30fc\u30f3.008",
			"rotation":[
				-0.5870400071144104,
				-0.41457435488700867,
				-0.5573307871818542,
				0.41580596566200256
			],
			"translation":[
				0,
				3.6694109439849854e-07,
				-1.1175870895385742e-08
			]
		},
		{
			"name":"\u30dc\u30fc\u30f3.019",
			"rotation":[
				0.009061996825039387,
				-0.002816054504364729,
				-0.6204305291175842,
				0.7842040061950684
			],
			"scale":[
				1,
				0.9999998807907104,
				0.9999999403953552
			],
			"translation":[
				3.9319274947047234e-08,
				2.5384557247161865,
				1.2791133485734463e-08
			]
		},
		{
			"children":[
				15
			],
			"name":"\u30dc\u30fc\u30f3.018",
			"rotation":[
				0.009741689078509808,
				-0.003749967785552144,
				0.13023777306079865,
				0.9914278984069824
			],
			"scale":[
				1,
				0.9999998211860657,
				1
			],
			"translation":[
				8.044298738241196e-08,
				2.5545361042022705,
				4.0745362639427185e-08
			]
		},
		{
			"children":[
				16
			],
			"name":"\u30dc\u30fc\u30f3.017",
			"rotation":[
				0.56663578748703,
				0.11626369506120682,
				-0.12476176023483276,
				0.8061272501945496
			],
			"scale":[
				0.9999999403953552,
				1.000000238418579,
				0.9999999403953552
			],
			"translation":[
				-2.7939677238464355e-08,
				0.5768778920173645,
				-3.762543201446533e-07
			]
		},
		{
			"children":[
				17
			],
			"name":"\u30dc\u30fc\u30f3.016",
			"rotation":[
				0.6197851300239563,
				-0.45977115631103516,
				0.520672619342804,
				0.36520811915397644
			],
			"translation":[
				0,
				3.67872416973114e-07,
				1.862645149230957e-08
			]
		},
		{
			"children":[
				10,
				14,
				18
			],
			"name":"\u30dc\u30fc\u30f3",
			"rotation":[
				0.017342383041977882,
				0,
				0,
				0.9998496770858765
			],
			"scale":[
				1,
				0.9999999403953552,
				0.9999999403953552
			],
			"translation":[
				-1.862645149230957e-09,
				0.05507183074951172,
				-0.04249337315559387
			]
		},
		{
			"mesh":0,
			"name":"\u7acb\u65b9\u4f53.001",
			"skin":0
		},
		{
			"children":[
				20,
				19
			],
			"name":"\u30a2\u30fc\u30de\u30c1\u30e5\u30a2",
			"scale":[
				0.1436784863471985,
				0.1436784863471985,
				0.1436784863471985
			],
			"translation":[
				0.0031142234802246094,
				0.8355681300163269,
				0.039562880992889404
			]
		}
	],
	"animations":[
		{
			"channels":[
				{
					"sampler":0,
					"target":{
						"node":19,
						"path":"translation"
					}
				},
				{
					"sampler":1,
					"target":{
						"node":19,
						"path":"rotation"
					}
				},
				{
					"sampler":2,
					"target":{
						"node":19,
						"path":"scale"
					}
				},
				{
					"sampler":3,
					"target":{
						"node":10,
						"path":"translation"
					}
				},
				{
					"sampler":4,
					"target":{
						"node":10,
						"path":"rotation"
					}
				},
				{
					"sampler":5,
					"target":{
						"node":10,
						"path":"scale"
					}
				},
				{
					"sampler":6,
					"target":{
						"node":9,
						"path":"translation"
					}
				},
				{
					"sampler":7,
					"target":{
						"node":9,
						"path":"rotation"
					}
				},
				{
					"sampler":8,
					"target":{
						"node":9,
						"path":"scale"
					}
				},
				{
					"sampler":9,
					"target":{
						"node":0,
						"path":"translation"
					}
				},
				{
					"sampler":10,
					"target":{
						"node":0,
						"path":"rotation"
					}
				},
				{
					"sampler":11,
					"target":{
						"node":0,
						"path":"scale"
					}
				},
				{
					"sampler":12,
					"target":{
						"node":4,
						"path":"translation"
					}
				},
				{
					"sampler":13,
					"target":{
						"node":4,
						"path":"rotation"
					}
				},
				{
					"sampler":14,
					"target":{
						"node":4,
						"path":"scale"
					}
				},
				{
					"sampler":15,
					"target":{
						"node":3,
						"path":"translation"
					}
				},
				{
					"sampler":16,
					"target":{
						"node":3,
						"path":"rotation"
					}
				},
				{
					"sampler":17,
					"target":{
						"node":3,
						"path":"scale"
					}
				},
				{
					"sampler":18,
					"target":{
						"node":2,
						"path":"translation"
					}
				},
				{
					"sampler":19,
					"target":{
						"node":2,
						"path":"rotation"
					}
				},
				{
					"sampler":20,
					"target":{
						"node":2,
						"path":"scale"
					}
				},
				{
					"sampler":21,
					"target":{
						"node":1,
						"path":"translation"
					}
				},
				{
					"sampler":22,
					"target":{
						"node":1,
						"path":"rotation"
					}
				},
				{
					"sampler":23,
					"target":{
						"node":1,
						"path":"scale"
					}
				},
				{
					"sampler":24,
					"target":{
						"node":8,
						"path":"translation"
					}
				},
				{
					"sampler":25,
					"target":{
						"node":8,
						"path":"rotation"
					}
				},
				{
					"sampler":26,
					"target":{
						"node":8,
						"path":"scale"
					}
				},
				{
					"sampler":27,
					"target":{
						"node":7,
						"path":"translation"
					}
				},
				{
					"sampler":28,
					"target":{
						"node":7,
						"path":"rotation"
					}
				},
				{
					"sampler":29,
					"target":{
						"node":7,
						"path":"scale"
					}
				},
				{
					"sampler":30,
					"target":{
						"node":6,
						"path":"translation"
					}
				},
				{
					"sampler":31,
					"target":{
						"node":6,
						"path":"rotation"
					}
				},
				{
					"sampler":32,
					"target":{
						"node":6,
						"path":"scale"
					}
				},
				{
					"sampler":33,
					"target":{
						"node":5,
						"path":"translation"
					}
				},
				{
					"sampler":34,
					"target":{
						"node":5,
						"path":"rotation"
					}
				},
				{
					"sampler":35,
					"target":{
						"node":5,
						"path":"scale"
					}
				},
				{
					"sampler":36,
					"target":{
						"node":14,
						"path":"translation"
					}
				},
				{
					"sampler":37,
					"target":{
						"node":14,
						"path":"rotation"
					}
				},
				{
					"sampler":38,
					"target":{
						"node":14,
						"path":"scale"
					}
				},
				{
					"sampler":39,
					"target":{
						"node":13,
						"path":"translation"
					}
				},
				{
					"sampler":40,
					"target":{
						"node":13,
						"path":"rotation"
					}
				},
				{
					"sampler":41,
					"target":{
						"node":13,
						"path":"scale"
					}
				},
				{
					"sampler":42,
					"target":{
						"node":12,
						"path":"translation"
					}
				},
				{
					"sampler":43,
					"target":{
						"node":12,
						"path":"rotation"
					}
				},
				{
					"sampler":44,
					"target":{
						"node":12,
						"path":"scale"
					}
				},
				{
					"sampler":45,
					"target":{
						"node":11,
						"path":"translation"
					}
				},
				{
					"sampler":46,
					"target":{
						"node":11,
						"path":"rotation"
					}
				},
				{
					"sampler":47,
					"target":{
						"node":11,
						"path":"scale"
					}
				},
				{
					"sampler":48,
					"target":{
						"node":18,
						"path":"translation"
					}
				},
				{
					"sampler":49,
					"target":{
						"node":18,
						"path":"rotation"
					}
				},
				{
					"sampler":50,
					"target":{
						"node":18,
						"path":"scale"
					}
				},
				{
					"sampler":51,
					"target":{
						"node":17,
						"path":"translation"
					}
				},
				{
					"sampler":52,
					"target":{
						"node":17,
						"path":"rotation"
					}
				},
				{
					"sampler":53,
					"target":{
						"node":17,
						"path":"scale"
					}
				},
				{
					"sampler":54,
					"target":{
						"node":16,
						"path":"translation"
					}
				},
				{
					"sampler":55,
					"target":{
						"node":16,
						"path":"rotation"
					}
				},
				{
					"sampler":56,
					"target":{
						"node":16,
						"path":"scale"
					}
				},
				{
					"sampler":57,
					"target":{
						"node":15,
						"path":"translation"
					}
				},
				{
					"sampler":58,
					"target":{
						"node":15,
						"path":"rotation"
					}
				},
				{
					"sampler":59,
					"target":{
						"node":15,
						"path":"scale"
					}
				}
			],
			"name":"\u30a2\u30fc\u30de\u30c1\u30e5\u30a2.001\u30a2\u30af\u30b7\u30e7\u30f3",
			"samplers":[
				{
					"input":7,
					"interpolation":"LINEAR",
					"output":8
				},
				{
					"input":7,
					"interpolation":"LINEAR",
					"output":9
				},
				{
					"input":10,
					"interpolation":"STEP",
					"output":11
				},
				{
					"input":10,
					"interpolation":"LINEAR",
					"output":12
				},
				{
					"input":10,
					"interpolation":"LINEAR",
					"output":13
				},
				{
					"input":10,
					"interpolation":"STEP",
					"output":14
				},
				{
					"input":10,
					"interpolation":"LINEAR",
					"output":15
				},
				{
					"input":10,
					"interpolation":"LINEAR",
					"output":16
				},
				{
					"input":10,
					"interpolation":"LINEAR",
					"output":17
				},
				{
					"input":10,
					"interpolation":"LINEAR",
					"output":18
				},
				{
					"input":10,
					"interpolation":"LINEAR",
					"output":19
				},
				{
					"input":10,
					"interpolation":"LINEAR",
					"output":20
				},
				{
					"input":10,
					"interpolation":"LINEAR",
					"output":21
				},
				{
					"input":10,
					"interpolation":"LINEAR",
					"output":22
				},
				{
					"input":10,
					"interpolation":"LINEAR",
					"output":23
				},
				{
					"input":10,
					"interpolation":"LINEAR",
					"output":24
				},
				{
					"input":10,
					"interpolation":"LINEAR",
					"output":25
				},
				{
					"input":10,
					"interpolation":"STEP",
					"output":26
				},
				{
					"input":10,
					"interpolation":"LINEAR",
					"output":27
				},
				{
					"input":10,
					"interpolation":"LINEAR",
					"output":28
				},
				{
					"input":10,
					"interpolation":"LINEAR",
					"output":29
				},
				{
					"input":10,
					"interpolation":"LINEAR",
					"output":30
				},
				{
					"input":10,
					"interpolation":"LINEAR",
					"output":31
				},
				{
					"input":10,
					"interpolation":"LINEAR",
					"output":32
				},
				{
					"input":10,
					"interpolation":"LINEAR",
					"output":33
				},
				{
					"input":10,
					"interpolation":"LINEAR",
					"output":34
				},
				{
					"input":10,
					"interpolation":"LINEAR",
					"output":35
				},
				{
					"input":10,
					"interpolation":"LINEAR",
					"output":36
				},
				{
					"input":10,
					"interpolation":"LINEAR",
					"output":37
				},
				{
					"input":10,
					"interpolation":"LINEAR",
					"output":38
				},
				{
					"input":10,
					"interpolation":"LINEAR",
					"output":39
				},
				{
					"input":10,
					"interpolation":"LINEAR",
					"output":40
				},
				{
					"input":10,
					"interpolation":"LINEAR",
					"output":41
				},
				{
					"input":10,
					"interpolation":"LINEAR",
					"output":42
				},
				{
					"input":10,
					"interpolation":"LINEAR",
					"output":43
				},
				{
					"input":10,
					"interpolation":"STEP",
					"output":44
				},
				{
					"input":10,
					"interpolation":"LINEAR",
					"output":45
				},
				{
					"input":10,
					"interpolation":"LINEAR",
					"output":46
				},
				{
					"input":10,
					"interpolation":"STEP",
					"output":47
				},
				{
					"input":10,
					"interpolation":"LINEAR",
					"output":48
				},
				{
					"input":10,
					"interpolation":"LINEAR",
					"output":49
				},
				{
					"input":10,
					"interpolation":"LINEAR",
					"output":50
				},
				{
					"input":10,
					"interpolation":"LINEAR",
					"output":51
				},
				{
					"input":10,
					"interpolation":"LINEAR",
					"output":52
				},
				{
					"input":10,
					"interpolation":"STEP",
					"output":53
				},
				{
					"input":10,
					"interpolation":"LINEAR",
					"output":54
				},
				{
					"input":10,
					"interpolation":"LINEAR",
					"output":55
				},
				{
					"input":10,
					"interpolation":"LINEAR",
					"output":56
				},
				{
					"input":10,
					"interpolation":"LINEAR",
					"output":57
				},
				{
					"input":10,
					"interpolation":"LINEAR",
					"output":58
				},
				{
					"input":10,
					"interpolation":"LINEAR",
					"output":59
				},
				{
					"input":10,
					"interpolation":"LINEAR",
					"output":60
				},
				{
					"input":10,
					"interpolation":"LINEAR",
					"output":61
				},
				{
					"input":10,
					"interpolation":"STEP",
					"output":62
				},
				{
					"input":10,
					"interpolation":"LINEAR",
					"output":63
				},
				{
					"input":10,
					"interpolation":"LINEAR",
					"output":64
				},
				{
					"input":10,
					"interpolation":"STEP",
					"output":65
				},
				{
					"input":10,
					"interpolation":"LINEAR",
					"output":66
				},
				{
					"input":10,
					"interpolation":"LINEAR",
					"output":67
				},
				{
					"input":10,
					"interpolation":"LINEAR",
					"output":68
				}
			]
		}
	],
	"meshes":[
		{
			"name":"\u7acb\u65b9\u4f53.002",
			"primitives":[
				{
					"attributes":{
						"POSITION":0,
						"NORMAL":1,
						"TEXCOORD_0":2,
						"JOINTS_0":3,
						"WEIGHTS_0":4
					},
					"indices":5
				}
			]
		}
	],
	"skins":[
		{
			"inverseBindMatrices":6,
			"joints":[
				19,
				10,
				9,
				0,
				4,
				3,
				2,
				1,
				8,
				7,
				6,
				5,
				14,
				13,
				12,
				11,
				18,
				17,
				16,
				15
			],
			"name":"\u30a2\u30fc\u30de\u30c1\u30e5\u30a2"
		}
	],
	"accessors":[
		{
			"bufferView":0,
			"componentType":5126,
			"count":2912,
			"max":[
				0.6619808077812195,
				1.7233211994171143,
				0.21343925595283508
			],
			"min":[
				-0.6557523608207703,
				0.004345482215285301,
				-0.18735185265541077
			],
			"type":"VEC3"
		},
		{
			"bufferView":1,
			"componentType":5126,
			"count":2912,
			"type":"VEC3"
		},
		{
			"bufferView":2,
			"componentType":5126,
			"count":2912,
			"type":"VEC2"
		},
		{
			"bufferView":3,
			"componentType":5121,
			"count":2912,
			"type":"VEC4"
		},
		{
			"bufferView":4,
			"componentType":5126,
			"count":2912,
			"type":"VEC4"
		},
		{
			"bufferView":5,
			"componentType":5123,
			"count":3351,
			"type":"SCALAR"
		},
		{
			"bufferView":6,
			"componentType":5126,
			"count":20,
			"type":"MAT4"
		},
		{
			"bufferView":7,
			"componentType":5126,
			"count":24,
			"max":[
				1
			],
			"min":[
				0.041666666666666664
			],
			"type":"SCALAR"
		},
		{
			"bufferView":8,
			"componentType":5126,
			"count":24,
			"type":"VEC3"
		},
		{
			"bufferView":9,
			"componentType":5126,
			"count":24,
			"type":"VEC4"
		},
		{
			"bufferView":10,
			"componentType":5126,
			"count":2,
			"max":[
				1
			],
			"min":[
				0.041666666666666664
			],
			"type":"SCALAR"
		},
		{
			"bufferView":11,
			"componentType":5126,
			"count":2,
			"type":"VEC3"
		},
		{
			"bufferView":12,
			"componentType":5126,
			"count":2,
			"type":"VEC3"
		},
		{
			"bufferView":13,
			"componentType":5126,
			"count":2,
			"type":"VEC4"
		},
		{
			"bufferView":14,
			"componentType":5126,
			"count":2,
			"type":"VEC3"
		},
		{
			"bufferView":15,
			"componentType":5126,
			"count":2,
			"type":"VEC3"
		},
		{
			"bufferView":16,
			"componentType":5126,
			"count":2,
			"type":"VEC4"
		},
		{
			"bufferView":17,
			"componentType":5126,
			"count":2,
			"type":"VEC3"
		},
		{
			"bufferView":18,
			"componentType":5126,
			"count":2,
			"type":"VEC3"
		},
		{
			"bufferView":19,
			"componentType":5126,
			"count":2,
			"type":"VEC4"
		},
		{
			"bufferView":20,
			"componentType":5126,
			"count":2,
			"type":"VEC3"
		},
		{
			"bufferView":21,
			"componentType":5126,
			"count":2,
			"type":"VEC3"
		},
		{
			"bufferView":22,
			"componentType":5126,
			"count":2,
			"type":"VEC4"
		},
		{
			"bufferView":23,
			"componentType":5126,
			"count":2,
			"type":"VEC3"
		},
		{
			"bufferView":24,
			"componentType":5126,
			"count":2,
			"type":"VEC3"
		},
		{
			"bufferView":25,
			"componentType":5126,
			"count":2,
			"type":"VEC4"
		},
		{
			"bufferView":26,
			"componentType":5126,
			"count":2,
			"type":"VEC3"
		},
		{
			"bufferView":27,
			"componentType":5126,
			"count":2,
			"type":"VEC3"
		},
		{
			"bufferView":28,
			"componentType":5126,
			"count":2,
			"type":"VEC4"
		},
		{
			"bufferView":29,
			"componentType":5126,
			"count":2,
			"type":"VEC3"
		},
		{
			"bufferView":30,
			"componentType":5126,
			"count":2,
			"type":"VEC3"
		},
		{
			"bufferView":31,
			"componentType":5126,
			"count":2,
			"type":"VEC4"
		},
		{
			"bufferView":32,
			"componentType":5126,
			"count":2,
			"type":"VEC3"
		},
		{
			"bufferView":33,
			"componentType":5126,
			"count":2,
			"type":"VEC3"
		},
		{
			"bufferView":34,
			"componentType":5126,
			"count":2,
			"type":"VEC4"
		},
		{
			"bufferView":35,
			"componentType":5126,
			"count":2,
			"type":"VEC3"
		},
		{
			"bufferView":36,
			"componentType":5126,
			"count":2,
			"type":"VEC3"
		},
		{
			"bufferView":37,
			"componentType":5126,
			"count":2,
			"type":"VEC4"
		},
		{
			"bufferView":38,
			"componentType":5126,
			"count":2,
			"type":"VEC3"
		},
		{
			"bufferView":39,
			"componentType":5126,
			"count":2,
			"type":"VEC3"
		},
		{
			"bufferView":40,
			"componentType":5126,
			"count":2,
			"type":"VEC4"
		},
		{
			"bufferView":41,
			"componentType":5126,
			"count":2,
			"type":"VEC3"
		},
		{
			"bufferView":42,
			"componentType":5126,
			"count":2,
			"type":"VEC3"
		},
		{
			"bufferView":43,
			"componentType":5126,
			"count":2,
			"type":"VEC4"
		},
		{
			"bufferView":44,
			"componentType":5126,
			"count":2,
			"type":"VEC3"
		},
		{
			"bufferView":45,
			"componentType":5126,
			"count":2,
			"type":"VEC3"
		},
		{
			"bufferView":46,
			"componentType":5126,
			"count":2,
			"type":"VEC4"
		},
		{
			"bufferView":47,
			"componentType":5126,
			"count":2,
			"type":"VEC3"
		},
		{
			"bufferView":48,
			"componentType":5126,
			"count":2,
			"type":"VEC3"
		},
		{
			"bufferView":49,
			"componentType":5126,
			"count":2,
			"type":"VEC4"
		},
		{
			"bufferView":50,
			"componentType":5126,
			"count":2,
			"type":"VEC3"
		},
		{
			"bufferView":51,
			"componentType":5126,
			"count":2,
			"type":"VEC3"
		},
		{
			"bufferView":52,
			"componentType":5126,
			"count":2,
			"type":"VEC4"
		},
		{
			"bufferView":53,
			"componentType":5126,
			"count":2,
			"type":"VEC3"
		},
		{
			"bufferView":54,
			"componentType":5126,
			"count":2,
			"type":"VEC3"
		},
		{
			"bufferView":55,
			"componentType":5126,
			"count":2,
			"type":"VEC4"
		},
		{
			"bufferView":56,
			"componentType":5126,
			"count":2,
			"type":"VEC3"
		},
		{
			"bufferView":57,
			"componentType":5126,
			"count":2,
			"type":"VEC3"
		},
		{
			"bufferView":58,
			"componentType":5126,
			"count":2,
			"type":"VEC4"
		},
		{
			"bufferView":59,
			"componentType":5126,
			"count":2,
			"type":"VEC3"
		},
		{
			"bufferView":60,
			"componentType":5126,
			"count":2,
			"type":"VEC3"
		},
		{
			"bufferView":61,
			"componentType":5126,
			"count":2,
			"type":"VEC4"
		},
		{
			"bufferView":62,
			"componentType":5126,
			"count":2,
			"type":"VEC3"
		},
		{
			"bufferView":63,
			"componentType":5126,
			"count":2,
			"type":"VEC3"
		},
		{
			"bufferView":64,
			"componentType":5126,
			"count":2,
			"type":"VEC4"
		},
		{
			"bufferView":65,
			"componentType":5126,
			"count":2,
			"type":"VEC3"
		},
		{
			"bufferView":66,
			"componentType":5126,
			"count":2,
			"type":"VEC3"
		},
		{
			"bufferView":67,
			"componentType":5126,
			"count":2,
			"type":"VEC4"
		},
		{
			"bufferView":68,
			"componentType":5126,
			"count":2,
			"type":"VEC3"
		}
	],
	"bufferViews":[
		{
			"buffer":0,
			"byteLength":34944,
			"byteOffset":0,
			"target":34962
		},
		{
			"buffer":0,
			"byteLength":34944,
			"byteOffset":34944,
			"target":34962
		},
		{
			"buffer":0,
			"byteLength":23296,
			"byteOffset":69888,
			"target":34962
		},
		{
			"buffer":0,
			"byteLength":11648,
			"byteOffset":93184,
			"target":34962
		},
		{
			"buffer":0,
			"byteLength":46592,
			"byteOffset":104832,
			"target":34962
		},
		{
			"buffer":0,
			"byteLength":6702,
			"byteOffset":151424,
			"target":34963
		},
		{
			"buffer":0,
			"byteLength":1280,
			"byteOffset":158128
		},
		{
			"buffer":0,
			"byteLength":96,
			"byteOffset":159408
		},
		{
			"buffer":0,
			"byteLength":288,
			"byteOffset":159504
		},
		{
			"buffer":0,
			"byteLength":384,
			"byteOffset":159792
		},
		{
			"buffer":0,
			"byteLength":8,
			"byteOffset":160176
		},
		{
			"buffer":0,
			"byteLength":24,
			"byteOffset":160184
		},
		{
			"buffer":0,
			"byteLength":24,
			"byteOffset":160208
		},
		{
			"buffer":0,
			"byteLength":32,
			"byteOffset":160232
		},
		{
			"buffer":0,
			"byteLength":24,
			"byteOffset":160264
		},
		{
			"buffer":0,
			"byteLength":24,
			"byteOffset":160288
		},
		{
			"buffer":0,
			"byteLength":32,
			"byteOffset":160312
		},
		{
			"buffer":0,
			"byteLength":24,
			"byteOffset":160344
		},
		{
			"buffer":0,
			"byteLength":24,
			"byteOffset":160368
		},
		{
			"buffer":0,
			"byteLength":32,
			"byteOffset":160392
		},
		{
			"buffer":0,
			"byteLength":24,
			"byteOffset":160424
		},
		{
			"buffer":0,
			"byteLength":24,
			"byteOffset":160448
		},
		{
			"buffer":0,
			"byteLength":32,
			"byteOffset":160472
		},
		{
			"buffer":0,
			"byteLength":24,
			"byteOffset":160504
		},
		{
			"buffer":0,
			"byteLength":24,
			"byteOffset":160528
		},
		{
			"buffer":0,
			"byteLength":32,
			"byteOffset":160552
		},
		{
			"buffer":0,
			"byteLength":24,
			"byteOffset":160584
		},
		{
			"buffer":0,
			"byteLength":24,
			"byteOffset":160608
		},
		{
			"buffer":0,
			"byteLength":32,
			"byteOffset":160632
		},
		{
			"buffer":0,
			"byteLength":24,
			"byteOffset":160664
		},
		{
			"buffer":0,
			"byteLength":24,
			"byteOffset":160688
		},
		{
			"buffer":0,
			"byteLength":32,
			"byteOffset":160712
		},
		{
			"buffer":0,
			"byteLength":24,
			"byteOffset":160744
		},
		{
			"buffer":0,
			"byteLength":24,
			"byteOffset":160768
		},
		{
			"buffer":0,
			"byteLength":32,
			"byteOffset":160792
		},
		{
			"buffer":0,
			"byteLength":24,
			"byteOffset":160824
		},
		{
			"buffer":0,
			"byteLength":24,
			"byteOffset":160848
		},
		{
			"buffer":0,
			"byteLength":32,
			"byteOffset":160872
		},
		{
			"buffer":0,
			"byteLength":24,
			"byteOffset":160904
		},
		{
			"buffer":0,
			"byteLength":24,
			"byteOffset":160928
		},
		{
			"buffer":0,
			"byteLength":32,
			"byteOffset":160952
		},
		{
			"buffer":0,
			"byteLength":24,
			"byteOffset":160984
		},
		{
			"buffer":0,
			"byteLength":24,
			"byteOffset":161008
		},
		{
			"buffer":0,
			"byteLength":32,
			"byteOffset":161032
		},
		{
			"buffer":0,
			"byteLength":24,
			"byteOffset":161064
		},
		{
			"buffer":0,
			"byteLength":24,
			"byteOffset":161088
		},
		{
			"buffer":0,
			"byteLength":32,
			"byteOffset":161112
		},
		{
			"buffer":0,
			"byteLength":24,
			"byteOffset":161144
		},
		{
			"buffer":0,
			"byteLength":24,
			"byteOffset":161168
		},
		{
			"buffer":0,
			"byteLength":32,
			"byteOffset":161192
		},
		{
			"buffer":0,
			"byteLength":24,
			"byteOffset":161224
		},
		{
			"buffer":0,
			"byteLength":24,
			"byteOffset":161248
		},
		{
			"buffer":0,
			"byteLength":32,
			"byteOffset":161272
		},
		{
			"buffer":0,
			"byteLength":24,
			"byteOffset":161304
		},
		{
			"buffer":0,
			"byteLength":24,
			"byteOffset":161328
		},
		{
			"buffer":0,
			"byteLength":32,
			"byteOffset":161352
		},
		{
			"buffer":0,
			"byteLength":24,
			"byteOffset":161384
		},
		{
			"buffer":0,
			"byteLength":24,
			"byteOffset":161408
		},
		{
			"buffer":0,
			"byteLength":32,
			"byteOffset":161432
		},
		{
			"buffer":0,
			"byteLength":24,
			"byteOffset":161464
		},
		{
			"buffer":0,
			"byteLength":24,
			"byteOffset":161488
		},
		{
			"buffer":0,
			"byteLength":32,
			"byteOffset":161512
		},
		{
			"buffer":0,
			"byteLength":24,
			"byteOffset":161544
		},
		{
			"buffer":0,
			"byteLength":24,
			"byteOffset":161568
		},
		{
			"buffer":0,
			"byteLength":32,
			"byteOffset":161592
		},
		{
			"buffer":0,
			"byteLength":24,
			"byteOffset":161624
		},
		{
			"buffer":0,
			"byteLength":24,
			"byteOffset":161648
		},
		{
			"buffer":0,
			"byteLength":32,
			"byteOffset":161672
		},
		{
			"buffer":0,
			"byteLength":24,
			"byteOffset":161704
		}
	],
	"buffers":[
		{
			"byteLength":161728,
			"uri":"target.bin"
		}
	]
}
