# Blender 5.1.0
# www.blender.org
mtllib tutorial_1.mtl
o 平面
v 2.985452 0.000000 -2.962193
v -2.985452 0.000000 -2.962193
v 2.985452 0.000000 2.961549
v -2.985452 0.000000 2.961549
v -1.017245 0.000000 13.016584
v 1.017245 0.000000 13.016584
v -1.017245 0.000000 -2.962193
v 1.017245 0.000000 -2.962193
v 1.017245 0.000000 2.961549
v -1.017245 0.000000 2.961549
v -1.017245 0.000000 24.903721
v 1.017245 0.000000 24.903721
v -6.988831 0.000000 13.016584
v 6.988831 0.000000 13.016584
v -6.988831 0.000000 24.903721
v 6.988831 0.000000 24.903721
v -19.994318 0.000000 14.996540
v -19.994318 0.000000 22.923763
v -28.530125 0.000000 14.996540
v -28.530125 0.000000 22.923763
v 1.017245 0.000000 14.996540
v 1.017245 0.000000 22.923763
v -1.017245 0.000000 22.923763
v -1.017245 0.000000 14.996540
v 6.988831 0.000000 14.996540
v 6.988831 0.000000 22.923763
v -6.988831 0.000000 22.923763
v -6.988831 0.000000 14.996540
v -19.994318 0.000000 39.986526
v -28.530125 0.000000 39.986526
v -22.632509 0.000000 55.203602
v -25.891935 0.000000 55.203602
v -16.518246 0.000000 39.986526
v -32.006195 0.000000 39.986526
v -16.518246 0.000000 55.203602
v -32.006195 0.000000 55.203602
v -22.632509 0.000000 65.355499
v -25.891935 0.000000 65.355499
v -22.632509 0.000000 82.411018
v -25.891935 0.000000 82.411018
v -0.023058 0.000000 65.355499
v -0.023058 0.000000 82.411018
v 2.985452 -9.895333 -2.962193
v -2.985452 -9.895333 -2.962193
v 2.985452 -9.895333 2.961549
v -2.985452 -9.895333 2.961549
v -1.017245 -9.895333 13.016584
v 1.017245 -9.895333 13.016584
v -1.017245 -9.895333 -2.962193
v 1.017245 -9.895333 -2.962193
v 1.017245 -9.895333 2.961549
v -1.017245 -9.895333 2.961549
v -1.017245 -9.895333 24.903721
v 1.017245 -9.895333 24.903721
v -6.988831 -9.895333 13.016584
v 6.988831 -9.895333 13.016584
v -6.988831 -9.895333 24.903721
v 6.988831 -9.895333 24.903721
v -19.994318 -9.895333 14.996540
v -19.994318 -9.895333 22.923763
v -28.530125 -9.895333 14.996540
v -28.530125 -9.895333 22.923763
v 6.988831 -9.895333 14.996540
v 6.988831 -9.895333 22.923763
v -6.988831 -9.895333 22.923763
v -6.988831 -9.895333 14.996540
v -19.994318 -9.895333 39.986526
v -28.530125 -9.895333 39.986526
v -22.632509 -9.895333 55.203602
v -25.891935 -9.895333 55.203602
v -16.518246 -9.895333 39.986526
v -32.006195 -9.895333 39.986526
v -16.518246 -9.895333 55.203602
v -32.006195 -9.895333 55.203602
v -22.632509 -9.895333 65.355499
v -25.891935 -9.895333 65.355499
v -22.632509 -9.895333 82.411018
v -25.891935 -9.895333 82.411018
v -0.023058 -9.895333 65.355499
v -0.023058 -9.895333 82.411018
vn -0.0000 1.0000 -0.0000
vn -1.0000 -0.0000 -0.0000
vn 1.0000 -0.0000 -0.0000
vn -0.0000 -0.0000 1.0000
vn -0.0000 -0.0000 -1.0000
vt 0.602956 1.000000
vt 0.397044 1.000000
vt 0.397044 0.000000
vt 0.602956 0.000000
vt 1.000000 0.000000
vt 0.000000 1.000000
vt 0.000000 0.000000
vt 0.602956 1.000000
vt 1.000000 1.000000
s 0
f 10/1/1 6/2/1 9/2/1
f 28/1/1 18/1/1 27/1/1
f 10/1/1 8/3/1 7/4/1
f 2/5/1 10/1/1 7/4/1
f 8/3/1 3/6/1 1/7/1
f 20/1/1 29/1/1 18/1/1
f 17/8/1 20/1/1 18/1/1
f 29/1/1 35/1/1 33/1/1
f 30/1/1 36/1/1 32/1/1
f 30/1/1 31/1/1 29/1/1
f 26/2/1 21/2/1 22/2/1
f 28/1/1 23/1/1 24/1/1
f 22/2/1 24/1/1 23/1/1
f 5/1/1 21/2/1 6/2/1
f 12/2/1 26/2/1 22/2/1
f 21/2/1 14/2/1 6/2/1
f 23/1/1 12/2/1 22/2/1
f 23/1/1 15/1/1 11/1/1
f 5/1/1 28/1/1 24/1/1
f 32/1/1 37/1/1 31/1/1
f 38/1/1 39/1/1 37/1/1
f 39/1/1 41/1/1 37/1/1
f 32/1/2 76/1/2 38/1/2
f 25/2/3 56/2/3 14/2/3
f 6/2/3 51/2/3 9/2/3
f 40/1/4 77/1/4 39/1/4
f 18/1/4 65/1/4 27/1/4
f 11/1/4 54/2/4 12/2/4
f 26/2/3 63/2/3 25/2/3
f 15/1/4 53/1/4 11/1/4
f 27/1/2 57/1/2 15/1/2
f 38/1/2 78/1/2 40/1/2
f 5/1/5 55/1/5 13/1/5
f 13/1/2 66/1/2 28/1/2
f 10/1/2 47/1/2 5/1/2
f 42/1/3 79/1/3 41/1/3
f 14/2/5 48/2/5 6/2/5
f 8/3/5 49/4/5 7/4/5
f 41/1/5 75/1/5 37/1/5
f 12/2/4 58/2/4 16/2/4
f 35/1/3 71/1/3 33/1/3
f 39/1/4 80/1/4 42/1/4
f 34/1/2 74/1/2 36/1/2
f 36/1/4 70/1/4 32/1/4
f 17/8/5 61/1/5 19/1/5
f 30/1/5 72/1/5 34/1/5
f 7/4/5 44/5/5 2/5/5
f 19/1/2 62/1/2 20/1/2
f 33/1/5 67/1/5 29/1/5
f 4/9/4 52/1/4 10/1/4
f 20/1/2 68/1/2 30/1/2
f 31/1/4 73/1/4 35/1/4
f 1/7/5 50/3/5 8/3/5
f 3/6/3 43/7/3 1/7/3
f 28/1/5 59/8/5 17/8/5
f 9/2/4 45/6/4 3/6/4
f 29/1/3 60/1/3 18/1/3
f 37/1/3 69/1/3 31/1/3
f 16/2/3 64/2/3 26/2/3
f 2/5/2 46/9/2 4/9/2
f 10/1/1 5/1/1 6/2/1
f 28/1/1 17/8/1 18/1/1
f 10/1/1 9/2/1 8/3/1
f 2/5/1 4/9/1 10/1/1
f 8/3/1 9/2/1 3/6/1
f 20/1/1 30/1/1 29/1/1
f 17/8/1 19/1/1 20/1/1
f 29/1/1 31/1/1 35/1/1
f 30/1/1 34/1/1 36/1/1
f 30/1/1 32/1/1 31/1/1
f 26/2/1 25/2/1 21/2/1
f 28/1/1 27/1/1 23/1/1
f 22/2/1 21/2/1 24/1/1
f 5/1/1 24/1/1 21/2/1
f 12/2/1 16/2/1 26/2/1
f 21/2/1 25/2/1 14/2/1
f 23/1/1 11/1/1 12/2/1
f 23/1/1 27/1/1 15/1/1
f 5/1/1 13/1/1 28/1/1
f 32/1/1 38/1/1 37/1/1
f 38/1/1 40/1/1 39/1/1
f 39/1/1 42/1/1 41/1/1
f 32/1/2 70/1/2 76/1/2
f 25/2/3 63/2/3 56/2/3
f 6/2/3 48/2/3 51/2/3
f 40/1/4 78/1/4 77/1/4
f 18/1/4 60/1/4 65/1/4
f 11/1/4 53/1/4 54/2/4
f 26/2/3 64/2/3 63/2/3
f 15/1/4 57/1/4 53/1/4
f 27/1/2 65/1/2 57/1/2
f 38/1/2 76/1/2 78/1/2
f 5/1/5 47/1/5 55/1/5
f 13/1/2 55/1/2 66/1/2
f 10/1/2 52/1/2 47/1/2
f 42/1/3 80/1/3 79/1/3
f 14/2/5 56/2/5 48/2/5
f 8/3/5 50/3/5 49/4/5
f 41/1/5 79/1/5 75/1/5
f 12/2/4 54/2/4 58/2/4
f 35/1/3 73/1/3 71/1/3
f 39/1/4 77/1/4 80/1/4
f 34/1/2 72/1/2 74/1/2
f 36/1/4 74/1/4 70/1/4
f 17/8/5 59/8/5 61/1/5
f 30/1/5 68/1/5 72/1/5
f 7/4/5 49/4/5 44/5/5
f 19/1/2 61/1/2 62/1/2
f 33/1/5 71/1/5 67/1/5
f 4/9/4 46/9/4 52/1/4
f 20/1/2 62/1/2 68/1/2
f 31/1/4 69/1/4 73/1/4
f 1/7/5 43/7/5 50/3/5
f 3/6/3 45/6/3 43/7/3
f 28/1/5 66/1/5 59/8/5
f 9/2/4 51/2/4 45/6/4
f 29/1/3 67/1/3 60/1/3
f 37/1/3 75/1/3 69/1/3
f 16/2/3 58/2/3 64/2/3
f 2/5/2 44/5/2 46/9/2
o 平面.001
v 1000.000000 -2.293730 -954.964111
v -1000.000000 -2.293730 -954.964111
v 1000.000000 -2.293730 1045.035889
v -1000.000000 -2.293730 1045.035889
vn -0.0000 1.0000 -0.0000
vt 1.000000 0.000000
vt 0.000000 1.000000
vt 0.000000 0.000000
vt 1.000000 1.000000
s 0
f 82/10/6 83/11/6 81/12/6
f 82/10/6 84/13/6 83/11/6
