# Blender 5.1.0
# www.blender.org
mtllib particleCylinder.mtl
o 円柱
v 0.000000 -0.190697 0.295718
v 0.000000 0.190697 0.493185
v -0.113167 -0.190697 0.273208
v -0.188734 0.190697 0.455643
v -0.209105 -0.190697 0.209105
v -0.348734 0.190697 0.348734
v -0.273208 -0.190697 0.113167
v -0.455643 0.190697 0.188734
v -0.295718 -0.190697 0.000000
v -0.493185 0.190697 -0.000000
v -0.273208 -0.190697 -0.113167
v -0.455643 0.190697 -0.188734
v -0.209105 -0.190697 -0.209105
v -0.348734 0.190697 -0.348734
v -0.113167 -0.190697 -0.273208
v -0.188734 0.190697 -0.455643
v 0.000000 -0.190697 -0.295718
v 0.000000 0.190697 -0.493185
v 0.113167 -0.190697 -0.273208
v 0.188734 0.190697 -0.455643
v 0.209105 -0.190697 -0.209105
v 0.348734 0.190697 -0.348734
v 0.273208 -0.190697 -0.113167
v 0.455643 0.190697 -0.188734
v 0.295718 -0.190697 0.000000
v 0.493185 0.190697 -0.000000
v 0.273208 -0.190697 0.113167
v 0.455643 0.190697 0.188734
v 0.209105 -0.190697 0.209105
v 0.348734 0.190697 0.348734
v 0.113167 -0.190697 0.273208
v 0.188734 0.190697 0.455643
vn -0.1739 -0.4528 0.8745
vn -0.4954 -0.4528 0.7414
vn -0.7414 -0.4528 0.4954
vn -0.8745 -0.4528 0.1739
vn -0.8745 -0.4528 -0.1739
vn -0.7414 -0.4528 -0.4954
vn -0.4954 -0.4528 -0.7414
vn -0.1739 -0.4528 -0.8745
vn 0.1739 -0.4528 -0.8745
vn 0.4954 -0.4528 -0.7414
vn 0.7414 -0.4528 -0.4954
vn 0.8745 -0.4528 -0.1739
vn 0.8745 -0.4528 0.1739
vn 0.7414 -0.4528 0.4954
vn 0.4954 -0.4528 0.7414
vn 0.1739 -0.4528 0.8745
vn -0.8745 -0.4528 0.1740
vn -0.8745 -0.4528 -0.1740
vn 0.8745 -0.4528 -0.1740
vn 0.8745 -0.4528 0.1740
vt 0.676302 0.530730
vt 0.921709 0.774898
vt 0.647180 0.595259
vt 0.600173 0.647766
vt 0.606922 0.996439
vt 0.536560 0.676938
vt 0.466427 0.679693
vt 0.220944 0.930735
vt 0.402790 0.653367
vt 0.351303 0.605658
vt 0.076553 0.788657
vt 0.321674 0.541265
vt 0.000100 0.604479
vt 0.318579 0.469876
vt 0.070536 0.223668
vt 0.347630 0.404910
vt 0.394892 0.351962
vt 0.392370 0.000774
vt 0.461437 0.325826
vt 0.531066 0.321966
vt 0.780186 0.072326
vt 0.596982 0.348730
vt 0.647339 0.395736
vt 0.921800 0.216655
vt 0.675404 0.459554
vt 0.994536 0.400423
vt 0.992131 0.593763
vt 0.785025 0.913964
vt 0.408776 0.999900
vt 0.000100 0.408389
vt 0.210309 0.082611
vt 0.592375 0.000100
s 1
f 1/1/1 4/2/1 3/3/1
f 4/2/2 5/4/2 3/3/2
f 5/4/3 8/5/3 7/6/3
f 8/5/4 9/7/4 7/6/4
f 9/7/5 12/8/5 11/9/5
f 12/8/6 13/10/6 11/9/6
f 14/11/7 15/12/7 13/10/7
f 16/13/8 17/14/8 15/12/8
f 17/14/9 20/15/9 19/16/9
f 20/15/10 21/17/10 19/16/10
f 21/17/11 24/18/11 23/19/11
f 24/18/12 25/20/12 23/19/12
f 25/20/13 28/21/13 27/22/13
f 28/21/14 29/23/14 27/22/14
f 30/24/15 31/25/15 29/23/15
f 32/26/16 1/1/16 31/25/16
f 1/1/1 2/27/1 4/2/1
f 4/2/2 6/28/2 5/4/2
f 5/4/3 6/28/3 8/5/3
f 8/5/4 10/29/17 9/7/4
f 9/7/18 10/29/18 12/8/18
f 12/8/6 14/11/6 13/10/6
f 14/11/7 16/13/7 15/12/7
f 16/13/8 18/30/8 17/14/8
f 17/14/9 18/30/9 20/15/9
f 20/15/10 22/31/10 21/17/10
f 21/17/11 22/31/11 24/18/11
f 24/18/12 26/32/19 25/20/12
f 25/20/20 26/32/20 28/21/20
f 28/21/14 30/24/14 29/23/14
f 30/24/15 32/26/15 31/25/15
f 32/26/16 2/27/16 1/1/16
