{
	"asset":{
		"generator":"Khronos glTF Blender I/O v4.5.49",
		"version":"2.0"
	},
	"scene":0,
	"scenes":[
		{
			"name":"Scene",
			"nodes":[
				1
			]
		}
	],
	"nodes":[
		{
			"mesh":0,
			"name":"\u7403"
		},
		{
			"children":[
				0
			],
			"mesh":1,
			"name":"\u7acb\u65b9\u4f53"
		}
	],
	"meshes":[
		{
			"name":"\u7403",
			"primitives":[
				{
					"attributes":{
						"POSITION":0,
						"NORMAL":1,
						"TEXCOORD_0":2
					},
					"indices":3
				}
			]
		},
		{
			"name":"\u7acb\u65b9\u4f53.001",
			"primitives":[
				{
					"attributes":{
						"POSITION":4,
						"NORMAL":5,
						"TEXCOORD_0":6
					},
					"indices":7
				}
			]
		}
	],
	"accessors":[
		{
			"bufferView":0,
			"componentType":5126,
			"count":480,
			"max":[
				1.545177698135376,
				3.6796884536743164,
				0.5143266320228577
			],
			"min":[
				0.5165253281593323,
				2.651036262512207,
				-0.5143257975578308
			],
			"type":"VEC3"
		},
		{
			"bufferView":1,
			"componentType":5126,
			"count":480,
			"type":"VEC3"
		},
		{
			"bufferView":2,
			"componentType":5126,
			"count":480,
			"type":"VEC2"
		},
		{
			"bufferView":3,
			"componentType":5123,
			"count":672,
			"type":"SCALAR"
		},
		{
			"bufferView":4,
			"componentType":5126,
			"count":24,
			"max":[
				1.0392186641693115,
				2.372652530670166,
				1.000000238418579
			],
			"min":[
				-0.9607813358306885,
				0.37265264987945557,
				-0.9999998211860657
			],
			"type":"VEC3"
		},
		{
			"bufferView":5,
			"componentType":5126,
			"count":24,
			"type":"VEC3"
		},
		{
			"bufferView":6,
			"componentType":5126,
			"count":24,
			"type":"VEC2"
		},
		{
			"bufferView":7,
			"componentType":5123,
			"count":36,
			"type":"SCALAR"
		}
	],
	"bufferViews":[
		{
			"buffer":0,
			"byteLength":5760,
			"byteOffset":0,
			"target":34962
		},
		{
			"buffer":0,
			"byteLength":5760,
			"byteOffset":5760,
			"target":34962
		},
		{
			"buffer":0,
			"byteLength":3840,
			"byteOffset":11520,
			"target":34962
		},
		{
			"buffer":0,
			"byteLength":1344,
			"byteOffset":15360,
			"target":34963
		},
		{
			"buffer":0,
			"byteLength":288,
			"byteOffset":16704,
			"target":34962
		},
		{
			"buffer":0,
			"byteLength":288,
			"byteOffset":16992,
			"target":34962
		},
		{
			"buffer":0,
			"byteLength":192,
			"byteOffset":17280,
			"target":34962
		},
		{
			"buffer":0,
			"byteLength":72,
			"byteOffset":17472,
			"target":34963
		}
	],
	"buffers":[
		{
			"byteLength":17544,
			"uri":"suzanne.bin"
		}
	]
}
