# Blender 5.2.2 LTS
# www.blender.org
mtllib backAlley.mtl
o 平面
v 2.001398 0.000000 -2.001398
v -3.960085 0.000000 -2.001398
v 2.001398 0.000000 5.005247
v -3.960085 0.000000 5.005247
v 0.000000 0.000000 -2.001398
v 0.000000 0.000000 5.005247
v 2.001398 0.000000 12.010997
v 0.000000 0.000000 12.010997
v 2.001398 0.000000 10.026034
v 0.000000 0.000000 10.026034
v 9.007149 0.000000 12.010997
v 9.007149 0.000000 10.026034
v 4.007194 0.000000 10.026034
v 4.007194 0.000000 12.010997
v 9.007149 0.000000 20.006273
v 4.007194 0.000000 20.006273
v 9.007149 0.000000 17.992865
v 4.007194 0.000000 17.992865
v 4.007194 0.000000 20.006273
v 4.007194 0.000000 17.992865
v 0.024671 0.000000 20.006273
v 0.024671 0.000000 17.992865
v 2.982280 0.000000 20.006273
v 2.982280 0.000000 17.992865
v 0.024671 0.000000 22.971363
v 2.982280 0.000000 22.971363
v -6.952011 0.000000 20.006273
v -6.952011 0.000000 22.971363
v -3.986921 0.000000 22.971363
v -3.986921 0.000000 20.006273
v -6.952011 0.000000 30.035254
v -3.986921 0.000000 30.035254
v -5.998946 0.000000 20.006273
v -5.998946 0.000000 22.971363
v -5.998946 0.000000 30.035254
v -6.952011 0.000000 32.990894
v -5.998946 0.000000 32.990894
v -6.952011 0.000000 38.004036
v -5.998946 0.000000 38.004036
v -15.963557 0.000000 32.990894
v -15.963557 0.000000 38.004036
v -3.968978 0.000000 9.976517
v -3.972567 0.000000 11.982469
v -3.983385 0.000000 18.029394
v 2.187369 -2.965090 13.484370
v 1.048646 -2.965090 13.484370
v 3.328593 -2.965090 13.484370
v 3.328593 -2.965090 16.887835
v 3.328593 -2.965090 16.887835
v 1.062683 -2.965090 16.887835
v 2.745455 -2.965090 16.887835
v 2.998250 0.000000 30.007444
v 0.012127 0.000000 30.019331
v 14.937327 0.000000 12.010997
v 14.937327 0.000000 10.026034
v 14.937327 0.000000 20.006273
v 14.937327 0.000000 17.992865
v 9.007149 0.000000 29.982931
v 14.937327 0.000000 29.982931
v 14.937327 0.000000 23.006248
v 9.007149 0.000000 23.006248
v 8.008516 -2.965090 20.599957
v 4.317357 -2.965090 20.566311
v 4.317357 -2.965090 20.566311
v 3.704394 -2.965090 20.583134
v 3.721216 -2.965090 21.992451
v 8.025339 -2.965090 22.030998
v 3.487367 -0.392438 12.447033
v 3.504190 -0.392438 17.173775
v 3.470545 -0.392438 17.341999
v 2.773091 -0.392438 17.341999
v 0.609035 -0.392438 17.341999
v 2.122424 -0.392438 12.447033
v 0.609069 -0.392438 12.447033
v 4.239784 -0.412625 20.348217
v 8.315398 -0.412625 20.415508
v 4.239784 -0.412625 20.348217
v 3.525553 -0.412625 22.241531
v 3.525553 -0.412625 20.348217
v 8.315398 -0.412625 22.334660
vn -0.0000 1.0000 -0.0000
vn -0.9977 0.0681 -0.0000
vn -0.0000 0.1738 -0.9848
vn -0.0000 0.3740 0.9274
vn 0.9857 0.1684 -0.0000
vn -0.0165 0.0740 0.9971
vn 0.9976 0.0688 -0.0119
vn 0.0089 0.0978 -0.9952
vn -0.9936 0.1129 -0.0000
vn 0.0273 0.0859 0.9959
vn -0.5046 0.8574 -0.1009
vn 0.5416 0.8406 -0.0000
vn -0.0000 0.7433 0.6690
vn -0.0000 0.8564 -0.5164
vn -0.6151 0.7884 -0.0000
vn -0.0000 0.6381 0.7700
vn -0.5123 0.8588 -0.0000
vn 0.0095 0.8735 -0.4868
vn 0.6048 0.7963 -0.0000
vn -0.0000 0.7042 0.7100
vn -0.9980 0.0630 0.0036
vn 0.9847 0.1743 -0.0041
vn -0.9767 0.0884 -0.1954
vn -0.0091 0.0849 0.9964
vn 0.9971 0.0764 -0.0000
vn 0.0193 0.1160 -0.9931
vn -0.9927 0.1202 0.0117
vn -0.0000 0.0916 0.9958
vn 0.5558 0.8313 -0.0023
vn -0.6014 0.7990 0.0021
vn 0.0030 0.8506 -0.5258
vn -0.0128 0.6338 0.7734
vt 1.000000 0.000000
vt 0.500000 1.000000
vt 0.500000 0.000000
vt 0.000000 1.000000
vt 0.000000 0.000000
vt 1.000000 1.000000
s 0
f 2/1/1 6/2/1 5/3/1
f 5/3/1 3/4/1 1/5/1
f 10/2/1 7/4/1 9/4/1
f 6/2/1 9/4/1 3/4/1
f 14/4/1 12/4/1 13/4/1
f 7/4/1 13/4/1 9/4/1
f 18/4/1 15/4/1 17/4/1
f 14/4/1 17/4/1 11/4/1
f 16/4/1 20/4/1 19/4/1
f 24/4/1 21/4/1 23/4/1
f 20/4/1 23/4/1 19/4/1
f 21/4/1 26/4/1 23/4/1
f 33/4/1 28/4/1 34/4/1
f 21/4/1 29/4/1 25/4/1
f 28/4/1 35/4/1 34/4/1
f 34/4/1 32/4/1 29/4/1
f 30/4/1 34/4/1 29/4/1
f 31/4/1 37/4/1 35/4/1
f 36/4/1 39/4/1 37/4/1
f 36/4/1 41/4/1 38/4/1
f 42/5/1 6/2/1 4/6/1
f 10/2/1 43/5/1 8/2/1
f 8/2/1 44/5/1 22/5/1
f 21/4/1 44/5/1 30/4/1
f 69/4/2 47/4/2 48/4/2
f 71/4/3 49/4/3 51/4/3
f 71/4/3 50/4/3 72/4/3
f 73/4/4 47/4/4 68/4/4
f 73/4/4 46/2/4 45/4/4
f 72/5/5 46/2/5 74/2/5
f 70/4/1 48/4/1 49/4/1
f 51/4/1 48/4/1 47/4/1
f 52/5/1 25/4/1 53/5/1
f 29/4/1 53/5/1 25/4/1
f 15/4/1 57/4/1 17/4/1
f 17/4/1 54/4/1 11/4/1
f 11/4/1 55/4/1 12/4/1
f 61/4/1 59/4/1 60/4/1
f 15/4/1 60/4/1 56/4/1
f 52/5/1 61/4/1 26/4/1
f 75/4/6 62/4/6 76/4/6
f 75/4/1 64/4/1 63/4/1
f 79/4/7 66/4/7 65/4/7
f 78/4/8 67/4/8 66/4/8
f 76/4/9 67/4/9 80/4/9
f 77/4/10 65/4/10 64/4/10
f 63/4/1 65/4/1 62/4/1
f 20/4/11 69/4/11 70/4/11
f 8/2/12 72/5/12 74/2/12
f 7/4/13 74/2/13 73/4/13
f 7/4/13 68/4/13 14/4/13
f 24/4/14 72/4/14 22/4/14
f 24/4/14 70/4/14 71/4/14
f 14/4/15 69/4/15 18/4/15
f 19/4/16 79/4/16 77/4/16
f 15/4/17 80/4/17 61/4/17
f 26/4/18 80/4/18 78/4/18
f 23/4/19 78/4/19 79/4/19
f 16/4/1 77/4/1 75/4/1
f 16/4/20 76/4/20 15/4/20
f 2/1/1 4/6/1 6/2/1
f 5/3/1 6/2/1 3/4/1
f 10/2/1 8/2/1 7/4/1
f 6/2/1 10/2/1 9/4/1
f 14/4/1 11/4/1 12/4/1
f 7/4/1 14/4/1 13/4/1
f 18/4/1 16/4/1 15/4/1
f 14/4/1 18/4/1 17/4/1
f 16/4/1 18/4/1 20/4/1
f 24/4/1 22/4/1 21/4/1
f 20/4/1 24/4/1 23/4/1
f 21/4/1 25/4/1 26/4/1
f 33/4/1 27/4/1 28/4/1
f 21/4/1 30/4/1 29/4/1
f 28/4/1 31/4/1 35/4/1
f 34/4/1 35/4/1 32/4/1
f 30/4/1 33/4/1 34/4/1
f 31/4/1 36/4/1 37/4/1
f 36/4/1 38/4/1 39/4/1
f 36/4/1 40/4/1 41/4/1
f 42/5/1 10/2/1 6/2/1
f 10/2/1 42/5/1 43/5/1
f 8/2/1 43/5/1 44/5/1
f 21/4/1 22/5/1 44/5/1
f 69/4/21 68/4/21 47/4/21
f 71/4/3 70/4/3 49/4/3
f 71/4/3 51/4/3 50/4/3
f 73/4/4 45/4/4 47/4/4
f 73/4/4 74/2/4 46/2/4
f 72/5/22 50/5/22 46/2/22
f 70/4/23 69/4/23 48/4/23
f 45/4/1 46/2/1 50/5/1
f 45/4/1 50/5/1 51/4/1
f 47/4/1 45/4/1 51/4/1
f 51/4/1 49/4/1 48/4/1
f 52/5/1 26/4/1 25/4/1
f 29/4/1 32/4/1 53/5/1
f 15/4/1 56/4/1 57/4/1
f 17/4/1 57/4/1 54/4/1
f 11/4/1 54/4/1 55/4/1
f 61/4/1 58/4/1 59/4/1
f 15/4/1 61/4/1 60/4/1
f 52/5/1 58/4/1 61/4/1
f 75/4/24 63/4/24 62/4/24
f 75/4/1 77/4/1 64/4/1
f 79/4/25 78/4/25 66/4/25
f 78/4/26 80/4/26 67/4/26
f 76/4/27 62/4/27 67/4/27
f 77/4/28 79/4/28 65/4/28
f 65/4/1 66/4/1 67/4/1
f 65/4/1 67/4/1 62/4/1
f 63/4/1 64/4/1 65/4/1
f 20/4/1 18/4/1 69/4/1
f 8/2/29 22/5/29 72/5/29
f 7/4/13 8/2/13 74/2/13
f 7/4/13 73/4/13 68/4/13
f 24/4/14 71/4/14 72/4/14
f 24/4/14 20/4/14 70/4/14
f 14/4/30 68/4/30 69/4/30
f 19/4/16 23/4/16 79/4/16
f 15/4/17 76/4/17 80/4/17
f 26/4/31 61/4/31 80/4/31
f 23/4/19 26/4/19 78/4/19
f 16/4/1 19/4/1 77/4/1
f 16/4/32 75/4/32 76/4/32
o 立方体.003
v -7.082352 0.000003 20.138462
v -7.082352 15.723938 20.138462
v -7.082352 0.000003 32.871475
v -7.082352 15.723938 32.871475
v -20.905302 0.000003 20.138462
v -20.905302 15.723938 20.138462
v -20.905302 0.000003 32.871475
v -20.905302 15.723938 32.871475
v 15.909301 0.000003 -4.828655
v 15.909301 15.723938 -4.828655
v 15.909301 0.000003 9.943960
v 15.909301 15.723938 9.943960
v 2.086350 0.000003 -4.828655
v 2.086350 15.723938 -4.828655
v 2.086350 0.000003 9.943960
v 2.086350 15.723938 9.943960
v 7.927000 0.000003 30.144695
v 7.927000 15.723938 30.144695
v 7.927000 0.000003 42.877712
v 7.927000 15.723938 42.877712
v -5.895950 0.000003 30.144695
v -5.895950 15.723938 30.144695
v -5.895950 0.000003 42.877712
v -5.895950 15.723938 42.877712
vn 1.0000 -0.0000 -0.0000
vn -0.0000 -0.0000 1.0000
vn -1.0000 -0.0000 -0.0000
vn -0.0000 -0.0000 -1.0000
vn -0.0000 -1.0000 -0.0000
vn -0.0000 1.0000 -0.0000
vt 0.625000 0.000000
vt 0.375000 0.250000
vt 0.375000 0.000000
vt 0.625000 0.250000
vt 0.375000 0.500000
vt 0.625000 0.500000
vt 0.375000 0.750000
vt 0.625000 0.750000
vt 0.375000 1.000000
vt 0.125000 0.750000
vt 0.125000 0.500000
vt 0.875000 0.500000
vt 0.625000 1.000000
vt 0.875000 0.750000
s 0
f 82/7/33 83/8/33 81/9/33
f 84/10/34 87/11/34 83/8/34
f 88/12/35 85/13/35 87/11/35
f 86/14/36 81/15/36 85/13/36
f 87/11/37 81/16/37 83/17/37
f 84/18/38 86/14/38 88/12/38
f 90/7/33 91/8/33 89/9/33
f 92/10/34 95/11/34 91/8/34
f 96/12/35 93/13/35 95/11/35
f 94/14/36 89/15/36 93/13/36
f 95/11/37 89/16/37 91/17/37
f 92/18/38 94/14/38 96/12/38
f 98/7/33 99/8/33 97/9/33
f 100/10/34 103/11/34 99/8/34
f 104/12/35 101/13/35 103/11/35
f 102/14/36 97/15/36 101/13/36
f 103/11/37 97/16/37 99/17/37
f 100/18/38 102/14/38 104/12/38
f 82/7/33 84/10/33 83/8/33
f 84/10/34 88/12/34 87/11/34
f 88/12/35 86/14/35 85/13/35
f 86/14/36 82/19/36 81/15/36
f 87/11/37 85/13/37 81/16/37
f 84/18/38 82/20/38 86/14/38
f 90/7/33 92/10/33 91/8/33
f 92/10/34 96/12/34 95/11/34
f 96/12/35 94/14/35 93/13/35
f 94/14/36 90/19/36 89/15/36
f 95/11/37 93/13/37 89/16/37
f 92/18/38 90/20/38 94/14/38
f 98/7/33 100/10/33 99/8/33
f 100/10/34 104/12/34 103/11/34
f 104/12/35 102/14/35 101/13/35
f 102/14/36 98/19/36 97/15/36
f 103/11/37 101/13/37 97/16/37
f 100/18/38 98/20/38 102/14/38
o 立方体.007
v -16.076187 0.000003 32.975815
v -16.076187 17.923042 32.975815
v -16.076187 0.000003 45.708832
v -16.076187 17.923042 45.708832
v -29.899136 0.000003 32.975815
v -29.899136 17.923042 32.975815
v -29.899136 0.000003 45.708832
v -29.899136 17.923042 45.708832
v 10.024191 0.000003 23.098959
v 10.024191 17.923042 23.098959
v 10.024191 0.000003 29.889212
v 10.024191 17.923042 29.889212
v -3.798760 0.000003 23.098959
v -3.798760 17.923042 23.098959
v -3.798760 0.000003 29.889212
v -3.798760 17.923042 29.889212
vn 1.0000 -0.0000 -0.0000
vn -0.0000 -0.0000 1.0000
vn -1.0000 -0.0000 -0.0000
vn -0.0000 -0.0000 -1.0000
vn -0.0000 -1.0000 -0.0000
vn -0.0000 1.0000 -0.0000
vt 0.625000 0.000000
vt 0.375000 0.250000
vt 0.375000 0.000000
vt 0.625000 0.250000
vt 0.375000 0.500000
vt 0.625000 0.500000
vt 0.375000 0.750000
vt 0.625000 0.750000
vt 0.375000 1.000000
vt 0.125000 0.750000
vt 0.125000 0.500000
vt 0.875000 0.500000
vt 0.625000 1.000000
vt 0.875000 0.750000
s 0
f 106/21/39 107/22/39 105/23/39
f 108/24/40 111/25/40 107/22/40
f 112/26/41 109/27/41 111/25/41
f 110/28/42 105/29/42 109/27/42
f 111/25/43 105/30/43 107/31/43
f 108/32/44 110/28/44 112/26/44
f 114/21/39 115/22/39 113/23/39
f 116/24/40 119/25/40 115/22/40
f 120/26/41 117/27/41 119/25/41
f 118/28/42 113/29/42 117/27/42
f 119/25/43 113/30/43 115/31/43
f 116/32/44 118/28/44 120/26/44
f 106/21/39 108/24/39 107/22/39
f 108/24/40 112/26/40 111/25/40
f 112/26/41 110/28/41 109/27/41
f 110/28/42 106/33/42 105/29/42
f 111/25/43 109/27/43 105/30/43
f 108/32/44 106/34/44 110/28/44
f 114/21/39 116/24/39 115/22/39
f 116/24/40 120/26/40 119/25/40
f 120/26/41 118/28/41 117/27/41
f 118/28/42 114/33/42 113/29/42
f 119/25/43 117/27/43 113/30/43
f 116/32/44 114/34/44 118/28/44
o 立方体.008
v -5.993054 0.000003 38.091011
v -5.993054 12.908889 38.091011
v -5.993054 0.000003 50.824028
v -5.993054 12.908889 50.824028
v -15.971060 0.000003 38.091011
v -15.971060 12.908889 38.091011
v -15.971060 0.000003 50.824028
v -15.971060 12.908889 50.824028
v -0.067299 0.000003 5.113115
v -0.067299 12.908889 5.113115
v -0.067299 0.000003 19.885731
v -0.067299 12.908889 19.885731
v -13.890249 0.000003 5.113115
v -13.890249 12.908889 5.113115
v -13.890249 0.000003 19.885731
v -13.890249 12.908889 19.885731
v 22.969143 0.000003 10.193480
v 22.969143 12.908889 10.193480
v 22.969143 0.000003 22.963064
v 22.969143 12.908889 22.963064
v 9.146194 0.000003 10.193480
v 9.146194 12.908889 10.193480
v 9.146194 0.000003 22.963064
v 9.146194 12.908889 22.963064
v 1.941908 0.000003 -16.894009
v 1.941908 12.908889 -16.894009
v 1.941908 0.000003 -2.121393
v 1.941908 12.908889 -2.121393
v -13.979439 0.000003 -16.894009
v -13.979439 12.908889 -16.894009
v -13.979439 0.000003 -2.121393
v -13.979439 12.908889 -2.121393
vn 1.0000 -0.0000 -0.0000
vn -0.0000 -0.0000 1.0000
vn -1.0000 -0.0000 -0.0000
vn -0.0000 -0.0000 -1.0000
vn -0.0000 -1.0000 -0.0000
vn -0.0000 1.0000 -0.0000
vt 0.625000 0.000000
vt 0.375000 0.250000
vt 0.375000 0.000000
vt 0.625000 0.250000
vt 0.375000 0.500000
vt 0.625000 0.500000
vt 0.375000 0.750000
vt 0.625000 0.750000
vt 0.375000 1.000000
vt 0.125000 0.750000
vt 0.125000 0.500000
vt 0.875000 0.500000
vt 0.625000 1.000000
vt 0.875000 0.750000
s 0
f 122/35/45 123/36/45 121/37/45
f 124/38/46 127/39/46 123/36/46
f 128/40/47 125/41/47 127/39/47
f 126/42/48 121/43/48 125/41/48
f 127/39/49 121/44/49 123/45/49
f 124/46/50 126/42/50 128/40/50
f 130/35/45 131/36/45 129/37/45
f 132/38/46 135/39/46 131/36/46
f 136/40/47 133/41/47 135/39/47
f 134/42/48 129/43/48 133/41/48
f 135/39/49 129/44/49 131/45/49
f 132/46/50 134/42/50 136/40/50
f 138/35/45 139/36/45 137/37/45
f 140/38/46 143/39/46 139/36/46
f 144/40/47 141/41/47 143/39/47
f 142/42/48 137/43/48 141/41/48
f 143/39/49 137/44/49 139/45/49
f 140/46/50 142/42/50 144/40/50
f 146/35/45 147/36/45 145/37/45
f 148/38/46 151/39/46 147/36/46
f 152/40/47 149/41/47 151/39/47
f 150/42/48 145/43/48 149/41/48
f 151/39/49 145/44/49 147/45/49
f 148/46/50 150/42/50 152/40/50
f 122/35/45 124/38/45 123/36/45
f 124/38/46 128/40/46 127/39/46
f 128/40/47 126/42/47 125/41/47
f 126/42/48 122/47/48 121/43/48
f 127/39/49 125/41/49 121/44/49
f 124/46/50 122/48/50 126/42/50
f 130/35/45 132/38/45 131/36/45
f 132/38/46 136/40/46 135/39/46
f 136/40/47 134/42/47 133/41/47
f 134/42/48 130/47/48 129/43/48
f 135/39/49 133/41/49 129/44/49
f 132/46/50 130/48/50 134/42/50
f 138/35/45 140/38/45 139/36/45
f 140/38/46 144/40/46 143/39/46
f 144/40/47 142/42/47 141/41/47
f 142/42/48 138/47/48 137/43/48
f 143/39/49 141/41/49 137/44/49
f 140/46/50 138/48/50 142/42/50
f 146/35/45 148/38/45 147/36/45
f 148/38/46 152/40/46 151/39/46
f 152/40/47 150/42/47 149/41/47
f 150/42/48 146/47/48 145/43/48
f 151/39/49 149/41/49 145/44/49
f 148/46/50 146/48/50 150/42/50
o 平面.001
v 3.926068 0.477031 12.014370
v 3.512801 0.477031 12.014370
v 3.926068 0.477031 12.427637
v 3.512801 0.477031 12.427637
v -0.008139 0.477031 12.014370
v -0.008139 0.477031 12.427637
v 3.926068 0.477031 17.838854
v 3.512801 0.477031 17.838854
v 3.926068 0.477031 17.441328
v 3.512801 0.477031 17.441328
v 0.040537 0.477031 17.838854
v 0.040537 0.477031 17.441328
v 3.926068 0.636630 12.427637
v 3.926068 0.636630 12.014370
v 3.512801 0.636630 12.014370
v 3.512801 0.636630 12.427637
v -0.008139 0.636630 12.014370
v -0.008139 0.636630 12.427637
v 3.512801 0.636630 17.838854
v 3.926068 0.636630 17.838854
v 3.926068 0.636630 17.441328
v 3.512801 0.636630 17.441328
v 0.040537 0.636630 17.441328
v 0.040537 0.636630 17.838854
v 0.442425 -1.470234 17.462610
v 0.442425 0.529766 17.462610
v 0.442425 -1.470234 17.783016
v 0.442425 0.529766 17.783016
v 0.122020 -1.470234 17.462610
v 0.122020 0.529766 17.462610
v 0.122020 -1.470234 17.783016
v 0.122020 0.529766 17.783016
v 3.877045 -1.470234 12.084820
v 3.877045 0.529766 12.084820
v 3.877045 -1.470234 12.405225
v 3.877045 0.529766 12.405225
v 3.556640 -1.470234 12.084820
v 3.556640 0.529766 12.084820
v 3.556640 -1.470234 12.405225
v 3.556640 0.529766 12.405225
v 3.020338 -1.470234 12.055614
v 3.020338 0.529766 12.055614
v 3.020338 -1.470234 12.376019
v 3.020338 0.529766 12.376019
v 2.699932 -1.470234 12.055614
v 2.699932 0.529766 12.055614
v 2.699932 -1.470234 12.376019
v 2.699932 0.529766 12.376019
v 2.222041 -1.470234 12.065349
v 2.222041 0.529766 12.065349
v 2.222041 -1.470234 12.385754
v 2.222041 0.529766 12.385754
v 1.901636 -1.470234 12.065349
v 1.901636 0.529766 12.065349
v 1.901636 -1.470234 12.385754
v 1.901636 0.529766 12.385754
v 1.306921 -1.470234 12.055614
v 1.306921 0.529766 12.055614
v 1.306921 -1.470234 12.376019
v 1.306921 0.529766 12.376019
v 0.986516 -1.470234 12.055614
v 0.986516 0.529766 12.055614
v 0.986516 -1.470234 12.376019
v 0.986516 0.529766 12.376019
v 0.430743 -1.470234 12.065349
v 0.430743 0.529766 12.065349
v 0.430743 -1.470234 12.385754
v 0.430743 0.529766 12.385754
v 0.110337 -1.470234 12.065349
v 0.110337 0.529766 12.065349
v 0.110337 -1.470234 12.385754
v 0.110337 0.529766 12.385754
v 3.888728 -1.470234 17.482082
v 3.888728 0.529766 17.482082
v 3.888728 -1.470234 17.802486
v 3.888728 0.529766 17.802486
v 3.568322 -1.470234 17.482082
v 3.568322 0.529766 17.482082
v 3.568322 -1.470234 17.802486
v 3.568322 0.529766 17.802486
v 3.032020 -1.470234 17.452875
v 3.032020 0.529766 17.452875
v 3.032020 -1.470234 17.773281
v 3.032020 0.529766 17.773281
v 2.711614 -1.470234 17.452875
v 2.711614 0.529766 17.452875
v 2.711614 -1.470234 17.773281
v 2.711614 0.529766 17.773281
v 2.233724 -1.470234 17.462610
v 2.233724 0.529766 17.462610
v 2.233724 -1.470234 17.783016
v 2.233724 0.529766 17.783016
v 1.913318 -1.470234 17.462610
v 1.913318 0.529766 17.462610
v 1.913318 -1.470234 17.783016
v 1.913318 0.529766 17.783016
v 1.318604 -1.470234 17.452875
v 1.318604 0.529766 17.452875
v 1.318604 -1.470234 17.773281
v 1.318604 0.529766 17.773281
v 0.998198 -1.470234 17.452875
v 0.998198 0.529766 17.452875
v 0.998198 -1.470234 17.773281
v 0.998198 0.529766 17.773281
v 3.923774 -1.470234 16.816187
v 3.923774 0.529766 16.816187
v 3.923774 -1.470234 17.136593
v 3.923774 0.529766 17.136593
v 3.603369 -1.470234 16.816187
v 3.603369 0.529766 16.816187
v 3.603369 -1.470234 17.136593
v 3.603369 0.529766 17.136593
v 3.900410 -1.470234 16.138609
v 3.900410 0.529766 16.138609
v 3.900410 -1.470234 16.459013
v 3.900410 0.529766 16.459013
v 3.580005 -1.470234 16.138609
v 3.580005 0.529766 16.138609
v 3.580005 -1.470234 16.459013
v 3.580005 0.529766 16.459013
v 3.912092 -1.470234 15.390936
v 3.912092 0.529766 15.390936
v 3.912092 -1.470234 15.711342
v 3.912092 0.529766 15.711342
v 3.591687 -1.470234 15.390936
v 3.591687 0.529766 15.390936
v 3.591687 -1.470234 15.711342
v 3.591687 0.529766 15.711342
v 3.923774 -1.470234 14.725040
v 3.923774 0.529766 14.725040
v 3.923774 -1.470234 15.045446
v 3.923774 0.529766 15.045446
v 3.603369 -1.470234 14.725040
v 3.603369 0.529766 14.725040
v 3.603369 -1.470234 15.045446
v 3.603369 0.529766 15.045446
v 3.923774 -1.470234 14.000732
v 3.923774 0.529766 14.000732
v 3.923774 -1.470234 14.321138
v 3.923774 0.529766 14.321138
v 3.603369 -1.470234 14.000732
v 3.603369 0.529766 14.000732
v 3.603369 -1.470234 14.321138
v 3.603369 0.529766 14.321138
v 3.900410 -1.470234 13.404932
v 3.900410 0.529766 13.404932
v 3.900410 -1.470234 13.725337
v 3.900410 0.529766 13.725337
v 3.580004 -1.470234 13.404932
v 3.580004 0.529766 13.404932
v 3.580004 -1.470234 13.725337
v 3.580004 0.529766 13.725337
v 3.888728 -1.470234 12.739036
v 3.888728 0.529766 12.739036
v 3.888728 -1.470234 13.059441
v 3.888728 0.529766 13.059441
v 3.568322 -1.470234 12.739036
v 3.568322 0.529766 12.739036
v 3.568322 -1.470234 13.059441
v 3.568322 0.529766 13.059441
v 3.405075 0.500382 20.008245
v 3.043973 0.500382 20.008245
v 3.405075 0.500382 20.369347
v 3.043973 0.500382 20.369347
v 3.405075 0.500382 23.033039
v 3.043973 0.500382 23.033039
v 9.084012 0.500382 20.008245
v 9.084012 0.500382 20.369347
v 3.405075 0.612629 20.369347
v 3.405075 0.612629 20.008245
v 3.043973 0.612629 20.008245
v 3.043973 0.612629 20.369347
v 3.043973 0.612629 23.033039
v 3.405075 0.612629 23.033039
v 9.084012 0.612629 20.369347
v 9.084012 0.612629 20.008245
v 3.397135 -1.470234 22.475285
v 3.397135 0.529766 22.475285
v 3.397135 -1.470234 22.795691
v 3.397135 0.529766 22.795691
v 3.076730 -1.470234 22.475285
v 3.076730 0.529766 22.475285
v 3.076730 -1.470234 22.795691
v 3.076730 0.529766 22.795691
v 8.759349 -1.470234 20.057032
v 8.759349 0.529766 20.057032
v 8.759349 -1.470234 20.377438
v 8.759349 0.529766 20.377438
v 8.438943 -1.470234 20.057032
v 8.438943 0.529766 20.057032
v 8.438943 -1.470234 20.377438
v 8.438943 0.529766 20.377438
v 8.093453 -1.470234 20.057032
v 8.093453 0.529766 20.057032
v 8.093453 -1.470234 20.377438
v 8.093453 0.529766 20.377438
v 7.773047 -1.470234 20.057032
v 7.773047 0.529766 20.057032
v 7.773047 -1.470234 20.377438
v 7.773047 0.529766 20.377438
v 7.485970 -1.470234 20.033669
v 7.485970 0.529766 20.033669
v 7.485970 -1.470234 20.354073
v 7.485970 0.529766 20.354073
v 7.165564 -1.470234 20.033669
v 7.165564 0.529766 20.033669
v 7.165564 -1.470234 20.354073
v 7.165564 0.529766 20.354073
v 6.738297 -1.470234 20.033669
v 6.738297 0.529766 20.033669
v 6.738297 -1.470234 20.354073
v 6.738297 0.529766 20.354073
v 6.417891 -1.470234 20.033669
v 6.417891 0.529766 20.033669
v 6.417891 -1.470234 20.354073
v 6.417891 0.529766 20.354073
v 6.095765 -1.470234 20.021984
v 6.095765 0.529766 20.021984
v 6.095765 -1.470234 20.342390
v 6.095765 0.529766 20.342390
v 5.775360 -1.470234 20.021984
v 5.775360 0.529766 20.021984
v 5.775360 -1.470234 20.342390
v 5.775360 0.529766 20.342390
v 5.453235 -1.470234 20.010303
v 5.453235 0.529766 20.010303
v 5.453235 -1.470234 20.330708
v 5.453235 0.529766 20.330708
v 5.132829 -1.470234 20.010303
v 5.132829 0.529766 20.010303
v 5.132829 -1.470234 20.330708
v 5.132829 0.529766 20.330708
v 4.799021 -1.470234 20.021984
v 4.799021 0.529766 20.021984
v 4.799021 -1.470234 20.342390
v 4.799021 0.529766 20.342390
v 4.478616 -1.470234 20.021984
v 4.478616 0.529766 20.021984
v 4.478616 -1.470234 20.342390
v 4.478616 0.529766 20.342390
v 3.432182 -1.470234 20.021984
v 3.432182 0.529766 20.021984
v 3.432182 -1.470234 20.342390
v 3.432182 0.529766 20.342390
v 3.111777 -1.470234 20.021984
v 3.111777 0.529766 20.021984
v 3.111777 -1.470234 20.342390
v 3.111777 0.529766 20.342390
v 4.144808 -1.470234 20.010303
v 4.144808 0.529766 20.010303
v 4.144808 -1.470234 20.330708
v 4.144808 0.529766 20.330708
v 3.824402 -1.470234 20.010303
v 3.824402 0.529766 20.010303
v 3.824402 -1.470234 20.330708
v 3.824402 0.529766 20.330708
v 3.397135 -1.470234 20.676197
v 3.397135 0.529766 20.676197
v 3.397135 -1.470234 20.996603
v 3.397135 0.529766 20.996603
v 3.076730 -1.470234 20.676197
v 3.076730 0.529766 20.676197
v 3.076730 -1.470234 20.996603
v 3.076730 0.529766 20.996603
v 3.385453 -1.470234 21.342093
v 3.385453 0.529766 21.342093
v 3.385453 -1.470234 21.662498
v 3.385453 0.529766 21.662498
v 3.065048 -1.470234 21.342093
v 3.065048 0.529766 21.342093
v 3.065048 -1.470234 21.662498
v 3.065048 0.529766 21.662498
v 3.385453 -1.470234 21.926212
v 3.385453 0.529766 21.926212
v 3.385453 -1.470234 22.246618
v 3.385453 0.529766 22.246618
v 3.065048 -1.470234 21.926212
v 3.065048 0.529766 21.926212
v 3.065048 -1.470234 22.246618
v 3.065048 0.529766 22.246618
vn -0.0000 -1.0000 -0.0000
vn -0.0000 1.0000 -0.0000
vn -0.0000 -0.0000 -1.0000
vn -1.0000 -0.0000 -0.0000
vn 1.0000 -0.0000 -0.0000
vn -0.0000 -0.0000 1.0000
vt 0.000000 1.000000
vt 1.000000 0.000000
vt 0.000000 0.000000
vt 1.000000 1.000000
vt 0.625000 0.000000
vt 0.375000 0.250000
vt 0.375000 0.000000
vt 0.625000 0.250000
vt 0.375000 0.500000
vt 0.625000 0.500000
vt 0.375000 0.750000
vt 0.625000 0.750000
vt 0.375000 1.000000
vt 0.125000 0.750000
vt 0.125000 0.500000
vt 0.875000 0.500000
vt 0.625000 1.000000
vt 0.875000 0.750000
s 0
f 155/49/51 154/50/51 153/51/51
f 158/52/51 154/50/51 156/52/51
f 159/49/51 162/52/51 161/49/51
f 161/49/51 156/52/51 155/49/51
f 163/52/51 162/52/51 160/52/51
f 167/50/52 165/49/52 166/51/52
f 167/50/52 170/52/52 168/52/52
f 174/52/52 172/49/52 173/49/52
f 168/52/52 173/49/52 165/49/52
f 174/52/52 176/52/52 171/52/52
f 157/50/53 167/50/53 154/50/53
f 163/52/54 175/52/54 164/52/54
f 161/49/55 172/49/55 159/49/55
f 153/51/55 165/49/55 155/49/55
f 159/49/56 171/52/56 160/52/56
f 160/52/56 176/52/56 163/52/56
f 158/52/54 169/50/54 157/50/54
f 162/52/54 168/52/54 156/52/54
f 154/50/53 166/51/53 153/51/53
f 155/49/55 173/49/55 161/49/55
f 164/52/53 174/52/53 162/52/53
f 156/52/56 170/52/56 158/52/56
f 178/53/55 179/54/55 177/55/55
f 180/56/56 183/57/56 179/54/56
f 184/58/54 181/59/54 183/57/54
f 182/60/53 177/61/53 181/59/53
f 183/57/51 177/62/51 179/63/51
f 180/64/52 182/60/52 184/58/52
f 186/53/55 187/54/55 185/55/55
f 188/56/56 191/57/56 187/54/56
f 192/58/54 189/59/54 191/57/54
f 190/60/53 185/61/53 189/59/53
f 191/57/51 185/62/51 187/63/51
f 188/64/52 190/60/52 192/58/52
f 194/53/55 195/54/55 193/55/55
f 196/56/56 199/57/56 195/54/56
f 200/58/54 197/59/54 199/57/54
f 198/60/53 193/61/53 197/59/53
f 199/57/51 193/62/51 195/63/51
f 196/64/52 198/60/52 200/58/52
f 202/53/55 203/54/55 201/55/55
f 204/56/56 207/57/56 203/54/56
f 208/58/54 205/59/54 207/57/54
f 206/60/53 201/61/53 205/59/53
f 207/57/51 201/62/51 203/63/51
f 204/64/52 206/60/52 208/58/52
f 210/53/55 211/54/55 209/55/55
f 212/56/56 215/57/56 211/54/56
f 216/58/54 213/59/54 215/57/54
f 214/60/53 209/61/53 213/59/53
f 215/57/51 209/62/51 211/63/51
f 212/64/52 214/60/52 216/58/52
f 218/53/55 219/54/55 217/55/55
f 220/56/56 223/57/56 219/54/56
f 224/58/54 221/59/54 223/57/54
f 222/60/53 217/61/53 221/59/53
f 223/57/51 217/62/51 219/63/51
f 220/64/52 222/60/52 224/58/52
f 226/53/55 227/54/55 225/55/55
f 228/56/56 231/57/56 227/54/56
f 232/58/54 229/59/54 231/57/54
f 230/60/53 225/61/53 229/59/53
f 231/57/51 225/62/51 227/63/51
f 228/64/52 230/60/52 232/58/52
f 234/53/55 235/54/55 233/55/55
f 236/56/56 239/57/56 235/54/56
f 240/58/54 237/59/54 239/57/54
f 238/60/53 233/61/53 237/59/53
f 239/57/51 233/62/51 235/63/51
f 236/64/52 238/60/52 240/58/52
f 242/53/55 243/54/55 241/55/55
f 244/56/56 247/57/56 243/54/56
f 248/58/54 245/59/54 247/57/54
f 246/60/53 241/61/53 245/59/53
f 247/57/51 241/62/51 243/63/51
f 244/64/52 246/60/52 248/58/52
f 250/53/55 251/54/55 249/55/55
f 252/56/56 255/57/56 251/54/56
f 256/58/54 253/59/54 255/57/54
f 254/60/53 249/61/53 253/59/53
f 255/57/51 249/62/51 251/63/51
f 252/64/52 254/60/52 256/58/52
f 258/53/55 259/54/55 257/55/55
f 260/56/56 263/57/56 259/54/56
f 264/58/54 261/59/54 263/57/54
f 262/60/53 257/61/53 261/59/53
f 263/57/51 257/62/51 259/63/51
f 260/64/52 262/60/52 264/58/52
f 266/53/55 267/54/55 265/55/55
f 268/56/56 271/57/56 267/54/56
f 272/58/54 269/59/54 271/57/54
f 270/60/53 265/61/53 269/59/53
f 271/57/51 265/62/51 267/63/51
f 268/64/52 270/60/52 272/58/52
f 274/53/55 275/54/55 273/55/55
f 276/56/56 279/57/56 275/54/56
f 280/58/54 277/59/54 279/57/54
f 278/60/53 273/61/53 277/59/53
f 279/57/51 273/62/51 275/63/51
f 276/64/52 278/60/52 280/58/52
f 282/53/55 283/54/55 281/55/55
f 284/56/56 287/57/56 283/54/56
f 288/58/54 285/59/54 287/57/54
f 286/60/53 281/61/53 285/59/53
f 287/57/51 281/62/51 283/63/51
f 284/64/52 286/60/52 288/58/52
f 290/53/55 291/54/55 289/55/55
f 292/56/56 295/57/56 291/54/56
f 296/58/54 293/59/54 295/57/54
f 294/60/53 289/61/53 293/59/53
f 295/57/51 289/62/51 291/63/51
f 292/64/52 294/60/52 296/58/52
f 298/53/55 299/54/55 297/55/55
f 300/56/56 303/57/56 299/54/56
f 304/58/54 301/59/54 303/57/54
f 302/60/53 297/61/53 301/59/53
f 303/57/51 297/62/51 299/63/51
f 300/64/52 302/60/52 304/58/52
f 306/53/55 307/54/55 305/55/55
f 308/56/56 311/57/56 307/54/56
f 312/58/54 309/59/54 311/57/54
f 310/60/53 305/61/53 309/59/53
f 311/57/51 305/62/51 307/63/51
f 308/64/52 310/60/52 312/58/52
f 315/49/51 314/50/51 313/51/51
f 317/49/51 316/52/51 315/49/51
f 319/51/51 315/49/51 313/51/51
f 323/50/52 321/49/52 322/51/52
f 324/52/52 326/49/52 321/49/52
f 321/49/52 328/51/52 322/51/52
f 313/51/53 328/51/53 319/51/53
f 318/52/54 324/52/54 316/52/54
f 317/49/56 325/52/56 318/52/56
f 316/52/54 323/50/54 314/50/54
f 320/49/56 321/49/56 315/49/56
f 319/51/55 327/49/55 320/49/55
f 315/49/55 326/49/55 317/49/55
f 314/50/53 322/51/53 313/51/53
f 330/53/55 331/54/55 329/55/55
f 332/56/56 335/57/56 331/54/56
f 336/58/54 333/59/54 335/57/54
f 334/60/53 329/61/53 333/59/53
f 335/57/51 329/62/51 331/63/51
f 332/64/52 334/60/52 336/58/52
f 338/53/55 339/54/55 337/55/55
f 340/56/56 343/57/56 339/54/56
f 344/58/54 341/59/54 343/57/54
f 342/60/53 337/61/53 341/59/53
f 343/57/51 337/62/51 339/63/51
f 340/64/52 342/60/52 344/58/52
f 346/53/55 347/54/55 345/55/55
f 348/56/56 351/57/56 347/54/56
f 352/58/54 349/59/54 351/57/54
f 350/60/53 345/61/53 349/59/53
f 351/57/51 345/62/51 347/63/51
f 348/64/52 350/60/52 352/58/52
f 354/53/55 355/54/55 353/55/55
f 356/56/56 359/57/56 355/54/56
f 360/58/54 357/59/54 359/57/54
f 358/60/53 353/61/53 357/59/53
f 359/57/51 353/62/51 355/63/51
f 356/64/52 358/60/52 360/58/52
f 362/53/55 363/54/55 361/55/55
f 364/56/56 367/57/56 363/54/56
f 368/58/54 365/59/54 367/57/54
f 366/60/53 361/61/53 365/59/53
f 367/57/51 361/62/51 363/63/51
f 364/64/52 366/60/52 368/58/52
f 370/53/55 371/54/55 369/55/55
f 372/56/56 375/57/56 371/54/56
f 376/58/54 373/59/54 375/57/54
f 374/60/53 369/61/53 373/59/53
f 375/57/51 369/62/51 371/63/51
f 372/64/52 374/60/52 376/58/52
f 378/53/55 379/54/55 377/55/55
f 380/56/56 383/57/56 379/54/56
f 384/58/54 381/59/54 383/57/54
f 382/60/53 377/61/53 381/59/53
f 383/57/51 377/62/51 379/63/51
f 380/64/52 382/60/52 384/58/52
f 386/53/55 387/54/55 385/55/55
f 388/56/56 391/57/56 387/54/56
f 392/58/54 389/59/54 391/57/54
f 390/60/53 385/61/53 389/59/53
f 391/57/51 385/62/51 387/63/51
f 388/64/52 390/60/52 392/58/52
f 394/53/55 395/54/55 393/55/55
f 396/56/56 399/57/56 395/54/56
f 400/58/54 397/59/54 399/57/54
f 398/60/53 393/61/53 397/59/53
f 399/57/51 393/62/51 395/63/51
f 396/64/52 398/60/52 400/58/52
f 402/53/55 403/54/55 401/55/55
f 404/56/56 407/57/56 403/54/56
f 408/58/54 405/59/54 407/57/54
f 406/60/53 401/61/53 405/59/53
f 407/57/51 401/62/51 403/63/51
f 404/64/52 406/60/52 408/58/52
f 410/53/55 411/54/55 409/55/55
f 412/56/56 415/57/56 411/54/56
f 416/58/54 413/59/54 415/57/54
f 414/60/53 409/61/53 413/59/53
f 415/57/51 409/62/51 411/63/51
f 412/64/52 414/60/52 416/58/52
f 418/53/55 419/54/55 417/55/55
f 420/56/56 423/57/56 419/54/56
f 424/58/54 421/59/54 423/57/54
f 422/60/53 417/61/53 421/59/53
f 423/57/51 417/62/51 419/63/51
f 420/64/52 422/60/52 424/58/52
f 426/53/55 427/54/55 425/55/55
f 428/56/56 431/57/56 427/54/56
f 432/58/54 429/59/54 431/57/54
f 430/60/53 425/61/53 429/59/53
f 431/57/51 425/62/51 427/63/51
f 428/64/52 430/60/52 432/58/52
f 155/49/51 156/52/51 154/50/51
f 158/52/51 157/50/51 154/50/51
f 159/49/51 160/52/51 162/52/51
f 161/49/51 162/52/51 156/52/51
f 163/52/51 164/52/51 162/52/51
f 167/50/52 168/52/52 165/49/52
f 167/50/52 169/50/52 170/52/52
f 174/52/52 171/52/52 172/49/52
f 168/52/52 174/52/52 173/49/52
f 174/52/52 175/52/52 176/52/52
f 157/50/53 169/50/53 167/50/53
f 163/52/54 176/52/54 175/52/54
f 161/49/55 173/49/55 172/49/55
f 153/51/55 166/51/55 165/49/55
f 159/49/56 172/49/56 171/52/56
f 160/52/56 171/52/56 176/52/56
f 158/52/54 170/52/54 169/50/54
f 162/52/54 174/52/54 168/52/54
f 154/50/53 167/50/53 166/51/53
f 155/49/55 165/49/55 173/49/55
f 164/52/53 175/52/53 174/52/53
f 156/52/56 168/52/56 170/52/56
f 178/53/55 180/56/55 179/54/55
f 180/56/56 184/58/56 183/57/56
f 184/58/54 182/60/54 181/59/54
f 182/60/53 178/65/53 177/61/53
f 183/57/51 181/59/51 177/62/51
f 180/64/52 178/66/52 182/60/52
f 186/53/55 188/56/55 187/54/55
f 188/56/56 192/58/56 191/57/56
f 192/58/54 190/60/54 189/59/54
f 190/60/53 186/65/53 185/61/53
f 191/57/51 189/59/51 185/62/51
f 188/64/52 186/66/52 190/60/52
f 194/53/55 196/56/55 195/54/55
f 196/56/56 200/58/56 199/57/56
f 200/58/54 198/60/54 197/59/54
f 198/60/53 194/65/53 193/61/53
f 199/57/51 197/59/51 193/62/51
f 196/64/52 194/66/52 198/60/52
f 202/53/55 204/56/55 203/54/55
f 204/56/56 208/58/56 207/57/56
f 208/58/54 206/60/54 205/59/54
f 206/60/53 202/65/53 201/61/53
f 207/57/51 205/59/51 201/62/51
f 204/64/52 202/66/52 206/60/52
f 210/53/55 212/56/55 211/54/55
f 212/56/56 216/58/56 215/57/56
f 216/58/54 214/60/54 213/59/54
f 214/60/53 210/65/53 209/61/53
f 215/57/51 213/59/51 209/62/51
f 212/64/52 210/66/52 214/60/52
f 218/53/55 220/56/55 219/54/55
f 220/56/56 224/58/56 223/57/56
f 224/58/54 222/60/54 221/59/54
f 222/60/53 218/65/53 217/61/53
f 223/57/51 221/59/51 217/62/51
f 220/64/52 218/66/52 222/60/52
f 226/53/55 228/56/55 227/54/55
f 228/56/56 232/58/56 231/57/56
f 232/58/54 230/60/54 229/59/54
f 230/60/53 226/65/53 225/61/53
f 231/57/51 229/59/51 225/62/51
f 228/64/52 226/66/52 230/60/52
f 234/53/55 236/56/55 235/54/55
f 236/56/56 240/58/56 239/57/56
f 240/58/54 238/60/54 237/59/54
f 238/60/53 234/65/53 233/61/53
f 239/57/51 237/59/51 233/62/51
f 236/64/52 234/66/52 238/60/52
f 242/53/55 244/56/55 243/54/55
f 244/56/56 248/58/56 247/57/56
f 248/58/54 246/60/54 245/59/54
f 246/60/53 242/65/53 241/61/53
f 247/57/51 245/59/51 241/62/51
f 244/64/52 242/66/52 246/60/52
f 250/53/55 252/56/55 251/54/55
f 252/56/56 256/58/56 255/57/56
f 256/58/54 254/60/54 253/59/54
f 254/60/53 250/65/53 249/61/53
f 255/57/51 253/59/51 249/62/51
f 252/64/52 250/66/52 254/60/52
f 258/53/55 260/56/55 259/54/55
f 260/56/56 264/58/56 263/57/56
f 264/58/54 262/60/54 261/59/54
f 262/60/53 258/65/53 257/61/53
f 263/57/51 261/59/51 257/62/51
f 260/64/52 258/66/52 262/60/52
f 266/53/55 268/56/55 267/54/55
f 268/56/56 272/58/56 271/57/56
f 272/58/54 270/60/54 269/59/54
f 270/60/53 266/65/53 265/61/53
f 271/57/51 269/59/51 265/62/51
f 268/64/52 266/66/52 270/60/52
f 274/53/55 276/56/55 275/54/55
f 276/56/56 280/58/56 279/57/56
f 280/58/54 278/60/54 277/59/54
f 278/60/53 274/65/53 273/61/53
f 279/57/51 277/59/51 273/62/51
f 276/64/52 274/66/52 278/60/52
f 282/53/55 284/56/55 283/54/55
f 284/56/56 288/58/56 287/57/56
f 288/58/54 286/60/54 285/59/54
f 286/60/53 282/65/53 281/61/53
f 287/57/51 285/59/51 281/62/51
f 284/64/52 282/66/52 286/60/52
f 290/53/55 292/56/55 291/54/55
f 292/56/56 296/58/56 295/57/56
f 296/58/54 294/60/54 293/59/54
f 294/60/53 290/65/53 289/61/53
f 295/57/51 293/59/51 289/62/51
f 292/64/52 290/66/52 294/60/52
f 298/53/55 300/56/55 299/54/55
f 300/56/56 304/58/56 303/57/56
f 304/58/54 302/60/54 301/59/54
f 302/60/53 298/65/53 297/61/53
f 303/57/51 301/59/51 297/62/51
f 300/64/52 298/66/52 302/60/52
f 306/53/55 308/56/55 307/54/55
f 308/56/56 312/58/56 311/57/56
f 312/58/54 310/60/54 309/59/54
f 310/60/53 306/65/53 305/61/53
f 311/57/51 309/59/51 305/62/51
f 308/64/52 306/66/52 310/60/52
f 315/49/51 316/52/51 314/50/51
f 317/49/51 318/52/51 316/52/51
f 319/51/51 320/49/51 315/49/51
f 323/50/52 324/52/52 321/49/52
f 324/52/52 325/52/52 326/49/52
f 321/49/52 327/49/52 328/51/52
f 313/51/53 322/51/53 328/51/53
f 318/52/54 325/52/54 324/52/54
f 317/49/56 326/49/56 325/52/56
f 316/52/54 324/52/54 323/50/54
f 320/49/56 327/49/56 321/49/56
f 319/51/55 328/51/55 327/49/55
f 315/49/55 321/49/55 326/49/55
f 314/50/53 323/50/53 322/51/53
f 330/53/55 332/56/55 331/54/55
f 332/56/56 336/58/56 335/57/56
f 336/58/54 334/60/54 333/59/54
f 334/60/53 330/65/53 329/61/53
f 335/57/51 333/59/51 329/62/51
f 332/64/52 330/66/52 334/60/52
f 338/53/55 340/56/55 339/54/55
f 340/56/56 344/58/56 343/57/56
f 344/58/54 342/60/54 341/59/54
f 342/60/53 338/65/53 337/61/53
f 343/57/51 341/59/51 337/62/51
f 340/64/52 338/66/52 342/60/52
f 346/53/55 348/56/55 347/54/55
f 348/56/56 352/58/56 351/57/56
f 352/58/54 350/60/54 349/59/54
f 350/60/53 346/65/53 345/61/53
f 351/57/51 349/59/51 345/62/51
f 348/64/52 346/66/52 350/60/52
f 354/53/55 356/56/55 355/54/55
f 356/56/56 360/58/56 359/57/56
f 360/58/54 358/60/54 357/59/54
f 358/60/53 354/65/53 353/61/53
f 359/57/51 357/59/51 353/62/51
f 356/64/52 354/66/52 358/60/52
f 362/53/55 364/56/55 363/54/55
f 364/56/56 368/58/56 367/57/56
f 368/58/54 366/60/54 365/59/54
f 366/60/53 362/65/53 361/61/53
f 367/57/51 365/59/51 361/62/51
f 364/64/52 362/66/52 366/60/52
f 370/53/55 372/56/55 371/54/55
f 372/56/56 376/58/56 375/57/56
f 376/58/54 374/60/54 373/59/54
f 374/60/53 370/65/53 369/61/53
f 375/57/51 373/59/51 369/62/51
f 372/64/52 370/66/52 374/60/52
f 378/53/55 380/56/55 379/54/55
f 380/56/56 384/58/56 383/57/56
f 384/58/54 382/60/54 381/59/54
f 382/60/53 378/65/53 377/61/53
f 383/57/51 381/59/51 377/62/51
f 380/64/52 378/66/52 382/60/52
f 386/53/55 388/56/55 387/54/55
f 388/56/56 392/58/56 391/57/56
f 392/58/54 390/60/54 389/59/54
f 390/60/53 386/65/53 385/61/53
f 391/57/51 389/59/51 385/62/51
f 388/64/52 386/66/52 390/60/52
f 394/53/55 396/56/55 395/54/55
f 396/56/56 400/58/56 399/57/56
f 400/58/54 398/60/54 397/59/54
f 398/60/53 394/65/53 393/61/53
f 399/57/51 397/59/51 393/62/51
f 396/64/52 394/66/52 398/60/52
f 402/53/55 404/56/55 403/54/55
f 404/56/56 408/58/56 407/57/56
f 408/58/54 406/60/54 405/59/54
f 406/60/53 402/65/53 401/61/53
f 407/57/51 405/59/51 401/62/51
f 404/64/52 402/66/52 406/60/52
f 410/53/55 412/56/55 411/54/55
f 412/56/56 416/58/56 415/57/56
f 416/58/54 414/60/54 413/59/54
f 414/60/53 410/65/53 409/61/53
f 415/57/51 413/59/51 409/62/51
f 412/64/52 410/66/52 414/60/52
f 418/53/55 420/56/55 419/54/55
f 420/56/56 424/58/56 423/57/56
f 424/58/54 422/60/54 421/59/54
f 422/60/53 418/65/53 417/61/53
f 423/57/51 421/59/51 417/62/51
f 420/64/52 418/66/52 422/60/52
f 426/53/55 428/56/55 427/54/55
f 428/56/56 432/58/56 431/57/56
f 432/58/54 430/60/54 429/59/54
f 430/60/53 426/65/53 425/61/53
f 431/57/51 429/59/51 425/62/51
f 428/64/52 426/66/52 430/60/52
