{
	"asset":{
		"generator":"Khronos glTF Blender I/O v5.1.18",
		"version":"2.0"
	},
	"extensionsUsed":[
		"KHR_materials_specular"
	],
	"scene":0,
	"scenes":[
		{
			"name":"Scene",
			"nodes":[
				42
			]
		}
	],
	"nodes":[
		{
			"name":"mixamorig:HeadTop_End",
			"rotation":[
				0.7071066498756409,
				0,
				0,
				0.70710688829422
			],
			"scale":[
				1,
				0.9999999403953552,
				0.9999999403953552
			],
			"translation":[
				0,
				-4.4901251792907715,
				19.01654052734375
			]
		},
		{
			"children":[
				0
			],
			"name":"mixamorig:Head",
			"rotation":[
				-3.5527141023169746e-15,
				0,
				0,
				1
			],
			"scale":[
				1,
				0.9999999403953552,
				0.9999999403953552
			],
			"translation":[
				0,
				-1.1606040000915527,
				4.915390491485596
			]
		},
		{
			"children":[
				1
			],
			"name":"mixamorig:Neck",
			"rotation":[
				-0.6798153519630432,
				0,
				0,
				0.7333833575248718
			],
			"scale":[
				1,
				0.9999999403953552,
				1
			],
			"translation":[
				0,
				13.800543785095215,
				-9.5367431640625e-07
			]
		},
		{
			"name":"mixamorig:LeftHandThumb4",
			"rotation":[
				0.00014941536937840283,
				-0.0006337335216812789,
				2.911850606324151e-05,
				0.9999998211860657
			],
			"scale":[
				0.9999999403953552,
				1.0000001192092896,
				1
			],
			"translation":[
				-0.42848044633865356,
				1.8048207759857178,
				-4.509463906288147e-06
			]
		},
		{
			"children":[
				3
			],
			"name":"mixamorig:LeftHandThumb3",
			"rotation":[
				0.020710939541459084,
				1.2818794857594185e-05,
				-4.231731054460397e-07,
				0.9997855424880981
			],
			"translation":[
				-0.21056291460990906,
				2.2359604835510254,
				2.2064894437789917e-05
			]
		},
		{
			"children":[
				4
			],
			"name":"mixamorig:LeftHandThumb2",
			"rotation":[
				0.02733565866947174,
				2.4887256131478352e-06,
				3.8294584214781935e-07,
				0.9996263384819031
			],
			"scale":[
				0.9999999403953552,
				0.9999998807907104,
				0.9999999403953552
			],
			"translation":[
				0.6390396952629089,
				1.746957540512085,
				-3.147125244140625e-05
			]
		},
		{
			"children":[
				5
			],
			"name":"mixamorig:LeftHandThumb1",
			"rotation":[
				1.0883664799621329e-05,
				-1.0092541742778849e-05,
				0.6253917217254639,
				0.7803110480308533
			],
			"scale":[
				1,
				0.9999999403953552,
				1
			],
			"translation":[
				-1.9573330879211426,
				1.2551735639572144,
				3.844499588012695e-06
			]
		},
		{
			"name":"mixamorig:LeftHandIndex4",
			"rotation":[
				-4.198082876882836e-07,
				-0.00036855388316325843,
				2.9764029022771865e-05,
				0.9999999403953552
			],
			"scale":[
				0.9999999403953552,
				0.9999999403953552,
				1
			],
			"translation":[
				0.01583397388458252,
				2.838623285293579,
				2.0265579223632812e-06
			]
		},
		{
			"children":[
				7
			],
			"name":"mixamorig:LeftHandIndex3",
			"rotation":[
				0.10597194731235504,
				1.032714521898015e-06,
				1.8298750603662484e-07,
				0.9943691492080688
			],
			"translation":[
				-0.030900001525878906,
				3.312772274017334,
				3.874301910400391e-06
			]
		},
		{
			"children":[
				8
			],
			"name":"mixamorig:LeftHandIndex2",
			"rotation":[
				-0.09011267125606537,
				-9.960565705569024e-08,
				2.6300453370708965e-08,
				0.9959315657615662
			],
			"scale":[
				0.9999999403953552,
				0.9999998211860657,
				0.9999997615814209
			],
			"translation":[
				0.015068769454956055,
				4.060038089752197,
				3.2782554626464844e-06
			]
		},
		{
			"children":[
				9
			],
			"name":"mixamorig:LeftHandIndex1",
			"rotation":[
				-0.03343820571899414,
				-0.00023068329028319567,
				0.006848091725260019,
				0.9994173049926758
			],
			"scale":[
				0.9999999403953552,
				0.9999998807907104,
				0.9999998807907104
			],
			"translation":[
				1.0728836059570312e-06,
				3.300795078277588,
				1.0192394256591797e-05
			]
		},
		{
			"children":[
				6,
				10
			],
			"name":"mixamorig:LeftHand",
			"rotation":[
				0.054831456393003464,
				-0.002274452243000269,
				-0.012902513146400452,
				0.9984096884727478
			],
			"scale":[
				1,
				0.9999998807907104,
				0.9999998211860657
			],
			"translation":[
				1.2479722499847412e-07,
				31.765377044677734,
				-5.0067901611328125e-06
			]
		},
		{
			"children":[
				11
			],
			"name":"mixamorig:LeftForeArm",
			"rotation":[
				-0.028804052621126175,
				-0.0007325879414565861,
				0.02541474625468254,
				0.9992616772651672
			],
			"scale":[
				0.9999999403953552,
				0.9999999403953552,
				1
			],
			"translation":[
				-1.430511474609375e-06,
				26.19984245300293,
				-2.6226043701171875e-05
			]
		},
		{
			"children":[
				12
			],
			"name":"mixamorig:LeftArm",
			"rotation":[
				-0.10569076985120773,
				0.0017143592704087496,
				-0.016127848997712135,
				0.9942668080329895
			],
			"scale":[
				0.9999998807907104,
				0.9999998211860657,
				0.9999998807907104
			],
			"translation":[
				2.980232238769531e-07,
				10.617627143859863,
				5.066394805908203e-07
			]
		},
		{
			"children":[
				13
			],
			"name":"mixamorig:LeftShoulder",
			"rotation":[
				0.5591129660606384,
				0.42958903312683105,
				-0.5701361894607544,
				0.42165231704711914
			],
			"scale":[
				1.0000001192092896,
				1.0000001192092896,
				1.0000001192092896
			],
			"translation":[
				5.033412456512451,
				12.280278205871582,
				-0.10184621810913086
			]
		},
		{
			"name":"mixamorig:RightHandThumb4",
			"rotation":[
				0.00012885144678875804,
				0.001556101255118847,
				-0.0002364887041039765,
				0.9999987483024597
			],
			"scale":[
				1.0000001192092896,
				1,
				1.0000001192092896
			],
			"translation":[
				0.15567004680633545,
				1.8914912939071655,
				1.1667609214782715e-05
			]
		},
		{
			"children":[
				15
			],
			"name":"mixamorig:RightHandThumb3",
			"rotation":[
				0.10069338232278824,
				-2.306150690856157e-06,
				-6.104413046159607e-07,
				0.9949175119400024
			],
			"scale":[
				1,
				1,
				0.9999999403953552
			],
			"translation":[
				0.4638570249080658,
				2.23043155670166,
				1.7346814274787903e-05
			]
		},
		{
			"children":[
				16
			],
			"name":"mixamorig:RightHandThumb2",
			"rotation":[
				0.02632601372897625,
				-1.4350949641084298e-05,
				-7.227821470223716e-07,
				0.9996533989906311
			],
			"scale":[
				1.0000001192092896,
				1.0000001192092896,
				1.0000001192092896
			],
			"translation":[
				-0.6195365190505981,
				1.7028820514678955,
				-1.633167266845703e-05
			]
		},
		{
			"children":[
				17
			],
			"name":"mixamorig:RightHandThumb1",
			"rotation":[
				9.65403796726605e-06,
				7.492873010050971e-06,
				-0.5846071243286133,
				0.8113164901733398
			],
			"scale":[
				1,
				1,
				1.0000001192092896
			],
			"translation":[
				1.774121880531311,
				1.4082633256912231,
				-4.380941390991211e-06
			]
		},
		{
			"name":"mixamorig:RightHandIndex4",
			"rotation":[
				4.365519089333247e-06,
				0.0009573701536282897,
				4.8444107960676774e-05,
				0.9999995231628418
			],
			"scale":[
				1,
				0.9999999403953552,
				0.9999999403953552
			],
			"translation":[
				0.010847806930541992,
				3.0543758869171143,
				1.1920928955078125e-05
			]
		},
		{
			"children":[
				19
			],
			"name":"mixamorig:RightHandIndex3",
			"rotation":[
				-0.053764309734106064,
				-1.0647029569099686e-07,
				-7.857758532736625e-08,
				0.9985536336898804
			],
			"scale":[
				1,
				0.9999999403953552,
				1
			],
			"translation":[
				-0.013295412063598633,
				3.4281349182128906,
				-1.7940998077392578e-05
			]
		},
		{
			"children":[
				20
			],
			"name":"mixamorig:RightHandIndex2",
			"rotation":[
				0.033662911504507065,
				3.944859372495557e-07,
				6.866575574804301e-08,
				0.9994332194328308
			],
			"scale":[
				0.9999999403953552,
				0.9999998807907104,
				0.9999999403953552
			],
			"translation":[
				0.0024459362030029297,
				4.013467311859131,
				1.0102987289428711e-05
			]
		},
		{
			"children":[
				21
			],
			"name":"mixamorig:RightHandIndex1",
			"rotation":[
				-0.048454709351062775,
				-0.0014032587641850114,
				0.02891458012163639,
				0.9984058141708374
			],
			"scale":[
				0.9999999403953552,
				1,
				1
			],
			"translation":[
				2.2649765014648438e-06,
				3.0356290340423584,
				-7.62939453125e-06
			]
		},
		{
			"children":[
				18,
				22
			],
			"name":"mixamorig:RightHand",
			"rotation":[
				0.04703212529420853,
				-0.0021378202363848686,
				-0.009281651116907597,
				0.9988479614257812
			],
			"scale":[
				1,
				0.9999998211860657,
				1
			],
			"translation":[
				2.7120113372802734e-06,
				31.76567840576172,
				-2.09808349609375e-05
			]
		},
		{
			"children":[
				23
			],
			"name":"mixamorig:RightForeArm",
			"rotation":[
				-0.02866893820464611,
				0.0007662593852728605,
				-0.026708049699664116,
				0.9992318153381348
			],
			"scale":[
				0.9999997615814209,
				0.9999999403953552,
				0.9999998211860657
			],
			"translation":[
				4.76837158203125e-07,
				26.19874382019043,
				3.159046173095703e-06
			]
		},
		{
			"children":[
				24
			],
			"name":"mixamorig:RightArm",
			"rotation":[
				-0.10548350214958191,
				-0.0013757761335000396,
				0.012968714348971844,
				0.9943355321884155
			],
			"scale":[
				1,
				0.9999999403953552,
				1.0000001192092896
			],
			"translation":[
				-5.364418029785156e-07,
				10.617630958557129,
				1.659989356994629e-05
			]
		},
		{
			"children":[
				25
			],
			"name":"mixamorig:RightShoulder",
			"rotation":[
				0.557511568069458,
				-0.43081116676330566,
				0.5715333819389343,
				0.4206332862377167
			],
			"scale":[
				0.9999998211860657,
				0.9999996423721313,
				0.9999999403953552
			],
			"translation":[
				-5.033412456512451,
				12.282326698303223,
				-0.12883853912353516
			]
		},
		{
			"children":[
				2,
				14,
				26
			],
			"name":"mixamorig:Spine2",
			"rotation":[
				7.450580596923828e-09,
				0,
				0,
				1
			],
			"translation":[
				0,
				12.267132759094238,
				9.5367431640625e-07
			]
		},
		{
			"children":[
				27
			],
			"name":"mixamorig:Spine1",
			"rotation":[
				1.862645149230957e-08,
				0,
				0,
				1
			],
			"translation":[
				0,
				10.733735084533691,
				-9.5367431640625e-07
			]
		},
		{
			"children":[
				28
			],
			"name":"mixamorig:Spine",
			"rotation":[
				0.679815411567688,
				0,
				0,
				0.733383297920227
			],
			"scale":[
				1,
				0.9999998807907104,
				0.9999998807907104
			],
			"translation":[
				0,
				0.6964870095252991,
				9.173973083496094
			]
		},
		{
			"name":"mixamorig:LeftToe_End",
			"rotation":[
				-3.416789695620537e-08,
				-2.384185791015625e-07,
				6.693878784602703e-10,
				1
			],
			"scale":[
				1,
				1.0000001192092896,
				1
			],
			"translation":[
				-7.82310962677002e-08,
				4.548796653747559,
				1.1920928955078125e-07
			]
		},
		{
			"children":[
				30
			],
			"name":"mixamorig:LeftToeBase",
			"rotation":[
				0.2961390018463135,
				-0.05085127428174019,
				0.015786627307534218,
				0.9536595940589905
			],
			"scale":[
				1,
				0.9999997615814209,
				0.9999999403953552
			],
			"translation":[
				-2.0116567611694336e-06,
				12.591046333312988,
				-3.8743019104003906e-07
			]
		},
		{
			"children":[
				31
			],
			"name":"mixamorig:LeftFoot",
			"rotation":[
				0.456859827041626,
				-0.005494037643074989,
				0.0028217872604727745,
				0.8895173072814941
			],
			"scale":[
				0.9999999403953552,
				0.9999999403953552,
				1.0000001192092896
			],
			"translation":[
				1.2293457984924316e-07,
				41.96512222290039,
				4.203466232866049e-07
			]
		},
		{
			"children":[
				32
			],
			"name":"mixamorig:LeftLeg",
			"rotation":[
				-0.0002077297685900703,
				6.583608751498105e-07,
				-0.0032682083547115326,
				0.9999946355819702
			],
			"scale":[
				0.9999998211860657,
				0.9999999403953552,
				0.9999998807907104
			],
			"translation":[
				1.2367963790893555e-06,
				50.03297805786133,
				-6.846846076768998e-07
			]
		},
		{
			"children":[
				33
			],
			"name":"mixamorig:LeftUpLeg",
			"rotation":[
				0.022507786750793457,
				0.7248116135597229,
				-0.6882476210594177,
				0.021372297778725624
			],
			"scale":[
				0.9999998807907104,
				1.000000238418579,
				0.9999999403953552
			],
			"translation":[
				6.619822978973389,
				-0.22759631276130676,
				-5.096199035644531
			]
		},
		{
			"name":"mixamorig:RightToe_End",
			"rotation":[
				-1.461012288928032e-08,
				1.96974710320319e-07,
				-5.034962224925721e-09,
				1
			],
			"scale":[
				1.0000001192092896,
				1,
				1
			],
			"translation":[
				7.525086402893066e-07,
				4.576803207397461,
				3.8743019104003906e-07
			]
		},
		{
			"children":[
				35
			],
			"name":"mixamorig:RightToeBase",
			"rotation":[
				0.29936668276786804,
				0.04982595890760422,
				-0.015652744099497795,
				0.9527077078819275
			],
			"scale":[
				0.9999999403953552,
				1,
				0.9999999403953552
			],
			"translation":[
				-7.953494787216187e-07,
				12.49173641204834,
				1.1026859283447266e-06
			]
		},
		{
			"children":[
				36
			],
			"name":"mixamorig:RightFoot",
			"rotation":[
				0.452385812997818,
				0.005544471088796854,
				-0.002812603721395135,
				0.8918007016181946
			],
			"scale":[
				1,
				1,
				1.000000238418579
			],
			"translation":[
				-1.2852251529693604e-07,
				41.95737838745117,
				1.7671845853328705e-07
			]
		},
		{
			"children":[
				37
			],
			"name":"mixamorig:RightLeg",
			"rotation":[
				0.0010615417268127203,
				3.4317276913498063e-06,
				0.003264827188104391,
				0.9999940991401672
			],
			"scale":[
				1.0000001192092896,
				0.9999999403953552,
				1.0000001192092896
			],
			"translation":[
				1.34296715259552e-06,
				50.030052185058594,
				5.77799255552236e-07
			]
		},
		{
			"children":[
				38
			],
			"name":"mixamorig:RightUpLeg",
			"rotation":[
				0.022496817633509636,
				-0.7244163155555725,
				0.6886635422706604,
				0.021386487409472466
			],
			"scale":[
				0.9999999403953552,
				0.9999999403953552,
				1
			],
			"translation":[
				-6.619822978973389,
				-0.14986708760261536,
				-5.096199035644531
			]
		},
		{
			"children":[
				29,
				34,
				39
			],
			"name":"mixamorig:Hips",
			"rotation":[
				-0.7071067690849304,
				0,
				0,
				0.7071067690849304
			],
			"translation":[
				-7.62939453125e-06,
				106.55835723876953,
				-2.5278499126434326
			]
		},
		{
			"mesh":0,
			"name":"Cube",
			"skin":0
		},
		{
			"children":[
				41,
				40
			],
			"name":"Armature",
			"rotation":[
				0.7071068286895752,
				0,
				0,
				0.7071068286895752
			],
			"scale":[
				0.009999999776482582,
				0.009999999776482582,
				0.009999999776482582
			]
		}
	],
	"animations":[
		{
			"channels":[
				{
					"sampler":0,
					"target":{
						"node":40,
						"path":"translation"
					}
				},
				{
					"sampler":1,
					"target":{
						"node":40,
						"path":"rotation"
					}
				},
				{
					"sampler":2,
					"target":{
						"node":40,
						"path":"scale"
					}
				},
				{
					"sampler":3,
					"target":{
						"node":29,
						"path":"translation"
					}
				},
				{
					"sampler":4,
					"target":{
						"node":29,
						"path":"rotation"
					}
				},
				{
					"sampler":5,
					"target":{
						"node":29,
						"path":"scale"
					}
				},
				{
					"sampler":6,
					"target":{
						"node":28,
						"path":"translation"
					}
				},
				{
					"sampler":7,
					"target":{
						"node":28,
						"path":"rotation"
					}
				},
				{
					"sampler":8,
					"target":{
						"node":28,
						"path":"scale"
					}
				},
				{
					"sampler":9,
					"target":{
						"node":27,
						"path":"translation"
					}
				},
				{
					"sampler":10,
					"target":{
						"node":27,
						"path":"rotation"
					}
				},
				{
					"sampler":11,
					"target":{
						"node":27,
						"path":"scale"
					}
				},
				{
					"sampler":12,
					"target":{
						"node":2,
						"path":"translation"
					}
				},
				{
					"sampler":13,
					"target":{
						"node":2,
						"path":"rotation"
					}
				},
				{
					"sampler":14,
					"target":{
						"node":2,
						"path":"scale"
					}
				},
				{
					"sampler":15,
					"target":{
						"node":1,
						"path":"translation"
					}
				},
				{
					"sampler":16,
					"target":{
						"node":1,
						"path":"rotation"
					}
				},
				{
					"sampler":17,
					"target":{
						"node":1,
						"path":"scale"
					}
				},
				{
					"sampler":18,
					"target":{
						"node":0,
						"path":"translation"
					}
				},
				{
					"sampler":19,
					"target":{
						"node":0,
						"path":"rotation"
					}
				},
				{
					"sampler":20,
					"target":{
						"node":0,
						"path":"scale"
					}
				},
				{
					"sampler":21,
					"target":{
						"node":14,
						"path":"translation"
					}
				},
				{
					"sampler":22,
					"target":{
						"node":14,
						"path":"rotation"
					}
				},
				{
					"sampler":23,
					"target":{
						"node":14,
						"path":"scale"
					}
				},
				{
					"sampler":24,
					"target":{
						"node":13,
						"path":"translation"
					}
				},
				{
					"sampler":25,
					"target":{
						"node":13,
						"path":"rotation"
					}
				},
				{
					"sampler":26,
					"target":{
						"node":13,
						"path":"scale"
					}
				},
				{
					"sampler":27,
					"target":{
						"node":12,
						"path":"translation"
					}
				},
				{
					"sampler":28,
					"target":{
						"node":12,
						"path":"rotation"
					}
				},
				{
					"sampler":29,
					"target":{
						"node":12,
						"path":"scale"
					}
				},
				{
					"sampler":30,
					"target":{
						"node":11,
						"path":"translation"
					}
				},
				{
					"sampler":31,
					"target":{
						"node":11,
						"path":"rotation"
					}
				},
				{
					"sampler":32,
					"target":{
						"node":11,
						"path":"scale"
					}
				},
				{
					"sampler":33,
					"target":{
						"node":6,
						"path":"translation"
					}
				},
				{
					"sampler":34,
					"target":{
						"node":6,
						"path":"rotation"
					}
				},
				{
					"sampler":35,
					"target":{
						"node":6,
						"path":"scale"
					}
				},
				{
					"sampler":36,
					"target":{
						"node":5,
						"path":"translation"
					}
				},
				{
					"sampler":37,
					"target":{
						"node":5,
						"path":"rotation"
					}
				},
				{
					"sampler":38,
					"target":{
						"node":5,
						"path":"scale"
					}
				},
				{
					"sampler":39,
					"target":{
						"node":4,
						"path":"translation"
					}
				},
				{
					"sampler":40,
					"target":{
						"node":4,
						"path":"rotation"
					}
				},
				{
					"sampler":41,
					"target":{
						"node":4,
						"path":"scale"
					}
				},
				{
					"sampler":42,
					"target":{
						"node":3,
						"path":"translation"
					}
				},
				{
					"sampler":43,
					"target":{
						"node":3,
						"path":"rotation"
					}
				},
				{
					"sampler":44,
					"target":{
						"node":3,
						"path":"scale"
					}
				},
				{
					"sampler":45,
					"target":{
						"node":10,
						"path":"translation"
					}
				},
				{
					"sampler":46,
					"target":{
						"node":10,
						"path":"rotation"
					}
				},
				{
					"sampler":47,
					"target":{
						"node":10,
						"path":"scale"
					}
				},
				{
					"sampler":48,
					"target":{
						"node":9,
						"path":"translation"
					}
				},
				{
					"sampler":49,
					"target":{
						"node":9,
						"path":"rotation"
					}
				},
				{
					"sampler":50,
					"target":{
						"node":9,
						"path":"scale"
					}
				},
				{
					"sampler":51,
					"target":{
						"node":8,
						"path":"translation"
					}
				},
				{
					"sampler":52,
					"target":{
						"node":8,
						"path":"rotation"
					}
				},
				{
					"sampler":53,
					"target":{
						"node":8,
						"path":"scale"
					}
				},
				{
					"sampler":54,
					"target":{
						"node":7,
						"path":"translation"
					}
				},
				{
					"sampler":55,
					"target":{
						"node":7,
						"path":"rotation"
					}
				},
				{
					"sampler":56,
					"target":{
						"node":7,
						"path":"scale"
					}
				},
				{
					"sampler":57,
					"target":{
						"node":26,
						"path":"translation"
					}
				},
				{
					"sampler":58,
					"target":{
						"node":26,
						"path":"rotation"
					}
				},
				{
					"sampler":59,
					"target":{
						"node":26,
						"path":"scale"
					}
				},
				{
					"sampler":60,
					"target":{
						"node":25,
						"path":"translation"
					}
				},
				{
					"sampler":61,
					"target":{
						"node":25,
						"path":"rotation"
					}
				},
				{
					"sampler":62,
					"target":{
						"node":25,
						"path":"scale"
					}
				},
				{
					"sampler":63,
					"target":{
						"node":24,
						"path":"translation"
					}
				},
				{
					"sampler":64,
					"target":{
						"node":24,
						"path":"rotation"
					}
				},
				{
					"sampler":65,
					"target":{
						"node":24,
						"path":"scale"
					}
				},
				{
					"sampler":66,
					"target":{
						"node":23,
						"path":"translation"
					}
				},
				{
					"sampler":67,
					"target":{
						"node":23,
						"path":"rotation"
					}
				},
				{
					"sampler":68,
					"target":{
						"node":23,
						"path":"scale"
					}
				},
				{
					"sampler":69,
					"target":{
						"node":18,
						"path":"translation"
					}
				},
				{
					"sampler":70,
					"target":{
						"node":18,
						"path":"rotation"
					}
				},
				{
					"sampler":71,
					"target":{
						"node":18,
						"path":"scale"
					}
				},
				{
					"sampler":72,
					"target":{
						"node":17,
						"path":"translation"
					}
				},
				{
					"sampler":73,
					"target":{
						"node":17,
						"path":"rotation"
					}
				},
				{
					"sampler":74,
					"target":{
						"node":17,
						"path":"scale"
					}
				},
				{
					"sampler":75,
					"target":{
						"node":16,
						"path":"translation"
					}
				},
				{
					"sampler":76,
					"target":{
						"node":16,
						"path":"rotation"
					}
				},
				{
					"sampler":77,
					"target":{
						"node":16,
						"path":"scale"
					}
				},
				{
					"sampler":78,
					"target":{
						"node":15,
						"path":"translation"
					}
				},
				{
					"sampler":79,
					"target":{
						"node":15,
						"path":"rotation"
					}
				},
				{
					"sampler":80,
					"target":{
						"node":15,
						"path":"scale"
					}
				},
				{
					"sampler":81,
					"target":{
						"node":22,
						"path":"translation"
					}
				},
				{
					"sampler":82,
					"target":{
						"node":22,
						"path":"rotation"
					}
				},
				{
					"sampler":83,
					"target":{
						"node":22,
						"path":"scale"
					}
				},
				{
					"sampler":84,
					"target":{
						"node":21,
						"path":"translation"
					}
				},
				{
					"sampler":85,
					"target":{
						"node":21,
						"path":"rotation"
					}
				},
				{
					"sampler":86,
					"target":{
						"node":21,
						"path":"scale"
					}
				},
				{
					"sampler":87,
					"target":{
						"node":20,
						"path":"translation"
					}
				},
				{
					"sampler":88,
					"target":{
						"node":20,
						"path":"rotation"
					}
				},
				{
					"sampler":89,
					"target":{
						"node":20,
						"path":"scale"
					}
				},
				{
					"sampler":90,
					"target":{
						"node":19,
						"path":"translation"
					}
				},
				{
					"sampler":91,
					"target":{
						"node":19,
						"path":"rotation"
					}
				},
				{
					"sampler":92,
					"target":{
						"node":19,
						"path":"scale"
					}
				},
				{
					"sampler":93,
					"target":{
						"node":34,
						"path":"translation"
					}
				},
				{
					"sampler":94,
					"target":{
						"node":34,
						"path":"rotation"
					}
				},
				{
					"sampler":95,
					"target":{
						"node":34,
						"path":"scale"
					}
				},
				{
					"sampler":96,
					"target":{
						"node":33,
						"path":"translation"
					}
				},
				{
					"sampler":97,
					"target":{
						"node":33,
						"path":"rotation"
					}
				},
				{
					"sampler":98,
					"target":{
						"node":33,
						"path":"scale"
					}
				},
				{
					"sampler":99,
					"target":{
						"node":32,
						"path":"translation"
					}
				},
				{
					"sampler":100,
					"target":{
						"node":32,
						"path":"rotation"
					}
				},
				{
					"sampler":101,
					"target":{
						"node":32,
						"path":"scale"
					}
				},
				{
					"sampler":102,
					"target":{
						"node":31,
						"path":"translation"
					}
				},
				{
					"sampler":103,
					"target":{
						"node":31,
						"path":"rotation"
					}
				},
				{
					"sampler":104,
					"target":{
						"node":31,
						"path":"scale"
					}
				},
				{
					"sampler":105,
					"target":{
						"node":30,
						"path":"translation"
					}
				},
				{
					"sampler":106,
					"target":{
						"node":30,
						"path":"rotation"
					}
				},
				{
					"sampler":107,
					"target":{
						"node":30,
						"path":"scale"
					}
				},
				{
					"sampler":108,
					"target":{
						"node":39,
						"path":"translation"
					}
				},
				{
					"sampler":109,
					"target":{
						"node":39,
						"path":"rotation"
					}
				},
				{
					"sampler":110,
					"target":{
						"node":39,
						"path":"scale"
					}
				},
				{
					"sampler":111,
					"target":{
						"node":38,
						"path":"translation"
					}
				},
				{
					"sampler":112,
					"target":{
						"node":38,
						"path":"rotation"
					}
				},
				{
					"sampler":113,
					"target":{
						"node":38,
						"path":"scale"
					}
				},
				{
					"sampler":114,
					"target":{
						"node":37,
						"path":"translation"
					}
				},
				{
					"sampler":115,
					"target":{
						"node":37,
						"path":"rotation"
					}
				},
				{
					"sampler":116,
					"target":{
						"node":37,
						"path":"scale"
					}
				},
				{
					"sampler":117,
					"target":{
						"node":36,
						"path":"translation"
					}
				},
				{
					"sampler":118,
					"target":{
						"node":36,
						"path":"rotation"
					}
				},
				{
					"sampler":119,
					"target":{
						"node":36,
						"path":"scale"
					}
				},
				{
					"sampler":120,
					"target":{
						"node":35,
						"path":"translation"
					}
				},
				{
					"sampler":121,
					"target":{
						"node":35,
						"path":"rotation"
					}
				},
				{
					"sampler":122,
					"target":{
						"node":35,
						"path":"scale"
					}
				}
			],
			"name":"mixamo.com",
			"samplers":[
				{
					"input":6,
					"interpolation":"LINEAR",
					"output":7
				},
				{
					"input":6,
					"interpolation":"LINEAR",
					"output":8
				},
				{
					"input":9,
					"interpolation":"STEP",
					"output":10
				},
				{
					"input":9,
					"interpolation":"LINEAR",
					"output":11
				},
				{
					"input":6,
					"interpolation":"LINEAR",
					"output":12
				},
				{
					"input":9,
					"interpolation":"LINEAR",
					"output":13
				},
				{
					"input":9,
					"interpolation":"LINEAR",
					"output":14
				},
				{
					"input":6,
					"interpolation":"LINEAR",
					"output":15
				},
				{
					"input":9,
					"interpolation":"STEP",
					"output":16
				},
				{
					"input":9,
					"interpolation":"LINEAR",
					"output":17
				},
				{
					"input":6,
					"interpolation":"LINEAR",
					"output":18
				},
				{
					"input":9,
					"interpolation":"LINEAR",
					"output":19
				},
				{
					"input":9,
					"interpolation":"LINEAR",
					"output":20
				},
				{
					"input":6,
					"interpolation":"LINEAR",
					"output":21
				},
				{
					"input":9,
					"interpolation":"LINEAR",
					"output":22
				},
				{
					"input":9,
					"interpolation":"LINEAR",
					"output":23
				},
				{
					"input":6,
					"interpolation":"LINEAR",
					"output":24
				},
				{
					"input":9,
					"interpolation":"STEP",
					"output":25
				},
				{
					"input":9,
					"interpolation":"STEP",
					"output":26
				},
				{
					"input":9,
					"interpolation":"STEP",
					"output":27
				},
				{
					"input":9,
					"interpolation":"STEP",
					"output":28
				},
				{
					"input":9,
					"interpolation":"LINEAR",
					"output":29
				},
				{
					"input":6,
					"interpolation":"LINEAR",
					"output":30
				},
				{
					"input":9,
					"interpolation":"LINEAR",
					"output":31
				},
				{
					"input":9,
					"interpolation":"LINEAR",
					"output":32
				},
				{
					"input":6,
					"interpolation":"LINEAR",
					"output":33
				},
				{
					"input":9,
					"interpolation":"STEP",
					"output":34
				},
				{
					"input":9,
					"interpolation":"LINEAR",
					"output":35
				},
				{
					"input":6,
					"interpolation":"LINEAR",
					"output":36
				},
				{
					"input":9,
					"interpolation":"LINEAR",
					"output":37
				},
				{
					"input":9,
					"interpolation":"LINEAR",
					"output":38
				},
				{
					"input":6,
					"interpolation":"LINEAR",
					"output":39
				},
				{
					"input":9,
					"interpolation":"LINEAR",
					"output":40
				},
				{
					"input":9,
					"interpolation":"LINEAR",
					"output":41
				},
				{
					"input":9,
					"interpolation":"STEP",
					"output":42
				},
				{
					"input":9,
					"interpolation":"STEP",
					"output":43
				},
				{
					"input":9,
					"interpolation":"LINEAR",
					"output":44
				},
				{
					"input":9,
					"interpolation":"STEP",
					"output":45
				},
				{
					"input":9,
					"interpolation":"STEP",
					"output":46
				},
				{
					"input":9,
					"interpolation":"LINEAR",
					"output":47
				},
				{
					"input":9,
					"interpolation":"LINEAR",
					"output":48
				},
				{
					"input":9,
					"interpolation":"STEP",
					"output":49
				},
				{
					"input":9,
					"interpolation":"STEP",
					"output":50
				},
				{
					"input":9,
					"interpolation":"STEP",
					"output":51
				},
				{
					"input":9,
					"interpolation":"STEP",
					"output":52
				},
				{
					"input":9,
					"interpolation":"LINEAR",
					"output":53
				},
				{
					"input":9,
					"interpolation":"LINEAR",
					"output":54
				},
				{
					"input":9,
					"interpolation":"LINEAR",
					"output":55
				},
				{
					"input":9,
					"interpolation":"LINEAR",
					"output":56
				},
				{
					"input":9,
					"interpolation":"LINEAR",
					"output":57
				},
				{
					"input":9,
					"interpolation":"STEP",
					"output":58
				},
				{
					"input":9,
					"interpolation":"LINEAR",
					"output":59
				},
				{
					"input":9,
					"interpolation":"LINEAR",
					"output":60
				},
				{
					"input":9,
					"interpolation":"STEP",
					"output":61
				},
				{
					"input":9,
					"interpolation":"STEP",
					"output":62
				},
				{
					"input":9,
					"interpolation":"STEP",
					"output":63
				},
				{
					"input":9,
					"interpolation":"STEP",
					"output":64
				},
				{
					"input":9,
					"interpolation":"LINEAR",
					"output":65
				},
				{
					"input":6,
					"interpolation":"LINEAR",
					"output":66
				},
				{
					"input":9,
					"interpolation":"LINEAR",
					"output":67
				},
				{
					"input":9,
					"interpolation":"LINEAR",
					"output":68
				},
				{
					"input":6,
					"interpolation":"LINEAR",
					"output":69
				},
				{
					"input":9,
					"interpolation":"STEP",
					"output":49
				},
				{
					"input":9,
					"interpolation":"LINEAR",
					"output":70
				},
				{
					"input":6,
					"interpolation":"LINEAR",
					"output":71
				},
				{
					"input":9,
					"interpolation":"LINEAR",
					"output":72
				},
				{
					"input":9,
					"interpolation":"LINEAR",
					"output":73
				},
				{
					"input":6,
					"interpolation":"LINEAR",
					"output":74
				},
				{
					"input":9,
					"interpolation":"LINEAR",
					"output":75
				},
				{
					"input":9,
					"interpolation":"LINEAR",
					"output":76
				},
				{
					"input":9,
					"interpolation":"LINEAR",
					"output":77
				},
				{
					"input":9,
					"interpolation":"STEP",
					"output":78
				},
				{
					"input":9,
					"interpolation":"LINEAR",
					"output":79
				},
				{
					"input":9,
					"interpolation":"LINEAR",
					"output":80
				},
				{
					"input":9,
					"interpolation":"STEP",
					"output":81
				},
				{
					"input":9,
					"interpolation":"LINEAR",
					"output":82
				},
				{
					"input":9,
					"interpolation":"LINEAR",
					"output":83
				},
				{
					"input":9,
					"interpolation":"STEP",
					"output":84
				},
				{
					"input":9,
					"interpolation":"STEP",
					"output":85
				},
				{
					"input":9,
					"interpolation":"STEP",
					"output":86
				},
				{
					"input":9,
					"interpolation":"STEP",
					"output":87
				},
				{
					"input":9,
					"interpolation":"LINEAR",
					"output":88
				},
				{
					"input":9,
					"interpolation":"LINEAR",
					"output":89
				},
				{
					"input":9,
					"interpolation":"STEP",
					"output":90
				},
				{
					"input":9,
					"interpolation":"LINEAR",
					"output":91
				},
				{
					"input":9,
					"interpolation":"LINEAR",
					"output":92
				},
				{
					"input":9,
					"interpolation":"STEP",
					"output":93
				},
				{
					"input":9,
					"interpolation":"LINEAR",
					"output":94
				},
				{
					"input":9,
					"interpolation":"LINEAR",
					"output":95
				},
				{
					"input":9,
					"interpolation":"STEP",
					"output":96
				},
				{
					"input":9,
					"interpolation":"STEP",
					"output":97
				},
				{
					"input":9,
					"interpolation":"STEP",
					"output":98
				},
				{
					"input":9,
					"interpolation":"STEP",
					"output":99
				},
				{
					"input":9,
					"interpolation":"LINEAR",
					"output":100
				},
				{
					"input":6,
					"interpolation":"LINEAR",
					"output":101
				},
				{
					"input":9,
					"interpolation":"LINEAR",
					"output":102
				},
				{
					"input":9,
					"interpolation":"LINEAR",
					"output":103
				},
				{
					"input":6,
					"interpolation":"LINEAR",
					"output":104
				},
				{
					"input":9,
					"interpolation":"LINEAR",
					"output":105
				},
				{
					"input":9,
					"interpolation":"LINEAR",
					"output":106
				},
				{
					"input":6,
					"interpolation":"LINEAR",
					"output":107
				},
				{
					"input":9,
					"interpolation":"STEP",
					"output":108
				},
				{
					"input":9,
					"interpolation":"LINEAR",
					"output":109
				},
				{
					"input":6,
					"interpolation":"LINEAR",
					"output":110
				},
				{
					"input":9,
					"interpolation":"STEP",
					"output":111
				},
				{
					"input":9,
					"interpolation":"STEP",
					"output":112
				},
				{
					"input":9,
					"interpolation":"STEP",
					"output":113
				},
				{
					"input":9,
					"interpolation":"STEP",
					"output":114
				},
				{
					"input":9,
					"interpolation":"LINEAR",
					"output":115
				},
				{
					"input":6,
					"interpolation":"LINEAR",
					"output":116
				},
				{
					"input":9,
					"interpolation":"LINEAR",
					"output":117
				},
				{
					"input":9,
					"interpolation":"LINEAR",
					"output":118
				},
				{
					"input":6,
					"interpolation":"LINEAR",
					"output":119
				},
				{
					"input":9,
					"interpolation":"STEP",
					"output":120
				},
				{
					"input":9,
					"interpolation":"LINEAR",
					"output":121
				},
				{
					"input":6,
					"interpolation":"LINEAR",
					"output":122
				},
				{
					"input":9,
					"interpolation":"STEP",
					"output":123
				},
				{
					"input":9,
					"interpolation":"LINEAR",
					"output":124
				},
				{
					"input":6,
					"interpolation":"LINEAR",
					"output":125
				},
				{
					"input":9,
					"interpolation":"STEP",
					"output":49
				},
				{
					"input":9,
					"interpolation":"STEP",
					"output":126
				},
				{
					"input":9,
					"interpolation":"STEP",
					"output":127
				},
				{
					"input":9,
					"interpolation":"STEP",
					"output":49
				}
			]
		}
	],
	"materials":[
		{
			"doubleSided":true,
			"extensions":{
				"KHR_materials_specular":{
					"specularColorFactor":[
						0.800000011920929,
						0.800000011920929,
						0.800000011920929
					]
				}
			},
			"name":"Material.001",
			"pbrMetallicRoughness":{
				"baseColorFactor":[
					0.800000011920929,
					0.800000011920929,
					0.800000011920929,
					1
				],
				"metallicFactor":0,
				"roughnessFactor":0.5
			}
		}
	],
	"meshes":[
		{
			"name":"Cube.001",
			"primitives":[
				{
					"attributes":{
						"POSITION":0,
						"NORMAL":1,
						"JOINTS_0":2,
						"WEIGHTS_0":3
					},
					"indices":4,
					"material":0
				}
			]
		}
	],
	"skins":[
		{
			"inverseBindMatrices":5,
			"joints":[
				40,
				29,
				28,
				27,
				2,
				1,
				0,
				14,
				13,
				12,
				11,
				6,
				5,
				4,
				3,
				10,
				9,
				8,
				7,
				26,
				25,
				24,
				23,
				18,
				17,
				16,
				15,
				22,
				21,
				20,
				19,
				34,
				33,
				32,
				31,
				30,
				39,
				38,
				37,
				36,
				35
			],
			"name":"Armature"
		}
	],
	"accessors":[
		{
			"bufferView":0,
			"componentType":5126,
			"count":8668,
			"max":[
				0.8674630522727966,
				0.13799205422401428,
				1.772261142730713
			],
			"min":[
				-0.867463231086731,
				-0.07742293179035187,
				0.005703240633010864
			],
			"type":"VEC3"
		},
		{
			"bufferView":1,
			"componentType":5126,
			"count":8668,
			"type":"VEC3"
		},
		{
			"bufferView":2,
			"componentType":5121,
			"count":8668,
			"type":"VEC4"
		},
		{
			"bufferView":3,
			"componentType":5126,
			"count":8668,
			"type":"VEC4"
		},
		{
			"bufferView":4,
			"componentType":5123,
			"count":9834,
			"type":"SCALAR"
		},
		{
			"bufferView":5,
			"componentType":5126,
			"count":41,
			"type":"MAT4"
		},
		{
			"bufferView":6,
			"componentType":5126,
			"count":61,
			"max":[
				2.033333333333333
			],
			"min":[
				0.03333333333333333
			],
			"type":"SCALAR"
		},
		{
			"bufferView":7,
			"componentType":5126,
			"count":61,
			"type":"VEC3"
		},
		{
			"bufferView":8,
			"componentType":5126,
			"count":61,
			"type":"VEC4"
		},
		{
			"bufferView":9,
			"componentType":5126,
			"count":2,
			"max":[
				2.033333333333333
			],
			"min":[
				0.03333333333333333
			],
			"type":"SCALAR"
		},
		{
			"bufferView":10,
			"componentType":5126,
			"count":2,
			"type":"VEC3"
		},
		{
			"bufferView":11,
			"componentType":5126,
			"count":2,
			"type":"VEC3"
		},
		{
			"bufferView":12,
			"componentType":5126,
			"count":61,
			"type":"VEC4"
		},
		{
			"bufferView":13,
			"componentType":5126,
			"count":2,
			"type":"VEC3"
		},
		{
			"bufferView":14,
			"componentType":5126,
			"count":2,
			"type":"VEC3"
		},
		{
			"bufferView":15,
			"componentType":5126,
			"count":61,
			"type":"VEC4"
		},
		{
			"bufferView":16,
			"componentType":5126,
			"count":2,
			"type":"VEC3"
		},
		{
			"bufferView":17,
			"componentType":5126,
			"count":2,
			"type":"VEC3"
		},
		{
			"bufferView":18,
			"componentType":5126,
			"count":61,
			"type":"VEC4"
		},
		{
			"bufferView":19,
			"componentType":5126,
			"count":2,
			"type":"VEC3"
		},
		{
			"bufferView":20,
			"componentType":5126,
			"count":2,
			"type":"VEC3"
		},
		{
			"bufferView":21,
			"componentType":5126,
			"count":61,
			"type":"VEC4"
		},
		{
			"bufferView":22,
			"componentType":5126,
			"count":2,
			"type":"VEC3"
		},
		{
			"bufferView":23,
			"componentType":5126,
			"count":2,
			"type":"VEC3"
		},
		{
			"bufferView":24,
			"componentType":5126,
			"count":61,
			"type":"VEC4"
		},
		{
			"bufferView":25,
			"componentType":5126,
			"count":2,
			"type":"VEC3"
		},
		{
			"bufferView":26,
			"componentType":5126,
			"count":2,
			"type":"VEC3"
		},
		{
			"bufferView":27,
			"componentType":5126,
			"count":2,
			"type":"VEC4"
		},
		{
			"bufferView":28,
			"componentType":5126,
			"count":2,
			"type":"VEC3"
		},
		{
			"bufferView":29,
			"componentType":5126,
			"count":2,
			"type":"VEC3"
		},
		{
			"bufferView":30,
			"componentType":5126,
			"count":61,
			"type":"VEC4"
		},
		{
			"bufferView":31,
			"componentType":5126,
			"count":2,
			"type":"VEC3"
		},
		{
			"bufferView":32,
			"componentType":5126,
			"count":2,
			"type":"VEC3"
		},
		{
			"bufferView":33,
			"componentType":5126,
			"count":61,
			"type":"VEC4"
		},
		{
			"bufferView":34,
			"componentType":5126,
			"count":2,
			"type":"VEC3"
		},
		{
			"bufferView":35,
			"componentType":5126,
			"count":2,
			"type":"VEC3"
		},
		{
			"bufferView":36,
			"componentType":5126,
			"count":61,
			"type":"VEC4"
		},
		{
			"bufferView":37,
			"componentType":5126,
			"count":2,
			"type":"VEC3"
		},
		{
			"bufferView":38,
			"componentType":5126,
			"count":2,
			"type":"VEC3"
		},
		{
			"bufferView":39,
			"componentType":5126,
			"count":61,
			"type":"VEC4"
		},
		{
			"bufferView":40,
			"componentType":5126,
			"count":2,
			"type":"VEC3"
		},
		{
			"bufferView":41,
			"componentType":5126,
			"count":2,
			"type":"VEC3"
		},
		{
			"bufferView":42,
			"componentType":5126,
			"count":2,
			"type":"VEC4"
		},
		{
			"bufferView":43,
			"componentType":5126,
			"count":2,
			"type":"VEC3"
		},
		{
			"bufferView":44,
			"componentType":5126,
			"count":2,
			"type":"VEC3"
		},
		{
			"bufferView":45,
			"componentType":5126,
			"count":2,
			"type":"VEC4"
		},
		{
			"bufferView":46,
			"componentType":5126,
			"count":2,
			"type":"VEC3"
		},
		{
			"bufferView":47,
			"componentType":5126,
			"count":2,
			"type":"VEC3"
		},
		{
			"bufferView":48,
			"componentType":5126,
			"count":2,
			"type":"VEC4"
		},
		{
			"bufferView":49,
			"componentType":5126,
			"count":2,
			"type":"VEC3"
		},
		{
			"bufferView":50,
			"componentType":5126,
			"count":2,
			"type":"VEC3"
		},
		{
			"bufferView":51,
			"componentType":5126,
			"count":2,
			"type":"VEC4"
		},
		{
			"bufferView":52,
			"componentType":5126,
			"count":2,
			"type":"VEC3"
		},
		{
			"bufferView":53,
			"componentType":5126,
			"count":2,
			"type":"VEC3"
		},
		{
			"bufferView":54,
			"componentType":5126,
			"count":2,
			"type":"VEC4"
		},
		{
			"bufferView":55,
			"componentType":5126,
			"count":2,
			"type":"VEC3"
		},
		{
			"bufferView":56,
			"componentType":5126,
			"count":2,
			"type":"VEC3"
		},
		{
			"bufferView":57,
			"componentType":5126,
			"count":2,
			"type":"VEC4"
		},
		{
			"bufferView":58,
			"componentType":5126,
			"count":2,
			"type":"VEC3"
		},
		{
			"bufferView":59,
			"componentType":5126,
			"count":2,
			"type":"VEC3"
		},
		{
			"bufferView":60,
			"componentType":5126,
			"count":2,
			"type":"VEC4"
		},
		{
			"bufferView":61,
			"componentType":5126,
			"count":2,
			"type":"VEC3"
		},
		{
			"bufferView":62,
			"componentType":5126,
			"count":2,
			"type":"VEC3"
		},
		{
			"bufferView":63,
			"componentType":5126,
			"count":2,
			"type":"VEC4"
		},
		{
			"bufferView":64,
			"componentType":5126,
			"count":2,
			"type":"VEC3"
		},
		{
			"bufferView":65,
			"componentType":5126,
			"count":2,
			"type":"VEC3"
		},
		{
			"bufferView":66,
			"componentType":5126,
			"count":61,
			"type":"VEC4"
		},
		{
			"bufferView":67,
			"componentType":5126,
			"count":2,
			"type":"VEC3"
		},
		{
			"bufferView":68,
			"componentType":5126,
			"count":2,
			"type":"VEC3"
		},
		{
			"bufferView":69,
			"componentType":5126,
			"count":61,
			"type":"VEC4"
		},
		{
			"bufferView":70,
			"componentType":5126,
			"count":2,
			"type":"VEC3"
		},
		{
			"bufferView":71,
			"componentType":5126,
			"count":61,
			"type":"VEC4"
		},
		{
			"bufferView":72,
			"componentType":5126,
			"count":2,
			"type":"VEC3"
		},
		{
			"bufferView":73,
			"componentType":5126,
			"count":2,
			"type":"VEC3"
		},
		{
			"bufferView":74,
			"componentType":5126,
			"count":61,
			"type":"VEC4"
		},
		{
			"bufferView":75,
			"componentType":5126,
			"count":2,
			"type":"VEC3"
		},
		{
			"bufferView":76,
			"componentType":5126,
			"count":2,
			"type":"VEC3"
		},
		{
			"bufferView":77,
			"componentType":5126,
			"count":2,
			"type":"VEC4"
		},
		{
			"bufferView":78,
			"componentType":5126,
			"count":2,
			"type":"VEC3"
		},
		{
			"bufferView":79,
			"componentType":5126,
			"count":2,
			"type":"VEC3"
		},
		{
			"bufferView":80,
			"componentType":5126,
			"count":2,
			"type":"VEC4"
		},
		{
			"bufferView":81,
			"componentType":5126,
			"count":2,
			"type":"VEC3"
		},
		{
			"bufferView":82,
			"componentType":5126,
			"count":2,
			"type":"VEC3"
		},
		{
			"bufferView":83,
			"componentType":5126,
			"count":2,
			"type":"VEC4"
		},
		{
			"bufferView":84,
			"componentType":5126,
			"count":2,
			"type":"VEC3"
		},
		{
			"bufferView":85,
			"componentType":5126,
			"count":2,
			"type":"VEC3"
		},
		{
			"bufferView":86,
			"componentType":5126,
			"count":2,
			"type":"VEC4"
		},
		{
			"bufferView":87,
			"componentType":5126,
			"count":2,
			"type":"VEC3"
		},
		{
			"bufferView":88,
			"componentType":5126,
			"count":2,
			"type":"VEC3"
		},
		{
			"bufferView":89,
			"componentType":5126,
			"count":2,
			"type":"VEC4"
		},
		{
			"bufferView":90,
			"componentType":5126,
			"count":2,
			"type":"VEC3"
		},
		{
			"bufferView":91,
			"componentType":5126,
			"count":2,
			"type":"VEC3"
		},
		{
			"bufferView":92,
			"componentType":5126,
			"count":2,
			"type":"VEC4"
		},
		{
			"bufferView":93,
			"componentType":5126,
			"count":2,
			"type":"VEC3"
		},
		{
			"bufferView":94,
			"componentType":5126,
			"count":2,
			"type":"VEC3"
		},
		{
			"bufferView":95,
			"componentType":5126,
			"count":2,
			"type":"VEC4"
		},
		{
			"bufferView":96,
			"componentType":5126,
			"count":2,
			"type":"VEC3"
		},
		{
			"bufferView":97,
			"componentType":5126,
			"count":2,
			"type":"VEC3"
		},
		{
			"bufferView":98,
			"componentType":5126,
			"count":2,
			"type":"VEC4"
		},
		{
			"bufferView":99,
			"componentType":5126,
			"count":2,
			"type":"VEC3"
		},
		{
			"bufferView":100,
			"componentType":5126,
			"count":2,
			"type":"VEC3"
		},
		{
			"bufferView":101,
			"componentType":5126,
			"count":61,
			"type":"VEC4"
		},
		{
			"bufferView":102,
			"componentType":5126,
			"count":2,
			"type":"VEC3"
		},
		{
			"bufferView":103,
			"componentType":5126,
			"count":2,
			"type":"VEC3"
		},
		{
			"bufferView":104,
			"componentType":5126,
			"count":61,
			"type":"VEC4"
		},
		{
			"bufferView":105,
			"componentType":5126,
			"count":2,
			"type":"VEC3"
		},
		{
			"bufferView":106,
			"componentType":5126,
			"count":2,
			"type":"VEC3"
		},
		{
			"bufferView":107,
			"componentType":5126,
			"count":61,
			"type":"VEC4"
		},
		{
			"bufferView":108,
			"componentType":5126,
			"count":2,
			"type":"VEC3"
		},
		{
			"bufferView":109,
			"componentType":5126,
			"count":2,
			"type":"VEC3"
		},
		{
			"bufferView":110,
			"componentType":5126,
			"count":61,
			"type":"VEC4"
		},
		{
			"bufferView":111,
			"componentType":5126,
			"count":2,
			"type":"VEC3"
		},
		{
			"bufferView":112,
			"componentType":5126,
			"count":2,
			"type":"VEC3"
		},
		{
			"bufferView":113,
			"componentType":5126,
			"count":2,
			"type":"VEC4"
		},
		{
			"bufferView":114,
			"componentType":5126,
			"count":2,
			"type":"VEC3"
		},
		{
			"bufferView":115,
			"componentType":5126,
			"count":2,
			"type":"VEC3"
		},
		{
			"bufferView":116,
			"componentType":5126,
			"count":61,
			"type":"VEC4"
		},
		{
			"bufferView":117,
			"componentType":5126,
			"count":2,
			"type":"VEC3"
		},
		{
			"bufferView":118,
			"componentType":5126,
			"count":2,
			"type":"VEC3"
		},
		{
			"bufferView":119,
			"componentType":5126,
			"count":61,
			"type":"VEC4"
		},
		{
			"bufferView":120,
			"componentType":5126,
			"count":2,
			"type":"VEC3"
		},
		{
			"bufferView":121,
			"componentType":5126,
			"count":2,
			"type":"VEC3"
		},
		{
			"bufferView":122,
			"componentType":5126,
			"count":61,
			"type":"VEC4"
		},
		{
			"bufferView":123,
			"componentType":5126,
			"count":2,
			"type":"VEC3"
		},
		{
			"bufferView":124,
			"componentType":5126,
			"count":2,
			"type":"VEC3"
		},
		{
			"bufferView":125,
			"componentType":5126,
			"count":61,
			"type":"VEC4"
		},
		{
			"bufferView":126,
			"componentType":5126,
			"count":2,
			"type":"VEC3"
		},
		{
			"bufferView":127,
			"componentType":5126,
			"count":2,
			"type":"VEC4"
		}
	],
	"bufferViews":[
		{
			"buffer":0,
			"byteLength":104016,
			"byteOffset":0,
			"target":34962
		},
		{
			"buffer":0,
			"byteLength":104016,
			"byteOffset":104016,
			"target":34962
		},
		{
			"buffer":0,
			"byteLength":34672,
			"byteOffset":208032,
			"target":34962
		},
		{
			"buffer":0,
			"byteLength":138688,
			"byteOffset":242704,
			"target":34962
		},
		{
			"buffer":0,
			"byteLength":19668,
			"byteOffset":381392,
			"target":34963
		},
		{
			"buffer":0,
			"byteLength":2624,
			"byteOffset":401060
		},
		{
			"buffer":0,
			"byteLength":244,
			"byteOffset":403684
		},
		{
			"buffer":0,
			"byteLength":732,
			"byteOffset":403928
		},
		{
			"buffer":0,
			"byteLength":976,
			"byteOffset":404660
		},
		{
			"buffer":0,
			"byteLength":8,
			"byteOffset":405636
		},
		{
			"buffer":0,
			"byteLength":24,
			"byteOffset":405644
		},
		{
			"buffer":0,
			"byteLength":24,
			"byteOffset":405668
		},
		{
			"buffer":0,
			"byteLength":976,
			"byteOffset":405692
		},
		{
			"buffer":0,
			"byteLength":24,
			"byteOffset":406668
		},
		{
			"buffer":0,
			"byteLength":24,
			"byteOffset":406692
		},
		{
			"buffer":0,
			"byteLength":976,
			"byteOffset":406716
		},
		{
			"buffer":0,
			"byteLength":24,
			"byteOffset":407692
		},
		{
			"buffer":0,
			"byteLength":24,
			"byteOffset":407716
		},
		{
			"buffer":0,
			"byteLength":976,
			"byteOffset":407740
		},
		{
			"buffer":0,
			"byteLength":24,
			"byteOffset":408716
		},
		{
			"buffer":0,
			"byteLength":24,
			"byteOffset":408740
		},
		{
			"buffer":0,
			"byteLength":976,
			"byteOffset":408764
		},
		{
			"buffer":0,
			"byteLength":24,
			"byteOffset":409740
		},
		{
			"buffer":0,
			"byteLength":24,
			"byteOffset":409764
		},
		{
			"buffer":0,
			"byteLength":976,
			"byteOffset":409788
		},
		{
			"buffer":0,
			"byteLength":24,
			"byteOffset":410764
		},
		{
			"buffer":0,
			"byteLength":24,
			"byteOffset":410788
		},
		{
			"buffer":0,
			"byteLength":32,
			"byteOffset":410812
		},
		{
			"buffer":0,
			"byteLength":24,
			"byteOffset":410844
		},
		{
			"buffer":0,
			"byteLength":24,
			"byteOffset":410868
		},
		{
			"buffer":0,
			"byteLength":976,
			"byteOffset":410892
		},
		{
			"buffer":0,
			"byteLength":24,
			"byteOffset":411868
		},
		{
			"buffer":0,
			"byteLength":24,
			"byteOffset":411892
		},
		{
			"buffer":0,
			"byteLength":976,
			"byteOffset":411916
		},
		{
			"buffer":0,
			"byteLength":24,
			"byteOffset":412892
		},
		{
			"buffer":0,
			"byteLength":24,
			"byteOffset":412916
		},
		{
			"buffer":0,
			"byteLength":976,
			"byteOffset":412940
		},
		{
			"buffer":0,
			"byteLength":24,
			"byteOffset":413916
		},
		{
			"buffer":0,
			"byteLength":24,
			"byteOffset":413940
		},
		{
			"buffer":0,
			"byteLength":976,
			"byteOffset":413964
		},
		{
			"buffer":0,
			"byteLength":24,
			"byteOffset":414940
		},
		{
			"buffer":0,
			"byteLength":24,
			"byteOffset":414964
		},
		{
			"buffer":0,
			"byteLength":32,
			"byteOffset":414988
		},
		{
			"buffer":0,
			"byteLength":24,
			"byteOffset":415020
		},
		{
			"buffer":0,
			"byteLength":24,
			"byteOffset":415044
		},
		{
			"buffer":0,
			"byteLength":32,
			"byteOffset":415068
		},
		{
			"buffer":0,
			"byteLength":24,
			"byteOffset":415100
		},
		{
			"buffer":0,
			"byteLength":24,
			"byteOffset":415124
		},
		{
			"buffer":0,
			"byteLength":32,
			"byteOffset":415148
		},
		{
			"buffer":0,
			"byteLength":24,
			"byteOffset":415180
		},
		{
			"buffer":0,
			"byteLength":24,
			"byteOffset":415204
		},
		{
			"buffer":0,
			"byteLength":32,
			"byteOffset":415228
		},
		{
			"buffer":0,
			"byteLength":24,
			"byteOffset":415260
		},
		{
			"buffer":0,
			"byteLength":24,
			"byteOffset":415284
		},
		{
			"buffer":0,
			"byteLength":32,
			"byteOffset":415308
		},
		{
			"buffer":0,
			"byteLength":24,
			"byteOffset":415340
		},
		{
			"buffer":0,
			"byteLength":24,
			"byteOffset":415364
		},
		{
			"buffer":0,
			"byteLength":32,
			"byteOffset":415388
		},
		{
			"buffer":0,
			"byteLength":24,
			"byteOffset":415420
		},
		{
			"buffer":0,
			"byteLength":24,
			"byteOffset":415444
		},
		{
			"buffer":0,
			"byteLength":32,
			"byteOffset":415468
		},
		{
			"buffer":0,
			"byteLength":24,
			"byteOffset":415500
		},
		{
			"buffer":0,
			"byteLength":24,
			"byteOffset":415524
		},
		{
			"buffer":0,
			"byteLength":32,
			"byteOffset":415548
		},
		{
			"buffer":0,
			"byteLength":24,
			"byteOffset":415580
		},
		{
			"buffer":0,
			"byteLength":24,
			"byteOffset":415604
		},
		{
			"buffer":0,
			"byteLength":976,
			"byteOffset":415628
		},
		{
			"buffer":0,
			"byteLength":24,
			"byteOffset":416604
		},
		{
			"buffer":0,
			"byteLength":24,
			"byteOffset":416628
		},
		{
			"buffer":0,
			"byteLength":976,
			"byteOffset":416652
		},
		{
			"buffer":0,
			"byteLength":24,
			"byteOffset":417628
		},
		{
			"buffer":0,
			"byteLength":976,
			"byteOffset":417652
		},
		{
			"buffer":0,
			"byteLength":24,
			"byteOffset":418628
		},
		{
			"buffer":0,
			"byteLength":24,
			"byteOffset":418652
		},
		{
			"buffer":0,
			"byteLength":976,
			"byteOffset":418676
		},
		{
			"buffer":0,
			"byteLength":24,
			"byteOffset":419652
		},
		{
			"buffer":0,
			"byteLength":24,
			"byteOffset":419676
		},
		{
			"buffer":0,
			"byteLength":32,
			"byteOffset":419700
		},
		{
			"buffer":0,
			"byteLength":24,
			"byteOffset":419732
		},
		{
			"buffer":0,
			"byteLength":24,
			"byteOffset":419756
		},
		{
			"buffer":0,
			"byteLength":32,
			"byteOffset":419780
		},
		{
			"buffer":0,
			"byteLength":24,
			"byteOffset":419812
		},
		{
			"buffer":0,
			"byteLength":24,
			"byteOffset":419836
		},
		{
			"buffer":0,
			"byteLength":32,
			"byteOffset":419860
		},
		{
			"buffer":0,
			"byteLength":24,
			"byteOffset":419892
		},
		{
			"buffer":0,
			"byteLength":24,
			"byteOffset":419916
		},
		{
			"buffer":0,
			"byteLength":32,
			"byteOffset":419940
		},
		{
			"buffer":0,
			"byteLength":24,
			"byteOffset":419972
		},
		{
			"buffer":0,
			"byteLength":24,
			"byteOffset":419996
		},
		{
			"buffer":0,
			"byteLength":32,
			"byteOffset":420020
		},
		{
			"buffer":0,
			"byteLength":24,
			"byteOffset":420052
		},
		{
			"buffer":0,
			"byteLength":24,
			"byteOffset":420076
		},
		{
			"buffer":0,
			"byteLength":32,
			"byteOffset":420100
		},
		{
			"buffer":0,
			"byteLength":24,
			"byteOffset":420132
		},
		{
			"buffer":0,
			"byteLength":24,
			"byteOffset":420156
		},
		{
			"buffer":0,
			"byteLength":32,
			"byteOffset":420180
		},
		{
			"buffer":0,
			"byteLength":24,
			"byteOffset":420212
		},
		{
			"buffer":0,
			"byteLength":24,
			"byteOffset":420236
		},
		{
			"buffer":0,
			"byteLength":32,
			"byteOffset":420260
		},
		{
			"buffer":0,
			"byteLength":24,
			"byteOffset":420292
		},
		{
			"buffer":0,
			"byteLength":24,
			"byteOffset":420316
		},
		{
			"buffer":0,
			"byteLength":976,
			"byteOffset":420340
		},
		{
			"buffer":0,
			"byteLength":24,
			"byteOffset":421316
		},
		{
			"buffer":0,
			"byteLength":24,
			"byteOffset":421340
		},
		{
			"buffer":0,
			"byteLength":976,
			"byteOffset":421364
		},
		{
			"buffer":0,
			"byteLength":24,
			"byteOffset":422340
		},
		{
			"buffer":0,
			"byteLength":24,
			"byteOffset":422364
		},
		{
			"buffer":0,
			"byteLength":976,
			"byteOffset":422388
		},
		{
			"buffer":0,
			"byteLength":24,
			"byteOffset":423364
		},
		{
			"buffer":0,
			"byteLength":24,
			"byteOffset":423388
		},
		{
			"buffer":0,
			"byteLength":976,
			"byteOffset":423412
		},
		{
			"buffer":0,
			"byteLength":24,
			"byteOffset":424388
		},
		{
			"buffer":0,
			"byteLength":24,
			"byteOffset":424412
		},
		{
			"buffer":0,
			"byteLength":32,
			"byteOffset":424436
		},
		{
			"buffer":0,
			"byteLength":24,
			"byteOffset":424468
		},
		{
			"buffer":0,
			"byteLength":24,
			"byteOffset":424492
		},
		{
			"buffer":0,
			"byteLength":976,
			"byteOffset":424516
		},
		{
			"buffer":0,
			"byteLength":24,
			"byteOffset":425492
		},
		{
			"buffer":0,
			"byteLength":24,
			"byteOffset":425516
		},
		{
			"buffer":0,
			"byteLength":976,
			"byteOffset":425540
		},
		{
			"buffer":0,
			"byteLength":24,
			"byteOffset":426516
		},
		{
			"buffer":0,
			"byteLength":24,
			"byteOffset":426540
		},
		{
			"buffer":0,
			"byteLength":976,
			"byteOffset":426564
		},
		{
			"buffer":0,
			"byteLength":24,
			"byteOffset":427540
		},
		{
			"buffer":0,
			"byteLength":24,
			"byteOffset":427564
		},
		{
			"buffer":0,
			"byteLength":976,
			"byteOffset":427588
		},
		{
			"buffer":0,
			"byteLength":24,
			"byteOffset":428564
		},
		{
			"buffer":0,
			"byteLength":32,
			"byteOffset":428588
		}
	],
	"buffers":[
		{
			"byteLength":428620,
			"uri":"Kick_003.bin"
		}
	]
}
