{
	"asset":{
		"generator":"Khronos glTF Blender I/O v5.1.18",
		"version":"2.0"
	},
	"extensionsUsed":[
		"KHR_materials_specular"
	],
	"scene":0,
	"scenes":[
		{
			"name":"Scene",
			"nodes":[
				46
			]
		}
	],
	"nodes":[
		{
			"name":"mixamorig:HeadTop_End",
			"rotation":[
				1.7763570511584873e-15,
				0,
				0,
				1
			],
			"scale":[
				1,
				0.9999999403953552,
				0.9999999403953552
			],
			"translation":[
				0,
				19.69610595703125,
				4.85573673248291
			]
		},
		{
			"children":[
				0
			],
			"name":"mixamorig:Head",
			"rotation":[
				-2.9382438704317337e-09,
				0,
				0,
				1
			],
			"scale":[
				1,
				0.9999999403953552,
				0.9999999403953552
			],
			"translation":[
				0,
				4.255112171173096,
				1.0490247011184692
			]
		},
		{
			"children":[
				1
			],
			"name":"mixamorig:Neck",
			"rotation":[
				0.03667135909199715,
				0,
				0,
				0.9993274211883545
			],
			"scale":[
				1,
				1,
				0.9999999403953552
			],
			"translation":[
				0,
				14.05167007446289,
				-1.430511474609375e-06
			]
		},
		{
			"name":"mixamorig:LeftHandThumb4",
			"rotation":[
				-3.909458882844774e-06,
				1.9354396499693394e-05,
				-2.162290911655873e-06,
				1
			],
			"scale":[
				1,
				1.0000001192092896,
				1.0000001192092896
			],
			"translation":[
				-0.3196057081222534,
				1.8797485828399658,
				-9.821262210607529e-06
			]
		},
		{
			"children":[
				3
			],
			"name":"mixamorig:LeftHandThumb3",
			"rotation":[
				0.016040895134210587,
				1.2184432307549287e-07,
				2.2231641594316898e-07,
				0.9998713731765747
			],
			"scale":[
				0.9999998807907104,
				0.9999998211860657,
				0.9999998807907104
			],
			"translation":[
				-0.14398731291294098,
				2.2674570083618164,
				3.4049153327941895e-06
			]
		},
		{
			"children":[
				4
			],
			"name":"mixamorig:LeftHandThumb2",
			"rotation":[
				-0.005140749271959066,
				9.248883543477859e-07,
				8.696921440787264e-07,
				0.9999867677688599
			],
			"scale":[
				1,
				1,
				0.9999998807907104
			],
			"translation":[
				0.4636022448539734,
				1.6473071575164795,
				-1.6413629055023193e-05
			]
		},
		{
			"children":[
				5
			],
			"name":"mixamorig:LeftHandThumb1",
			"rotation":[
				-2.1836514463302592e-07,
				-2.4938735805335455e-06,
				0.620141863822937,
				0.7844896912574768
			],
			"scale":[
				0.9999998211860657,
				0.9999999403953552,
				0.9999998807907104
			],
			"translation":[
				-1.8697389364242554,
				1.0392146110534668,
				3.896653652191162e-06
			]
		},
		{
			"name":"mixamorig:LeftHandIndex4",
			"rotation":[
				3.5215632632201732e-09,
				8.011964382603765e-06,
				3.954846476972307e-07,
				1
			],
			"scale":[
				1,
				1.0000001192092896,
				1
			],
			"translation":[
				-0.0006215572357177734,
				3.006281852722168,
				-2.8945505619049072e-06
			]
		},
		{
			"children":[
				7
			],
			"name":"mixamorig:LeftHandIndex3",
			"rotation":[
				0.06931387633085251,
				-1.3157472444902396e-08,
				7.34127141299723e-08,
				0.9975948929786682
			],
			"scale":[
				1,
				0.9999999403953552,
				0.9999998807907104
			],
			"translation":[
				-0.005831718444824219,
				3.4251980781555176,
				-1.208484172821045e-05
			]
		},
		{
			"children":[
				8
			],
			"name":"mixamorig:LeftHandIndex2",
			"rotation":[
				-0.1877625286579132,
				8.604794032862628e-08,
				-5.297992800024076e-08,
				0.9822144508361816
			],
			"translation":[
				0.006453275680541992,
				4.121462345123291,
				1.049041748046875e-05
			]
		},
		{
			"children":[
				9
			],
			"name":"mixamorig:LeftHandIndex1",
			"rotation":[
				0.1293916404247284,
				-0.008342351764440536,
				-0.0637970045208931,
				0.9895039796829224
			],
			"scale":[
				0.9999998211860657,
				0.9999998807907104,
				0.9999998807907104
			],
			"translation":[
				-2.5331974029541016e-07,
				2.231097936630249,
				8.441507816314697e-06
			]
		},
		{
			"children":[
				6,
				10
			],
			"name":"mixamorig:LeftHand",
			"rotation":[
				-0.03205990046262741,
				0.0366598442196846,
				0.04060438275337219,
				0.9979877471923828
			],
			"translation":[
				-3.5762786865234375e-07,
				33.80202102661133,
				-1.1026859283447266e-05
			]
		},
		{
			"children":[
				11
			],
			"name":"mixamorig:LeftForeArm",
			"rotation":[
				-0.014182976447045803,
				-5.42606612725649e-05,
				0.0038256128318607807,
				0.9998921155929565
			],
			"scale":[
				1,
				0.9999998807907104,
				0.9999998211860657
			],
			"translation":[
				1.0728836059570312e-06,
				25.33639907836914,
				1.0311603546142578e-05
			]
		},
		{
			"children":[
				12
			],
			"name":"mixamorig:LeftArm",
			"rotation":[
				-0.13223949074745178,
				-0.00046499993186444044,
				0.00348518299870193,
				0.9912115335464478
			],
			"scale":[
				0.9999998807907104,
				1,
				1.0000001192092896
			],
			"translation":[
				-8.642673492431641e-07,
				10.353421211242676,
				-1.0311603546142578e-05
			]
		},
		{
			"children":[
				13
			],
			"name":"mixamorig:LeftShoulder",
			"rotation":[
				0.5629987120628357,
				0.42240431904792786,
				-0.5803025364875793,
				0.4097024202346802
			],
			"scale":[
				1,
				1.0000001192092896,
				1
			],
			"translation":[
				4.935527324676514,
				12.478944778442383,
				-0.14833545684814453
			]
		},
		{
			"name":"mixamorig:RightHandThumb4",
			"rotation":[
				-2.262835914734751e-05,
				-0.000787466240581125,
				0.00011735555744962767,
				0.9999997019767761
			],
			"scale":[
				1,
				0.9999997019767761,
				0.9999998211860657
			],
			"translation":[
				0.05511412024497986,
				1.9002660512924194,
				-1.5988945960998535e-05
			]
		},
		{
			"children":[
				15
			],
			"name":"mixamorig:RightHandThumb3",
			"rotation":[
				0.10151974856853485,
				1.0715220923884772e-06,
				1.0499684321985114e-06,
				0.9948335289955139
			],
			"scale":[
				1,
				1.0000001192092896,
				1.0000001192092896
			],
			"translation":[
				0.3665490746498108,
				2.218285322189331,
				-2.664513885974884e-06
			]
		},
		{
			"children":[
				16
			],
			"name":"mixamorig:RightHandThumb2",
			"rotation":[
				0.02361060120165348,
				-4.349907669620734e-07,
				-3.3948899158531276e-07,
				0.9997212290763855
			],
			"scale":[
				0.9999999403953552,
				0.9999998807907104,
				0.9999998211860657
			],
			"translation":[
				-0.4216735363006592,
				1.633807897567749,
				3.4570693969726562e-06
			]
		},
		{
			"children":[
				17
			],
			"name":"mixamorig:RightHandThumb1",
			"rotation":[
				-1.9311689811729593e-06,
				-7.261344592279784e-08,
				-0.6149282455444336,
				0.7885830402374268
			],
			"scale":[
				1.0000001192092896,
				1,
				1
			],
			"translation":[
				1.8522125482559204,
				1.0089305639266968,
				-7.510185241699219e-06
			]
		},
		{
			"name":"mixamorig:RightHandIndex4",
			"rotation":[
				6.138580488368461e-07,
				-0.0003440997388679534,
				-1.1688421182043385e-05,
				0.9999999403953552
			],
			"scale":[
				0.9999999403953552,
				1,
				0.9999999403953552
			],
			"translation":[
				0.003874540328979492,
				2.864475965499878,
				9.804964065551758e-06
			]
		},
		{
			"children":[
				19
			],
			"name":"mixamorig:RightHandIndex3",
			"rotation":[
				0.06568969041109085,
				7.86921035000887e-08,
				4.996278235580576e-08,
				0.9978401064872742
			],
			"scale":[
				1,
				0.9999998807907104,
				1
			],
			"translation":[
				0.0291597843170166,
				3.457298994064331,
				-5.2034854888916016e-05
			]
		},
		{
			"children":[
				20
			],
			"name":"mixamorig:RightHandIndex2",
			"rotation":[
				-0.16429905593395233,
				-1.3336162396626605e-08,
				5.995372021061485e-08,
				0.9864106178283691
			],
			"scale":[
				0.9999999403953552,
				0.9999999403953552,
				0.9999999403953552
			],
			"translation":[
				-0.03303408622741699,
				4.058718681335449,
				2.0205974578857422e-05
			]
		},
		{
			"children":[
				21
			],
			"name":"mixamorig:RightHandIndex1",
			"rotation":[
				0.06581607460975647,
				0.002106491709128022,
				0.03191853314638138,
				0.9973189234733582
			],
			"scale":[
				1,
				0.9999998211860657,
				0.9999998807907104
			],
			"translation":[
				9.5367431640625e-07,
				2.4449973106384277,
				-1.2755393981933594e-05
			]
		},
		{
			"children":[
				18,
				22
			],
			"name":"mixamorig:RightHand",
			"rotation":[
				0.0116115128621459,
				-0.008581765927374363,
				-0.017762714996933937,
				0.9997379779815674
			],
			"translation":[
				-1.430511474609375e-06,
				33.802127838134766,
				1.901388168334961e-05
			]
		},
		{
			"children":[
				23
			],
			"name":"mixamorig:RightForeArm",
			"rotation":[
				-0.014027964323759079,
				8.740484190639108e-05,
				-0.006226435303688049,
				0.9998822212219238
			],
			"scale":[
				1.0000001192092896,
				1.0000001192092896,
				1.0000001192092896
			],
			"translation":[
				2.384185791015625e-07,
				25.33938980102539,
				1.6897916793823242e-05
			]
		},
		{
			"children":[
				24
			],
			"name":"mixamorig:RightArm",
			"rotation":[
				-0.13290423154830933,
				-0.0008004516712389886,
				0.005968965124338865,
				0.991110622882843
			],
			"scale":[
				0.9999998807907104,
				0.9999998807907104,
				0.9999999403953552
			],
			"translation":[
				2.7120113372802734e-06,
				10.353423118591309,
				-1.049041748046875e-05
			]
		},
		{
			"children":[
				25
			],
			"name":"mixamorig:RightShoulder",
			"rotation":[
				0.5670205950737,
				-0.4194032549858093,
				0.5767743587493896,
				0.41221341490745544
			],
			"scale":[
				1.0000001192092896,
				1.0000001192092896,
				1
			],
			"translation":[
				-4.935527324676514,
				12.474156379699707,
				-0.08318281173706055
			]
		},
		{
			"children":[
				2,
				14,
				26
			],
			"name":"mixamorig:Spine2",
			"rotation":[
				3.725289943190546e-08,
				0,
				0,
				1
			],
			"scale":[
				1,
				1.0000001192092896,
				1.0000001192092896
			],
			"translation":[
				0,
				12.490384101867676,
				4.76837158203125e-07
			]
		},
		{
			"children":[
				27
			],
			"name":"mixamorig:Spine1",
			"rotation":[
				5.587934559514451e-09,
				0,
				0,
				1
			],
			"scale":[
				1,
				1.0000001192092896,
				1.0000001192092896
			],
			"translation":[
				0,
				10.929084777832031,
				0
			]
		},
		{
			"children":[
				28
			],
			"name":"mixamorig:Spine",
			"rotation":[
				-0.03667139261960983,
				0,
				0,
				0.9993274211883545
			],
			"scale":[
				1,
				1.0000001192092896,
				0.9999999403953552
			],
			"translation":[
				0,
				9.342575073242188,
				-0.6865969896316528
			]
		},
		{
			"name":"mixamorig:LeftToe_End",
			"rotation":[
				2.852175562395587e-08,
				1.655425876379013e-07,
				3.812602233921325e-09,
				1
			],
			"scale":[
				0.9999998807907104,
				0.9999999403953552,
				1
			],
			"translation":[
				2.209097146987915e-06,
				4.54879093170166,
				2.086162567138672e-07
			]
		},
		{
			"children":[
				30
			],
			"name":"mixamorig:LeftToeBase",
			"rotation":[
				0.29714441299438477,
				-0.053919024765491486,
				0.01680896431207657,
				0.9531607627868652
			],
			"scale":[
				1,
				0.9999998807907104,
				0.9999999403953552
			],
			"translation":[
				4.079192876815796e-07,
				12.782106399536133,
				5.364418029785156e-07
			]
		},
		{
			"children":[
				31
			],
			"name":"mixamorig:LeftFoot",
			"rotation":[
				0.46758490800857544,
				-0.003106518881395459,
				0.001643234514631331,
				0.8839411735534668
			],
			"scale":[
				1,
				1.000000238418579,
				1.0000001192092896
			],
			"translation":[
				1.7601996660232544e-07,
				40.830509185791016,
				-1.0319054126739502e-06
			]
		},
		{
			"children":[
				32
			],
			"name":"mixamorig:LeftLeg",
			"rotation":[
				-0.024392807856202126,
				-5.734248406952247e-05,
				0.0021221935749053955,
				0.9997002482414246
			],
			"scale":[
				0.9999999403953552,
				0.9999998211860657,
				0.9999999403953552
			],
			"translation":[
				3.520399332046509e-07,
				50.04468536376953,
				5.529891495825723e-07
			]
		},
		{
			"children":[
				33
			],
			"name":"mixamorig:LeftUpLeg",
			"rotation":[
				0.00042120800935663283,
				0.014916827902197838,
				-0.9994913339614868,
				0.028183486312627792
			],
			"scale":[
				1.0000030994415283,
				0.9999998807907104,
				1.0000008344650269
			],
			"translation":[
				6.755184173583984,
				-5.188514709472656,
				0.188017800450325
			]
		},
		{
			"name":"mixamorig:RightToe_End",
			"rotation":[
				3.3993273973464966e-08,
				-1.4901161193847656e-07,
				1.949956640601158e-09,
				1
			],
			"scale":[
				0.9999999403953552,
				1,
				1
			],
			"translation":[
				-1.434236764907837e-06,
				4.576799392700195,
				2.980232238769531e-07
			]
		},
		{
			"children":[
				35
			],
			"name":"mixamorig:RightToeBase",
			"rotation":[
				0.29843196272850037,
				0.05331626534461975,
				-0.016699550673365593,
				0.9527942538261414
			],
			"scale":[
				1,
				1.0000001192092896,
				0.9999999403953552
			],
			"translation":[
				1.7182901501655579e-06,
				12.745938301086426,
				1.0728836059570312e-06
			]
		},
		{
			"children":[
				36
			],
			"name":"mixamorig:RightFoot",
			"rotation":[
				0.46723058819770813,
				0.0031008555088192225,
				-0.0016386815113946795,
				0.8841285705566406
			],
			"translation":[
				-1.0933727025985718e-06,
				40.83528137207031,
				-6.891787052154541e-07
			]
		},
		{
			"children":[
				37
			],
			"name":"mixamorig:RightLeg",
			"rotation":[
				-0.02539108507335186,
				5.961005081189796e-05,
				-0.002121175639331341,
				0.9996753334999084
			],
			"scale":[
				1.0000001192092896,
				1,
				1
			],
			"translation":[
				-1.9045546650886536e-07,
				50.04391860961914,
				4.2695864976849407e-07
			]
		},
		{
			"children":[
				38
			],
			"name":"mixamorig:RightUpLeg",
			"rotation":[
				0.0004137893847655505,
				-0.014658153057098389,
				0.9994952082633972,
				0.028184032067656517
			],
			"scale":[
				1.0000030994415283,
				1,
				1.0000008344650269
			],
			"translation":[
				-6.755184173583984,
				-5.188514709472656,
				0.27594301104545593
			]
		},
		{
			"children":[
				29,
				34,
				39
			],
			"name":"mixamorig:Hips",
			"rotation":[
				-0.7071067690849304,
				0,
				0,
				0.7071067690849304
			],
			"translation":[
				-1.0172526344831567e-05,
				-2.693596601486206,
				-105.65119934082031
			]
		},
		{
			"mesh":0,
			"name":"Cube",
			"skin":0
		},
		{
			"mesh":1,
			"name":"\u7acb\u65b9\u4f53",
			"skin":0
		},
		{
			"mesh":2,
			"name":"\u7acb\u65b9\u4f53.001",
			"skin":0
		},
		{
			"mesh":3,
			"name":"\u7acb\u65b9\u4f53.002",
			"skin":0
		},
		{
			"mesh":4,
			"name":"\u7acb\u65b9\u4f53.003",
			"skin":0
		},
		{
			"children":[
				41,
				42,
				43,
				44,
				45,
				40
			],
			"name":"Armature",
			"rotation":[
				0.7071068286895752,
				0,
				0,
				0.7071068286895752
			],
			"scale":[
				0.009999999776482582,
				0.009999999776482582,
				0.009999999776482582
			]
		}
	],
	"animations":[
		{
			"channels":[
				{
					"sampler":0,
					"target":{
						"node":40,
						"path":"translation"
					}
				},
				{
					"sampler":1,
					"target":{
						"node":40,
						"path":"rotation"
					}
				},
				{
					"sampler":2,
					"target":{
						"node":40,
						"path":"scale"
					}
				},
				{
					"sampler":3,
					"target":{
						"node":29,
						"path":"translation"
					}
				},
				{
					"sampler":4,
					"target":{
						"node":29,
						"path":"rotation"
					}
				},
				{
					"sampler":5,
					"target":{
						"node":29,
						"path":"scale"
					}
				},
				{
					"sampler":6,
					"target":{
						"node":28,
						"path":"translation"
					}
				},
				{
					"sampler":7,
					"target":{
						"node":28,
						"path":"rotation"
					}
				},
				{
					"sampler":8,
					"target":{
						"node":28,
						"path":"scale"
					}
				},
				{
					"sampler":9,
					"target":{
						"node":27,
						"path":"translation"
					}
				},
				{
					"sampler":10,
					"target":{
						"node":27,
						"path":"rotation"
					}
				},
				{
					"sampler":11,
					"target":{
						"node":27,
						"path":"scale"
					}
				},
				{
					"sampler":12,
					"target":{
						"node":2,
						"path":"translation"
					}
				},
				{
					"sampler":13,
					"target":{
						"node":2,
						"path":"rotation"
					}
				},
				{
					"sampler":14,
					"target":{
						"node":2,
						"path":"scale"
					}
				},
				{
					"sampler":15,
					"target":{
						"node":1,
						"path":"translation"
					}
				},
				{
					"sampler":16,
					"target":{
						"node":1,
						"path":"rotation"
					}
				},
				{
					"sampler":17,
					"target":{
						"node":1,
						"path":"scale"
					}
				},
				{
					"sampler":18,
					"target":{
						"node":0,
						"path":"translation"
					}
				},
				{
					"sampler":19,
					"target":{
						"node":0,
						"path":"rotation"
					}
				},
				{
					"sampler":20,
					"target":{
						"node":0,
						"path":"scale"
					}
				},
				{
					"sampler":21,
					"target":{
						"node":14,
						"path":"translation"
					}
				},
				{
					"sampler":22,
					"target":{
						"node":14,
						"path":"rotation"
					}
				},
				{
					"sampler":23,
					"target":{
						"node":14,
						"path":"scale"
					}
				},
				{
					"sampler":24,
					"target":{
						"node":13,
						"path":"translation"
					}
				},
				{
					"sampler":25,
					"target":{
						"node":13,
						"path":"rotation"
					}
				},
				{
					"sampler":26,
					"target":{
						"node":13,
						"path":"scale"
					}
				},
				{
					"sampler":27,
					"target":{
						"node":12,
						"path":"translation"
					}
				},
				{
					"sampler":28,
					"target":{
						"node":12,
						"path":"rotation"
					}
				},
				{
					"sampler":29,
					"target":{
						"node":12,
						"path":"scale"
					}
				},
				{
					"sampler":30,
					"target":{
						"node":11,
						"path":"translation"
					}
				},
				{
					"sampler":31,
					"target":{
						"node":11,
						"path":"rotation"
					}
				},
				{
					"sampler":32,
					"target":{
						"node":11,
						"path":"scale"
					}
				},
				{
					"sampler":33,
					"target":{
						"node":6,
						"path":"translation"
					}
				},
				{
					"sampler":34,
					"target":{
						"node":6,
						"path":"rotation"
					}
				},
				{
					"sampler":35,
					"target":{
						"node":6,
						"path":"scale"
					}
				},
				{
					"sampler":36,
					"target":{
						"node":5,
						"path":"translation"
					}
				},
				{
					"sampler":37,
					"target":{
						"node":5,
						"path":"rotation"
					}
				},
				{
					"sampler":38,
					"target":{
						"node":5,
						"path":"scale"
					}
				},
				{
					"sampler":39,
					"target":{
						"node":4,
						"path":"translation"
					}
				},
				{
					"sampler":40,
					"target":{
						"node":4,
						"path":"rotation"
					}
				},
				{
					"sampler":41,
					"target":{
						"node":4,
						"path":"scale"
					}
				},
				{
					"sampler":42,
					"target":{
						"node":3,
						"path":"translation"
					}
				},
				{
					"sampler":43,
					"target":{
						"node":3,
						"path":"rotation"
					}
				},
				{
					"sampler":44,
					"target":{
						"node":3,
						"path":"scale"
					}
				},
				{
					"sampler":45,
					"target":{
						"node":10,
						"path":"translation"
					}
				},
				{
					"sampler":46,
					"target":{
						"node":10,
						"path":"rotation"
					}
				},
				{
					"sampler":47,
					"target":{
						"node":10,
						"path":"scale"
					}
				},
				{
					"sampler":48,
					"target":{
						"node":9,
						"path":"translation"
					}
				},
				{
					"sampler":49,
					"target":{
						"node":9,
						"path":"rotation"
					}
				},
				{
					"sampler":50,
					"target":{
						"node":9,
						"path":"scale"
					}
				},
				{
					"sampler":51,
					"target":{
						"node":8,
						"path":"translation"
					}
				},
				{
					"sampler":52,
					"target":{
						"node":8,
						"path":"rotation"
					}
				},
				{
					"sampler":53,
					"target":{
						"node":8,
						"path":"scale"
					}
				},
				{
					"sampler":54,
					"target":{
						"node":7,
						"path":"translation"
					}
				},
				{
					"sampler":55,
					"target":{
						"node":7,
						"path":"rotation"
					}
				},
				{
					"sampler":56,
					"target":{
						"node":7,
						"path":"scale"
					}
				},
				{
					"sampler":57,
					"target":{
						"node":26,
						"path":"translation"
					}
				},
				{
					"sampler":58,
					"target":{
						"node":26,
						"path":"rotation"
					}
				},
				{
					"sampler":59,
					"target":{
						"node":26,
						"path":"scale"
					}
				},
				{
					"sampler":60,
					"target":{
						"node":25,
						"path":"translation"
					}
				},
				{
					"sampler":61,
					"target":{
						"node":25,
						"path":"rotation"
					}
				},
				{
					"sampler":62,
					"target":{
						"node":25,
						"path":"scale"
					}
				},
				{
					"sampler":63,
					"target":{
						"node":24,
						"path":"translation"
					}
				},
				{
					"sampler":64,
					"target":{
						"node":24,
						"path":"rotation"
					}
				},
				{
					"sampler":65,
					"target":{
						"node":24,
						"path":"scale"
					}
				},
				{
					"sampler":66,
					"target":{
						"node":23,
						"path":"translation"
					}
				},
				{
					"sampler":67,
					"target":{
						"node":23,
						"path":"rotation"
					}
				},
				{
					"sampler":68,
					"target":{
						"node":23,
						"path":"scale"
					}
				},
				{
					"sampler":69,
					"target":{
						"node":18,
						"path":"translation"
					}
				},
				{
					"sampler":70,
					"target":{
						"node":18,
						"path":"rotation"
					}
				},
				{
					"sampler":71,
					"target":{
						"node":18,
						"path":"scale"
					}
				},
				{
					"sampler":72,
					"target":{
						"node":17,
						"path":"translation"
					}
				},
				{
					"sampler":73,
					"target":{
						"node":17,
						"path":"rotation"
					}
				},
				{
					"sampler":74,
					"target":{
						"node":17,
						"path":"scale"
					}
				},
				{
					"sampler":75,
					"target":{
						"node":16,
						"path":"translation"
					}
				},
				{
					"sampler":76,
					"target":{
						"node":16,
						"path":"rotation"
					}
				},
				{
					"sampler":77,
					"target":{
						"node":16,
						"path":"scale"
					}
				},
				{
					"sampler":78,
					"target":{
						"node":15,
						"path":"translation"
					}
				},
				{
					"sampler":79,
					"target":{
						"node":15,
						"path":"rotation"
					}
				},
				{
					"sampler":80,
					"target":{
						"node":15,
						"path":"scale"
					}
				},
				{
					"sampler":81,
					"target":{
						"node":22,
						"path":"translation"
					}
				},
				{
					"sampler":82,
					"target":{
						"node":22,
						"path":"rotation"
					}
				},
				{
					"sampler":83,
					"target":{
						"node":22,
						"path":"scale"
					}
				},
				{
					"sampler":84,
					"target":{
						"node":21,
						"path":"translation"
					}
				},
				{
					"sampler":85,
					"target":{
						"node":21,
						"path":"rotation"
					}
				},
				{
					"sampler":86,
					"target":{
						"node":21,
						"path":"scale"
					}
				},
				{
					"sampler":87,
					"target":{
						"node":20,
						"path":"translation"
					}
				},
				{
					"sampler":88,
					"target":{
						"node":20,
						"path":"rotation"
					}
				},
				{
					"sampler":89,
					"target":{
						"node":20,
						"path":"scale"
					}
				},
				{
					"sampler":90,
					"target":{
						"node":19,
						"path":"translation"
					}
				},
				{
					"sampler":91,
					"target":{
						"node":19,
						"path":"rotation"
					}
				},
				{
					"sampler":92,
					"target":{
						"node":19,
						"path":"scale"
					}
				},
				{
					"sampler":93,
					"target":{
						"node":34,
						"path":"translation"
					}
				},
				{
					"sampler":94,
					"target":{
						"node":34,
						"path":"rotation"
					}
				},
				{
					"sampler":95,
					"target":{
						"node":34,
						"path":"scale"
					}
				},
				{
					"sampler":96,
					"target":{
						"node":33,
						"path":"translation"
					}
				},
				{
					"sampler":97,
					"target":{
						"node":33,
						"path":"rotation"
					}
				},
				{
					"sampler":98,
					"target":{
						"node":33,
						"path":"scale"
					}
				},
				{
					"sampler":99,
					"target":{
						"node":32,
						"path":"translation"
					}
				},
				{
					"sampler":100,
					"target":{
						"node":32,
						"path":"rotation"
					}
				},
				{
					"sampler":101,
					"target":{
						"node":32,
						"path":"scale"
					}
				},
				{
					"sampler":102,
					"target":{
						"node":31,
						"path":"translation"
					}
				},
				{
					"sampler":103,
					"target":{
						"node":31,
						"path":"rotation"
					}
				},
				{
					"sampler":104,
					"target":{
						"node":31,
						"path":"scale"
					}
				},
				{
					"sampler":105,
					"target":{
						"node":30,
						"path":"translation"
					}
				},
				{
					"sampler":106,
					"target":{
						"node":30,
						"path":"rotation"
					}
				},
				{
					"sampler":107,
					"target":{
						"node":30,
						"path":"scale"
					}
				},
				{
					"sampler":108,
					"target":{
						"node":39,
						"path":"translation"
					}
				},
				{
					"sampler":109,
					"target":{
						"node":39,
						"path":"rotation"
					}
				},
				{
					"sampler":110,
					"target":{
						"node":39,
						"path":"scale"
					}
				},
				{
					"sampler":111,
					"target":{
						"node":38,
						"path":"translation"
					}
				},
				{
					"sampler":112,
					"target":{
						"node":38,
						"path":"rotation"
					}
				},
				{
					"sampler":113,
					"target":{
						"node":38,
						"path":"scale"
					}
				},
				{
					"sampler":114,
					"target":{
						"node":37,
						"path":"translation"
					}
				},
				{
					"sampler":115,
					"target":{
						"node":37,
						"path":"rotation"
					}
				},
				{
					"sampler":116,
					"target":{
						"node":37,
						"path":"scale"
					}
				},
				{
					"sampler":117,
					"target":{
						"node":36,
						"path":"translation"
					}
				},
				{
					"sampler":118,
					"target":{
						"node":36,
						"path":"rotation"
					}
				},
				{
					"sampler":119,
					"target":{
						"node":36,
						"path":"scale"
					}
				},
				{
					"sampler":120,
					"target":{
						"node":35,
						"path":"translation"
					}
				},
				{
					"sampler":121,
					"target":{
						"node":35,
						"path":"rotation"
					}
				},
				{
					"sampler":122,
					"target":{
						"node":35,
						"path":"scale"
					}
				}
			],
			"name":"mixamo.com",
			"samplers":[
				{
					"input":28,
					"interpolation":"STEP",
					"output":29
				},
				{
					"input":28,
					"interpolation":"STEP",
					"output":30
				},
				{
					"input":28,
					"interpolation":"STEP",
					"output":31
				},
				{
					"input":28,
					"interpolation":"STEP",
					"output":32
				},
				{
					"input":28,
					"interpolation":"STEP",
					"output":33
				},
				{
					"input":28,
					"interpolation":"STEP",
					"output":34
				},
				{
					"input":28,
					"interpolation":"STEP",
					"output":35
				},
				{
					"input":28,
					"interpolation":"STEP",
					"output":36
				},
				{
					"input":28,
					"interpolation":"STEP",
					"output":37
				},
				{
					"input":28,
					"interpolation":"STEP",
					"output":38
				},
				{
					"input":28,
					"interpolation":"STEP",
					"output":39
				},
				{
					"input":28,
					"interpolation":"STEP",
					"output":31
				},
				{
					"input":28,
					"interpolation":"STEP",
					"output":40
				},
				{
					"input":28,
					"interpolation":"STEP",
					"output":41
				},
				{
					"input":28,
					"interpolation":"STEP",
					"output":42
				},
				{
					"input":28,
					"interpolation":"STEP",
					"output":43
				},
				{
					"input":28,
					"interpolation":"STEP",
					"output":44
				},
				{
					"input":28,
					"interpolation":"STEP",
					"output":31
				},
				{
					"input":28,
					"interpolation":"STEP",
					"output":45
				},
				{
					"input":28,
					"interpolation":"STEP",
					"output":46
				},
				{
					"input":28,
					"interpolation":"STEP",
					"output":31
				},
				{
					"input":28,
					"interpolation":"STEP",
					"output":47
				},
				{
					"input":28,
					"interpolation":"STEP",
					"output":48
				},
				{
					"input":28,
					"interpolation":"STEP",
					"output":49
				},
				{
					"input":28,
					"interpolation":"STEP",
					"output":50
				},
				{
					"input":28,
					"interpolation":"STEP",
					"output":51
				},
				{
					"input":28,
					"interpolation":"STEP",
					"output":52
				},
				{
					"input":28,
					"interpolation":"STEP",
					"output":53
				},
				{
					"input":28,
					"interpolation":"STEP",
					"output":54
				},
				{
					"input":28,
					"interpolation":"STEP",
					"output":55
				},
				{
					"input":28,
					"interpolation":"STEP",
					"output":56
				},
				{
					"input":28,
					"interpolation":"STEP",
					"output":57
				},
				{
					"input":28,
					"interpolation":"STEP",
					"output":58
				},
				{
					"input":28,
					"interpolation":"STEP",
					"output":59
				},
				{
					"input":28,
					"interpolation":"STEP",
					"output":60
				},
				{
					"input":28,
					"interpolation":"STEP",
					"output":61
				},
				{
					"input":28,
					"interpolation":"STEP",
					"output":62
				},
				{
					"input":28,
					"interpolation":"STEP",
					"output":63
				},
				{
					"input":28,
					"interpolation":"STEP",
					"output":64
				},
				{
					"input":28,
					"interpolation":"STEP",
					"output":65
				},
				{
					"input":28,
					"interpolation":"STEP",
					"output":66
				},
				{
					"input":28,
					"interpolation":"STEP",
					"output":67
				},
				{
					"input":28,
					"interpolation":"STEP",
					"output":68
				},
				{
					"input":28,
					"interpolation":"STEP",
					"output":69
				},
				{
					"input":28,
					"interpolation":"STEP",
					"output":70
				},
				{
					"input":28,
					"interpolation":"STEP",
					"output":71
				},
				{
					"input":28,
					"interpolation":"STEP",
					"output":72
				},
				{
					"input":28,
					"interpolation":"STEP",
					"output":31
				},
				{
					"input":28,
					"interpolation":"STEP",
					"output":73
				},
				{
					"input":28,
					"interpolation":"STEP",
					"output":74
				},
				{
					"input":28,
					"interpolation":"STEP",
					"output":75
				},
				{
					"input":28,
					"interpolation":"STEP",
					"output":76
				},
				{
					"input":28,
					"interpolation":"STEP",
					"output":77
				},
				{
					"input":28,
					"interpolation":"STEP",
					"output":78
				},
				{
					"input":28,
					"interpolation":"STEP",
					"output":79
				},
				{
					"input":28,
					"interpolation":"STEP",
					"output":80
				},
				{
					"input":28,
					"interpolation":"STEP",
					"output":81
				},
				{
					"input":28,
					"interpolation":"STEP",
					"output":82
				},
				{
					"input":28,
					"interpolation":"STEP",
					"output":83
				},
				{
					"input":28,
					"interpolation":"STEP",
					"output":49
				},
				{
					"input":28,
					"interpolation":"STEP",
					"output":84
				},
				{
					"input":28,
					"interpolation":"STEP",
					"output":85
				},
				{
					"input":28,
					"interpolation":"STEP",
					"output":86
				},
				{
					"input":28,
					"interpolation":"STEP",
					"output":87
				},
				{
					"input":28,
					"interpolation":"STEP",
					"output":88
				},
				{
					"input":28,
					"interpolation":"STEP",
					"output":89
				},
				{
					"input":28,
					"interpolation":"STEP",
					"output":90
				},
				{
					"input":28,
					"interpolation":"STEP",
					"output":91
				},
				{
					"input":28,
					"interpolation":"STEP",
					"output":92
				},
				{
					"input":28,
					"interpolation":"STEP",
					"output":93
				},
				{
					"input":28,
					"interpolation":"STEP",
					"output":94
				},
				{
					"input":28,
					"interpolation":"STEP",
					"output":95
				},
				{
					"input":28,
					"interpolation":"STEP",
					"output":96
				},
				{
					"input":28,
					"interpolation":"STEP",
					"output":97
				},
				{
					"input":28,
					"interpolation":"STEP",
					"output":98
				},
				{
					"input":28,
					"interpolation":"STEP",
					"output":99
				},
				{
					"input":28,
					"interpolation":"STEP",
					"output":100
				},
				{
					"input":28,
					"interpolation":"STEP",
					"output":101
				},
				{
					"input":28,
					"interpolation":"STEP",
					"output":102
				},
				{
					"input":28,
					"interpolation":"STEP",
					"output":103
				},
				{
					"input":28,
					"interpolation":"STEP",
					"output":104
				},
				{
					"input":28,
					"interpolation":"STEP",
					"output":105
				},
				{
					"input":28,
					"interpolation":"STEP",
					"output":106
				},
				{
					"input":28,
					"interpolation":"STEP",
					"output":107
				},
				{
					"input":28,
					"interpolation":"STEP",
					"output":108
				},
				{
					"input":28,
					"interpolation":"STEP",
					"output":109
				},
				{
					"input":28,
					"interpolation":"STEP",
					"output":110
				},
				{
					"input":28,
					"interpolation":"STEP",
					"output":111
				},
				{
					"input":28,
					"interpolation":"STEP",
					"output":112
				},
				{
					"input":28,
					"interpolation":"STEP",
					"output":78
				},
				{
					"input":28,
					"interpolation":"STEP",
					"output":113
				},
				{
					"input":28,
					"interpolation":"STEP",
					"output":114
				},
				{
					"input":28,
					"interpolation":"STEP",
					"output":95
				},
				{
					"input":28,
					"interpolation":"STEP",
					"output":115
				},
				{
					"input":28,
					"interpolation":"STEP",
					"output":116
				},
				{
					"input":28,
					"interpolation":"STEP",
					"output":117
				},
				{
					"input":28,
					"interpolation":"STEP",
					"output":118
				},
				{
					"input":28,
					"interpolation":"STEP",
					"output":119
				},
				{
					"input":28,
					"interpolation":"STEP",
					"output":31
				},
				{
					"input":28,
					"interpolation":"STEP",
					"output":120
				},
				{
					"input":28,
					"interpolation":"STEP",
					"output":121
				},
				{
					"input":28,
					"interpolation":"STEP",
					"output":70
				},
				{
					"input":28,
					"interpolation":"STEP",
					"output":122
				},
				{
					"input":28,
					"interpolation":"STEP",
					"output":123
				},
				{
					"input":28,
					"interpolation":"STEP",
					"output":124
				},
				{
					"input":28,
					"interpolation":"STEP",
					"output":125
				},
				{
					"input":28,
					"interpolation":"STEP",
					"output":126
				},
				{
					"input":28,
					"interpolation":"STEP",
					"output":31
				},
				{
					"input":28,
					"interpolation":"STEP",
					"output":127
				},
				{
					"input":28,
					"interpolation":"STEP",
					"output":128
				},
				{
					"input":28,
					"interpolation":"STEP",
					"output":117
				},
				{
					"input":28,
					"interpolation":"STEP",
					"output":129
				},
				{
					"input":28,
					"interpolation":"STEP",
					"output":130
				},
				{
					"input":28,
					"interpolation":"STEP",
					"output":49
				},
				{
					"input":28,
					"interpolation":"STEP",
					"output":131
				},
				{
					"input":28,
					"interpolation":"STEP",
					"output":132
				},
				{
					"input":28,
					"interpolation":"STEP",
					"output":31
				},
				{
					"input":28,
					"interpolation":"STEP",
					"output":133
				},
				{
					"input":28,
					"interpolation":"STEP",
					"output":134
				},
				{
					"input":28,
					"interpolation":"STEP",
					"output":135
				},
				{
					"input":28,
					"interpolation":"STEP",
					"output":136
				},
				{
					"input":28,
					"interpolation":"STEP",
					"output":137
				},
				{
					"input":28,
					"interpolation":"STEP",
					"output":31
				}
			]
		}
	],
	"materials":[
		{
			"doubleSided":true,
			"extensions":{
				"KHR_materials_specular":{
					"specularColorFactor":[
						0.800000011920929,
						0.800000011920929,
						0.800000011920929
					]
				}
			},
			"name":"Material.001",
			"pbrMetallicRoughness":{
				"baseColorFactor":[
					0.800000011920929,
					0.800000011920929,
					0.800000011920929,
					1
				],
				"metallicFactor":0,
				"roughnessFactor":0.5
			}
		}
	],
	"meshes":[
		{
			"name":"Cube.001",
			"primitives":[
				{
					"attributes":{
						"POSITION":0,
						"NORMAL":1,
						"TEXCOORD_0":2,
						"JOINTS_0":3,
						"WEIGHTS_0":4
					},
					"indices":5,
					"material":0
				}
			]
		},
		{
			"name":"\u7acb\u65b9\u4f53",
			"primitives":[
				{
					"attributes":{
						"POSITION":7,
						"NORMAL":8,
						"TEXCOORD_0":9,
						"JOINTS_0":10,
						"WEIGHTS_0":11
					},
					"indices":12
				}
			]
		},
		{
			"name":"\u7acb\u65b9\u4f53.001",
			"primitives":[
				{
					"attributes":{
						"POSITION":13,
						"NORMAL":14,
						"TEXCOORD_0":15,
						"JOINTS_0":16,
						"WEIGHTS_0":17
					},
					"indices":12
				}
			]
		},
		{
			"name":"\u7acb\u65b9\u4f53.002",
			"primitives":[
				{
					"attributes":{
						"POSITION":18,
						"NORMAL":19,
						"TEXCOORD_0":20,
						"JOINTS_0":21,
						"WEIGHTS_0":22
					},
					"indices":12
				}
			]
		},
		{
			"name":"\u7acb\u65b9\u4f53.003",
			"primitives":[
				{
					"attributes":{
						"POSITION":23,
						"NORMAL":24,
						"TEXCOORD_0":25,
						"JOINTS_0":26,
						"WEIGHTS_0":27
					},
					"indices":12
				}
			]
		}
	],
	"skins":[
		{
			"inverseBindMatrices":6,
			"joints":[
				40,
				29,
				28,
				27,
				2,
				1,
				0,
				14,
				13,
				12,
				11,
				6,
				5,
				4,
				3,
				10,
				9,
				8,
				7,
				26,
				25,
				24,
				23,
				18,
				17,
				16,
				15,
				22,
				21,
				20,
				19,
				34,
				33,
				32,
				31,
				30,
				39,
				38,
				37,
				36,
				35
			],
			"name":"Armature"
		}
	],
	"accessors":[
		{
			"bufferView":0,
			"componentType":5126,
			"count":8654,
			"max":[
				0.8674630522727966,
				1.772261142730713,
				0.07742293924093246
			],
			"min":[
				-0.867463231086731,
				0.00570324994623661,
				-0.13799212872982025
			],
			"type":"VEC3"
		},
		{
			"bufferView":1,
			"componentType":5126,
			"count":8654,
			"type":"VEC3"
		},
		{
			"bufferView":2,
			"componentType":5126,
			"count":8654,
			"type":"VEC2"
		},
		{
			"bufferView":3,
			"componentType":5121,
			"count":8654,
			"type":"VEC4"
		},
		{
			"bufferView":4,
			"componentType":5126,
			"count":8654,
			"type":"VEC4"
		},
		{
			"bufferView":5,
			"componentType":5123,
			"count":9834,
			"type":"SCALAR"
		},
		{
			"bufferView":6,
			"componentType":5126,
			"count":41,
			"type":"MAT4"
		},
		{
			"bufferView":7,
			"componentType":5126,
			"count":24,
			"max":[
				0.17469020187854767,
				0.5854923129081726,
				0.039050113409757614
			],
			"min":[
				0.02092987298965454,
				0.4317319095134735,
				-0.11471027135848999
			],
			"type":"VEC3"
		},
		{
			"bufferView":8,
			"componentType":5126,
			"count":24,
			"type":"VEC3"
		},
		{
			"bufferView":9,
			"componentType":5126,
			"count":24,
			"type":"VEC2"
		},
		{
			"bufferView":10,
			"componentType":5121,
			"count":24,
			"type":"VEC4"
		},
		{
			"bufferView":11,
			"componentType":5126,
			"count":24,
			"type":"VEC4"
		},
		{
			"bufferView":12,
			"componentType":5123,
			"count":36,
			"type":"SCALAR"
		},
		{
			"bufferView":13,
			"componentType":5126,
			"count":24,
			"max":[
				-0.02745051681995392,
				0.5789716839790344,
				0.039050109684467316
			],
			"min":[
				-0.18121084570884705,
				0.4252112805843353,
				-0.11471027880907059
			],
			"type":"VEC3"
		},
		{
			"bufferView":14,
			"componentType":5126,
			"count":24,
			"type":"VEC3"
		},
		{
			"bufferView":15,
			"componentType":5126,
			"count":24,
			"type":"VEC2"
		},
		{
			"bufferView":16,
			"componentType":5121,
			"count":24,
			"type":"VEC4"
		},
		{
			"bufferView":17,
			"componentType":5126,
			"count":24,
			"type":"VEC4"
		},
		{
			"bufferView":18,
			"componentType":5126,
			"count":24,
			"max":[
				0.4638667106628418,
				1.5267356634140015,
				-0.004868127405643463
			],
			"min":[
				0.33817559480667114,
				1.401044487953186,
				-0.1305592656135559
			],
			"type":"VEC3"
		},
		{
			"bufferView":19,
			"componentType":5126,
			"count":24,
			"type":"VEC3"
		},
		{
			"bufferView":20,
			"componentType":5126,
			"count":24,
			"type":"VEC2"
		},
		{
			"bufferView":21,
			"componentType":5121,
			"count":24,
			"type":"VEC4"
		},
		{
			"bufferView":22,
			"componentType":5126,
			"count":24,
			"type":"VEC4"
		},
		{
			"bufferView":23,
			"componentType":5126,
			"count":24,
			"max":[
				-0.3349152207374573,
				1.5299959182739258,
				-0.004868127405643463
			],
			"min":[
				-0.46060633659362793,
				1.4043047428131104,
				-0.1305592656135559
			],
			"type":"VEC3"
		},
		{
			"bufferView":24,
			"componentType":5126,
			"count":24,
			"type":"VEC3"
		},
		{
			"bufferView":25,
			"componentType":5126,
			"count":24,
			"type":"VEC2"
		},
		{
			"bufferView":26,
			"componentType":5121,
			"count":24,
			"type":"VEC4"
		},
		{
			"bufferView":27,
			"componentType":5126,
			"count":24,
			"type":"VEC4"
		},
		{
			"bufferView":28,
			"componentType":5126,
			"count":2,
			"max":[
				0.06666666666666667
			],
			"min":[
				0.03333333333333333
			],
			"type":"SCALAR"
		},
		{
			"bufferView":29,
			"componentType":5126,
			"count":2,
			"type":"VEC3"
		},
		{
			"bufferView":30,
			"componentType":5126,
			"count":2,
			"type":"VEC4"
		},
		{
			"bufferView":31,
			"componentType":5126,
			"count":2,
			"type":"VEC3"
		},
		{
			"bufferView":32,
			"componentType":5126,
			"count":2,
			"type":"VEC3"
		},
		{
			"bufferView":33,
			"componentType":5126,
			"count":2,
			"type":"VEC4"
		},
		{
			"bufferView":34,
			"componentType":5126,
			"count":2,
			"type":"VEC3"
		},
		{
			"bufferView":35,
			"componentType":5126,
			"count":2,
			"type":"VEC3"
		},
		{
			"bufferView":36,
			"componentType":5126,
			"count":2,
			"type":"VEC4"
		},
		{
			"bufferView":37,
			"componentType":5126,
			"count":2,
			"type":"VEC3"
		},
		{
			"bufferView":38,
			"componentType":5126,
			"count":2,
			"type":"VEC3"
		},
		{
			"bufferView":39,
			"componentType":5126,
			"count":2,
			"type":"VEC4"
		},
		{
			"bufferView":40,
			"componentType":5126,
			"count":2,
			"type":"VEC3"
		},
		{
			"bufferView":41,
			"componentType":5126,
			"count":2,
			"type":"VEC4"
		},
		{
			"bufferView":42,
			"componentType":5126,
			"count":2,
			"type":"VEC3"
		},
		{
			"bufferView":43,
			"componentType":5126,
			"count":2,
			"type":"VEC3"
		},
		{
			"bufferView":44,
			"componentType":5126,
			"count":2,
			"type":"VEC4"
		},
		{
			"bufferView":45,
			"componentType":5126,
			"count":2,
			"type":"VEC3"
		},
		{
			"bufferView":46,
			"componentType":5126,
			"count":2,
			"type":"VEC4"
		},
		{
			"bufferView":47,
			"componentType":5126,
			"count":2,
			"type":"VEC3"
		},
		{
			"bufferView":48,
			"componentType":5126,
			"count":2,
			"type":"VEC4"
		},
		{
			"bufferView":49,
			"componentType":5126,
			"count":2,
			"type":"VEC3"
		},
		{
			"bufferView":50,
			"componentType":5126,
			"count":2,
			"type":"VEC3"
		},
		{
			"bufferView":51,
			"componentType":5126,
			"count":2,
			"type":"VEC4"
		},
		{
			"bufferView":52,
			"componentType":5126,
			"count":2,
			"type":"VEC3"
		},
		{
			"bufferView":53,
			"componentType":5126,
			"count":2,
			"type":"VEC3"
		},
		{
			"bufferView":54,
			"componentType":5126,
			"count":2,
			"type":"VEC4"
		},
		{
			"bufferView":55,
			"componentType":5126,
			"count":2,
			"type":"VEC3"
		},
		{
			"bufferView":56,
			"componentType":5126,
			"count":2,
			"type":"VEC3"
		},
		{
			"bufferView":57,
			"componentType":5126,
			"count":2,
			"type":"VEC4"
		},
		{
			"bufferView":58,
			"componentType":5126,
			"count":2,
			"type":"VEC3"
		},
		{
			"bufferView":59,
			"componentType":5126,
			"count":2,
			"type":"VEC3"
		},
		{
			"bufferView":60,
			"componentType":5126,
			"count":2,
			"type":"VEC4"
		},
		{
			"bufferView":61,
			"componentType":5126,
			"count":2,
			"type":"VEC3"
		},
		{
			"bufferView":62,
			"componentType":5126,
			"count":2,
			"type":"VEC3"
		},
		{
			"bufferView":63,
			"componentType":5126,
			"count":2,
			"type":"VEC4"
		},
		{
			"bufferView":64,
			"componentType":5126,
			"count":2,
			"type":"VEC3"
		},
		{
			"bufferView":65,
			"componentType":5126,
			"count":2,
			"type":"VEC3"
		},
		{
			"bufferView":66,
			"componentType":5126,
			"count":2,
			"type":"VEC4"
		},
		{
			"bufferView":67,
			"componentType":5126,
			"count":2,
			"type":"VEC3"
		},
		{
			"bufferView":68,
			"componentType":5126,
			"count":2,
			"type":"VEC3"
		},
		{
			"bufferView":69,
			"componentType":5126,
			"count":2,
			"type":"VEC4"
		},
		{
			"bufferView":70,
			"componentType":5126,
			"count":2,
			"type":"VEC3"
		},
		{
			"bufferView":71,
			"componentType":5126,
			"count":2,
			"type":"VEC3"
		},
		{
			"bufferView":72,
			"componentType":5126,
			"count":2,
			"type":"VEC4"
		},
		{
			"bufferView":73,
			"componentType":5126,
			"count":2,
			"type":"VEC3"
		},
		{
			"bufferView":74,
			"componentType":5126,
			"count":2,
			"type":"VEC4"
		},
		{
			"bufferView":75,
			"componentType":5126,
			"count":2,
			"type":"VEC3"
		},
		{
			"bufferView":76,
			"componentType":5126,
			"count":2,
			"type":"VEC3"
		},
		{
			"bufferView":77,
			"componentType":5126,
			"count":2,
			"type":"VEC4"
		},
		{
			"bufferView":78,
			"componentType":5126,
			"count":2,
			"type":"VEC3"
		},
		{
			"bufferView":79,
			"componentType":5126,
			"count":2,
			"type":"VEC3"
		},
		{
			"bufferView":80,
			"componentType":5126,
			"count":2,
			"type":"VEC4"
		},
		{
			"bufferView":81,
			"componentType":5126,
			"count":2,
			"type":"VEC3"
		},
		{
			"bufferView":82,
			"componentType":5126,
			"count":2,
			"type":"VEC3"
		},
		{
			"bufferView":83,
			"componentType":5126,
			"count":2,
			"type":"VEC4"
		},
		{
			"bufferView":84,
			"componentType":5126,
			"count":2,
			"type":"VEC3"
		},
		{
			"bufferView":85,
			"componentType":5126,
			"count":2,
			"type":"VEC4"
		},
		{
			"bufferView":86,
			"componentType":5126,
			"count":2,
			"type":"VEC3"
		},
		{
			"bufferView":87,
			"componentType":5126,
			"count":2,
			"type":"VEC3"
		},
		{
			"bufferView":88,
			"componentType":5126,
			"count":2,
			"type":"VEC4"
		},
		{
			"bufferView":89,
			"componentType":5126,
			"count":2,
			"type":"VEC3"
		},
		{
			"bufferView":90,
			"componentType":5126,
			"count":2,
			"type":"VEC3"
		},
		{
			"bufferView":91,
			"componentType":5126,
			"count":2,
			"type":"VEC4"
		},
		{
			"bufferView":92,
			"componentType":5126,
			"count":2,
			"type":"VEC3"
		},
		{
			"bufferView":93,
			"componentType":5126,
			"count":2,
			"type":"VEC3"
		},
		{
			"bufferView":94,
			"componentType":5126,
			"count":2,
			"type":"VEC4"
		},
		{
			"bufferView":95,
			"componentType":5126,
			"count":2,
			"type":"VEC3"
		},
		{
			"bufferView":96,
			"componentType":5126,
			"count":2,
			"type":"VEC3"
		},
		{
			"bufferView":97,
			"componentType":5126,
			"count":2,
			"type":"VEC4"
		},
		{
			"bufferView":98,
			"componentType":5126,
			"count":2,
			"type":"VEC3"
		},
		{
			"bufferView":99,
			"componentType":5126,
			"count":2,
			"type":"VEC3"
		},
		{
			"bufferView":100,
			"componentType":5126,
			"count":2,
			"type":"VEC4"
		},
		{
			"bufferView":101,
			"componentType":5126,
			"count":2,
			"type":"VEC3"
		},
		{
			"bufferView":102,
			"componentType":5126,
			"count":2,
			"type":"VEC3"
		},
		{
			"bufferView":103,
			"componentType":5126,
			"count":2,
			"type":"VEC4"
		},
		{
			"bufferView":104,
			"componentType":5126,
			"count":2,
			"type":"VEC3"
		},
		{
			"bufferView":105,
			"componentType":5126,
			"count":2,
			"type":"VEC3"
		},
		{
			"bufferView":106,
			"componentType":5126,
			"count":2,
			"type":"VEC4"
		},
		{
			"bufferView":107,
			"componentType":5126,
			"count":2,
			"type":"VEC3"
		},
		{
			"bufferView":108,
			"componentType":5126,
			"count":2,
			"type":"VEC3"
		},
		{
			"bufferView":109,
			"componentType":5126,
			"count":2,
			"type":"VEC4"
		},
		{
			"bufferView":110,
			"componentType":5126,
			"count":2,
			"type":"VEC3"
		},
		{
			"bufferView":111,
			"componentType":5126,
			"count":2,
			"type":"VEC3"
		},
		{
			"bufferView":112,
			"componentType":5126,
			"count":2,
			"type":"VEC4"
		},
		{
			"bufferView":113,
			"componentType":5126,
			"count":2,
			"type":"VEC3"
		},
		{
			"bufferView":114,
			"componentType":5126,
			"count":2,
			"type":"VEC4"
		},
		{
			"bufferView":115,
			"componentType":5126,
			"count":2,
			"type":"VEC3"
		},
		{
			"bufferView":116,
			"componentType":5126,
			"count":2,
			"type":"VEC4"
		},
		{
			"bufferView":117,
			"componentType":5126,
			"count":2,
			"type":"VEC3"
		},
		{
			"bufferView":118,
			"componentType":5126,
			"count":2,
			"type":"VEC3"
		},
		{
			"bufferView":119,
			"componentType":5126,
			"count":2,
			"type":"VEC4"
		},
		{
			"bufferView":120,
			"componentType":5126,
			"count":2,
			"type":"VEC3"
		},
		{
			"bufferView":121,
			"componentType":5126,
			"count":2,
			"type":"VEC4"
		},
		{
			"bufferView":122,
			"componentType":5126,
			"count":2,
			"type":"VEC3"
		},
		{
			"bufferView":123,
			"componentType":5126,
			"count":2,
			"type":"VEC4"
		},
		{
			"bufferView":124,
			"componentType":5126,
			"count":2,
			"type":"VEC3"
		},
		{
			"bufferView":125,
			"componentType":5126,
			"count":2,
			"type":"VEC3"
		},
		{
			"bufferView":126,
			"componentType":5126,
			"count":2,
			"type":"VEC4"
		},
		{
			"bufferView":127,
			"componentType":5126,
			"count":2,
			"type":"VEC3"
		},
		{
			"bufferView":128,
			"componentType":5126,
			"count":2,
			"type":"VEC4"
		},
		{
			"bufferView":129,
			"componentType":5126,
			"count":2,
			"type":"VEC3"
		},
		{
			"bufferView":130,
			"componentType":5126,
			"count":2,
			"type":"VEC4"
		},
		{
			"bufferView":131,
			"componentType":5126,
			"count":2,
			"type":"VEC3"
		},
		{
			"bufferView":132,
			"componentType":5126,
			"count":2,
			"type":"VEC4"
		},
		{
			"bufferView":133,
			"componentType":5126,
			"count":2,
			"type":"VEC3"
		},
		{
			"bufferView":134,
			"componentType":5126,
			"count":2,
			"type":"VEC4"
		},
		{
			"bufferView":135,
			"componentType":5126,
			"count":2,
			"type":"VEC3"
		},
		{
			"bufferView":136,
			"componentType":5126,
			"count":2,
			"type":"VEC3"
		},
		{
			"bufferView":137,
			"componentType":5126,
			"count":2,
			"type":"VEC4"
		}
	],
	"bufferViews":[
		{
			"buffer":0,
			"byteLength":103848,
			"byteOffset":0,
			"target":34962
		},
		{
			"buffer":0,
			"byteLength":103848,
			"byteOffset":103848,
			"target":34962
		},
		{
			"buffer":0,
			"byteLength":69232,
			"byteOffset":207696,
			"target":34962
		},
		{
			"buffer":0,
			"byteLength":34616,
			"byteOffset":276928,
			"target":34962
		},
		{
			"buffer":0,
			"byteLength":138464,
			"byteOffset":311544,
			"target":34962
		},
		{
			"buffer":0,
			"byteLength":19668,
			"byteOffset":450008,
			"target":34963
		},
		{
			"buffer":0,
			"byteLength":2624,
			"byteOffset":469676
		},
		{
			"buffer":0,
			"byteLength":288,
			"byteOffset":472300,
			"target":34962
		},
		{
			"buffer":0,
			"byteLength":288,
			"byteOffset":472588,
			"target":34962
		},
		{
			"buffer":0,
			"byteLength":192,
			"byteOffset":472876,
			"target":34962
		},
		{
			"buffer":0,
			"byteLength":96,
			"byteOffset":473068,
			"target":34962
		},
		{
			"buffer":0,
			"byteLength":384,
			"byteOffset":473164,
			"target":34962
		},
		{
			"buffer":0,
			"byteLength":72,
			"byteOffset":473548,
			"target":34963
		},
		{
			"buffer":0,
			"byteLength":288,
			"byteOffset":473620,
			"target":34962
		},
		{
			"buffer":0,
			"byteLength":288,
			"byteOffset":473908,
			"target":34962
		},
		{
			"buffer":0,
			"byteLength":192,
			"byteOffset":474196,
			"target":34962
		},
		{
			"buffer":0,
			"byteLength":96,
			"byteOffset":474388,
			"target":34962
		},
		{
			"buffer":0,
			"byteLength":384,
			"byteOffset":474484,
			"target":34962
		},
		{
			"buffer":0,
			"byteLength":288,
			"byteOffset":474868,
			"target":34962
		},
		{
			"buffer":0,
			"byteLength":288,
			"byteOffset":475156,
			"target":34962
		},
		{
			"buffer":0,
			"byteLength":192,
			"byteOffset":475444,
			"target":34962
		},
		{
			"buffer":0,
			"byteLength":96,
			"byteOffset":475636,
			"target":34962
		},
		{
			"buffer":0,
			"byteLength":384,
			"byteOffset":475732,
			"target":34962
		},
		{
			"buffer":0,
			"byteLength":288,
			"byteOffset":476116,
			"target":34962
		},
		{
			"buffer":0,
			"byteLength":288,
			"byteOffset":476404,
			"target":34962
		},
		{
			"buffer":0,
			"byteLength":192,
			"byteOffset":476692,
			"target":34962
		},
		{
			"buffer":0,
			"byteLength":96,
			"byteOffset":476884,
			"target":34962
		},
		{
			"buffer":0,
			"byteLength":384,
			"byteOffset":476980,
			"target":34962
		},
		{
			"buffer":0,
			"byteLength":8,
			"byteOffset":477364
		},
		{
			"buffer":0,
			"byteLength":24,
			"byteOffset":477372
		},
		{
			"buffer":0,
			"byteLength":32,
			"byteOffset":477396
		},
		{
			"buffer":0,
			"byteLength":24,
			"byteOffset":477428
		},
		{
			"buffer":0,
			"byteLength":24,
			"byteOffset":477452
		},
		{
			"buffer":0,
			"byteLength":32,
			"byteOffset":477476
		},
		{
			"buffer":0,
			"byteLength":24,
			"byteOffset":477508
		},
		{
			"buffer":0,
			"byteLength":24,
			"byteOffset":477532
		},
		{
			"buffer":0,
			"byteLength":32,
			"byteOffset":477556
		},
		{
			"buffer":0,
			"byteLength":24,
			"byteOffset":477588
		},
		{
			"buffer":0,
			"byteLength":24,
			"byteOffset":477612
		},
		{
			"buffer":0,
			"byteLength":32,
			"byteOffset":477636
		},
		{
			"buffer":0,
			"byteLength":24,
			"byteOffset":477668
		},
		{
			"buffer":0,
			"byteLength":32,
			"byteOffset":477692
		},
		{
			"buffer":0,
			"byteLength":24,
			"byteOffset":477724
		},
		{
			"buffer":0,
			"byteLength":24,
			"byteOffset":477748
		},
		{
			"buffer":0,
			"byteLength":32,
			"byteOffset":477772
		},
		{
			"buffer":0,
			"byteLength":24,
			"byteOffset":477804
		},
		{
			"buffer":0,
			"byteLength":32,
			"byteOffset":477828
		},
		{
			"buffer":0,
			"byteLength":24,
			"byteOffset":477860
		},
		{
			"buffer":0,
			"byteLength":32,
			"byteOffset":477884
		},
		{
			"buffer":0,
			"byteLength":24,
			"byteOffset":477916
		},
		{
			"buffer":0,
			"byteLength":24,
			"byteOffset":477940
		},
		{
			"buffer":0,
			"byteLength":32,
			"byteOffset":477964
		},
		{
			"buffer":0,
			"byteLength":24,
			"byteOffset":477996
		},
		{
			"buffer":0,
			"byteLength":24,
			"byteOffset":478020
		},
		{
			"buffer":0,
			"byteLength":32,
			"byteOffset":478044
		},
		{
			"buffer":0,
			"byteLength":24,
			"byteOffset":478076
		},
		{
			"buffer":0,
			"byteLength":24,
			"byteOffset":478100
		},
		{
			"buffer":0,
			"byteLength":32,
			"byteOffset":478124
		},
		{
			"buffer":0,
			"byteLength":24,
			"byteOffset":478156
		},
		{
			"buffer":0,
			"byteLength":24,
			"byteOffset":478180
		},
		{
			"buffer":0,
			"byteLength":32,
			"byteOffset":478204
		},
		{
			"buffer":0,
			"byteLength":24,
			"byteOffset":478236
		},
		{
			"buffer":0,
			"byteLength":24,
			"byteOffset":478260
		},
		{
			"buffer":0,
			"byteLength":32,
			"byteOffset":478284
		},
		{
			"buffer":0,
			"byteLength":24,
			"byteOffset":478316
		},
		{
			"buffer":0,
			"byteLength":24,
			"byteOffset":478340
		},
		{
			"buffer":0,
			"byteLength":32,
			"byteOffset":478364
		},
		{
			"buffer":0,
			"byteLength":24,
			"byteOffset":478396
		},
		{
			"buffer":0,
			"byteLength":24,
			"byteOffset":478420
		},
		{
			"buffer":0,
			"byteLength":32,
			"byteOffset":478444
		},
		{
			"buffer":0,
			"byteLength":24,
			"byteOffset":478476
		},
		{
			"buffer":0,
			"byteLength":24,
			"byteOffset":478500
		},
		{
			"buffer":0,
			"byteLength":32,
			"byteOffset":478524
		},
		{
			"buffer":0,
			"byteLength":24,
			"byteOffset":478556
		},
		{
			"buffer":0,
			"byteLength":32,
			"byteOffset":478580
		},
		{
			"buffer":0,
			"byteLength":24,
			"byteOffset":478612
		},
		{
			"buffer":0,
			"byteLength":24,
			"byteOffset":478636
		},
		{
			"buffer":0,
			"byteLength":32,
			"byteOffset":478660
		},
		{
			"buffer":0,
			"byteLength":24,
			"byteOffset":478692
		},
		{
			"buffer":0,
			"byteLength":24,
			"byteOffset":478716
		},
		{
			"buffer":0,
			"byteLength":32,
			"byteOffset":478740
		},
		{
			"buffer":0,
			"byteLength":24,
			"byteOffset":478772
		},
		{
			"buffer":0,
			"byteLength":24,
			"byteOffset":478796
		},
		{
			"buffer":0,
			"byteLength":32,
			"byteOffset":478820
		},
		{
			"buffer":0,
			"byteLength":24,
			"byteOffset":478852
		},
		{
			"buffer":0,
			"byteLength":32,
			"byteOffset":478876
		},
		{
			"buffer":0,
			"byteLength":24,
			"byteOffset":478908
		},
		{
			"buffer":0,
			"byteLength":24,
			"byteOffset":478932
		},
		{
			"buffer":0,
			"byteLength":32,
			"byteOffset":478956
		},
		{
			"buffer":0,
			"byteLength":24,
			"byteOffset":478988
		},
		{
			"buffer":0,
			"byteLength":24,
			"byteOffset":479012
		},
		{
			"buffer":0,
			"byteLength":32,
			"byteOffset":479036
		},
		{
			"buffer":0,
			"byteLength":24,
			"byteOffset":479068
		},
		{
			"buffer":0,
			"byteLength":24,
			"byteOffset":479092
		},
		{
			"buffer":0,
			"byteLength":32,
			"byteOffset":479116
		},
		{
			"buffer":0,
			"byteLength":24,
			"byteOffset":479148
		},
		{
			"buffer":0,
			"byteLength":24,
			"byteOffset":479172
		},
		{
			"buffer":0,
			"byteLength":32,
			"byteOffset":479196
		},
		{
			"buffer":0,
			"byteLength":24,
			"byteOffset":479228
		},
		{
			"buffer":0,
			"byteLength":24,
			"byteOffset":479252
		},
		{
			"buffer":0,
			"byteLength":32,
			"byteOffset":479276
		},
		{
			"buffer":0,
			"byteLength":24,
			"byteOffset":479308
		},
		{
			"buffer":0,
			"byteLength":24,
			"byteOffset":479332
		},
		{
			"buffer":0,
			"byteLength":32,
			"byteOffset":479356
		},
		{
			"buffer":0,
			"byteLength":24,
			"byteOffset":479388
		},
		{
			"buffer":0,
			"byteLength":24,
			"byteOffset":479412
		},
		{
			"buffer":0,
			"byteLength":32,
			"byteOffset":479436
		},
		{
			"buffer":0,
			"byteLength":24,
			"byteOffset":479468
		},
		{
			"buffer":0,
			"byteLength":24,
			"byteOffset":479492
		},
		{
			"buffer":0,
			"byteLength":32,
			"byteOffset":479516
		},
		{
			"buffer":0,
			"byteLength":24,
			"byteOffset":479548
		},
		{
			"buffer":0,
			"byteLength":24,
			"byteOffset":479572
		},
		{
			"buffer":0,
			"byteLength":32,
			"byteOffset":479596
		},
		{
			"buffer":0,
			"byteLength":24,
			"byteOffset":479628
		},
		{
			"buffer":0,
			"byteLength":32,
			"byteOffset":479652
		},
		{
			"buffer":0,
			"byteLength":24,
			"byteOffset":479684
		},
		{
			"buffer":0,
			"byteLength":32,
			"byteOffset":479708
		},
		{
			"buffer":0,
			"byteLength":24,
			"byteOffset":479740
		},
		{
			"buffer":0,
			"byteLength":24,
			"byteOffset":479764
		},
		{
			"buffer":0,
			"byteLength":32,
			"byteOffset":479788
		},
		{
			"buffer":0,
			"byteLength":24,
			"byteOffset":479820
		},
		{
			"buffer":0,
			"byteLength":32,
			"byteOffset":479844
		},
		{
			"buffer":0,
			"byteLength":24,
			"byteOffset":479876
		},
		{
			"buffer":0,
			"byteLength":32,
			"byteOffset":479900
		},
		{
			"buffer":0,
			"byteLength":24,
			"byteOffset":479932
		},
		{
			"buffer":0,
			"byteLength":24,
			"byteOffset":479956
		},
		{
			"buffer":0,
			"byteLength":32,
			"byteOffset":479980
		},
		{
			"buffer":0,
			"byteLength":24,
			"byteOffset":480012
		},
		{
			"buffer":0,
			"byteLength":32,
			"byteOffset":480036
		},
		{
			"buffer":0,
			"byteLength":24,
			"byteOffset":480068
		},
		{
			"buffer":0,
			"byteLength":32,
			"byteOffset":480092
		},
		{
			"buffer":0,
			"byteLength":24,
			"byteOffset":480124
		},
		{
			"buffer":0,
			"byteLength":32,
			"byteOffset":480148
		},
		{
			"buffer":0,
			"byteLength":24,
			"byteOffset":480180
		},
		{
			"buffer":0,
			"byteLength":32,
			"byteOffset":480204
		},
		{
			"buffer":0,
			"byteLength":24,
			"byteOffset":480236
		},
		{
			"buffer":0,
			"byteLength":24,
			"byteOffset":480260
		},
		{
			"buffer":0,
			"byteLength":32,
			"byteOffset":480284
		}
	],
	"buffers":[
		{
			"byteLength":480316,
			"uri":"bone.bin"
		}
	]
}
