# Blender 5.1.0
# www.blender.org
mtllib stage_1.mtl
o 平面
v 2.985452 0.000000 -2.962193
v -2.985452 0.000000 -2.962193
v 2.985452 0.000000 7.648813
v -2.985452 0.000000 7.648813
v -2.985452 0.000000 24.731283
v 2.985452 0.000000 24.731283
v 29.859097 0.000000 7.648813
v 29.859097 0.000000 24.731283
v 36.421265 0.000000 7.648813
v 36.421265 0.000000 24.731283
v 29.859097 0.000000 34.522457
v 36.421265 0.000000 34.522457
v 29.859097 0.000000 59.942005
v 36.421265 0.000000 59.942005
v 46.196251 0.000000 34.522457
v 20.084099 0.000000 34.522457
v 20.084099 0.000000 59.942005
v 46.196251 0.000000 59.942005
v -29.788391 0.000000 50.035698
v -29.788391 0.000000 44.428764
v 5.084854 0.000000 44.428764
v 5.084854 0.000000 50.035698
v 36.421265 0.000000 44.428764
v 36.421265 0.000000 50.035698
v 29.859097 0.000000 50.035698
v 29.859097 0.000000 44.428764
v 20.084099 0.000000 50.035698
v 20.084099 0.000000 44.428764
v 46.196251 0.000000 44.428764
v 46.196251 0.000000 50.035698
v -29.788391 0.000000 55.329430
v -29.788391 0.000000 39.135033
v 5.084854 0.000000 39.135033
v 5.084854 0.000000 55.329430
v -23.436478 0.000000 39.135033
v -23.436478 0.000000 44.428764
v -23.436478 0.000000 50.035698
v -23.436478 0.000000 55.329430
v -29.788391 0.000000 70.088684
v -23.436478 0.000000 70.088684
v -29.788391 0.000000 99.967178
v -23.436478 0.000000 99.967178
v -39.784645 0.000000 70.088684
v -13.440225 0.000000 70.088684
v -39.784645 0.000000 99.967178
v -13.440225 0.000000 99.967178
v 2.985452 -20.338972 -2.962193
v -2.985452 -20.338972 -2.962193
v 2.985452 -20.338972 7.648813
v -2.985452 -20.338972 7.648813
v -2.985452 -20.338972 24.731283
v 2.985452 -20.338972 24.731283
v 29.859097 -20.338972 7.648813
v 29.859097 -20.338972 24.731283
v 36.421265 -20.338972 7.648813
v 36.421265 -20.338972 24.731283
v 29.859097 -20.338972 34.522457
v 36.421265 -20.338972 34.522457
v 29.859097 -20.338972 59.942005
v 36.421265 -20.338972 59.942005
v 46.196251 -20.338972 34.522457
v 20.084099 -20.338972 34.522457
v 20.084099 -20.338972 59.942005
v 46.196251 -20.338972 59.942005
v -29.788391 -20.338972 50.035698
v -29.788391 -20.338972 44.428764
v 5.084854 -20.338972 44.428764
v 5.084854 -20.338972 50.035698
v 20.084099 -20.338972 50.035698
v 20.084099 -20.338972 44.428764
v 46.196251 -20.338972 44.428764
v 46.196251 -20.338972 50.035698
v -29.788391 -20.338972 55.329430
v -29.788391 -20.338972 39.135033
v 5.084854 -20.338972 39.135033
v 5.084854 -20.338972 55.329430
v -23.436478 -20.338972 39.135033
v -23.436478 -20.338972 55.329430
v -29.788391 -20.338972 70.088684
v -23.436478 -20.338972 70.088684
v -29.788391 -20.338972 99.967178
v -23.436478 -20.338972 99.967178
v -39.784645 -20.338972 70.088684
v -13.440225 -20.338972 70.088684
v -39.784645 -20.338972 99.967178
v -13.440225 -20.338972 99.967178
vn -0.0000 1.0000 -0.0000
vn -0.0000 -0.0000 1.0000
vn -0.0000 -0.0000 -1.0000
vn 1.0000 -0.0000 -0.0000
vn -1.0000 -0.0000 -0.0000
vt 1.000000 0.000000
vt 0.000000 1.000000
vt 0.000000 0.000000
vt 1.000000 1.000000
s 0
f 2/1/1 3/2/1 1/3/1
f 4/4/1 6/2/1 3/2/1
f 6/2/1 7/2/1 3/2/1
f 8/2/1 9/2/1 7/2/1
f 8/2/1 12/2/1 10/2/1
f 36/2/1 32/2/1 20/2/1
f 19/2/1 38/2/1 37/2/1
f 36/2/1 19/2/1 37/2/1
f 28/2/1 22/2/1 27/2/1
f 21/2/1 37/2/1 22/2/1
f 21/2/1 35/2/1 36/2/1
f 30/2/1 23/2/1 24/2/1
f 28/2/1 25/2/1 26/2/1
f 24/2/1 26/2/1 25/2/1
f 11/2/1 23/2/1 12/2/1
f 14/2/1 30/2/1 24/2/1
f 23/2/1 15/2/1 12/2/1
f 25/2/1 14/2/1 24/2/1
f 25/2/1 17/2/1 13/2/1
f 11/2/1 28/2/1 26/2/1
f 37/2/1 34/2/1 22/2/1
f 31/2/1 40/2/1 38/2/1
f 39/2/1 42/2/1 40/2/1
f 39/2/1 45/2/1 41/2/1
f 42/2/1 44/2/1 40/2/1
f 38/2/2 76/2/2 34/2/2
f 35/2/3 74/2/3 32/2/3
f 18/2/4 72/2/4 30/2/4
f 40/2/4 78/2/4 38/2/4
f 17/2/2 59/2/2 13/2/2
f 29/2/4 61/2/4 15/2/4
f 4/4/5 51/4/5 5/4/5
f 31/2/5 79/2/5 39/2/5
f 20/2/5 65/2/5 19/2/5
f 30/2/4 71/2/4 29/2/4
f 41/2/2 82/2/2 42/2/2
f 22/2/2 69/2/2 27/2/2
f 27/2/5 63/2/5 17/2/5
f 7/2/3 49/2/3 3/2/3
f 11/2/3 62/2/3 16/2/3
f 16/2/5 70/2/5 28/2/5
f 6/2/2 54/2/2 8/2/2
f 15/2/3 58/2/3 12/2/3
f 21/2/4 75/2/4 33/2/4
f 10/2/4 55/2/4 9/2/4
f 46/2/4 84/2/4 44/2/4
f 14/2/2 64/2/2 18/2/2
f 33/2/3 77/2/3 35/2/3
f 9/2/3 53/2/3 7/2/3
f 19/2/5 73/2/5 31/2/5
f 45/2/2 81/2/2 41/2/2
f 39/2/3 83/2/3 43/2/3
f 3/2/4 47/3/4 1/3/4
f 28/2/3 67/2/3 21/2/3
f 12/2/4 56/2/4 10/2/4
f 44/2/3 80/2/3 40/2/3
f 2/1/5 50/4/5 4/4/5
f 8/2/5 57/2/5 11/2/5
f 42/2/2 86/2/2 46/2/2
f 1/3/3 48/1/3 2/1/3
f 34/2/4 68/2/4 22/2/4
f 13/2/2 60/2/2 14/2/2
f 32/2/5 66/2/5 20/2/5
f 5/4/2 52/2/2 6/2/2
f 2/1/1 4/4/1 3/2/1
f 4/4/1 5/4/1 6/2/1
f 6/2/1 8/2/1 7/2/1
f 8/2/1 10/2/1 9/2/1
f 8/2/1 11/2/1 12/2/1
f 36/2/1 35/2/1 32/2/1
f 19/2/1 31/2/1 38/2/1
f 36/2/1 20/2/1 19/2/1
f 28/2/1 21/2/1 22/2/1
f 21/2/1 36/2/1 37/2/1
f 21/2/1 33/2/1 35/2/1
f 30/2/1 29/2/1 23/2/1
f 28/2/1 27/2/1 25/2/1
f 24/2/1 23/2/1 26/2/1
f 11/2/1 26/2/1 23/2/1
f 14/2/1 18/2/1 30/2/1
f 23/2/1 29/2/1 15/2/1
f 25/2/1 13/2/1 14/2/1
f 25/2/1 27/2/1 17/2/1
f 11/2/1 16/2/1 28/2/1
f 37/2/1 38/2/1 34/2/1
f 31/2/1 39/2/1 40/2/1
f 39/2/1 41/2/1 42/2/1
f 39/2/1 43/2/1 45/2/1
f 42/2/1 46/2/1 44/2/1
f 38/2/2 78/2/2 76/2/2
f 35/2/3 77/2/3 74/2/3
f 18/2/4 64/2/4 72/2/4
f 40/2/4 80/2/4 78/2/4
f 17/2/2 63/2/2 59/2/2
f 29/2/4 71/2/4 61/2/4
f 4/4/5 50/4/5 51/4/5
f 31/2/5 73/2/5 79/2/5
f 20/2/5 66/2/5 65/2/5
f 30/2/4 72/2/4 71/2/4
f 41/2/2 81/2/2 82/2/2
f 22/2/2 68/2/2 69/2/2
f 27/2/5 69/2/5 63/2/5
f 7/2/3 53/2/3 49/2/3
f 11/2/3 57/2/3 62/2/3
f 16/2/5 62/2/5 70/2/5
f 6/2/2 52/2/2 54/2/2
f 15/2/3 61/2/3 58/2/3
f 21/2/4 67/2/4 75/2/4
f 10/2/4 56/2/4 55/2/4
f 46/2/4 86/2/4 84/2/4
f 14/2/2 60/2/2 64/2/2
f 33/2/3 75/2/3 77/2/3
f 9/2/3 55/2/3 53/2/3
f 19/2/5 65/2/5 73/2/5
f 45/2/2 85/2/2 81/2/2
f 39/2/3 79/2/3 83/2/3
f 3/2/4 49/2/4 47/3/4
f 28/2/3 70/2/3 67/2/3
f 12/2/4 58/2/4 56/2/4
f 44/2/3 84/2/3 80/2/3
f 2/1/5 48/1/5 50/4/5
f 8/2/5 54/2/5 57/2/5
f 42/2/2 82/2/2 86/2/2
f 1/3/3 47/3/3 48/1/3
f 34/2/4 76/2/4 68/2/4
f 13/2/2 59/2/2 60/2/2
f 32/2/5 74/2/5 66/2/5
f 5/4/2 51/4/2 52/2/2
o 平面.001
v 1000.000000 -2.607047 -948.302307
v -1000.000000 -2.607047 -948.302307
v 1000.000000 -2.607047 1051.697754
v -1000.000000 -2.607047 1051.697754
vn -0.0000 1.0000 -0.0000
vt 1.000000 0.000000
vt 0.000000 1.000000
vt 0.000000 0.000000
vt 1.000000 1.000000
s 0
f 88/5/6 89/6/6 87/7/6
f 88/5/6 90/8/6 89/6/6
