{
	"asset":{
		"generator":"Khronos glTF Blender I/O v4.4.55",
		"version":"2.0"
	},
	"scene":0,
	"scenes":[
		{
			"name":"Scene",
			"nodes":[
				26
			]
		}
	],
	"nodes":[
		{
			"name":"\u30dc\u30fc\u30f3.003",
			"rotation":[
				0.06001828610897064,
				-6.895813384693401e-15,
				1.4309473606033407e-08,
				0.9981973171234131
			],
			"scale":[
				1,
				1,
				0.9999998807907104
			],
			"translation":[
				1.1321826925959032e-14,
				1.0724406242370605,
				-5.148233483964759e-08
			]
		},
		{
			"name":"\u30dc\u30fc\u30f3.007",
			"rotation":[
				-2.5347242527118397e-08,
				1.6198785601773125e-07,
				0.028132101520895958,
				0.9996042251586914
			],
			"scale":[
				1,
				0.9999998807907104,
				1
			],
			"translation":[
				-1.166015863418579e-06,
				1.4319742918014526,
				-4.973799150320701e-13
			]
		},
		{
			"children":[
				1
			],
			"name":"\u30dc\u30fc\u30f3.006",
			"rotation":[
				3.7154859189314493e-09,
				1.5932944563701312e-07,
				-0.006410163827240467,
				0.9999794960021973
			],
			"scale":[
				1,
				0.9999999403953552,
				1
			],
			"translation":[
				9.930646456268732e-07,
				1.6337854862213135,
				1.0030601430835104e-13
			]
		},
		{
			"children":[
				2
			],
			"name":"\u30dc\u30fc\u30f3.005",
			"rotation":[
				-4.823822408184242e-08,
				-6.891465176295242e-08,
				0.09853745996952057,
				0.9951333403587341
			],
			"scale":[
				1,
				0.9999999403953552,
				1
			],
			"translation":[
				7.152557373046875e-07,
				1.0296374559402466,
				-1.2434497875801753e-13
			]
		},
		{
			"children":[
				3
			],
			"name":"\u30dc\u30fc\u30f3.004",
			"rotation":[
				0.038051243871450424,
				0.04641475901007652,
				-0.7719479203224182,
				0.6328461766242981
			],
			"scale":[
				1,
				0.9999999403953552,
				0.9999998807907104
			],
			"translation":[
				1.1321826925959032e-14,
				1.0724406242370605,
				-5.148233483964759e-08
			]
		},
		{
			"name":"\u30dc\u30fc\u30f3.015",
			"rotation":[
				3.1663088151390184e-08,
				-3.1234154818093884e-08,
				-0.02813185378909111,
				0.9996042251586914
			],
			"scale":[
				1,
				0.9999998807907104,
				1
			],
			"translation":[
				1.0430818520035245e-07,
				1.4319744110107422,
				1.3716316971112974e-10
			]
		},
		{
			"children":[
				5
			],
			"name":"\u30dc\u30fc\u30f3.014",
			"rotation":[
				0.004532483406364918,
				0.7070925831794739,
				0.004532486665993929,
				0.7070919275283813
			],
			"scale":[
				0.9999998807907104,
				0.9999998211860657,
				0.9999998807907104
			],
			"translation":[
				8.999739620207947e-09,
				1.6337851285934448,
				-3.938984249884925e-08
			]
		},
		{
			"children":[
				6
			],
			"name":"\u30dc\u30fc\u30f3.013",
			"rotation":[
				-0.06967676430940628,
				-0.7036656737327576,
				-0.06967683881521225,
				0.7036653757095337
			],
			"scale":[
				0.9999999403953552,
				1,
				1
			],
			"translation":[
				1.087784767150879e-06,
				1.0296374559402466,
				-1.917939584927808e-09
			]
		},
		{
			"children":[
				7
			],
			"name":"\u30dc\u30fc\u30f3.012",
			"rotation":[
				0.038050517439842224,
				-0.04641450196504593,
				0.7719482183456421,
				0.6328457593917847
			],
			"scale":[
				0.9999999403953552,
				1,
				1
			],
			"translation":[
				1.1321826078926085e-14,
				1.0724406242370605,
				-5.148233483964759e-08
			]
		},
		{
			"children":[
				0,
				4,
				8
			],
			"name":"\u30dc\u30fc\u30f3.002",
			"rotation":[
				0.01927209086716175,
				1.1000189881161734e-14,
				4.594822744508065e-09,
				0.9998143315315247
			],
			"scale":[
				1,
				1,
				0.9999999403953552
			],
			"translation":[
				2.1316282072803006e-14,
				0.929530680179596,
				-7.450580596923828e-08
			]
		},
		{
			"children":[
				9
			],
			"name":"\u30dc\u30fc\u30f3.001",
			"rotation":[
				-0.09652042388916016,
				1.1865270010957829e-07,
				-1.1506131158967037e-08,
				0.9953309893608093
			],
			"translation":[
				0,
				1.225314736366272,
				3.725290298461914e-09
			]
		},
		{
			"name":"\u30dc\u30fc\u30f3.011",
			"rotation":[
				-0.008424682542681694,
				0.004786991514265537,
				-0.6204394698143005,
				0.7841944694519043
			],
			"scale":[
				1,
				1,
				0.9999999403953552
			],
			"translation":[
				4.9389200285077095e-08,
				2.538454532623291,
				4.696198629972059e-08
			]
		},
		{
			"children":[
				11
			],
			"name":"\u30dc\u30fc\u30f3.010",
			"rotation":[
				-0.010020488873124123,
				0.00015397867537103593,
				0.130216583609581,
				0.9914349317550659
			],
			"scale":[
				1,
				1,
				0.9999998211860657
			],
			"translation":[
				-7.497146725654602e-08,
				2.554536819458008,
				-7.043526295547053e-08
			]
		},
		{
			"children":[
				12
			],
			"name":"\u30dc\u30fc\u30f3.009",
			"rotation":[
				-0.5768923163414001,
				-0.022565793246030807,
				-0.06194205954670906,
				0.8141555190086365
			],
			"scale":[
				1,
				1,
				1.0000001192092896
			],
			"translation":[
				1.6763806343078613e-08,
				0.5768778920173645,
				-4.0397225120614166e-07
			]
		},
		{
			"children":[
				13
			],
			"name":"\u30dc\u30fc\u30f3.008",
			"rotation":[
				-0.5870400071144104,
				-0.41457435488700867,
				-0.5573307871818542,
				0.41580596566200256
			],
			"translation":[
				0,
				3.6694109439849854e-07,
				-1.1175870895385742e-08
			]
		},
		{
			"name":"\u30dc\u30fc\u30f3.019",
			"rotation":[
				0.009061996825039387,
				-0.002816054504364729,
				-0.6204305291175842,
				0.7842040061950684
			],
			"scale":[
				1,
				0.9999998807907104,
				0.9999999403953552
			],
			"translation":[
				3.632158041000366e-08,
				2.5384554862976074,
				1.2791133485734463e-08
			]
		},
		{
			"children":[
				15
			],
			"name":"\u30dc\u30fc\u30f3.018",
			"rotation":[
				0.009741689078509808,
				-0.003749967785552144,
				0.13023777306079865,
				0.9914278984069824
			],
			"scale":[
				1,
				0.9999998211860657,
				1
			],
			"translation":[
				1.0745134204626083e-07,
				2.5545365810394287,
				-1.885928213596344e-08
			]
		},
		{
			"children":[
				16
			],
			"name":"\u30dc\u30fc\u30f3.017",
			"rotation":[
				0.56663578748703,
				0.11626369506120682,
				-0.12476176023483276,
				0.8061272501945496
			],
			"scale":[
				0.9999999403953552,
				1.000000238418579,
				0.9999999403953552
			],
			"translation":[
				-1.0244548320770264e-07,
				0.5768778324127197,
				-1.0803341865539551e-07
			]
		},
		{
			"children":[
				17
			],
			"name":"\u30dc\u30fc\u30f3.016",
			"rotation":[
				0.6197851300239563,
				-0.45977115631103516,
				0.520672619342804,
				0.36520811915397644
			],
			"translation":[
				0,
				3.67872416973114e-07,
				1.862645149230957e-08
			]
		},
		{
			"children":[
				10,
				14,
				18
			],
			"name":"\u30dc\u30fc\u30f3",
			"rotation":[
				0.017342383041977882,
				0,
				0,
				0.9998496770858765
			],
			"scale":[
				1,
				0.9999999403953552,
				0.9999999403953552
			],
			"translation":[
				0,
				0.05507183074951172,
				-0.04249337315559387
			]
		},
		{
			"mesh":0,
			"name":"\u7acb\u65b9\u4f53",
			"skin":0
		},
		{
			"mesh":1,
			"name":"\u7acb\u65b9\u4f53.001",
			"skin":0
		},
		{
			"mesh":2,
			"name":"\u7acb\u65b9\u4f53.002",
			"skin":0
		},
		{
			"mesh":3,
			"name":"\u7acb\u65b9\u4f53.003",
			"skin":0
		},
		{
			"mesh":4,
			"name":"\u7acb\u65b9\u4f53.004",
			"skin":0
		},
		{
			"mesh":5,
			"name":"\u7acb\u65b9\u4f53.005",
			"skin":0
		},
		{
			"children":[
				20,
				21,
				22,
				23,
				24,
				25,
				19
			],
			"name":"\u30a2\u30fc\u30de\u30c1\u30e5\u30a2",
			"scale":[
				0.1436784863471985,
				0.1436784863471985,
				0.1436784863471985
			],
			"translation":[
				0,
				0.8355681300163269,
				0.039562880992889404
			]
		}
	],
	"animations":[
		{
			"channels":[
				{
					"sampler":0,
					"target":{
						"node":19,
						"path":"translation"
					}
				},
				{
					"sampler":1,
					"target":{
						"node":19,
						"path":"rotation"
					}
				},
				{
					"sampler":2,
					"target":{
						"node":19,
						"path":"scale"
					}
				},
				{
					"sampler":3,
					"target":{
						"node":10,
						"path":"translation"
					}
				},
				{
					"sampler":4,
					"target":{
						"node":10,
						"path":"rotation"
					}
				},
				{
					"sampler":5,
					"target":{
						"node":10,
						"path":"scale"
					}
				},
				{
					"sampler":6,
					"target":{
						"node":9,
						"path":"translation"
					}
				},
				{
					"sampler":7,
					"target":{
						"node":9,
						"path":"rotation"
					}
				},
				{
					"sampler":8,
					"target":{
						"node":9,
						"path":"scale"
					}
				},
				{
					"sampler":9,
					"target":{
						"node":0,
						"path":"translation"
					}
				},
				{
					"sampler":10,
					"target":{
						"node":0,
						"path":"rotation"
					}
				},
				{
					"sampler":11,
					"target":{
						"node":0,
						"path":"scale"
					}
				},
				{
					"sampler":12,
					"target":{
						"node":4,
						"path":"translation"
					}
				},
				{
					"sampler":13,
					"target":{
						"node":4,
						"path":"rotation"
					}
				},
				{
					"sampler":14,
					"target":{
						"node":4,
						"path":"scale"
					}
				},
				{
					"sampler":15,
					"target":{
						"node":3,
						"path":"translation"
					}
				},
				{
					"sampler":16,
					"target":{
						"node":3,
						"path":"rotation"
					}
				},
				{
					"sampler":17,
					"target":{
						"node":3,
						"path":"scale"
					}
				},
				{
					"sampler":18,
					"target":{
						"node":2,
						"path":"translation"
					}
				},
				{
					"sampler":19,
					"target":{
						"node":2,
						"path":"rotation"
					}
				},
				{
					"sampler":20,
					"target":{
						"node":2,
						"path":"scale"
					}
				},
				{
					"sampler":21,
					"target":{
						"node":1,
						"path":"translation"
					}
				},
				{
					"sampler":22,
					"target":{
						"node":1,
						"path":"rotation"
					}
				},
				{
					"sampler":23,
					"target":{
						"node":1,
						"path":"scale"
					}
				},
				{
					"sampler":24,
					"target":{
						"node":8,
						"path":"translation"
					}
				},
				{
					"sampler":25,
					"target":{
						"node":8,
						"path":"rotation"
					}
				},
				{
					"sampler":26,
					"target":{
						"node":8,
						"path":"scale"
					}
				},
				{
					"sampler":27,
					"target":{
						"node":7,
						"path":"translation"
					}
				},
				{
					"sampler":28,
					"target":{
						"node":7,
						"path":"rotation"
					}
				},
				{
					"sampler":29,
					"target":{
						"node":7,
						"path":"scale"
					}
				},
				{
					"sampler":30,
					"target":{
						"node":6,
						"path":"translation"
					}
				},
				{
					"sampler":31,
					"target":{
						"node":6,
						"path":"rotation"
					}
				},
				{
					"sampler":32,
					"target":{
						"node":6,
						"path":"scale"
					}
				},
				{
					"sampler":33,
					"target":{
						"node":5,
						"path":"translation"
					}
				},
				{
					"sampler":34,
					"target":{
						"node":5,
						"path":"rotation"
					}
				},
				{
					"sampler":35,
					"target":{
						"node":5,
						"path":"scale"
					}
				},
				{
					"sampler":36,
					"target":{
						"node":14,
						"path":"translation"
					}
				},
				{
					"sampler":37,
					"target":{
						"node":14,
						"path":"rotation"
					}
				},
				{
					"sampler":38,
					"target":{
						"node":14,
						"path":"scale"
					}
				},
				{
					"sampler":39,
					"target":{
						"node":13,
						"path":"translation"
					}
				},
				{
					"sampler":40,
					"target":{
						"node":13,
						"path":"rotation"
					}
				},
				{
					"sampler":41,
					"target":{
						"node":13,
						"path":"scale"
					}
				},
				{
					"sampler":42,
					"target":{
						"node":12,
						"path":"translation"
					}
				},
				{
					"sampler":43,
					"target":{
						"node":12,
						"path":"rotation"
					}
				},
				{
					"sampler":44,
					"target":{
						"node":12,
						"path":"scale"
					}
				},
				{
					"sampler":45,
					"target":{
						"node":11,
						"path":"translation"
					}
				},
				{
					"sampler":46,
					"target":{
						"node":11,
						"path":"rotation"
					}
				},
				{
					"sampler":47,
					"target":{
						"node":11,
						"path":"scale"
					}
				},
				{
					"sampler":48,
					"target":{
						"node":18,
						"path":"translation"
					}
				},
				{
					"sampler":49,
					"target":{
						"node":18,
						"path":"rotation"
					}
				},
				{
					"sampler":50,
					"target":{
						"node":18,
						"path":"scale"
					}
				},
				{
					"sampler":51,
					"target":{
						"node":17,
						"path":"translation"
					}
				},
				{
					"sampler":52,
					"target":{
						"node":17,
						"path":"rotation"
					}
				},
				{
					"sampler":53,
					"target":{
						"node":17,
						"path":"scale"
					}
				},
				{
					"sampler":54,
					"target":{
						"node":16,
						"path":"translation"
					}
				},
				{
					"sampler":55,
					"target":{
						"node":16,
						"path":"rotation"
					}
				},
				{
					"sampler":56,
					"target":{
						"node":16,
						"path":"scale"
					}
				},
				{
					"sampler":57,
					"target":{
						"node":15,
						"path":"translation"
					}
				},
				{
					"sampler":58,
					"target":{
						"node":15,
						"path":"rotation"
					}
				},
				{
					"sampler":59,
					"target":{
						"node":15,
						"path":"scale"
					}
				}
			],
			"name":"\u30a2\u30fc\u30de\u30c1\u30e5\u30a2\u30a2\u30af\u30b7\u30e7\u30f3",
			"samplers":[
				{
					"input":33,
					"interpolation":"STEP",
					"output":34
				},
				{
					"input":33,
					"interpolation":"STEP",
					"output":35
				},
				{
					"input":33,
					"interpolation":"STEP",
					"output":36
				},
				{
					"input":33,
					"interpolation":"STEP",
					"output":37
				},
				{
					"input":33,
					"interpolation":"STEP",
					"output":38
				},
				{
					"input":33,
					"interpolation":"STEP",
					"output":39
				},
				{
					"input":33,
					"interpolation":"STEP",
					"output":40
				},
				{
					"input":33,
					"interpolation":"STEP",
					"output":41
				},
				{
					"input":33,
					"interpolation":"STEP",
					"output":42
				},
				{
					"input":33,
					"interpolation":"STEP",
					"output":43
				},
				{
					"input":44,
					"interpolation":"LINEAR",
					"output":45
				},
				{
					"input":33,
					"interpolation":"STEP",
					"output":46
				},
				{
					"input":33,
					"interpolation":"STEP",
					"output":47
				},
				{
					"input":33,
					"interpolation":"STEP",
					"output":48
				},
				{
					"input":33,
					"interpolation":"STEP",
					"output":49
				},
				{
					"input":33,
					"interpolation":"STEP",
					"output":50
				},
				{
					"input":44,
					"interpolation":"LINEAR",
					"output":51
				},
				{
					"input":33,
					"interpolation":"STEP",
					"output":52
				},
				{
					"input":33,
					"interpolation":"LINEAR",
					"output":53
				},
				{
					"input":44,
					"interpolation":"LINEAR",
					"output":54
				},
				{
					"input":33,
					"interpolation":"LINEAR",
					"output":55
				},
				{
					"input":33,
					"interpolation":"LINEAR",
					"output":56
				},
				{
					"input":33,
					"interpolation":"LINEAR",
					"output":57
				},
				{
					"input":33,
					"interpolation":"STEP",
					"output":58
				},
				{
					"input":33,
					"interpolation":"STEP",
					"output":59
				},
				{
					"input":33,
					"interpolation":"STEP",
					"output":60
				},
				{
					"input":33,
					"interpolation":"STEP",
					"output":61
				},
				{
					"input":33,
					"interpolation":"STEP",
					"output":62
				},
				{
					"input":44,
					"interpolation":"LINEAR",
					"output":63
				},
				{
					"input":33,
					"interpolation":"STEP",
					"output":64
				},
				{
					"input":33,
					"interpolation":"LINEAR",
					"output":65
				},
				{
					"input":44,
					"interpolation":"LINEAR",
					"output":66
				},
				{
					"input":33,
					"interpolation":"LINEAR",
					"output":67
				},
				{
					"input":33,
					"interpolation":"LINEAR",
					"output":68
				},
				{
					"input":33,
					"interpolation":"LINEAR",
					"output":69
				},
				{
					"input":33,
					"interpolation":"STEP",
					"output":70
				},
				{
					"input":33,
					"interpolation":"STEP",
					"output":71
				},
				{
					"input":33,
					"interpolation":"STEP",
					"output":72
				},
				{
					"input":33,
					"interpolation":"STEP",
					"output":73
				},
				{
					"input":33,
					"interpolation":"STEP",
					"output":74
				},
				{
					"input":44,
					"interpolation":"LINEAR",
					"output":75
				},
				{
					"input":33,
					"interpolation":"LINEAR",
					"output":76
				},
				{
					"input":33,
					"interpolation":"LINEAR",
					"output":77
				},
				{
					"input":44,
					"interpolation":"LINEAR",
					"output":78
				},
				{
					"input":33,
					"interpolation":"STEP",
					"output":79
				},
				{
					"input":33,
					"interpolation":"LINEAR",
					"output":80
				},
				{
					"input":33,
					"interpolation":"LINEAR",
					"output":81
				},
				{
					"input":33,
					"interpolation":"LINEAR",
					"output":82
				},
				{
					"input":33,
					"interpolation":"STEP",
					"output":83
				},
				{
					"input":33,
					"interpolation":"STEP",
					"output":84
				},
				{
					"input":33,
					"interpolation":"STEP",
					"output":85
				},
				{
					"input":33,
					"interpolation":"STEP",
					"output":86
				},
				{
					"input":44,
					"interpolation":"LINEAR",
					"output":87
				},
				{
					"input":33,
					"interpolation":"STEP",
					"output":88
				},
				{
					"input":33,
					"interpolation":"LINEAR",
					"output":89
				},
				{
					"input":44,
					"interpolation":"LINEAR",
					"output":90
				},
				{
					"input":33,
					"interpolation":"LINEAR",
					"output":91
				},
				{
					"input":33,
					"interpolation":"LINEAR",
					"output":92
				},
				{
					"input":33,
					"interpolation":"LINEAR",
					"output":93
				},
				{
					"input":33,
					"interpolation":"LINEAR",
					"output":94
				}
			]
		}
	],
	"meshes":[
		{
			"name":"\u7acb\u65b9\u4f53.001",
			"primitives":[
				{
					"attributes":{
						"POSITION":0,
						"NORMAL":1,
						"TEXCOORD_0":2,
						"JOINTS_0":3,
						"WEIGHTS_0":4
					},
					"indices":5
				}
			]
		},
		{
			"name":"\u7acb\u65b9\u4f53",
			"primitives":[
				{
					"attributes":{
						"POSITION":7,
						"NORMAL":8,
						"TEXCOORD_0":9,
						"JOINTS_0":10,
						"WEIGHTS_0":11
					},
					"indices":12
				}
			]
		},
		{
			"name":"\u7acb\u65b9\u4f53.002",
			"primitives":[
				{
					"attributes":{
						"POSITION":13,
						"NORMAL":14,
						"TEXCOORD_0":15,
						"JOINTS_0":16,
						"WEIGHTS_0":17
					},
					"indices":12
				}
			]
		},
		{
			"name":"\u7acb\u65b9\u4f53.003",
			"primitives":[
				{
					"attributes":{
						"POSITION":18,
						"NORMAL":19,
						"TEXCOORD_0":20,
						"JOINTS_0":21,
						"WEIGHTS_0":22
					},
					"indices":12
				}
			]
		},
		{
			"name":"\u7acb\u65b9\u4f53.004",
			"primitives":[
				{
					"attributes":{
						"POSITION":23,
						"NORMAL":24,
						"TEXCOORD_0":25,
						"JOINTS_0":26,
						"WEIGHTS_0":27
					},
					"indices":12
				}
			]
		},
		{
			"name":"\u7acb\u65b9\u4f53.005",
			"primitives":[
				{
					"attributes":{
						"POSITION":28,
						"NORMAL":29,
						"TEXCOORD_0":30,
						"JOINTS_0":31,
						"WEIGHTS_0":32
					},
					"indices":12
				}
			]
		}
	],
	"skins":[
		{
			"inverseBindMatrices":6,
			"joints":[
				19,
				10,
				9,
				0,
				4,
				3,
				2,
				1,
				8,
				7,
				6,
				5,
				14,
				13,
				12,
				11,
				18,
				17,
				16,
				15
			],
			"name":"\u30a2\u30fc\u30de\u30c1\u30e5\u30a2"
		}
	],
	"accessors":[
		{
			"bufferView":0,
			"componentType":5126,
			"count":2912,
			"max":[
				0.6588665843009949,
				1.7233211994171143,
				0.21343925595283508
			],
			"min":[
				-0.6588665843009949,
				0.004345482215285301,
				-0.18735185265541077
			],
			"type":"VEC3"
		},
		{
			"bufferView":1,
			"componentType":5126,
			"count":2912,
			"type":"VEC3"
		},
		{
			"bufferView":2,
			"componentType":5126,
			"count":2912,
			"type":"VEC2"
		},
		{
			"bufferView":3,
			"componentType":5121,
			"count":2912,
			"type":"VEC4"
		},
		{
			"bufferView":4,
			"componentType":5126,
			"count":2912,
			"type":"VEC4"
		},
		{
			"bufferView":5,
			"componentType":5123,
			"count":3351,
			"type":"SCALAR"
		},
		{
			"bufferView":6,
			"componentType":5126,
			"count":20,
			"type":"MAT4"
		},
		{
			"bufferView":7,
			"componentType":5126,
			"count":24,
			"max":[
				0.5734902024269104,
				1.3785374164581299,
				0.11999158561229706
			],
			"min":[
				0.3672600984573364,
				1.1723072528839111,
				-0.0862385481595993
			],
			"type":"VEC3"
		},
		{
			"bufferView":8,
			"componentType":5126,
			"count":24,
			"type":"VEC3"
		},
		{
			"bufferView":9,
			"componentType":5126,
			"count":24,
			"type":"VEC2"
		},
		{
			"bufferView":10,
			"componentType":5121,
			"count":24,
			"type":"VEC4"
		},
		{
			"bufferView":11,
			"componentType":5126,
			"count":24,
			"type":"VEC4"
		},
		{
			"bufferView":12,
			"componentType":5123,
			"count":36,
			"type":"SCALAR"
		},
		{
			"bufferView":13,
			"componentType":5126,
			"count":24,
			"max":[
				-0.15130184590816498,
				1.3785374164581299,
				0.11999158561229706
			],
			"min":[
				-0.35753196477890015,
				1.1723072528839111,
				-0.0862385481595993
			],
			"type":"VEC3"
		},
		{
			"bufferView":14,
			"componentType":5126,
			"count":24,
			"type":"VEC3"
		},
		{
			"bufferView":15,
			"componentType":5126,
			"count":24,
			"type":"VEC2"
		},
		{
			"bufferView":16,
			"componentType":5121,
			"count":24,
			"type":"VEC4"
		},
		{
			"bufferView":17,
			"componentType":5126,
			"count":24,
			"type":"VEC4"
		},
		{
			"bufferView":18,
			"componentType":5126,
			"count":24,
			"max":[
				0.10506565868854523,
				1.024053931236267,
				0.11999154090881348
			],
			"min":[
				-0.10116447508335114,
				0.8178238272666931,
				-0.08623859286308289
			],
			"type":"VEC3"
		},
		{
			"bufferView":19,
			"componentType":5126,
			"count":24,
			"type":"VEC3"
		},
		{
			"bufferView":20,
			"componentType":5126,
			"count":24,
			"type":"VEC2"
		},
		{
			"bufferView":21,
			"componentType":5121,
			"count":24,
			"type":"VEC4"
		},
		{
			"bufferView":22,
			"componentType":5126,
			"count":24,
			"type":"VEC4"
		},
		{
			"bufferView":23,
			"componentType":5126,
			"count":24,
			"max":[
				0.019609816372394562,
				0.7233760952949524,
				0.1199914962053299
			],
			"min":[
				-0.1866203248500824,
				0.5171459317207336,
				-0.08623863756656647
			],
			"type":"VEC3"
		},
		{
			"bufferView":24,
			"componentType":5126,
			"count":24,
			"type":"VEC3"
		},
		{
			"bufferView":25,
			"componentType":5126,
			"count":24,
			"type":"VEC2"
		},
		{
			"bufferView":26,
			"componentType":5121,
			"count":24,
			"type":"VEC4"
		},
		{
			"bufferView":27,
			"componentType":5126,
			"count":24,
			"type":"VEC4"
		},
		{
			"bufferView":28,
			"componentType":5126,
			"count":24,
			"max":[
				0.19685155153274536,
				0.36256253719329834,
				0.11999145150184631
			],
			"min":[
				-0.009378574788570404,
				0.15633241832256317,
				-0.08623868227005005
			],
			"type":"VEC3"
		},
		{
			"bufferView":29,
			"componentType":5126,
			"count":24,
			"type":"VEC3"
		},
		{
			"bufferView":30,
			"componentType":5126,
			"count":24,
			"type":"VEC2"
		},
		{
			"bufferView":31,
			"componentType":5121,
			"count":24,
			"type":"VEC4"
		},
		{
			"bufferView":32,
			"componentType":5126,
			"count":24,
			"type":"VEC4"
		},
		{
			"bufferView":33,
			"componentType":5126,
			"count":2,
			"max":[
				1.0416666666666667
			],
			"min":[
				0.041666666666666664
			],
			"type":"SCALAR"
		},
		{
			"bufferView":34,
			"componentType":5126,
			"count":2,
			"type":"VEC3"
		},
		{
			"bufferView":35,
			"componentType":5126,
			"count":2,
			"type":"VEC4"
		},
		{
			"bufferView":36,
			"componentType":5126,
			"count":2,
			"type":"VEC3"
		},
		{
			"bufferView":37,
			"componentType":5126,
			"count":2,
			"type":"VEC3"
		},
		{
			"bufferView":38,
			"componentType":5126,
			"count":2,
			"type":"VEC4"
		},
		{
			"bufferView":39,
			"componentType":5126,
			"count":2,
			"type":"VEC3"
		},
		{
			"bufferView":40,
			"componentType":5126,
			"count":2,
			"type":"VEC3"
		},
		{
			"bufferView":41,
			"componentType":5126,
			"count":2,
			"type":"VEC4"
		},
		{
			"bufferView":42,
			"componentType":5126,
			"count":2,
			"type":"VEC3"
		},
		{
			"bufferView":43,
			"componentType":5126,
			"count":2,
			"type":"VEC3"
		},
		{
			"bufferView":44,
			"componentType":5126,
			"count":25,
			"max":[
				1.0416666666666667
			],
			"min":[
				0.041666666666666664
			],
			"type":"SCALAR"
		},
		{
			"bufferView":45,
			"componentType":5126,
			"count":25,
			"type":"VEC4"
		},
		{
			"bufferView":46,
			"componentType":5126,
			"count":2,
			"type":"VEC3"
		},
		{
			"bufferView":47,
			"componentType":5126,
			"count":2,
			"type":"VEC3"
		},
		{
			"bufferView":48,
			"componentType":5126,
			"count":2,
			"type":"VEC4"
		},
		{
			"bufferView":49,
			"componentType":5126,
			"count":2,
			"type":"VEC3"
		},
		{
			"bufferView":50,
			"componentType":5126,
			"count":2,
			"type":"VEC3"
		},
		{
			"bufferView":51,
			"componentType":5126,
			"count":25,
			"type":"VEC4"
		},
		{
			"bufferView":52,
			"componentType":5126,
			"count":2,
			"type":"VEC3"
		},
		{
			"bufferView":53,
			"componentType":5126,
			"count":2,
			"type":"VEC3"
		},
		{
			"bufferView":54,
			"componentType":5126,
			"count":25,
			"type":"VEC4"
		},
		{
			"bufferView":55,
			"componentType":5126,
			"count":2,
			"type":"VEC3"
		},
		{
			"bufferView":56,
			"componentType":5126,
			"count":2,
			"type":"VEC3"
		},
		{
			"bufferView":57,
			"componentType":5126,
			"count":2,
			"type":"VEC4"
		},
		{
			"bufferView":58,
			"componentType":5126,
			"count":2,
			"type":"VEC3"
		},
		{
			"bufferView":59,
			"componentType":5126,
			"count":2,
			"type":"VEC3"
		},
		{
			"bufferView":60,
			"componentType":5126,
			"count":2,
			"type":"VEC4"
		},
		{
			"bufferView":61,
			"componentType":5126,
			"count":2,
			"type":"VEC3"
		},
		{
			"bufferView":62,
			"componentType":5126,
			"count":2,
			"type":"VEC3"
		},
		{
			"bufferView":63,
			"componentType":5126,
			"count":25,
			"type":"VEC4"
		},
		{
			"bufferView":64,
			"componentType":5126,
			"count":2,
			"type":"VEC3"
		},
		{
			"bufferView":65,
			"componentType":5126,
			"count":2,
			"type":"VEC3"
		},
		{
			"bufferView":66,
			"componentType":5126,
			"count":25,
			"type":"VEC4"
		},
		{
			"bufferView":67,
			"componentType":5126,
			"count":2,
			"type":"VEC3"
		},
		{
			"bufferView":68,
			"componentType":5126,
			"count":2,
			"type":"VEC3"
		},
		{
			"bufferView":69,
			"componentType":5126,
			"count":2,
			"type":"VEC4"
		},
		{
			"bufferView":70,
			"componentType":5126,
			"count":2,
			"type":"VEC3"
		},
		{
			"bufferView":71,
			"componentType":5126,
			"count":2,
			"type":"VEC3"
		},
		{
			"bufferView":72,
			"componentType":5126,
			"count":2,
			"type":"VEC4"
		},
		{
			"bufferView":73,
			"componentType":5126,
			"count":2,
			"type":"VEC3"
		},
		{
			"bufferView":74,
			"componentType":5126,
			"count":2,
			"type":"VEC3"
		},
		{
			"bufferView":75,
			"componentType":5126,
			"count":25,
			"type":"VEC4"
		},
		{
			"bufferView":76,
			"componentType":5126,
			"count":2,
			"type":"VEC3"
		},
		{
			"bufferView":77,
			"componentType":5126,
			"count":2,
			"type":"VEC3"
		},
		{
			"bufferView":78,
			"componentType":5126,
			"count":25,
			"type":"VEC4"
		},
		{
			"bufferView":79,
			"componentType":5126,
			"count":2,
			"type":"VEC3"
		},
		{
			"bufferView":80,
			"componentType":5126,
			"count":2,
			"type":"VEC3"
		},
		{
			"bufferView":81,
			"componentType":5126,
			"count":2,
			"type":"VEC4"
		},
		{
			"bufferView":82,
			"componentType":5126,
			"count":2,
			"type":"VEC3"
		},
		{
			"bufferView":83,
			"componentType":5126,
			"count":2,
			"type":"VEC3"
		},
		{
			"bufferView":84,
			"componentType":5126,
			"count":2,
			"type":"VEC4"
		},
		{
			"bufferView":85,
			"componentType":5126,
			"count":2,
			"type":"VEC3"
		},
		{
			"bufferView":86,
			"componentType":5126,
			"count":2,
			"type":"VEC3"
		},
		{
			"bufferView":87,
			"componentType":5126,
			"count":25,
			"type":"VEC4"
		},
		{
			"bufferView":88,
			"componentType":5126,
			"count":2,
			"type":"VEC3"
		},
		{
			"bufferView":89,
			"componentType":5126,
			"count":2,
			"type":"VEC3"
		},
		{
			"bufferView":90,
			"componentType":5126,
			"count":25,
			"type":"VEC4"
		},
		{
			"bufferView":91,
			"componentType":5126,
			"count":2,
			"type":"VEC3"
		},
		{
			"bufferView":92,
			"componentType":5126,
			"count":2,
			"type":"VEC3"
		},
		{
			"bufferView":93,
			"componentType":5126,
			"count":2,
			"type":"VEC4"
		},
		{
			"bufferView":94,
			"componentType":5126,
			"count":2,
			"type":"VEC3"
		}
	],
	"bufferViews":[
		{
			"buffer":0,
			"byteLength":34944,
			"byteOffset":0,
			"target":34962
		},
		{
			"buffer":0,
			"byteLength":34944,
			"byteOffset":34944,
			"target":34962
		},
		{
			"buffer":0,
			"byteLength":23296,
			"byteOffset":69888,
			"target":34962
		},
		{
			"buffer":0,
			"byteLength":11648,
			"byteOffset":93184,
			"target":34962
		},
		{
			"buffer":0,
			"byteLength":46592,
			"byteOffset":104832,
			"target":34962
		},
		{
			"buffer":0,
			"byteLength":6702,
			"byteOffset":151424,
			"target":34963
		},
		{
			"buffer":0,
			"byteLength":1280,
			"byteOffset":158128
		},
		{
			"buffer":0,
			"byteLength":288,
			"byteOffset":159408,
			"target":34962
		},
		{
			"buffer":0,
			"byteLength":288,
			"byteOffset":159696,
			"target":34962
		},
		{
			"buffer":0,
			"byteLength":192,
			"byteOffset":159984,
			"target":34962
		},
		{
			"buffer":0,
			"byteLength":96,
			"byteOffset":160176,
			"target":34962
		},
		{
			"buffer":0,
			"byteLength":384,
			"byteOffset":160272,
			"target":34962
		},
		{
			"buffer":0,
			"byteLength":72,
			"byteOffset":160656,
			"target":34963
		},
		{
			"buffer":0,
			"byteLength":288,
			"byteOffset":160728,
			"target":34962
		},
		{
			"buffer":0,
			"byteLength":288,
			"byteOffset":161016,
			"target":34962
		},
		{
			"buffer":0,
			"byteLength":192,
			"byteOffset":161304,
			"target":34962
		},
		{
			"buffer":0,
			"byteLength":96,
			"byteOffset":161496,
			"target":34962
		},
		{
			"buffer":0,
			"byteLength":384,
			"byteOffset":161592,
			"target":34962
		},
		{
			"buffer":0,
			"byteLength":288,
			"byteOffset":161976,
			"target":34962
		},
		{
			"buffer":0,
			"byteLength":288,
			"byteOffset":162264,
			"target":34962
		},
		{
			"buffer":0,
			"byteLength":192,
			"byteOffset":162552,
			"target":34962
		},
		{
			"buffer":0,
			"byteLength":96,
			"byteOffset":162744,
			"target":34962
		},
		{
			"buffer":0,
			"byteLength":384,
			"byteOffset":162840,
			"target":34962
		},
		{
			"buffer":0,
			"byteLength":288,
			"byteOffset":163224,
			"target":34962
		},
		{
			"buffer":0,
			"byteLength":288,
			"byteOffset":163512,
			"target":34962
		},
		{
			"buffer":0,
			"byteLength":192,
			"byteOffset":163800,
			"target":34962
		},
		{
			"buffer":0,
			"byteLength":96,
			"byteOffset":163992,
			"target":34962
		},
		{
			"buffer":0,
			"byteLength":384,
			"byteOffset":164088,
			"target":34962
		},
		{
			"buffer":0,
			"byteLength":288,
			"byteOffset":164472,
			"target":34962
		},
		{
			"buffer":0,
			"byteLength":288,
			"byteOffset":164760,
			"target":34962
		},
		{
			"buffer":0,
			"byteLength":192,
			"byteOffset":165048,
			"target":34962
		},
		{
			"buffer":0,
			"byteLength":96,
			"byteOffset":165240,
			"target":34962
		},
		{
			"buffer":0,
			"byteLength":384,
			"byteOffset":165336,
			"target":34962
		},
		{
			"buffer":0,
			"byteLength":8,
			"byteOffset":165720
		},
		{
			"buffer":0,
			"byteLength":24,
			"byteOffset":165728
		},
		{
			"buffer":0,
			"byteLength":32,
			"byteOffset":165752
		},
		{
			"buffer":0,
			"byteLength":24,
			"byteOffset":165784
		},
		{
			"buffer":0,
			"byteLength":24,
			"byteOffset":165808
		},
		{
			"buffer":0,
			"byteLength":32,
			"byteOffset":165832
		},
		{
			"buffer":0,
			"byteLength":24,
			"byteOffset":165864
		},
		{
			"buffer":0,
			"byteLength":24,
			"byteOffset":165888
		},
		{
			"buffer":0,
			"byteLength":32,
			"byteOffset":165912
		},
		{
			"buffer":0,
			"byteLength":24,
			"byteOffset":165944
		},
		{
			"buffer":0,
			"byteLength":24,
			"byteOffset":165968
		},
		{
			"buffer":0,
			"byteLength":100,
			"byteOffset":165992
		},
		{
			"buffer":0,
			"byteLength":400,
			"byteOffset":166092
		},
		{
			"buffer":0,
			"byteLength":24,
			"byteOffset":166492
		},
		{
			"buffer":0,
			"byteLength":24,
			"byteOffset":166516
		},
		{
			"buffer":0,
			"byteLength":32,
			"byteOffset":166540
		},
		{
			"buffer":0,
			"byteLength":24,
			"byteOffset":166572
		},
		{
			"buffer":0,
			"byteLength":24,
			"byteOffset":166596
		},
		{
			"buffer":0,
			"byteLength":400,
			"byteOffset":166620
		},
		{
			"buffer":0,
			"byteLength":24,
			"byteOffset":167020
		},
		{
			"buffer":0,
			"byteLength":24,
			"byteOffset":167044
		},
		{
			"buffer":0,
			"byteLength":400,
			"byteOffset":167068
		},
		{
			"buffer":0,
			"byteLength":24,
			"byteOffset":167468
		},
		{
			"buffer":0,
			"byteLength":24,
			"byteOffset":167492
		},
		{
			"buffer":0,
			"byteLength":32,
			"byteOffset":167516
		},
		{
			"buffer":0,
			"byteLength":24,
			"byteOffset":167548
		},
		{
			"buffer":0,
			"byteLength":24,
			"byteOffset":167572
		},
		{
			"buffer":0,
			"byteLength":32,
			"byteOffset":167596
		},
		{
			"buffer":0,
			"byteLength":24,
			"byteOffset":167628
		},
		{
			"buffer":0,
			"byteLength":24,
			"byteOffset":167652
		},
		{
			"buffer":0,
			"byteLength":400,
			"byteOffset":167676
		},
		{
			"buffer":0,
			"byteLength":24,
			"byteOffset":168076
		},
		{
			"buffer":0,
			"byteLength":24,
			"byteOffset":168100
		},
		{
			"buffer":0,
			"byteLength":400,
			"byteOffset":168124
		},
		{
			"buffer":0,
			"byteLength":24,
			"byteOffset":168524
		},
		{
			"buffer":0,
			"byteLength":24,
			"byteOffset":168548
		},
		{
			"buffer":0,
			"byteLength":32,
			"byteOffset":168572
		},
		{
			"buffer":0,
			"byteLength":24,
			"byteOffset":168604
		},
		{
			"buffer":0,
			"byteLength":24,
			"byteOffset":168628
		},
		{
			"buffer":0,
			"byteLength":32,
			"byteOffset":168652
		},
		{
			"buffer":0,
			"byteLength":24,
			"byteOffset":168684
		},
		{
			"buffer":0,
			"byteLength":24,
			"byteOffset":168708
		},
		{
			"buffer":0,
			"byteLength":400,
			"byteOffset":168732
		},
		{
			"buffer":0,
			"byteLength":24,
			"byteOffset":169132
		},
		{
			"buffer":0,
			"byteLength":24,
			"byteOffset":169156
		},
		{
			"buffer":0,
			"byteLength":400,
			"byteOffset":169180
		},
		{
			"buffer":0,
			"byteLength":24,
			"byteOffset":169580
		},
		{
			"buffer":0,
			"byteLength":24,
			"byteOffset":169604
		},
		{
			"buffer":0,
			"byteLength":32,
			"byteOffset":169628
		},
		{
			"buffer":0,
			"byteLength":24,
			"byteOffset":169660
		},
		{
			"buffer":0,
			"byteLength":24,
			"byteOffset":169684
		},
		{
			"buffer":0,
			"byteLength":32,
			"byteOffset":169708
		},
		{
			"buffer":0,
			"byteLength":24,
			"byteOffset":169740
		},
		{
			"buffer":0,
			"byteLength":24,
			"byteOffset":169764
		},
		{
			"buffer":0,
			"byteLength":400,
			"byteOffset":169788
		},
		{
			"buffer":0,
			"byteLength":24,
			"byteOffset":170188
		},
		{
			"buffer":0,
			"byteLength":24,
			"byteOffset":170212
		},
		{
			"buffer":0,
			"byteLength":400,
			"byteOffset":170236
		},
		{
			"buffer":0,
			"byteLength":24,
			"byteOffset":170636
		},
		{
			"buffer":0,
			"byteLength":24,
			"byteOffset":170660
		},
		{
			"buffer":0,
			"byteLength":32,
			"byteOffset":170684
		},
		{
			"buffer":0,
			"byteLength":24,
			"byteOffset":170716
		}
	],
	"buffers":[
		{
			"byteLength":170740,
			"uri":"bone.bin"
		}
	]
}
