# Blender 5.1.0
# www.blender.org
mtllib tutorial_2.mtl
o 平面
v 2.985452 0.000000 -2.962193
v -2.985452 0.000000 -2.962193
v 2.985452 0.000000 2.961549
v -2.985452 0.000000 2.961549
v -7.981318 0.000000 2.961549
v 7.981318 0.000000 2.961549
v -2.985452 0.000000 17.066740
v 2.985452 0.000000 17.066740
v -20.094803 0.000000 44.623837
v -25.475180 0.000000 44.623837
v -25.475180 0.000000 33.985802
v -25.475180 0.000000 21.991083
v -20.094803 0.000000 21.991083
v -20.094803 0.000000 33.985802
v -2.985452 0.000000 33.985802
v 2.985452 0.000000 33.985802
v 2.985452 0.000000 21.991083
v -2.985452 0.000000 21.991083
v 7.981318 0.000000 17.066740
v -7.981318 0.000000 17.066740
v -20.094803 0.000000 64.071281
v -25.475180 0.000000 64.071281
v -15.039722 0.000000 44.623837
v -30.530256 0.000000 44.623837
v -15.039722 0.000000 64.071281
v -30.530256 0.000000 64.071281
v 2.985452 -9.982134 -2.962193
v -2.985452 -9.982134 -2.962193
v 2.985452 -9.982134 2.961549
v -2.985452 -9.982134 2.961549
v -7.981318 -9.982134 2.961549
v 7.981318 -9.982134 2.961549
v -2.985452 -9.982134 17.066740
v 2.985452 -9.982134 17.066740
v -20.094803 -9.982134 44.623837
v -25.475180 -9.982134 44.623837
v -25.475180 -9.982134 33.985802
v -25.475180 -9.982134 21.991083
v -20.094803 -9.982134 21.991083
v -20.094803 -9.982134 33.985802
v -2.985452 -9.982134 33.985802
v 2.985452 -9.982134 33.985802
v 2.985452 -9.982134 21.991083
v -2.985452 -9.982134 21.991083
v 7.981318 -9.982134 17.066740
v -7.981318 -9.982134 17.066740
v -20.094803 -9.982134 64.071281
v -25.475180 -9.982134 64.071281
v -15.039722 -9.982134 44.623837
v -30.530256 -9.982134 44.623837
v -15.039722 -9.982134 64.071281
v -30.530256 -9.982134 64.071281
vn -0.0000 1.0000 -0.0000
vn -0.0000 -0.0000 1.0000
vn -0.0000 -0.0000 -1.0000
vn -1.0000 -0.0000 -0.0000
vn 1.0000 -0.0000 -0.0000
vt 1.000000 0.000000
vt 0.000000 1.000000
vt 0.000000 0.000000
vt 1.000000 1.000000
s 0
f 2/1/1 3/2/1 1/3/1
f 8/2/1 6/2/1 3/2/1
f 4/4/1 8/2/1 3/2/1
f 7/4/1 17/2/1 8/2/1
f 4/4/1 20/4/1 7/4/1
f 18/4/1 16/2/1 17/2/1
f 18/4/1 14/4/1 15/4/1
f 11/4/1 9/4/1 14/4/1
f 13/4/1 11/4/1 14/4/1
f 10/4/1 21/4/1 9/4/1
f 10/4/1 26/4/1 22/4/1
f 21/4/1 23/4/1 9/4/1
f 26/4/2 48/4/2 22/4/2
f 14/4/2 41/4/2 15/4/2
f 4/4/3 31/4/3 5/4/3
f 10/4/3 50/4/3 24/4/3
f 11/4/4 36/4/4 10/4/4
f 5/4/4 46/4/4 20/4/4
f 23/4/3 35/4/3 9/4/3
f 22/4/2 47/4/2 21/4/2
f 1/3/3 28/1/3 2/1/3
f 7/4/4 44/4/4 18/4/4
f 21/4/2 51/4/2 25/4/2
f 15/4/2 42/2/2 16/2/2
f 16/2/5 43/2/5 17/2/5
f 3/2/5 27/3/5 1/3/5
f 6/2/3 29/2/3 3/2/3
f 9/4/5 40/4/5 14/4/5
f 2/1/4 30/4/4 4/4/4
f 25/4/5 49/4/5 23/4/5
f 12/4/4 37/4/4 11/4/4
f 19/2/5 32/2/5 6/2/5
f 17/2/5 34/2/5 8/2/5
f 24/4/4 52/4/4 26/4/4
f 18/4/3 39/4/3 13/4/3
f 13/4/3 38/4/3 12/4/3
f 20/4/2 33/4/2 7/4/2
f 8/2/2 45/2/2 19/2/2
f 2/1/1 4/4/1 3/2/1
f 8/2/1 19/2/1 6/2/1
f 4/4/1 7/4/1 8/2/1
f 7/4/1 18/4/1 17/2/1
f 4/4/1 5/4/1 20/4/1
f 18/4/1 15/4/1 16/2/1
f 18/4/1 13/4/1 14/4/1
f 11/4/1 10/4/1 9/4/1
f 13/4/1 12/4/1 11/4/1
f 10/4/1 22/4/1 21/4/1
f 10/4/1 24/4/1 26/4/1
f 21/4/1 25/4/1 23/4/1
f 26/4/2 52/4/2 48/4/2
f 14/4/2 40/4/2 41/4/2
f 4/4/3 30/4/3 31/4/3
f 10/4/3 36/4/3 50/4/3
f 11/4/4 37/4/4 36/4/4
f 5/4/4 31/4/4 46/4/4
f 23/4/3 49/4/3 35/4/3
f 22/4/2 48/4/2 47/4/2
f 1/3/3 27/3/3 28/1/3
f 7/4/4 33/4/4 44/4/4
f 21/4/2 47/4/2 51/4/2
f 15/4/2 41/4/2 42/2/2
f 16/2/5 42/2/5 43/2/5
f 3/2/5 29/2/5 27/3/5
f 6/2/3 32/2/3 29/2/3
f 9/4/5 35/4/5 40/4/5
f 2/1/4 28/1/4 30/4/4
f 25/4/5 51/4/5 49/4/5
f 12/4/4 38/4/4 37/4/4
f 19/2/5 45/2/5 32/2/5
f 17/2/5 43/2/5 34/2/5
f 24/4/4 50/4/4 52/4/4
f 18/4/3 44/4/3 39/4/3
f 13/4/3 39/4/3 38/4/3
f 20/4/2 46/4/2 33/4/2
f 8/2/2 34/2/2 45/2/2
o 平面.001
v 1000.000000 -2.293730 -954.964111
v -1000.000000 -2.293730 -954.964111
v 1000.000000 -2.293730 1045.035889
v -1000.000000 -2.293730 1045.035889
vn -0.0000 1.0000 -0.0000
vt 1.000000 0.000000
vt 0.000000 1.000000
vt 0.000000 0.000000
vt 1.000000 1.000000
s 0
f 54/5/6 55/6/6 53/7/6
f 54/5/6 56/8/6 55/6/6
