{
	"asset":{
		"generator":"Khronos glTF Blender I/O v4.4.55",
		"version":"2.0"
	},
	"scene":0,
	"scenes":[
		{
			"name":"Scene",
			"nodes":[
				21
			]
		}
	],
	"nodes":[
		{
			"name":"\u30dc\u30fc\u30f3.003",
			"rotation":[
				0.06001828610897064,
				-6.895813384693401e-15,
				1.4309473606033407e-08,
				0.9981973171234131
			],
			"scale":[
				1,
				1,
				0.9999998807907104
			],
			"translation":[
				1.1321826925959032e-14,
				1.0724406242370605,
				-5.148233483964759e-08
			]
		},
		{
			"name":"\u30dc\u30fc\u30f3.007",
			"rotation":[
				-2.5347242527118397e-08,
				1.6198785601773125e-07,
				0.028132101520895958,
				0.9996042251586914
			],
			"scale":[
				1,
				0.9999998807907104,
				1
			],
			"translation":[
				-1.166015863418579e-06,
				1.4319742918014526,
				-4.973799150320701e-13
			]
		},
		{
			"children":[
				1
			],
			"name":"\u30dc\u30fc\u30f3.006",
			"rotation":[
				3.7154859189314493e-09,
				1.5932944563701312e-07,
				-0.006410163827240467,
				0.9999794960021973
			],
			"scale":[
				1,
				0.9999999403953552,
				1
			],
			"translation":[
				9.930646456268732e-07,
				1.6337854862213135,
				1.0030601430835104e-13
			]
		},
		{
			"children":[
				2
			],
			"name":"\u30dc\u30fc\u30f3.005",
			"rotation":[
				-4.823822408184242e-08,
				-6.891465176295242e-08,
				0.09853745996952057,
				0.9951333403587341
			],
			"scale":[
				1,
				0.9999999403953552,
				1
			],
			"translation":[
				7.152557373046875e-07,
				1.0296374559402466,
				-1.2434497875801753e-13
			]
		},
		{
			"children":[
				3
			],
			"name":"\u30dc\u30fc\u30f3.004",
			"rotation":[
				0.038051243871450424,
				0.04641475901007652,
				-0.7719479203224182,
				0.6328461766242981
			],
			"scale":[
				1,
				0.9999999403953552,
				0.9999998807907104
			],
			"translation":[
				1.1321826925959032e-14,
				1.0724406242370605,
				-5.148233483964759e-08
			]
		},
		{
			"name":"\u30dc\u30fc\u30f3.015",
			"rotation":[
				3.1663088151390184e-08,
				-3.1234154818093884e-08,
				-0.02813185378909111,
				0.9996042251586914
			],
			"scale":[
				1,
				0.9999998807907104,
				1
			],
			"translation":[
				1.0430818520035245e-07,
				1.4319744110107422,
				1.3716316971112974e-10
			]
		},
		{
			"children":[
				5
			],
			"name":"\u30dc\u30fc\u30f3.014",
			"rotation":[
				0.004532483406364918,
				0.7070925831794739,
				0.004532486665993929,
				0.7070919275283813
			],
			"scale":[
				0.9999998807907104,
				0.9999998211860657,
				0.9999998807907104
			],
			"translation":[
				8.999739620207947e-09,
				1.6337851285934448,
				-3.938984249884925e-08
			]
		},
		{
			"children":[
				6
			],
			"name":"\u30dc\u30fc\u30f3.013",
			"rotation":[
				-0.06967676430940628,
				-0.7036656737327576,
				-0.06967683881521225,
				0.7036653757095337
			],
			"scale":[
				0.9999999403953552,
				1,
				1
			],
			"translation":[
				1.087784767150879e-06,
				1.0296374559402466,
				-1.917939584927808e-09
			]
		},
		{
			"children":[
				7
			],
			"name":"\u30dc\u30fc\u30f3.012",
			"rotation":[
				0.038050517439842224,
				-0.04641450196504593,
				0.7719482183456421,
				0.6328457593917847
			],
			"scale":[
				0.9999999403953552,
				1,
				1
			],
			"translation":[
				1.1321826078926085e-14,
				1.0724406242370605,
				-5.148233483964759e-08
			]
		},
		{
			"children":[
				0,
				4,
				8
			],
			"name":"\u30dc\u30fc\u30f3.002",
			"rotation":[
				0.01927209086716175,
				1.1000189881161734e-14,
				4.594822744508065e-09,
				0.9998143315315247
			],
			"scale":[
				1,
				1,
				0.9999999403953552
			],
			"translation":[
				2.1316282072803006e-14,
				0.929530680179596,
				-7.450580596923828e-08
			]
		},
		{
			"children":[
				9
			],
			"name":"\u30dc\u30fc\u30f3.001",
			"rotation":[
				-0.09652042388916016,
				1.1865270010957829e-07,
				-1.1506131158967037e-08,
				0.9953309893608093
			],
			"translation":[
				0,
				1.225314736366272,
				3.725290298461914e-09
			]
		},
		{
			"name":"\u30dc\u30fc\u30f3.011",
			"rotation":[
				-0.008424682542681694,
				0.004786991514265537,
				-0.6204394698143005,
				0.7841944694519043
			],
			"scale":[
				1,
				1,
				0.9999999403953552
			],
			"translation":[
				4.9389200285077095e-08,
				2.538454532623291,
				4.696198629972059e-08
			]
		},
		{
			"children":[
				11
			],
			"name":"\u30dc\u30fc\u30f3.010",
			"rotation":[
				-0.010020488873124123,
				0.00015397867537103593,
				0.130216583609581,
				0.9914349317550659
			],
			"scale":[
				1,
				1,
				0.9999998211860657
			],
			"translation":[
				-7.497146725654602e-08,
				2.554536819458008,
				-7.043526295547053e-08
			]
		},
		{
			"children":[
				12
			],
			"name":"\u30dc\u30fc\u30f3.009",
			"rotation":[
				-0.5768923163414001,
				-0.022565793246030807,
				-0.06194205954670906,
				0.8141555190086365
			],
			"scale":[
				1,
				1,
				1.0000001192092896
			],
			"translation":[
				1.6763806343078613e-08,
				0.5768778920173645,
				-4.0397225120614166e-07
			]
		},
		{
			"children":[
				13
			],
			"name":"\u30dc\u30fc\u30f3.008",
			"rotation":[
				-0.5870400071144104,
				-0.41457435488700867,
				-0.5573307871818542,
				0.41580596566200256
			],
			"translation":[
				0,
				3.6694109439849854e-07,
				-1.1175870895385742e-08
			]
		},
		{
			"name":"\u30dc\u30fc\u30f3.019",
			"rotation":[
				0.009061996825039387,
				-0.002816054504364729,
				-0.6204305291175842,
				0.7842040061950684
			],
			"scale":[
				1,
				0.9999998807907104,
				0.9999999403953552
			],
			"translation":[
				3.632158041000366e-08,
				2.5384554862976074,
				1.2791133485734463e-08
			]
		},
		{
			"children":[
				15
			],
			"name":"\u30dc\u30fc\u30f3.018",
			"rotation":[
				0.009741689078509808,
				-0.003749967785552144,
				0.13023777306079865,
				0.9914278984069824
			],
			"scale":[
				1,
				0.9999998211860657,
				1
			],
			"translation":[
				1.0745134204626083e-07,
				2.5545365810394287,
				-1.885928213596344e-08
			]
		},
		{
			"children":[
				16
			],
			"name":"\u30dc\u30fc\u30f3.017",
			"rotation":[
				0.56663578748703,
				0.11626369506120682,
				-0.12476176023483276,
				0.8061272501945496
			],
			"scale":[
				0.9999999403953552,
				1.000000238418579,
				0.9999999403953552
			],
			"translation":[
				-1.0244548320770264e-07,
				0.5768778324127197,
				-1.0803341865539551e-07
			]
		},
		{
			"children":[
				17
			],
			"name":"\u30dc\u30fc\u30f3.016",
			"rotation":[
				0.6197851300239563,
				-0.45977115631103516,
				0.520672619342804,
				0.36520811915397644
			],
			"translation":[
				0,
				3.67872416973114e-07,
				1.862645149230957e-08
			]
		},
		{
			"children":[
				10,
				14,
				18
			],
			"name":"\u30dc\u30fc\u30f3",
			"rotation":[
				0.017342383041977882,
				0,
				0,
				0.9998496770858765
			],
			"scale":[
				1,
				0.9999999403953552,
				0.9999999403953552
			],
			"translation":[
				0,
				0.05507183074951172,
				-0.04249337315559387
			]
		},
		{
			"mesh":0,
			"name":"\u7acb\u65b9\u4f53",
			"skin":0
		},
		{
			"children":[
				20,
				19
			],
			"name":"\u30a2\u30fc\u30de\u30c1\u30e5\u30a2",
			"scale":[
				0.1436784863471985,
				0.1436784863471985,
				0.1436784863471985
			],
			"translation":[
				0,
				0.8355681300163269,
				0.039562880992889404
			]
		}
	],
	"meshes":[
		{
			"name":"\u7acb\u65b9\u4f53.001",
			"primitives":[
				{
					"attributes":{
						"POSITION":0,
						"NORMAL":1,
						"TEXCOORD_0":2,
						"JOINTS_0":3,
						"WEIGHTS_0":4
					},
					"indices":5
				}
			]
		}
	],
	"skins":[
		{
			"inverseBindMatrices":6,
			"joints":[
				19,
				10,
				9,
				0,
				4,
				3,
				2,
				1,
				8,
				7,
				6,
				5,
				14,
				13,
				12,
				11,
				18,
				17,
				16,
				15
			],
			"name":"\u30a2\u30fc\u30de\u30c1\u30e5\u30a2"
		}
	],
	"accessors":[
		{
			"bufferView":0,
			"componentType":5126,
			"count":2912,
			"max":[
				0.6588665843009949,
				1.7233211994171143,
				0.21343925595283508
			],
			"min":[
				-0.6588665843009949,
				0.004345482215285301,
				-0.18735185265541077
			],
			"type":"VEC3"
		},
		{
			"bufferView":1,
			"componentType":5126,
			"count":2912,
			"type":"VEC3"
		},
		{
			"bufferView":2,
			"componentType":5126,
			"count":2912,
			"type":"VEC2"
		},
		{
			"bufferView":3,
			"componentType":5121,
			"count":2912,
			"type":"VEC4"
		},
		{
			"bufferView":4,
			"componentType":5126,
			"count":2912,
			"type":"VEC4"
		},
		{
			"bufferView":5,
			"componentType":5123,
			"count":3351,
			"type":"SCALAR"
		},
		{
			"bufferView":6,
			"componentType":5126,
			"count":20,
			"type":"MAT4"
		}
	],
	"bufferViews":[
		{
			"buffer":0,
			"byteLength":34944,
			"byteOffset":0,
			"target":34962
		},
		{
			"buffer":0,
			"byteLength":34944,
			"byteOffset":34944,
			"target":34962
		},
		{
			"buffer":0,
			"byteLength":23296,
			"byteOffset":69888,
			"target":34962
		},
		{
			"buffer":0,
			"byteLength":11648,
			"byteOffset":93184,
			"target":34962
		},
		{
			"buffer":0,
			"byteLength":46592,
			"byteOffset":104832,
			"target":34962
		},
		{
			"buffer":0,
			"byteLength":6702,
			"byteOffset":151424,
			"target":34963
		},
		{
			"buffer":0,
			"byteLength":1280,
			"byteOffset":158128
		}
	],
	"buffers":[
		{
			"byteLength":159408,
			"uri":"bone.bin"
		}
	]
}
