# Blender 5.1.0
# www.blender.org
mtllib tutorialStage.mtl
o ground
v 6.958798 0.000000 -5.596034
v -6.958798 0.000000 -5.596034
v 6.958798 0.000000 10.697399
v -6.958798 0.000000 10.697399
v 1.323788 0.000000 -5.596034
v -1.323788 0.000000 -5.596034
v -1.323788 0.000000 10.697399
v 1.323788 0.000000 10.697399
v -1.323788 0.000000 33.741955
v 1.323788 0.000000 33.741955
v -1.323788 0.000000 60.014603
v 1.323788 0.000000 60.014603
v -14.674124 0.000000 33.741955
v 14.674124 0.000000 33.741955
v -14.674124 0.000000 60.014603
v 14.674124 0.000000 60.014603
v 1.323788 0.000000 51.257053
v 1.323788 0.000000 42.499504
v -1.323788 0.000000 42.499504
v -1.323788 0.000000 51.257053
v 14.674124 0.000000 51.257053
v 14.674124 0.000000 42.499504
v -14.674124 0.000000 42.499504
v -14.674124 0.000000 51.257053
v -50.107201 0.000000 42.499504
v -50.107201 0.000000 51.257053
v -60.041702 0.000000 42.499504
v -60.041702 0.000000 51.257053
v -50.107201 0.000000 69.932228
v -60.041702 0.000000 69.932228
v -50.107201 0.000000 90.031631
v -60.041702 0.000000 90.031631
v -99.840813 0.000000 90.031631
v -89.788620 0.000000 69.932228
v -99.840813 0.000000 69.932228
v -89.788620 0.000000 90.031631
v -99.840813 0.000000 119.875175
v -89.788620 0.000000 119.875175
v -105.349396 0.000000 189.939941
v -84.280060 0.000000 189.939941
v -129.596939 0.000000 119.875175
v -60.032532 0.000000 119.875175
v -129.596939 0.000000 189.939941
v -60.032532 0.000000 189.939941
v -105.349396 0.000000 219.743515
v -84.280060 0.000000 219.743515
v -105.349396 0.000000 239.885544
v -84.280060 0.000000 239.885544
v -29.982445 0.000000 219.743515
v -29.982445 0.000000 239.885544
v 29.945242 0.000000 219.743515
v 29.945242 0.000000 239.885544
v -29.982445 0.000000 200.091888
v -29.982445 0.000000 259.537170
v 29.945242 0.000000 200.091888
v 29.945242 0.000000 259.537170
v 99.979576 0.000000 219.743515
v 99.979576 0.000000 239.885544
v 199.677338 0.000000 219.743515
v 199.677338 0.000000 239.885544
v 99.979576 0.000000 180.096054
v 99.979576 0.000000 279.533020
v 199.677338 0.000000 180.096054
v 199.677338 0.000000 279.533020
v 6.958798 -39.935493 10.697399
v 6.958798 -39.935493 -5.596034
v -1.323788 -39.935493 -5.596034
v -6.958798 -39.935493 -5.596034
v -6.958798 -39.935493 10.697399
v 1.323788 -39.935493 10.697399
v 1.323788 -39.935493 -5.596034
v -1.323788 -39.935493 10.697399
v -1.323788 -39.935493 33.741955
v 1.323788 -39.935493 33.741955
v -1.323788 -39.935493 60.014603
v 1.323788 -39.935493 60.014603
v 1.323788 -39.935493 42.499504
v -1.323788 -39.935493 51.257053
v 14.674124 -39.935493 42.499504
v 14.674124 -39.935493 33.741955
v -14.674124 -39.935493 51.257053
v -14.674124 -39.935493 60.014603
v -14.674124 -39.935493 33.741955
v 14.674124 -39.935493 60.014603
v 1.323788 -39.935493 51.257053
v -1.323788 -39.935493 42.499504
v 14.674124 -39.935493 51.257053
v -14.674124 -39.935493 42.499504
v -50.107201 -39.935493 42.499504
v -50.107201 -39.935493 51.257053
v -60.041702 -39.935493 42.499504
v -60.041702 -39.935493 51.257053
v -60.041702 -39.935493 69.932228
v -50.107201 -39.935493 69.932228
v -60.041702 -39.935493 90.031631
v -50.107201 -39.935493 90.031631
v -89.788620 -39.935493 69.932228
v -99.840813 -39.935493 69.932228
v -89.788620 -39.935493 90.031631
v -99.840813 -39.935493 90.031631
v -99.840813 -39.935493 119.875175
v -89.788620 -39.935493 119.875175
v -105.349396 -39.935493 189.939941
v -84.280060 -39.935493 189.939941
v -60.032532 -39.935493 189.939941
v -60.032532 -39.935493 119.875175
v -129.596939 -39.935493 119.875175
v -129.596939 -39.935493 189.939941
v -105.349396 -39.935493 219.743515
v -84.280060 -39.935493 219.743515
v -105.349396 -39.935493 239.885544
v -84.280060 -39.935493 239.885544
v -29.982445 -39.935493 239.885544
v -29.982445 -39.935493 219.743515
v 29.945242 -39.935493 239.885544
v 29.945242 -39.935493 219.743515
v 29.945242 -39.935493 200.091888
v -29.982445 -39.935493 200.091888
v -29.982445 -39.935493 259.537170
v 29.945242 -39.935493 259.537170
v 99.979576 -39.935493 239.885544
v 99.979576 -39.935493 219.743515
v 199.677338 -39.935493 239.885544
v 199.677338 -39.935493 219.743515
v 199.677338 -39.935493 180.096054
v 99.979576 -39.935493 180.096054
v 99.979576 -39.935493 279.533020
v 199.677338 -39.935493 279.533020
vn -0.0000 1.0000 -0.0000
vn -0.0000 -1.0000 -0.0000
vn 1.0000 -0.0000 -0.0000
vn -0.0000 -0.0000 -1.0000
vn -0.0000 -0.0000 1.0000
vn -1.0000 -0.0000 -0.0000
vt 0.801768 0.896984
vt 0.785980 0.888944
vt 0.797598 0.901002
vt 0.795638 0.902889
vt 0.779851 0.894850
vt 0.791468 0.906908
vt 0.784021 0.890832
vt 0.767589 0.873779
vt 0.757060 0.858930
vt 0.748856 0.854337
vt 0.755100 0.860817
vt 0.769548 0.871891
vt 0.773183 0.855891
vt 0.763304 0.865410
vt 0.745221 0.870337
vt 0.761345 0.867298
vt 0.757710 0.883298
vt 0.751465 0.876817
vt 0.760694 0.842930
vt 0.750815 0.852449
vt 0.766939 0.849410
vt 0.793160 0.824145
vt 0.799404 0.830626
vt 0.800512 0.817062
vt 0.779844 0.810325
vt 0.787196 0.803242
vt 0.765512 0.795452
vt 0.794877 0.767157
vt 0.772864 0.788368
vt 0.809209 0.782031
vt 0.802316 0.759990
vt 0.773598 0.745073
vt 0.781036 0.737905
vt 0.719563 0.697152
vt 0.735154 0.682128
vt 0.803056 0.716688
vt 0.753098 0.664839
vt 0.751578 0.766290
vt 0.698312 0.675096
vt 0.713903 0.660073
vt 0.683950 0.660191
vt 0.658131 0.713813
vt 0.643769 0.698907
vt 0.613783 0.756543
vt 0.585409 0.727095
vt 0.599421 0.741638
vt 0.672143 0.728355
vt 0.561957 0.806480
vt 0.547595 0.791575
vt 0.488179 0.877568
vt 0.445547 0.833323
vt 0.473817 0.862662
vt 0.590227 0.835820
vt 0.883717 0.616636
vt 0.883148 0.622557
vt 0.884083 0.622475
vt 0.886304 0.619621
vt 0.884686 0.622430
vt 0.885769 0.622424
vt 0.884895 0.616550
vt 0.884360 0.603837
vt 0.889424 0.592556
vt 0.886122 0.594387
vt 0.887083 0.595076
vt 0.876466 0.593045
vt 0.882818 0.603708
vt 0.884052 0.598160
vt 0.891339 0.597206
vt 0.890241 0.602136
vt 0.885299 0.598607
vt 0.890685 0.599672
vt 0.886293 0.588220
vt 0.888831 0.591731
vt 0.880482 0.587799
vt 0.860550 0.568750
vt 0.853247 0.567574
vt 0.858087 0.574908
vt 0.858851 0.554776
vt 0.859826 0.544529
vt 0.850985 0.554461
vt 0.838297 0.526025
vt 0.856069 0.541449
vt 0.830408 0.526178
vt 0.834527 0.540980
vt 0.830264 0.498545
vt 0.813828 0.435124
vt 0.822068 0.501869
vt 0.797227 0.443625
vt 0.799387 0.493783
vt 0.842966 0.479101
vt 0.801092 0.400642
vt 0.782822 0.389344
vt 0.784500 0.416083
vt 0.815530 0.330795
vt 0.824927 0.260232
vt 0.792470 0.328592
vt 0.784182 0.268988
vt 0.802892 0.257910
vt 0.833279 0.320278
vt 0.840815 0.165294
vt 0.844391 0.081113
vt 0.820601 0.163363
vt 0.811861 0.081363
vt 0.831185 0.080035
vt 0.871141 0.140341
vt 0.882753 0.547153
vt 0.876642 0.534565
vt 0.903240 0.613946
vt 0.905998 0.605699
vt 0.844058 0.399593
vt 0.857176 0.353983
vt 0.906140 0.592153
vt 0.903643 0.585679
vt 0.745941 0.332973
vt 0.745004 0.386934
vt 0.812868 0.550948
vt 0.816601 0.555489
vt 0.873819 0.530140
vt 0.867085 0.516842
vt 0.826327 0.568519
vt 0.844163 0.281105
vt 0.868151 0.332581
vt 0.874253 0.276110
vt 0.892197 0.595079
vt 0.906740 0.597185
vt 0.889579 0.633911
vt 0.896813 0.626982
vt 0.773276 0.308966
vt 0.746839 0.256304
vt 0.742434 0.315540
vt 0.829241 0.538179
vt 0.805097 0.538197
vt 0.906594 0.601440
vt 0.883547 0.635078
vt 0.885883 0.634804
vt 0.757916 0.232977
vt 0.875940 0.599179
vt 0.852034 0.606839
vt 0.856018 0.613036
vt 0.872750 0.632483
vt 0.865444 0.500372
vt 0.897945 0.625272
vt 0.795629 0.520803
vt 0.886822 0.634651
vt 0.871781 0.258801
vt 0.882252 0.620606
vt 0.870203 0.630301
vt 0.886938 0.188441
vt 0.774469 0.162554
vt 0.838026 0.446314
vt 0.868198 0.477125
vt 0.856320 0.434742
vt 0.850164 0.046405
vt 0.830003 0.045434
vt 0.757677 0.470701
vt 0.784148 0.509386
vt 0.784875 0.464030
vt 0.755326 0.446988
vt 0.896562 0.575179
vt 0.886921 0.558367
vt 0.870734 0.087432
vt 0.906740 0.147200
vt 0.891204 0.060486
vt 0.839341 0.589126
vt 0.860630 0.619343
vt 0.793489 0.123308
vt 0.791431 0.058905
vt 0.768304 0.125646
vt 0.848400 0.420804
vt 0.852996 0.572452
vt 0.832234 0.578888
vt 0.835768 0.584379
vt 0.903143 0.584682
vt 0.751351 0.425037
vt 0.774869 0.403237
vt 0.746748 0.408798
vt 0.898831 0.578004
vt 0.790150 0.884926
vt 0.779428 0.862372
vt 0.738976 0.863856
vt 0.806756 0.823542
vt 0.816648 0.774864
vt 0.701619 0.714441
vt 0.699541 0.645168
vt 0.629757 0.684365
vt 0.627796 0.771086
vt 0.519325 0.762235
vt 0.516449 0.906908
s 0
usemtl Material
f 2/1/1 7/2/1 6/3/1
f 5/4/1 3/5/1 1/6/1
f 6/3/1 8/7/1 5/4/1
f 7/2/1 10/8/1 8/7/1
f 20/9/1 12/10/1 17/11/1
f 9/12/1 23/13/1 19/14/1
f 12/10/1 21/15/1 17/11/1
f 18/16/1 14/17/1 10/8/1
f 17/11/1 22/18/1 18/16/1
f 20/9/1 15/19/1 11/20/1
f 19/14/1 24/21/1 20/9/1
f 9/12/1 18/16/1 10/8/1
f 19/14/1 17/11/1 18/16/1
f 23/13/1 26/22/1 24/21/1
f 25/23/1 28/24/1 26/22/1
f 28/24/1 29/25/1 26/22/1
f 30/26/1 31/27/1 29/25/1
f 30/26/1 36/28/1 32/29/1
f 34/30/1 33/31/1 36/28/1
f 33/31/1 38/32/1 36/28/1
f 37/33/1 40/34/1 38/32/1
f 39/35/1 41/36/1 43/37/1
f 40/34/1 42/38/1 38/32/1
f 39/35/1 46/39/1 40/34/1
f 45/40/1 48/41/1 46/39/1
f 48/41/1 49/42/1 46/39/1
f 50/43/1 51/44/1 49/42/1
f 50/43/1 56/45/1 52/46/1
f 51/44/1 53/47/1 49/42/1
f 52/46/1 57/48/1 51/44/1
f 58/49/1 59/50/1 57/48/1
f 58/49/1 64/51/1 60/52/1
f 59/50/1 61/53/1 57/48/1
f 72/54/2 68/55/2 67/56/2
f 65/57/2 71/58/2 66/59/2
f 70/60/2 67/56/2 71/58/2
f 74/61/2 72/54/2 70/60/2
f 76/62/2 78/63/2 85/64/2
f 88/65/2 73/66/2 86/67/2
f 87/68/2 76/62/2 85/64/2
f 80/69/2 77/70/2 74/61/2
f 79/71/2 85/64/2 77/70/2
f 82/72/2 78/63/2 75/73/2
f 81/74/2 86/67/2 78/63/2
f 77/70/2 73/66/2 74/61/2
f 85/64/2 86/67/2 77/70/2
f 90/75/2 88/65/2 81/74/2
f 92/76/2 89/77/2 90/75/2
f 94/78/2 92/76/2 90/75/2
f 96/79/2 93/80/2 94/78/2
f 99/81/2 93/80/2 95/82/2
f 100/83/2 97/84/2 99/81/2
f 102/85/2 100/83/2 99/81/2
f 104/86/2 101/87/2 102/85/2
f 103/88/2 107/89/2 101/87/2
f 106/90/2 104/86/2 102/85/2
f 110/91/2 103/88/2 104/86/2
f 112/92/2 109/93/2 110/91/2
f 114/94/2 112/92/2 110/91/2
f 116/95/2 113/96/2 114/94/2
f 120/97/2 113/96/2 115/98/2
f 118/99/2 116/95/2 114/94/2
f 122/100/2 115/98/2 116/95/2
f 124/101/2 121/102/2 122/100/2
f 128/103/2 121/102/2 123/104/2
f 126/105/2 124/101/2 122/100/2
f 96/79/3 29/106/3 31/107/3
f 80/69/4 10/108/4 14/109/4
f 114/94/4 46/110/4 49/111/4
f 76/62/5 16/112/5 12/113/5
f 112/92/5 50/114/5 48/115/5
f 97/84/4 35/116/4 34/117/4
f 99/81/5 32/118/5 36/119/5
f 93/80/4 34/117/4 30/120/4
f 117/121/4 53/122/4 55/123/4
f 84/124/3 21/125/3 16/112/3
f 65/57/3 1/126/3 3/127/3
f 119/128/5 56/129/5 54/130/5
f 98/131/6 33/132/6 35/116/6
f 87/68/3 22/133/3 21/125/3
f 67/56/4 2/134/4 6/135/4
f 120/97/3 52/136/3 56/129/3
f 83/137/6 23/138/6 13/139/6
f 68/55/6 4/140/6 2/134/6
f 113/96/6 54/130/6 50/114/6
f 102/85/3 36/119/3 38/141/3
f 70/60/5 3/127/5 8/142/5
f 118/99/6 49/111/6 53/122/6
f 100/83/6 37/143/6 33/132/6
f 66/59/4 5/144/4 1/126/4
f 116/95/3 55/123/3 51/145/3
f 71/58/4 6/135/4 5/144/4
f 69/146/5 7/147/5 4/140/5
f 122/100/4 51/145/4 57/148/4
f 115/98/5 58/149/5 52/136/5
f 105/150/3 42/151/3 44/152/3
f 123/104/3 59/153/3 60/154/3
f 107/89/6 43/155/6 41/156/6
f 108/157/5 39/158/5 43/155/5
f 101/87/4 41/156/4 37/143/4
f 90/75/5 24/159/5 26/160/5
f 74/61/3 8/142/3 10/108/3
f 125/161/4 61/162/4 63/163/4
f 106/90/4 38/141/4 42/151/4
f 88/65/4 25/164/4 23/138/4
f 72/54/6 9/165/6 7/147/6
f 127/166/5 64/167/5 62/168/5
f 104/86/5 44/152/5 40/169/5
f 91/170/6 28/171/6 27/172/6
f 75/73/5 12/113/5 11/173/5
f 128/103/3 60/154/3 64/167/3
f 121/102/6 62/168/6 58/149/6
f 110/91/3 40/169/3 46/110/3
f 89/77/4 27/172/4 25/164/4
f 126/105/6 57/148/6 61/162/6
f 103/88/6 45/174/6 39/158/6
f 79/71/3 14/109/3 22/133/3
f 124/101/3 63/163/3 59/153/3
f 111/175/5 48/115/5 47/176/5
f 94/78/3 26/160/3 29/106/3
f 81/74/6 15/177/6 24/159/6
f 92/76/6 30/120/6 28/171/6
f 82/72/5 11/173/5 15/177/5
f 109/93/6 47/176/6 45/174/6
f 95/82/5 31/107/5 32/118/5
f 73/66/4 13/139/4 9/165/4
f 2/1/1 4/178/1 7/2/1
f 5/4/1 8/7/1 3/5/1
f 6/3/1 7/2/1 8/7/1
f 7/2/1 9/12/1 10/8/1
f 20/9/1 11/20/1 12/10/1
f 9/12/1 13/179/1 23/13/1
f 12/10/1 16/180/1 21/15/1
f 18/16/1 22/18/1 14/17/1
f 17/11/1 21/15/1 22/18/1
f 20/9/1 24/21/1 15/19/1
f 19/14/1 23/13/1 24/21/1
f 9/12/1 19/14/1 18/16/1
f 19/14/1 20/9/1 17/11/1
f 23/13/1 25/23/1 26/22/1
f 25/23/1 27/181/1 28/24/1
f 28/24/1 30/26/1 29/25/1
f 30/26/1 32/29/1 31/27/1
f 30/26/1 34/30/1 36/28/1
f 34/30/1 35/182/1 33/31/1
f 33/31/1 37/33/1 38/32/1
f 37/33/1 39/35/1 40/34/1
f 39/35/1 37/33/1 41/36/1
f 40/34/1 44/183/1 42/38/1
f 39/35/1 45/40/1 46/39/1
f 45/40/1 47/184/1 48/41/1
f 48/41/1 50/43/1 49/42/1
f 50/43/1 52/46/1 51/44/1
f 50/43/1 54/185/1 56/45/1
f 51/44/1 55/186/1 53/47/1
f 52/46/1 58/49/1 57/48/1
f 58/49/1 60/52/1 59/50/1
f 58/49/1 62/187/1 64/51/1
f 59/50/1 63/188/1 61/53/1
f 72/54/2 69/146/2 68/55/2
f 65/57/2 70/60/2 71/58/2
f 70/60/2 72/54/2 67/56/2
f 74/61/2 73/66/2 72/54/2
f 76/62/2 75/73/2 78/63/2
f 88/65/2 83/137/2 73/66/2
f 87/68/2 84/124/2 76/62/2
f 80/69/2 79/71/2 77/70/2
f 79/71/2 87/68/2 85/64/2
f 82/72/2 81/74/2 78/63/2
f 81/74/2 88/65/2 86/67/2
f 77/70/2 86/67/2 73/66/2
f 85/64/2 78/63/2 86/67/2
f 90/75/2 89/77/2 88/65/2
f 92/76/2 91/170/2 89/77/2
f 94/78/2 93/80/2 92/76/2
f 96/79/2 95/82/2 93/80/2
f 99/81/2 97/84/2 93/80/2
f 100/83/2 98/131/2 97/84/2
f 102/85/2 101/87/2 100/83/2
f 104/86/2 103/88/2 101/87/2
f 103/88/2 108/157/2 107/89/2
f 106/90/2 105/150/2 104/86/2
f 110/91/2 109/93/2 103/88/2
f 112/92/2 111/175/2 109/93/2
f 114/94/2 113/96/2 112/92/2
f 116/95/2 115/98/2 113/96/2
f 120/97/2 119/128/2 113/96/2
f 118/99/2 117/121/2 116/95/2
f 122/100/2 121/102/2 115/98/2
f 124/101/2 123/104/2 121/102/2
f 128/103/2 127/166/2 121/102/2
f 126/105/2 125/161/2 124/101/2
f 96/79/3 94/78/3 29/106/3
f 80/69/4 74/61/4 10/108/4
f 114/94/4 110/91/4 46/110/4
f 76/62/5 84/124/5 16/112/5
f 112/92/5 113/96/5 50/114/5
f 97/84/4 98/131/4 35/116/4
f 99/81/5 95/82/5 32/118/5
f 93/80/4 97/84/4 34/117/4
f 117/121/4 118/99/4 53/122/4
f 84/124/3 87/68/3 21/125/3
f 65/57/3 66/59/3 1/126/3
f 119/128/5 120/97/5 56/129/5
f 98/131/6 100/83/6 33/132/6
f 87/68/3 79/71/3 22/133/3
f 67/56/4 68/55/4 2/134/4
f 120/97/3 115/98/3 52/136/3
f 83/137/6 88/65/6 23/138/6
f 68/55/6 69/146/6 4/140/6
f 113/96/6 119/128/6 54/130/6
f 102/85/3 99/81/3 36/119/3
f 70/60/5 65/57/5 3/127/5
f 118/99/6 114/94/6 49/111/6
f 100/83/6 101/87/6 37/143/6
f 66/59/4 71/58/4 5/144/4
f 116/95/3 117/121/3 55/123/3
f 71/58/4 67/56/4 6/135/4
f 69/146/5 72/54/5 7/147/5
f 122/100/4 116/95/4 51/145/4
f 115/98/5 121/102/5 58/149/5
f 105/150/3 106/90/3 42/151/3
f 123/104/3 124/101/3 59/153/3
f 107/89/6 108/157/6 43/155/6
f 108/157/5 103/88/5 39/158/5
f 101/87/4 107/89/4 41/156/4
f 90/75/5 81/74/5 24/159/5
f 74/61/3 70/60/3 8/142/3
f 125/161/4 126/105/4 61/162/4
f 106/90/4 102/85/4 38/141/4
f 88/65/4 89/77/4 25/164/4
f 72/54/6 73/66/6 9/165/6
f 127/166/5 128/103/5 64/167/5
f 104/86/5 105/150/5 44/152/5
f 91/170/6 92/76/6 28/171/6
f 75/73/5 76/62/5 12/113/5
f 128/103/3 123/104/3 60/154/3
f 121/102/6 127/166/6 62/168/6
f 110/91/3 104/86/3 40/169/3
f 89/77/4 91/170/4 27/172/4
f 126/105/6 122/100/6 57/148/6
f 103/88/6 109/93/6 45/174/6
f 79/71/3 80/69/3 14/109/3
f 124/101/3 125/161/3 63/163/3
f 111/175/5 112/92/5 48/115/5
f 94/78/3 90/75/3 26/160/3
f 81/74/6 82/72/6 15/177/6
f 92/76/6 93/80/6 30/120/6
f 82/72/5 75/73/5 11/173/5
f 109/93/6 111/175/6 47/176/6
f 95/82/5 96/79/5 31/107/5
f 73/66/4 83/137/4 13/139/4
o sea
v 1000.000000 -3.701875 -870.693970
v 1000.000000 -3.701875 1129.306030
v -1000.000000 -3.701875 -870.693970
v -1000.000000 -3.701875 1129.306030
vn -0.0000 1.0000 -0.0000
vt 0.550715 0.276906
vt 0.276906 0.550715
vt 0.276906 0.276906
vt 0.550715 0.550715
s 0
usemtl Material
f 131/189/7 130/190/7 129/191/7
f 131/189/7 132/192/7 130/190/7
